<svg width="32" height="32" viewBox="0 0 32 32" fill="none" xmlns="http://www.w3.org/2000/svg">
<mask id="mask0_2054_1694" style="mask-type:luminance" maskUnits="userSpaceOnUse" x="0" y="0" width="32" height="32">
<path d="M32 0H0V32H32V0Z" fill="white"/>
</mask>
<g mask="url(#mask0_2054_1694)">
<path d="M10 29.998C8.93917 29.998 7.92205 29.5766 7.17191 28.8265C6.42176 28.0763 6.00003 27.0589 6.00003 25.998V7.00204C5.99898 6.87075 6.02344 6.74055 6.07295 6.61895C6.12246 6.49734 6.19663 6.38675 6.2891 6.29354C6.38156 6.20033 6.49081 6.12634 6.61201 6.07586C6.73321 6.02537 6.86353 5.99938 6.99482 5.99938C7.12655 5.9992 7.25721 6.02502 7.37894 6.07535C7.50067 6.12567 7.61132 6.19952 7.70446 6.29266C7.7976 6.3858 7.87158 6.49641 7.92191 6.61813C7.97223 6.73986 7.9976 6.87032 7.99743 7.00204V25.998C7.99743 26.5285 8.20829 27.0372 8.58337 27.4123C8.95844 27.7873 9.467 27.998 9.99743 27.998H21.0026C21.1338 27.9984 21.2631 28.0246 21.3841 28.0752C21.5052 28.1258 21.616 28.1998 21.7084 28.293C21.8008 28.3861 21.8736 28.4966 21.9232 28.618C21.9728 28.7395 21.9981 28.8695 21.9974 29.0007C21.9978 29.1315 21.9718 29.2611 21.9219 29.382C21.8721 29.5029 21.7995 29.6128 21.7071 29.7053C21.6146 29.7978 21.505 29.8712 21.3841 29.9212C21.2633 29.9712 21.1334 29.9969 21.0026 29.9967L10 29.998ZM14 25.998C12.9408 25.9981 11.9244 25.5779 11.1745 24.8298C10.4246 24.0816 10.0025 23.0666 10 22.0074V5.99805C10.0021 4.93783 10.4248 3.92164 11.1745 3.17196C11.9242 2.42227 12.9398 2.00016 14 1.99805H22C23.0604 1.99981 24.0771 2.42181 24.8269 3.17157C25.5766 3.92133 25.9983 4.93772 26 5.99805V21.998C25.9976 23.0573 25.5754 24.0723 24.8256 24.8204C24.0757 25.5686 23.0593 25.9887 22 25.9887L14 25.998ZM14 16.0074V19.0074C14.0014 19.2709 14.1068 19.5232 14.293 19.7096C14.4792 19.8961 14.7313 20.0016 14.9948 20.0034H21.0026C21.2662 20.002 21.5182 19.8966 21.7045 19.71C21.8907 19.5235 21.9964 19.271 21.9974 19.0074V15.998C21.9974 15.4676 21.7866 14.9589 21.4115 14.5838C21.0364 14.2088 20.5279 13.998 19.9974 13.998H15.9974C15.4675 13.9988 14.9592 14.2098 14.5847 14.5848C14.2102 14.9598 14 15.4681 14 15.998V16.0074ZM15.6003 10.4074C15.6003 11.0439 15.8533 11.6544 16.3034 12.1044C16.7535 12.5545 17.3635 12.8074 18 12.8074C18.6359 12.8053 19.2457 12.5517 19.6953 12.1021C20.145 11.6525 20.3977 11.0433 20.3998 10.4074C20.3977 9.77151 20.145 9.16229 19.6953 8.71266C19.2457 8.26303 18.6359 8.00949 18 8.00739C17.3651 8.00738 16.7558 8.25895 16.306 8.70702C15.8562 9.15509 15.6028 9.76315 15.6003 10.3981V10.4074Z" fill="#226CF2"/>
</g>
</svg>
