<svg width="60" height="60" viewBox="0 0 24 24" fill="none" xmlns="http://www.w3.org/2000/svg">
<g clip-path="url(#clip0_5_15164)">
<mask id="mask0_5_15164" style="mask-type:luminance" maskUnits="userSpaceOnUse" x="0" y="0" width="24" height="24">
<path d="M24 0H0V24H24V0Z" fill="white"/>
</mask>
<g mask="url(#mask0_5_15164)">
<path d="M20.415 4.46962L19.53 3.58462C19.3443 3.39867 19.1237 3.25115 18.8809 3.1505C18.6381 3.04985 18.3778 2.99805 18.115 2.99805C17.8522 2.99805 17.5919 3.04985 17.3491 3.1505C17.1063 3.25115 16.8857 3.39867 16.7 3.58462L8.22 12.0696C8.1251 12.161 8.05757 12.277 8.025 12.4046L6.965 16.2946C6.9302 16.4215 6.92944 16.5553 6.9628 16.6826C6.99615 16.8099 7.06244 16.9261 7.155 17.0196L7.17 17.0346C7.26896 17.1282 7.39155 17.1929 7.52458 17.222C7.65761 17.2511 7.79604 17.2433 7.925 17.1996L11.635 15.9646C11.7475 15.9285 11.8502 15.8669 11.935 15.7846L20.415 7.29962C20.601 7.11387 20.7485 6.8933 20.8491 6.6505C20.9498 6.4077 21.0016 6.14745 21.0016 5.88462C21.0016 5.62179 20.9498 5.36154 20.8491 5.11874C20.7485 4.87594 20.601 4.65537 20.415 4.46962ZM18 17.9996C18 18.3974 17.842 18.779 17.5607 19.0603C17.2794 19.3416 16.8978 19.4996 16.5 19.4996H6C5.60218 19.4996 5.22064 19.3416 4.93934 19.0603C4.65804 18.779 4.5 18.3974 4.5 17.9996V7.49962C4.5 7.1018 4.65804 6.72026 4.93934 6.43896C5.22064 6.15766 5.60218 5.99962 6 5.99962H11.25C11.4489 5.99962 11.6397 5.9206 11.7803 5.77995C11.921 5.6393 12 5.44853 12 5.24962C12 5.05071 11.921 4.85994 11.7803 4.71929C11.6397 4.57864 11.4489 4.49962 11.25 4.49962H6C5.20435 4.49962 4.44129 4.81569 3.87868 5.3783C3.31607 5.94091 3 6.70397 3 7.49962L3 17.9996C3 18.7953 3.31607 19.5583 3.87868 20.1209C4.44129 20.6835 5.20435 20.9996 6 20.9996H16.5C17.2956 20.9996 18.0587 20.6835 18.6213 20.1209C19.1839 19.5583 19.5 18.7953 19.5 17.9996V12.7896C19.5 12.5907 19.421 12.3999 19.2803 12.2593C19.1397 12.1186 18.9489 12.0396 18.75 12.0396C18.5511 12.0396 18.3603 12.1186 18.2197 12.2593C18.079 12.3999 18 12.5907 18 12.7896V17.9996Z" fill="#226CF2"/>
</g>
</g>
<defs>
<clipPath id="clip0_5_15164">
<rect width="24" height="24" fill="white"/>
</clipPath>
</defs>
</svg>
