<svg width="6" height="22" viewBox="0 0 6 22" fill="none" xmlns="http://www.w3.org/2000/svg">
<path d="M3 17C3.44501 17 3.88002 17.132 4.25003 17.3792C4.62004 17.6264 4.90843 17.9778 5.07873 18.389C5.24903 18.8001 5.29358 19.2525 5.20677 19.689C5.11995 20.1254 4.90566 20.5263 4.59099 20.841C4.27632 21.1557 3.87541 21.37 3.43895 21.4568C3.0025 21.5436 2.5501 21.499 2.13896 21.3287C1.72783 21.1584 1.37643 20.87 1.12919 20.5C0.88196 20.13 0.75 19.695 0.75 19.25C0.75 18.6533 0.987053 18.081 1.40901 17.659C1.83097 17.2371 2.40326 17 3 17Z" fill="#226CF2"/>
<path d="M3 8.75C3.44501 8.75 3.88002 8.88196 4.25003 9.12919C4.62004 9.37643 4.90843 9.72783 5.07873 10.139C5.24903 10.5501 5.29358 11.0025 5.20677 11.439C5.11995 11.8754 4.90566 12.2763 4.59099 12.591C4.27632 12.9057 3.87541 13.12 3.43895 13.2068C3.0025 13.2936 2.5501 13.249 2.13896 13.0787C1.72783 12.9084 1.37643 12.62 1.12919 12.25C0.88196 11.88 0.75 11.445 0.75 11C0.75 10.4033 0.987053 9.83097 1.40901 9.40901C1.83097 8.98705 2.40326 8.75 3 8.75Z" fill="#226CF2"/>
<path d="M3 0.5C3.44501 0.5 3.88002 0.63196 4.25003 0.879193C4.62004 1.12643 4.90843 1.47783 5.07873 1.88896C5.24903 2.3001 5.29358 2.7525 5.20677 3.18895C5.11995 3.62541 4.90566 4.02632 4.59099 4.34099C4.27632 4.65566 3.87541 4.86995 3.43895 4.95677C3.0025 5.04358 2.5501 4.99903 2.13896 4.82873C1.72783 4.65843 1.37643 4.37004 1.12919 4.00003C0.88196 3.63002 0.75 3.19501 0.75 2.75C0.75 2.15326 0.987053 1.58097 1.40901 1.15901C1.83097 0.737053 2.40326 0.5 3 0.5Z" fill="#226CF2"/>
</svg>
