<svg width="28" height="24" viewBox="0 0 28 24" fill="none" xmlns="http://www.w3.org/2000/svg">
<path d="M23.8333 22.9994H4.13333C3.63573 23.0467 3.13369 22.9951 2.65613 22.8476C2.17856 22.7 1.7349 22.4594 1.35071 22.1397C0.966517 21.82 0.64938 21.4274 0.417564 20.9845C0.185749 20.5417 0.0438365 20.0574 0 19.5594L0 4.43811C0.044002 3.94031 0.186035 3.45613 0.417923 3.01344C0.649811 2.57076 0.966973 2.17832 1.35115 1.85871C1.73532 1.5391 2.17892 1.29864 2.65641 1.15117C3.1339 1.0037 3.63584 0.952131 4.13333 0.999439H23.84C24.5165 0.976787 25.1889 1.11368 25.8027 1.39905C26.4165 1.68442 26.9546 2.11025 27.3733 2.64211C27.3798 2.65062 27.387 2.65865 27.3947 2.66611C27.4037 2.67531 27.4122 2.68511 27.42 2.69544C27.4276 2.70646 27.4342 2.71805 27.44 2.73011L27.4533 2.75411C27.7867 3.25265 27.9657 3.83839 27.968 4.43811V7.96077C27.968 8.26344 27.9787 9.74611 27.9867 11.0541C27.9947 12.3621 28 13.8421 28 14.1461L27.9613 19.5594C27.9175 20.0569 27.7757 20.5407 27.5443 20.9832C27.3128 21.4256 26.9961 21.818 26.6125 22.1377C26.2289 22.4573 25.7859 22.698 25.3089 22.8459C24.832 22.9938 24.3305 23.046 23.8333 22.9994ZM2.948 3.39944C2.79942 3.39959 2.65293 3.43452 2.52027 3.50143C2.3876 3.56834 2.27244 3.66538 2.184 3.78477C2.11032 3.8847 2.05707 3.99818 2.02731 4.11871C1.99755 4.23925 1.99185 4.36447 2.01056 4.48721C2.02926 4.60994 2.07199 4.72779 2.1363 4.83399C2.20061 4.94019 2.28523 5.03266 2.38533 5.10611L13.4373 13.2168C13.6004 13.3363 13.7972 13.4007 13.9993 13.4007C14.2015 13.4007 14.3983 13.3363 14.5613 13.2168L25.6133 5.10477C25.7137 5.03154 25.7986 4.93919 25.8631 4.83304C25.9276 4.72689 25.9706 4.60903 25.9894 4.48624C26.0082 4.36345 26.0026 4.23815 25.9728 4.11753C25.9431 3.99692 25.8898 3.88338 25.816 3.78344C25.6667 3.58131 25.4434 3.44661 25.1949 3.40887C24.9465 3.37113 24.6932 3.43343 24.4907 3.58211L14 11.2821L3.50933 3.58344C3.34701 3.46407 3.14949 3.39961 2.948 3.39944Z" fill="#226CF2"/>
</svg>
