<svg width="32" height="32" viewBox="0 0 32 32" fill="none" xmlns="http://www.w3.org/2000/svg">
<path d="M15.952 29.001C14.627 29.001 12.295 27.709 10.695 26.601C8.41238 25.0761 6.48777 23.074 5.05402 20.733C4.45246 19.5988 4.00901 18.3875 3.73602 17.133C3.45883 15.9096 3.26571 14.6687 3.15802 13.419C3.02324 11.9728 2.97548 10.5199 3.01502 9.068C3.04058 8.51663 3.21322 7.98214 3.51502 7.52C3.83037 7.02013 4.30433 6.64054 4.86102 6.442L15.095 3.093C15.371 3.01397 15.6584 2.98218 15.945 2.999C16.2343 2.9832 16.5242 3.01702 16.802 3.099L27.022 6.44C27.5763 6.64459 28.0439 7.03278 28.347 7.54C28.6268 7.98188 28.8028 8.48137 28.862 9.001V9.029C28.989 10.254 29.501 16.576 27.103 20.745C26.3967 21.9258 25.5297 23.0028 24.527 23.945C23.5392 24.8906 22.4738 25.7516 21.342 26.519C19.142 28.028 17.025 29.001 15.952 29.001ZM15.664 5.01L5.49002 8.34C5.3644 8.39761 5.25962 8.4926 5.19002 8.612C5.08522 8.77103 5.02417 8.95487 5.01302 9.145C4.97657 10.5095 5.02231 11.875 5.15002 13.234C5.25097 14.3923 5.43106 15.5423 5.68902 16.676C5.91985 17.7518 6.29632 18.791 6.80802 19.765C8.09166 21.8399 9.80767 23.6135 11.839 24.965C13.0598 25.9112 14.4575 26.6035 15.95 27.001C17.4998 26.5812 18.951 25.8587 20.22 24.875C21.2576 24.172 22.2343 23.3833 23.14 22.517C24.008 21.7038 24.7591 20.7743 25.372 19.755C27.463 16.119 26.991 10.355 26.872 9.242V9.208C26.8439 8.99468 26.7698 8.78999 26.655 8.608C26.5942 8.49413 26.5028 8.39956 26.391 8.335L16.224 5.01C16.179 5.01 16.084 4.999 15.944 4.999C15.804 4.999 15.709 5.001 15.664 5.01Z" fill="#226CF2"/>
<path d="M13.8795 20.8486L13.8456 20.8147L9.26002 15.7652C9.08186 15.5683 8.98922 15.3087 9.00248 15.0435C9.01574 14.7783 9.13382 14.5292 9.33073 14.351C9.52764 14.1729 9.78727 14.0802 10.0525 14.0935C10.3177 14.1068 10.5668 14.2248 10.7449 14.4217L14.5994 18.6651L21.9993 10.6868C22.0886 10.5905 22.196 10.5127 22.3154 10.4579C22.4348 10.4031 22.5638 10.3724 22.695 10.3675C22.8263 10.3625 22.9572 10.3835 23.0804 10.4292C23.2035 10.4749 23.3165 10.5444 23.4128 10.6338L23.4396 10.6606C23.6228 10.8436 23.728 11.0905 23.7328 11.3494C23.7377 11.6083 23.642 11.859 23.4658 12.0487L15.3213 20.8239C15.2298 20.9224 15.1194 21.0015 14.9966 21.0564C14.8738 21.1113 14.7412 21.1408 14.6067 21.1433C14.4722 21.1457 14.3387 21.121 14.214 21.0706C14.0893 21.0202 13.976 20.9452 13.881 20.85L13.8795 20.8486Z" fill="#226CF2"/>
</svg>
