<svg width="32" height="32" viewBox="0 0 32 32" fill="none" xmlns="http://www.w3.org/2000/svg">
<g clip-path="url(#clip0_1_2359)">
<mask id="mask0_1_2359" style="mask-type:luminance" maskUnits="userSpaceOnUse" x="0" y="0" width="32" height="32">
<path d="M32 0H0V32H32V0Z" fill="white"/>
</mask>
<g mask="url(#mask0_1_2359)">
<path d="M28.7133 29.42C28.5104 29.6091 28.2434 29.7143 27.966 29.7143C27.6886 29.7143 27.4215 29.6091 27.2187 29.42L20.992 23.1893L20.8867 23.0747C18.7472 24.7808 16.1015 25.7277 13.3653 25.7667C11.512 25.7755 9.6832 25.3426 8.03045 24.504C6.3777 23.6653 4.94853 22.445 3.86132 20.944C2.07721 18.463 1.33006 15.3844 1.77843 12.3615C2.2268 9.33869 3.8354 6.60953 6.26287 4.75319C8.69033 2.89685 11.7456 2.05945 14.7803 2.41868C17.8151 2.77792 20.5904 4.30553 22.5173 6.67732C23.6674 8.14239 24.4627 9.85375 24.8412 11.6774C25.2196 13.5011 25.1708 15.3876 24.6987 17.1893C24.641 17.4082 24.5128 17.602 24.334 17.7408C24.1552 17.8796 23.9357 17.9557 23.7093 17.9573C23.5541 17.9572 23.401 17.921 23.2622 17.8516C23.1233 17.7822 23.0025 17.6814 22.9093 17.5573C22.8118 17.4317 22.745 17.285 22.7143 17.129C22.6835 16.973 22.6895 16.8119 22.732 16.6587C22.9524 15.8007 23.0684 14.9192 23.0773 14.0333C23.0795 11.7818 22.2983 9.59961 20.8677 7.86095C19.4372 6.12229 17.4463 4.93544 15.2365 4.5039C13.0267 4.07235 10.7356 4.42298 8.756 5.49567C6.77641 6.56836 5.23163 8.2963 4.38653 10.3832C3.54143 12.4702 3.44864 14.7861 4.12407 16.9339C4.79951 19.0818 6.20109 20.9278 8.08852 22.1554C9.97595 23.383 12.2317 23.9158 14.4689 23.6624C16.7062 23.4091 18.7856 22.3853 20.3507 20.7667C20.4355 20.6788 20.5372 20.6091 20.6497 20.5616C20.7623 20.5142 20.8832 20.4901 21.0053 20.4907C21.1291 20.4899 21.2518 20.5139 21.3662 20.561C21.4807 20.6082 21.5846 20.6776 21.672 20.7653L22.5453 21.6387L28.7707 27.8853C28.9664 28.0976 29.0702 28.3786 29.0594 28.6671C29.0487 28.9557 28.9243 29.2282 28.7133 29.4253" fill="#226CF2"/>
</g>
</g>
<defs>
<clipPath id="clip0_1_2359">
<rect width="32" height="32" fill="white"/>
</clipPath>
</defs>
</svg>
