<svg width="32" height="32" viewBox="0 0 32 32" fill="none" xmlns="http://www.w3.org/2000/svg">
<g clip-path="url(#clip0_1_2364)">
<mask id="mask0_1_2364" style="mask-type:luminance" maskUnits="userSpaceOnUse" x="0" y="0" width="32" height="32">
<path d="M32 0H0V32H32V0Z" fill="white"/>
</mask>
<g mask="url(#mask0_1_2364)">
<path d="M8 30C6.93913 30 5.92172 29.5786 5.17157 28.8284C4.42143 28.0783 4 27.0609 4 26V8.99999C4 8.73478 4.10536 8.48042 4.29289 8.29289C4.48043 8.10535 4.73478 7.99999 5 7.99999C5.26522 7.99999 5.51957 8.10535 5.70711 8.29289C5.89464 8.48042 6 8.73478 6 8.99999V26C6 26.5304 6.21071 27.0391 6.58579 27.4142C6.96086 27.7893 7.46957 28 8 28H19C19.2652 28 19.5196 28.1053 19.7071 28.2929C19.8946 28.4804 20 28.7348 20 29C20 29.2652 19.8946 29.5196 19.7071 29.7071C19.5196 29.8946 19.2652 30 19 30H8ZM12 26C10.9391 26 9.92172 25.5786 9.17157 24.8284C8.42143 24.0783 8 23.0609 8 22V7.99999C8 6.93913 8.42143 5.92171 9.17157 5.17157C9.92172 4.42142 10.9391 3.99999 12 3.99999H15C15.2652 3.99999 15.5196 4.10535 15.7071 4.29289C15.8946 4.48042 16 4.73478 16 4.99999C16 5.26521 15.8946 5.51956 15.7071 5.7071C15.5196 5.89464 15.2652 5.99999 15 5.99999H12C11.4696 5.99999 10.9609 6.21071 10.5858 6.58578C10.2107 6.96085 10 7.46956 10 7.99999V22C10 22.5304 10.2107 23.0391 10.5858 23.4142C10.9609 23.7893 11.4696 24 12 24H20C20.5304 24 21.0391 23.7893 21.4142 23.4142C21.7893 23.0391 22 22.5304 22 22V17C22 16.7348 22.1054 16.4804 22.2929 16.2929C22.4804 16.1054 22.7348 16 23 16C23.2652 16 23.5196 16.1054 23.7071 16.2929C23.8946 16.4804 24 16.7348 24 17V22C24 23.0609 23.5786 24.0783 22.8284 24.8284C22.0783 25.5786 21.0609 26 20 26H12ZM13 20C12.7348 20 12.4804 19.8946 12.2929 19.7071C12.1054 19.5196 12 19.2652 12 19C12 18.7348 12.1054 18.4804 12.2929 18.2929C12.4804 18.1054 12.7348 18 13 18H19C19.2652 18 19.5196 18.1054 19.7071 18.2929C19.8946 18.4804 20 18.7348 20 19C20 19.2652 19.8946 19.5196 19.7071 19.7071C19.5196 19.8946 19.2652 20 19 20H13ZM13 16C12.7348 16 12.4804 15.8946 12.2929 15.7071C12.1054 15.5196 12 15.2652 12 15C12 14.7348 12.1054 14.4804 12.2929 14.2929C12.4804 14.1054 12.7348 14 13 14H19C19.2652 14 19.5196 14.1054 19.7071 14.2929C19.8946 14.4804 20 14.7348 20 15C20 15.2652 19.8946 15.5196 19.7071 15.7071C19.5196 15.8946 19.2652 16 19 16H13ZM22.792 13.948L21.172 13.076C20.207 12.5534 19.4022 11.7784 18.8435 10.8339C18.2848 9.88933 17.9932 8.81072 18 7.71333V4.44266C17.9997 4.35484 18.0247 4.26878 18.072 4.19477C18.1192 4.12077 18.1868 4.06194 18.2667 4.02533L22.8253 2.03466C22.8808 2.0113 22.9404 1.99927 23.0007 1.99927C23.0609 1.99927 23.1205 2.0113 23.176 2.03466L27.7333 4.02399C27.8133 4.06047 27.881 4.11927 27.9283 4.1933C27.9756 4.26734 28.0005 4.35347 28 4.44133V6.22666L27.9693 8.30933V8.35199C27.8722 9.33599 27.5354 10.2812 26.9885 11.105C26.4416 11.9287 25.7012 12.6059 24.832 13.0773L23.2093 13.9467C23.1448 13.9808 23.073 13.9991 23 14C22.9276 13.9988 22.8564 13.981 22.792 13.948ZM20.3493 7.76133C20.2654 7.84748 20.2184 7.96302 20.2184 8.08333C20.2184 8.20363 20.2654 8.31917 20.3493 8.40533L22.0507 10.1387C22.0916 10.1811 22.1407 10.2148 22.195 10.2377C22.2493 10.2606 22.3077 10.2723 22.3667 10.272C22.485 10.2707 22.5981 10.2228 22.6813 10.1387L25.648 7.09999C25.7328 7.01457 25.7805 6.89906 25.7805 6.77866C25.7805 6.65826 25.7328 6.54275 25.648 6.45733C25.567 6.37392 25.4562 6.32609 25.3399 6.32434C25.2237 6.32259 25.1115 6.36707 25.028 6.44799L25.0187 6.45733L24.4693 7.01866L22.368 9.17999L20.98 7.76133C20.939 7.71896 20.8899 7.6853 20.8356 7.66239C20.7813 7.63948 20.7229 7.62778 20.664 7.62799C20.6052 7.62765 20.547 7.6393 20.4929 7.66222C20.4388 7.68515 20.39 7.71887 20.3493 7.76133ZM13 12C12.8599 12.0007 12.7213 11.9719 12.5931 11.9156C12.4648 11.8593 12.3499 11.7767 12.2556 11.6731C12.1613 11.5695 12.0898 11.4473 12.0458 11.3144C12.0018 11.1814 11.9862 11.0407 12 10.9013C12.0316 10.6488 12.1557 10.4169 12.3482 10.2504C12.5408 10.0839 12.7882 9.99473 13.0427 9.99999H14.948C15.2052 9.99384 15.4554 10.0837 15.6499 10.2521C15.8444 10.4205 15.9692 10.6552 16 10.9107C16.0124 11.0493 15.9958 11.189 15.9511 11.3208C15.9065 11.4527 15.8348 11.5737 15.7407 11.6763C15.6465 11.7788 15.532 11.8606 15.4045 11.9163C15.277 11.972 15.1392 12.0006 15 12H13Z" fill="#226CF2"/>
</g>
</g>
<defs>
<clipPath id="clip0_1_2364">
<rect width="32" height="32" fill="white"/>
</clipPath>
</defs>
</svg>
