<svg width="16" height="16" viewBox="0 0 16 16" fill="none" xmlns="http://www.w3.org/2000/svg">
<g clip-path="url(#clip0_1_2356)">
<mask id="mask0_1_2356" style="mask-type:luminance" maskUnits="userSpaceOnUse" x="0" y="0" width="16" height="16">
<path d="M16 0H0V16H16V0Z" fill="white"/>
</mask>
<g mask="url(#mask0_1_2356)">
<path d="M6.54736 13.9993C6.47549 13.9995 6.40434 13.9853 6.33797 13.9578C6.2716 13.9302 6.21135 13.8897 6.16073 13.8387C6.05809 13.7355 6.00049 13.5959 6.00049 13.4503C6.00049 13.3048 6.05809 13.1652 6.16073 13.062L10.6814 8.00129L6.21476 2.93464C6.11213 2.83146 6.05452 2.69183 6.05452 2.5463C6.05452 2.40076 6.11213 2.26121 6.21476 2.15803C6.26529 2.10693 6.32545 2.06633 6.39176 2.03865C6.45808 2.01096 6.52921 1.99673 6.60107 1.99673C6.67294 1.99673 6.74407 2.01096 6.81038 2.03865C6.8767 2.06633 6.93686 2.10693 6.98739 2.15803L11.8381 7.61002C11.9412 7.72509 11.9982 7.87412 11.9982 8.02864C11.9982 8.18315 11.9412 8.33227 11.8381 8.44734L6.9314 13.836C6.88127 13.8871 6.82159 13.9279 6.7557 13.9559C6.68981 13.9839 6.61896 13.9987 6.54736 13.9993Z" fill="#226CF2"/>
</g>
</g>
<defs>
<clipPath id="clip0_1_2356">
<rect width="16" height="16" fill="white"/>
</clipPath>
</defs>
</svg>
