<svg width="32" height="32" viewBox="0 0 32 32" fill="none" xmlns="http://www.w3.org/2000/svg">
<g clip-path="url(#clip0_1_2369)">
<mask id="mask0_1_2369" style="mask-type:luminance" maskUnits="userSpaceOnUse" x="0" y="0" width="32" height="32">
<path d="M32 0H0V32H32V0Z" fill="white"/>
</mask>
<g mask="url(#mask0_1_2369)">
<path d="M18.6666 26.9133L16.2666 24.5133C16.0882 24.3349 15.988 24.093 15.988 23.8407C15.988 23.5884 16.0882 23.3464 16.2666 23.168C16.445 22.9896 16.687 22.8894 16.9393 22.8894C17.1916 22.8894 17.4335 22.9896 17.6119 23.168L20.0119 25.568C20.3544 25.9095 20.8183 26.1014 21.3019 26.1014C21.7856 26.1014 22.2495 25.9095 22.5919 25.568L25.896 22.26C25.9607 22.1953 26.0121 22.1185 26.0472 22.034C26.0823 21.9495 26.1003 21.8588 26.1003 21.7673C26.1003 21.6758 26.0823 21.5852 26.0472 21.5006C26.0121 21.4161 25.9607 21.3393 25.896 21.2747L22.6026 17.9813L20.7999 19.784C20.6215 19.9622 20.3795 20.0623 20.1273 20.0623C19.875 20.0623 19.6331 19.9622 19.4546 19.784L12.2186 12.5493C12.13 12.4611 12.0598 12.3563 12.0118 12.2409C11.9639 12.1254 11.9392 12.0017 11.9392 11.8767C11.9392 11.7517 11.9639 11.6279 12.0118 11.5125C12.0598 11.397 12.13 11.2922 12.2186 11.204L14.0213 9.39999L10.724 6.10665C10.5932 5.97614 10.416 5.90283 10.2313 5.90283C10.0465 5.90283 9.86936 5.97614 9.73862 6.10665L6.43595 9.40665C6.09423 9.74954 5.90235 10.2139 5.90235 10.698C5.90235 11.1821 6.09423 11.6464 6.43595 11.9893L13.7133 19.2693C13.8852 19.4492 13.9798 19.6893 13.977 19.9381C13.9741 20.1869 13.8739 20.4247 13.6979 20.6005C13.5218 20.7764 13.2839 20.8764 13.0351 20.879C12.7863 20.8816 12.5463 20.7867 12.3666 20.6147L5.09328 13.3347C4.74682 12.9887 4.47196 12.5778 4.28443 12.1254C4.09689 11.6731 4.00037 11.1883 4.00037 10.6987C4.00037 10.209 4.09689 9.72417 4.28443 9.27186C4.47196 8.81955 4.74682 8.40865 5.09328 8.06265L8.39995 4.76132C8.88774 4.27548 9.54816 4.00271 10.2366 4.00271C10.9251 4.00271 11.5855 4.27548 12.0733 4.76132L16.0386 8.72665C16.1272 8.81486 16.1975 8.91969 16.2454 9.03512C16.2934 9.15055 16.3181 9.27432 16.3181 9.39932C16.3181 9.52432 16.2934 9.64809 16.2454 9.76352C16.1975 9.87896 16.1272 9.98378 16.0386 10.072L14.2359 11.876L20.1266 17.7667L21.9279 15.9613C22.0162 15.8728 22.121 15.8025 22.2364 15.7545C22.3518 15.7066 22.4756 15.6819 22.6006 15.6819C22.7256 15.6819 22.8494 15.7066 22.9648 15.7545C23.0803 15.8025 23.1851 15.8728 23.2733 15.9613L27.24 19.9267C27.7259 20.4147 27.9987 21.0753 27.9987 21.764C27.9987 22.4527 27.7259 23.1133 27.24 23.6013L23.9373 26.908C23.2374 27.6062 22.2892 27.9983 21.3006 27.9983C20.312 27.9983 19.3638 27.6062 18.6639 26.908L18.6666 26.9133ZM25.8666 12.9533C25.8684 11.1398 25.1506 9.39961 23.8707 8.11475C22.5908 6.82988 20.8535 6.10528 19.0399 6.09999C18.7683 6.0903 18.511 5.97557 18.3223 5.77997C18.1335 5.58437 18.028 5.32315 18.028 5.05132C18.028 4.7795 18.1335 4.51828 18.3223 4.32267C18.511 4.12707 18.7683 4.01234 19.0399 4.00266C21.4087 4.01007 23.6778 4.95671 25.3495 6.63492C27.0212 8.31314 27.9591 10.5859 27.9573 12.9547C27.9573 13.2319 27.8471 13.4978 27.6511 13.6938C27.4551 13.8899 27.1892 14 26.912 14C26.6347 14 26.3688 13.8899 26.1728 13.6938C25.9768 13.4978 25.8666 13.2306 25.8666 12.9533ZM21.9573 13.0013C21.9338 12.2131 21.6102 11.4636 21.0526 10.906C20.495 10.3484 19.7455 10.0248 18.9573 10.0013C18.694 9.99456 18.4433 9.88685 18.2572 9.70047C18.0711 9.5141 17.9637 9.26331 17.9573 8.99999C17.9573 8.73477 18.0626 8.48042 18.2502 8.29288C18.4377 8.10535 18.6921 7.99999 18.9573 7.99999C19.6152 7.99538 20.2676 8.12155 20.8763 8.37118C21.4851 8.6208 22.0382 8.98891 22.5036 9.4541C22.9689 9.9193 23.3371 10.4723 23.5869 11.081C23.8367 11.6897 23.963 12.342 23.9586 13C23.9586 13.2652 23.8533 13.5196 23.6657 13.7071C23.4782 13.8946 23.2238 14 22.9586 14C22.6934 14 22.439 13.8946 22.2515 13.7071C22.064 13.5196 21.9586 13.2652 21.9586 13L21.9573 13.0013Z" fill="#226CF2"/>
</g>
</g>
<defs>
<clipPath id="clip0_1_2369">
<rect width="32" height="32" fill="white"/>
</clipPath>
</defs>
</svg>
