<svg width="32" height="32" viewBox="0 0 32 32" fill="none" xmlns="http://www.w3.org/2000/svg">
<g clip-path="url(#clip0_1_2374)">
<mask id="mask0_1_2374" style="mask-type:luminance" maskUnits="userSpaceOnUse" x="0" y="0" width="32" height="32">
<path d="M32 0H0V32H32V0Z" fill="white"/>
</mask>
<g mask="url(#mask0_1_2374)">
<path d="M15.9935 8C16.1913 8 16.3847 8.05858 16.5491 8.16846C16.7136 8.27834 16.8416 8.43462 16.9173 8.61735C16.993 8.80008 17.0129 9.00117 16.9743 9.19515C16.9357 9.38913 16.8404 9.56718 16.7005 9.70703C16.5607 9.84688 16.3824 9.94221 16.1885 9.98079C15.9945 10.0194 15.7934 9.99952 15.6107 9.92383C15.4279 9.84814 15.272 9.71995 15.1621 9.5555C15.0522 9.39105 14.9935 9.19778 14.9935 9C14.9935 8.73478 15.0989 8.48034 15.2864 8.29281C15.474 8.10527 15.7283 8 15.9935 8ZM15.9935 6C15.4001 6 14.8202 6.17589 14.3268 6.50553C13.8335 6.83518 13.4487 7.30371 13.2217 7.85189C12.9946 8.40007 12.9353 9.00334 13.0511 9.58529C13.1668 10.1672 13.4525 10.7017 13.8721 11.1213C14.2916 11.5408 14.8262 11.8266 15.4082 11.9424C15.9901 12.0581 16.5934 11.9987 17.1416 11.7716C17.6898 11.5446 18.1583 11.16 18.4879 10.6667C18.8176 10.1733 18.9935 9.59334 18.9935 9C18.9935 8.20435 18.6772 7.44135 18.1146 6.87874C17.552 6.31613 16.7891 6 15.9935 6Z" fill="#226CF2"/>
<path d="M8.00535 10.0001C8.20313 10.0001 8.39657 10.0586 8.56102 10.1685C8.72547 10.2784 8.85349 10.4345 8.92918 10.6172C9.00487 10.8 9.02473 11.0011 8.98615 11.195C8.94756 11.389 8.85224 11.5672 8.71238 11.7071C8.57253 11.8469 8.39432 11.9423 8.20034 11.9809C8.00636 12.0194 7.80527 11.9996 7.62254 11.9239C7.43981 11.8482 7.28385 11.72 7.17397 11.5556C7.06409 11.3911 7.00535 11.1978 7.00535 11.0001C7.00571 10.735 7.11119 10.4808 7.29865 10.2934C7.48611 10.1059 7.74024 10.0004 8.00535 10.0001ZM8.00535 8.00006C7.41201 8.00006 6.83203 8.17595 6.33869 8.50559C5.84534 8.83524 5.46093 9.30377 5.23387 9.85195C5.00681 10.4001 4.94721 11.0034 5.06297 11.5853C5.17873 12.1673 5.46438 12.7018 5.88393 13.1213C6.30349 13.5409 6.83812 13.8265 7.42007 13.9423C8.00201 14.058 8.60529 13.9988 9.15346 13.7717C9.70164 13.5446 10.1702 13.1601 10.4998 12.6667C10.8295 12.1734 11.0054 11.5934 11.0054 11.0001C11.0054 10.2044 10.6894 9.44125 10.1268 8.87864C9.56416 8.31603 8.801 8.00006 8.00535 8.00006Z" fill="#226CF2"/>
<path d="M24 10C24.1978 10 24.3912 10.0586 24.5556 10.1685C24.7201 10.2783 24.8481 10.4346 24.9238 10.6174C24.9995 10.8001 25.0194 11.0012 24.9808 11.1951C24.9422 11.3891 24.8469 11.5672 24.707 11.707C24.5672 11.8469 24.3889 11.9422 24.195 11.9808C24.001 12.0194 23.8002 11.9995 23.6175 11.9238C23.4348 11.8481 23.2785 11.72 23.1686 11.5555C23.0587 11.3911 23 11.1978 23 11C23.0003 10.7349 23.1058 10.4808 23.2933 10.2933C23.4807 10.1058 23.7349 10.0004 24 10ZM24 8C23.4066 8 22.8267 8.17589 22.3333 8.50553C21.84 8.83518 21.4556 9.30371 21.2285 9.85189C21.0014 10.4001 20.9418 11.0033 21.0576 11.5853C21.1734 12.1672 21.459 12.7017 21.8786 13.1213C22.2981 13.5408 22.8328 13.8266 23.4147 13.9424C23.9966 14.0581 24.5999 13.9987 25.1481 13.7716C25.6963 13.5446 26.1648 13.16 26.4944 12.6667C26.8241 12.1733 27 11.5933 27 11C27 10.2044 26.684 9.44135 26.1214 8.87874C25.5588 8.31613 24.7956 8 24 8Z" fill="#226CF2"/>
<path d="M3.99996 25.0001V18.4C3.99996 18.3474 4.01046 18.2955 4.03056 18.247C4.05066 18.1984 4.08 18.1542 4.11715 18.1171C4.15429 18.0799 4.1985 18.0506 4.24703 18.0305C4.29556 18.0104 4.3475 18.0001 4.40002 18.0001H6.99866C7.26387 18.0001 7.51815 17.8946 7.70569 17.7071C7.89323 17.5196 7.99866 17.2653 7.99866 17.0001C7.99866 16.7348 7.89323 16.4804 7.70569 16.2929C7.51815 16.1053 7.26387 16.0001 6.99866 16.0001H3.99866C3.46822 16.0001 2.95967 16.2108 2.58459 16.5858C2.20952 16.9609 1.99866 17.4696 1.99866 18.0001V25.0001C1.99901 25.2652 2.10449 25.5193 2.29195 25.7068C2.47941 25.8942 2.73355 25.9997 2.99866 26.0001C3.13009 26.0002 3.26032 25.9744 3.3818 25.9242C3.50327 25.874 3.61367 25.8005 3.70667 25.7076C3.79966 25.6147 3.87345 25.5044 3.92379 25.383C3.97413 25.2616 3.99996 25.1315 3.99996 25.0001Z" fill="#226CF2"/>
<path d="M28.0001 25.0001V18.4C28.0001 18.2939 27.9579 18.1921 27.8829 18.1171C27.8079 18.0421 27.7061 18.0001 27.6 18.0001H24.9988C24.7336 18.0001 24.4793 17.8946 24.2917 17.7071C24.1042 17.5196 23.9988 17.2653 23.9988 17.0001C23.9988 16.7348 24.1042 16.4804 24.2917 16.2929C24.4793 16.1053 24.7336 16.0001 24.9988 16.0001H27.9988C28.5292 16.0001 29.0378 16.2108 29.4128 16.5858C29.7879 16.9609 29.9988 17.4696 29.9988 18.0001V25.0001C29.9988 25.2653 29.8933 25.5196 29.7058 25.7071C29.5183 25.8946 29.264 26.0001 28.9988 26.0001C28.7338 25.9997 28.4796 25.8941 28.2924 25.7066C28.1052 25.5191 28.0001 25.265 28.0001 25.0001Z" fill="#226CF2"/>
<path d="M20.0214 25V16.4C20.0214 16.2939 19.9792 16.1922 19.9042 16.1172C19.8292 16.0421 19.7274 16 19.6214 16H12.376C12.2699 16 12.1682 16.0421 12.0932 16.1172C12.0182 16.1922 11.976 16.2939 11.976 16.4V25C11.9774 25.2633 11.8744 25.5165 11.6894 25.704C11.5044 25.8914 11.2527 25.9979 10.9894 26C10.8587 25.9993 10.7295 25.9729 10.6091 25.9222C10.4887 25.8716 10.3794 25.7978 10.2876 25.7049C10.1957 25.612 10.123 25.502 10.0737 25.3811C10.0244 25.2601 9.99932 25.1306 10 25V16C9.99754 15.4723 10.2047 14.9652 10.576 14.5901C10.9473 14.2151 11.4523 14.0028 11.98 14H20.0214C20.5489 14.0032 21.0535 14.2156 21.4245 14.5906C21.7955 14.9656 22.0025 15.4725 22 16V25C22 25.2624 21.8958 25.514 21.7103 25.6996C21.5247 25.8851 21.2731 25.9893 21.0107 25.9893C20.7483 25.9893 20.4967 25.8851 20.3111 25.6996C20.1256 25.514 20.0214 25.2624 20.0214 25Z" fill="#226CF2"/>
</g>
</g>
<defs>
<clipPath id="clip0_1_2374">
<rect width="32" height="32" fill="white"/>
</clipPath>
</defs>
</svg>
