<svg width="32" height="32" viewBox="0 0 32 32" fill="none" xmlns="http://www.w3.org/2000/svg">
<mask id="mask0_39_1770" style="mask-type:luminance" maskUnits="userSpaceOnUse" x="0" y="0" width="32" height="32">
<path d="M32 0H0V32H32V0Z" fill="white"/>
</mask>
<g mask="url(#mask0_39_1770)">
<mask id="mask1_39_1770" style="mask-type:luminance" maskUnits="userSpaceOnUse" x="4" y="4" width="24" height="24">
<path d="M28 4H4V28H28V4Z" fill="white"/>
</mask>
<g mask="url(#mask1_39_1770)">
<path d="M23.0067 18H22.9933C21.6933 17.9978 20.4438 18.5033 19.5111 19.4089C18.5784 20.3145 18.0361 21.5485 18 22.848C18 22.896 18 22.944 18 22.9947V23.008C18 24.332 18.5259 25.6017 19.4621 26.5379C20.3983 27.4741 21.668 28 22.992 28H23.0067C23.6622 28.0002 24.3114 27.8712 24.9171 27.6205C25.5228 27.3698 26.0733 27.0023 26.5369 26.5388C27.0006 26.0754 27.3685 25.5252 27.6195 24.9196C27.8705 24.314 27.9998 23.6649 28 23.0093V22.996C28.0003 22.3401 27.8714 21.6905 27.6207 21.0843C27.3699 20.4782 27.0021 19.9274 26.5384 19.4635C26.0747 18.9995 25.5241 18.6315 24.9182 18.3804C24.3122 18.1293 23.6626 18 23.0067 18ZM26 23.008C25.9996 23.8017 25.6841 24.5627 25.1228 25.1238C24.5615 25.6848 23.8003 26 23.0067 26H22.9933C22.6006 26.0009 22.2115 25.9243 21.8483 25.7746C21.4852 25.6249 21.1552 25.405 20.8771 25.1276C20.5991 24.8502 20.3785 24.5206 20.228 24.1578C20.0775 23.795 20 23.4061 20 23.0133V22.9933C19.9998 22.6002 20.0771 22.2109 20.2275 21.8476C20.3779 21.4844 20.5983 21.1543 20.8763 20.8763C21.1543 20.5983 21.4844 20.3779 21.8476 20.2275C22.2109 20.0771 22.6002 19.9998 22.9933 20H23.0067C23.8004 20.0004 24.5616 20.3158 25.1229 20.8771C25.6842 21.4384 25.9996 22.1996 26 22.9933V23.008Z" fill="#226CF2"/>
<path d="M23.0107 4H22.9973C22.3418 4.00018 21.6928 4.12948 21.0873 4.38053C20.4818 4.63158 19.9316 4.99946 19.4683 5.46315C19.005 5.92684 18.6376 6.47726 18.387 7.08298C18.1364 7.68869 18.0077 8.33784 18.008 8.99333V9.00667C18.0067 9.68083 18.1428 10.3482 18.408 10.968L12.9107 13.8867C12.444 13.2975 11.8499 12.8218 11.1731 12.495C10.4963 12.1683 9.75424 11.999 9.00267 12H8.98934C7.66596 12.0004 6.39691 12.5263 5.46126 13.4622C4.52562 14.3981 4 15.6673 4 16.9907V17.004C3.9993 17.6596 4.12778 18.3089 4.37811 18.9149C4.62843 19.5208 4.99569 20.0715 5.45891 20.5354C5.92212 20.9994 6.47221 21.3675 7.07774 21.6188C7.68328 21.8701 8.33239 21.9997 8.988 22H9.00267C9.78851 22.0004 10.5633 21.8149 11.2638 21.4587C11.9643 21.1026 12.5706 20.5858 13.0333 19.9507L13.0507 19.9627L13.0827 19.9787L13.168 20.0253L14.5253 20.7453C14.7339 20.8655 14.9792 20.9053 15.215 20.8572C15.4509 20.8091 15.661 20.6765 15.8059 20.4843C15.9508 20.292 16.0204 20.0535 16.0016 19.8135C15.9828 19.5735 15.877 19.3487 15.704 19.1813C15.6515 19.1298 15.5928 19.0851 15.5293 19.048L14.2027 18.3147L13.864 18.128C13.864 18.128 13.864 18.128 13.864 18.12C13.9472 17.7561 13.9888 17.3839 13.988 17.0107V16.9973C13.988 16.5519 13.9288 16.1085 13.812 15.6787L19.56 12.6267C20.4856 13.5108 21.7173 14.0029 22.9973 14H23.0107C24.3341 13.9989 25.6029 13.4726 26.5384 12.5365C27.474 11.6005 27.9997 10.3314 28 9.008V8.99467C28.0005 8.33917 27.8719 7.68999 27.6215 7.08421C27.3711 6.47843 27.0038 5.9279 26.5406 5.46409C26.0774 5.00027 25.5274 4.63225 24.922 4.38104C24.3165 4.12983 23.6662 4.00035 23.0107 4ZM11.9907 17.028C11.9844 17.817 11.667 18.5717 11.1076 19.1282C10.5481 19.6846 9.79173 19.9979 9.00267 20H8.98934C8.19592 19.9989 7.43538 19.6829 6.87484 19.1214C6.31431 18.5599 5.99965 17.7988 6 17.0053V16.992C6.00263 16.5391 6.10554 16.0924 6.30134 15.684C6.54664 15.1797 6.92869 14.7544 7.40394 14.4567C7.87919 14.1589 8.42852 14.0007 8.98934 14H9.00267C9.7364 14.0023 10.4438 14.2737 10.9908 14.7627C11.5378 15.2518 11.8865 15.9244 11.9707 16.6533C11.9843 16.7657 11.991 16.8788 11.9907 16.992V17.028ZM26 9.008C25.9997 9.80096 25.6847 10.5614 25.1242 11.1223C24.5638 11.6833 23.8036 11.9989 23.0107 12H22.9973C22.471 12.0027 21.9536 11.8646 21.4987 11.6C20.8912 11.2463 20.4273 10.6903 20.188 10.0293C20.0694 9.70327 20.009 9.35895 20.0093 9.012V8.99867C20.0086 8.60558 20.0854 8.2162 20.2351 7.85276C20.3849 7.48932 20.6048 7.15895 20.8823 6.8805C21.1598 6.60205 21.4893 6.38097 21.8522 6.22989C22.2151 6.07882 22.6042 6.0007 22.9973 6H23.0107C23.8041 6.00106 24.5646 6.31708 25.1252 6.87861C25.6857 7.44014 26.0004 8.20125 26 8.99467V9.008Z" fill="#226CF2"/>
</g>
<mask id="mask2_39_1770" style="mask-type:luminance" maskUnits="userSpaceOnUse" x="4" y="4" width="24" height="24">
<path d="M28 4H4V28H28V4Z" fill="white"/>
</mask>
<g mask="url(#mask2_39_1770)">
<path d="M15.6 21.2C15.4377 21.1999 15.278 21.1586 15.136 21.08L12.536 19.68C12.4204 19.6177 12.3181 19.5333 12.2351 19.4316C12.1521 19.3298 12.0899 19.2127 12.0521 19.0869C12.0144 18.9611 12.0017 18.8291 12.015 18.6984C12.0282 18.5677 12.0671 18.441 12.1293 18.3253C12.1916 18.2097 12.276 18.1074 12.3778 18.0244C12.4795 17.9414 12.5967 17.8792 12.7225 17.8414C12.8482 17.8037 12.9802 17.791 13.1109 17.8043C13.2416 17.8175 13.3684 17.8564 13.484 17.9186L16.084 19.3187C16.2799 19.4244 16.4349 19.5924 16.5244 19.7961C16.614 19.9999 16.6331 20.2277 16.5786 20.4434C16.5241 20.6592 16.3992 20.8507 16.2237 20.9875C16.0481 21.1243 15.8319 21.1986 15.6093 21.1987" fill="#226CF2"/>
</g>
</g>
</svg>
