<svg width="32" height="32" viewBox="0 0 32 32" fill="none" xmlns="http://www.w3.org/2000/svg">
<mask id="mask0_39_1807" style="mask-type:luminance" maskUnits="userSpaceOnUse" x="0" y="0" width="32" height="32">
<path d="M32 0H0V32H32V0Z" fill="white"/>
</mask>
<g mask="url(#mask0_39_1807)">
<path d="M9.99731 29.9933C8.93645 29.9933 7.91934 29.5719 7.16919 28.8218C6.41904 28.0716 5.99731 27.0542 5.99731 25.9933V7.99331C5.99802 6.93192 6.41943 5.91417 7.16919 5.1629C7.91895 4.41164 8.93593 3.98799 9.99731 3.98517H21.9973C23.0589 3.98729 24.0768 4.41051 24.8267 5.16193C25.5767 5.91334 25.9973 6.9317 25.9973 7.99331V8.992C25.998 9.12346 25.9731 9.25357 25.9231 9.37514C25.8731 9.49671 25.7987 9.60744 25.7056 9.70034C25.6126 9.79323 25.5018 9.86663 25.3801 9.91648C25.2585 9.96634 25.1288 9.99159 24.9973 9.9907C24.8662 9.99088 24.7357 9.965 24.6145 9.91486C24.4933 9.86471 24.3842 9.79117 24.2916 9.69838C24.1989 9.6056 24.1254 9.4954 24.0754 9.37417C24.0255 9.25293 23.9996 9.12314 23.9999 8.992V7.99331C23.9978 7.46352 23.786 6.95614 23.4114 6.58152C23.0368 6.20691 22.5297 5.99541 21.9999 5.99331H9.99992C9.46949 5.99331 8.96093 6.20417 8.58586 6.57924C8.21078 6.95432 7.99992 7.46287 7.99992 7.99331V25.9933C7.99992 26.5237 8.21078 27.0323 8.58586 27.4074C8.96093 27.7824 9.46949 27.9933 9.99992 27.9933H21.9999C22.5304 27.9933 23.0389 27.7824 23.414 27.4074C23.7891 27.0323 23.9999 26.5237 23.9999 25.9933V14.9946C24.0003 14.7301 24.106 14.4764 24.2929 14.2892C24.4798 14.102 24.7328 13.9966 24.9973 13.9959C25.1286 13.9956 25.2587 14.0211 25.3801 14.0711C25.5015 14.1212 25.6114 14.1948 25.7043 14.2876C25.7973 14.3804 25.8716 14.4905 25.9218 14.6118C25.972 14.7331 25.9975 14.8633 25.9973 14.9946V25.9933C25.9973 27.0542 25.5756 28.0716 24.8254 28.8218C24.0753 29.5719 23.0582 29.9933 21.9973 29.9933H9.99731ZM9.99731 22.9894C9.99943 22.7256 10.1056 22.4731 10.2929 22.2873C10.4802 22.1014 10.7335 21.9972 10.9973 21.9972C11.2619 21.9965 11.516 22.1005 11.7043 22.2863C11.8927 22.4721 11.9997 22.7249 12.0025 22.9894C12.0025 23.256 11.8968 23.5118 11.7083 23.7003C11.5197 23.8889 11.2639 23.9946 10.9973 23.9946C10.7319 23.9939 10.4777 23.888 10.2903 23.7C10.1028 23.5121 9.99731 23.2575 9.99731 22.992V22.9894ZM14.9973 23.9881C14.8657 23.9899 14.7351 23.9651 14.6132 23.9155C14.4913 23.8659 14.3807 23.7925 14.2877 23.6994C14.1947 23.6062 14.1209 23.4955 14.0715 23.3735C14.0221 23.2515 13.9979 23.121 13.9999 22.9894C14.0017 22.7259 14.1074 22.4737 14.2942 22.2879C14.481 22.1021 14.7338 21.9976 14.9973 21.9972H20.9973C21.2608 21.9976 21.5136 22.1021 21.7004 22.2879C21.8872 22.4737 21.993 22.7259 21.9947 22.9894C21.9951 23.1205 21.9692 23.2503 21.9192 23.3716C21.8692 23.4928 21.7957 23.603 21.703 23.6958C21.6104 23.7886 21.5013 23.8621 21.3801 23.9123C21.259 23.9624 21.1284 23.9883 20.9973 23.9881H14.9973ZM14.9973 19.9881C14.8662 19.9883 14.7357 19.9624 14.6145 19.9123C14.4933 19.8621 14.3842 19.7886 14.2916 19.6958C14.1989 19.603 14.1254 19.4928 14.0754 19.3716C14.0255 19.2503 13.9996 19.1205 13.9999 18.9894C14.0003 18.7249 14.106 18.4712 14.2929 18.284C14.4798 18.0968 14.7328 17.9914 14.9973 17.9907H20.9973C21.2622 17.9911 21.5156 18.0962 21.703 18.2833C21.8905 18.4705 21.9966 18.7245 21.9973 18.9894C21.9975 19.1207 21.972 19.2506 21.9218 19.3719C21.8716 19.4932 21.7973 19.6036 21.7043 19.6964C21.6114 19.7892 21.5015 19.8625 21.3801 19.9126C21.2587 19.9626 21.1286 19.9884 20.9973 19.9881H14.9973ZM9.99731 18.9894C9.99767 18.7244 10.1028 18.4703 10.2903 18.283C10.4778 18.0958 10.7323 17.9907 10.9973 17.9907C11.263 17.99 11.5185 18.0948 11.707 18.282C11.8954 18.4693 12.0015 18.7237 12.0025 18.9894C12.0025 19.1211 11.9763 19.2513 11.9257 19.3729C11.8751 19.4945 11.8017 19.6049 11.7083 19.6977C11.6148 19.7906 11.5034 19.8641 11.3814 19.9139C11.2595 19.9637 11.129 19.989 10.9973 19.9881C10.7334 19.9892 10.4804 19.8854 10.2929 19.6997C10.1054 19.5139 9.99873 19.2611 9.99731 18.9972V18.9894ZM16.9947 15.9868C16.8639 15.9868 16.734 15.9609 16.6132 15.9106C16.4924 15.8604 16.3825 15.7867 16.2903 15.6938C16.1981 15.601 16.1262 15.4907 16.0767 15.3696C16.0273 15.2485 16.0016 15.1189 16.0025 14.9881C16.0018 14.7242 16.1056 14.4706 16.2916 14.2833C16.4776 14.0961 16.7308 13.9905 16.9947 13.9894H21.0025C21.2673 13.9901 21.5209 14.0953 21.7083 14.2824C21.8956 14.4695 22.0015 14.7233 22.0025 14.9881C22.0025 15.1194 21.9773 15.2493 21.927 15.3706C21.8767 15.4918 21.8024 15.6017 21.7096 15.6945C21.6167 15.7872 21.5067 15.8608 21.3853 15.9109C21.264 15.9611 21.1338 15.987 21.0025 15.9868H16.9947ZM9.99731 15.9868V13.9868C9.99766 13.7212 10.103 13.4664 10.2903 13.2781C10.4776 13.0898 10.7317 12.983 10.9973 12.9813H12.9973C13.1287 12.9809 13.2589 13.0068 13.3801 13.0574C13.5014 13.108 13.6109 13.1822 13.703 13.2759C13.7952 13.3695 13.8679 13.4806 13.9166 13.6027C13.9652 13.7247 13.9894 13.8554 13.9869 13.9868V15.9868H9.99731ZM10.7551 11.2345C10.7558 10.9039 10.8871 10.587 11.121 10.3533C11.3549 10.1197 11.6719 9.98845 12.0025 9.9881C12.3327 9.98985 12.6491 10.1216 12.8827 10.355C13.1164 10.5883 13.2491 10.9043 13.2512 11.2345C13.2505 11.5658 13.1178 11.8836 12.884 12.1183C12.6503 12.353 12.3338 12.486 12.0025 12.4881C11.6722 12.4874 11.3561 12.3559 11.1223 12.1225C10.8885 11.8892 10.7565 11.573 10.7551 11.2427V11.2345ZM16.9947 11.992C16.8638 11.992 16.7341 11.9662 16.6132 11.9158C16.4923 11.8655 16.3825 11.7917 16.2903 11.6987C16.1981 11.6057 16.1248 11.4954 16.0754 11.3742C16.0261 11.2529 16.0015 11.1229 16.0025 10.992C16.0015 10.7274 16.1057 10.473 16.2916 10.2846C16.4775 10.0963 16.7301 9.98926 16.9947 9.9868H21.0025C21.268 9.9889 21.5223 10.0954 21.7096 10.2837C21.8968 10.4719 22.0018 10.7265 22.0025 10.992C22.0027 11.1234 21.9772 11.2534 21.927 11.3748C21.8768 11.4962 21.8024 11.6065 21.7096 11.6994C21.6167 11.7923 21.5067 11.866 21.3853 11.9162C21.2639 11.9664 21.1339 11.9922 21.0025 11.992H16.9947Z" fill="#226CF2"/>
</g>
</svg>
