<svg width="32" height="32" viewBox="0 0 32 32" fill="none" xmlns="http://www.w3.org/2000/svg">
<g clip-path="url(#clip0_1_2389)">
<path d="M16 6C17.9778 6 19.9112 6.58649 21.5557 7.6853C23.2002 8.78412 24.4819 10.3459 25.2388 12.1732C25.9957 14.0004 26.1937 16.0111 25.8079 17.9509C25.422 19.8907 24.4696 21.6725 23.0711 23.0711C21.6725 24.4696 19.8907 25.422 17.9509 25.8079C16.0111 26.1937 14.0004 25.9957 12.1732 25.2388C10.3459 24.4819 8.78412 23.2002 7.6853 21.5557C6.58649 19.9112 6 17.9778 6 16C6.00282 13.3487 7.0573 10.8068 8.93205 8.93205C10.8068 7.0573 13.3487 6.00282 16 6ZM16 24.0653C17.5952 24.0653 19.1545 23.5923 20.4809 22.7061C21.8072 21.8198 22.841 20.5602 23.4514 19.0865C24.0618 17.6127 24.2216 15.9911 23.9104 14.4265C23.5992 12.862 22.831 11.4249 21.7031 10.2969C20.5751 9.16899 19.138 8.40084 17.5735 8.08964C16.0089 7.77844 14.3873 7.93816 12.9135 8.5486C11.4398 9.15905 10.1802 10.1928 9.29392 11.5191C8.40769 12.8455 7.93467 14.4048 7.93467 16C7.93714 18.1383 8.78767 20.1883 10.2997 21.7003C11.8117 23.2123 13.8617 24.0629 16 24.0653Z" fill="#226CF2"/>
<path d="M12 19.3346L13.3333 18.2053C13.5724 18.5844 13.8869 18.9103 14.2573 19.1626C14.6181 19.3852 15.0153 19.5423 15.4307 19.6266V16.3066C14.9994 16.2166 14.5786 16.0825 14.1747 15.9066C13.7894 15.7444 13.43 15.5265 13.108 15.26C12.8102 15.0126 12.5622 14.7108 12.3773 14.3706C12.1936 14.0164 12.1018 13.6216 12.1107 13.2226C12.0994 12.7596 12.1905 12.2998 12.3773 11.876C12.5473 11.5027 12.7967 11.171 13.108 10.904C13.4221 10.64 13.7843 10.4395 14.1747 10.3133C14.5801 10.1782 15.0035 10.105 15.4307 10.096V8.99597H16.5733V10.096C17.1467 10.1092 17.7106 10.2456 18.2267 10.496C18.7901 10.7874 19.3047 11.1648 19.752 11.6146L18.5413 12.796C18.258 12.5223 17.956 12.2688 17.6373 12.0373C17.3202 11.8166 16.9541 11.6766 16.5707 11.6293V14.696C17.0729 14.8413 17.5632 15.0249 18.0373 15.2453C18.4309 15.4267 18.7935 15.6688 19.112 15.9626C19.3992 16.2312 19.6264 16.5574 19.7787 16.92C19.9377 17.3234 20.0148 17.7544 20.0053 18.188C20.0197 18.638 19.9284 19.085 19.7387 19.4933C19.564 19.8466 19.312 20.156 19.0013 20.3986C18.6749 20.6483 18.3038 20.8334 17.908 20.944C17.4769 21.0682 17.0323 21.1398 16.584 21.1573V22.9973H15.428V21.1573C14.768 21.094 14.1246 20.9134 13.528 20.624C12.9237 20.3213 12.4 19.8794 12 19.3346ZM13.8467 13.0906C13.8368 13.2443 13.8655 13.398 13.9303 13.5378C13.995 13.6775 14.0937 13.7988 14.2173 13.8906C14.591 14.1215 14.9999 14.2896 15.428 14.388V11.628C15.0173 11.6364 14.6183 11.7663 14.2813 12.0013C14.1269 12.1347 14.0068 12.3034 13.9311 12.4929C13.8555 12.6825 13.8265 12.8875 13.8467 13.0906ZM16.572 19.624C16.7726 19.6235 16.9727 19.6034 17.1693 19.564C17.365 19.5269 17.5515 19.4522 17.7187 19.344C17.8861 19.2363 18.0237 19.0882 18.1187 18.9133C18.2243 18.7027 18.2752 18.4688 18.2667 18.2333C18.2777 18.0364 18.2416 17.8397 18.1614 17.6595C18.0811 17.4793 17.9591 17.3209 17.8053 17.1973C17.4395 16.9285 17.0218 16.7387 16.5787 16.64L16.572 19.624Z" fill="#226CF2"/>
<path d="M16.0093 2.00003C17.946 1.886 19.8819 2.23493 21.6568 3.01794C23.4317 3.80095 24.9946 4.9955 26.216 6.5027C26.377 6.70779 26.4512 6.96776 26.4229 7.22693C26.3945 7.4861 26.2658 7.72386 26.0643 7.88929C25.8628 8.05472 25.6045 8.13466 25.3447 8.11199C25.085 8.08933 24.8445 7.96586 24.6747 7.76803C20.9613 3.24403 15.1773 2.67736 10.0853 5.5627C8.24865 6.60345 6.71903 8.11032 5.65086 9.9312C4.58268 11.7521 4.01377 13.8225 4.00155 15.9336C3.98933 18.0446 4.53422 20.1215 5.58123 21.9546C6.62824 23.7877 8.14032 25.3122 9.96483 26.3742C11.7893 27.4361 13.8617 27.998 15.9728 28.003C18.0838 28.008 20.1589 27.4561 21.9884 26.4028C23.818 25.3496 25.3373 23.8323 26.393 22.0042C27.4487 20.176 28.0035 18.1018 28.0013 15.9907C27.9865 14.4988 27.6869 13.0235 27.1187 11.644C27.0288 11.4016 27.0366 11.1338 27.1404 10.8971C27.2442 10.6603 27.4358 10.4731 27.6749 10.3749C27.9141 10.2767 28.182 10.2751 28.4222 10.3706C28.6624 10.4661 28.8562 10.6511 28.9627 10.8867C29.6305 12.5027 29.983 14.2316 30.0013 15.98C30.0024 18.746 29.1832 21.4502 27.6474 23.7506C26.1117 26.0511 23.9282 27.8444 21.3732 28.904C18.8182 29.9635 16.0064 30.2416 13.2933 29.7031C10.5803 29.1646 8.08781 27.8337 6.13113 25.8787C4.17445 23.9237 2.84142 21.4324 2.30061 18.7198C1.75979 16.0072 2.03549 13.1952 3.09282 10.6393C4.15016 8.08335 5.94166 5.89836 8.24077 4.3606C10.5399 2.82283 13.2434 2.00135 16.0093 2.00003Z" fill="#226CF2"/>
<path d="M16.008 1.99997C17.9443 1.88493 19.8801 2.23272 21.6552 3.01456C23.4304 3.7964 24.9938 4.9898 26.216 6.49597C26.377 6.70106 26.4512 6.96104 26.4229 7.22021C26.3945 7.47938 26.2658 7.71713 26.0643 7.88256C25.8627 8.04799 25.6045 8.12793 25.3447 8.10527C25.085 8.0826 24.8445 7.95914 24.6747 7.7613C20.96 3.24264 15.1773 2.67597 10.084 5.56264C8.2484 6.60433 6.72 8.11172 5.65302 9.93274C4.58604 11.7538 4.01822 13.824 4.00684 15.9345C3.99546 18.0451 4.54094 20.1213 5.58822 21.9537C6.63551 23.7861 8.14757 25.3099 9.97183 26.3713C11.7961 27.4327 13.868 27.9942 15.9786 27.9992C18.0892 28.0041 20.1637 27.4523 21.9929 26.3994C23.8221 25.3466 25.3413 23.8299 26.3972 22.0024C27.453 20.1749 28.0082 18.1012 28.0067 15.9906C27.9918 14.4988 27.6922 13.0235 27.124 11.644C27.0342 11.4016 27.0419 11.1338 27.1457 10.897C27.2495 10.6602 27.4411 10.473 27.6803 10.3748C27.9194 10.2766 28.1873 10.2751 28.4275 10.3706C28.6678 10.466 28.8615 10.6511 28.968 10.8866C29.6335 12.5031 29.9838 14.2319 30 15.98C30.0011 18.746 29.1819 21.4501 27.6461 23.7506C26.1103 26.051 23.9269 27.8444 21.3719 28.9039C18.8169 29.9634 16.005 30.2415 13.292 29.703C10.5789 29.1646 8.08647 27.8337 6.12979 25.8787C4.1731 23.9237 2.84007 21.4323 2.29926 18.7198C1.75845 16.0072 2.03414 13.1951 3.09148 10.6392C4.14882 8.08329 5.94031 5.8983 8.23943 4.36053C10.5385 2.82277 13.242 2.00129 16.008 1.99997Z" fill="#226CF2"/>
</g>
<defs>
<clipPath id="clip0_1_2389">
<rect width="32" height="32" fill="white"/>
</clipPath>
</defs>
</svg>
