<svg width="17" height="16" viewBox="0 0 17 16" fill="none" xmlns="http://www.w3.org/2000/svg">
<g clip-path="url(#clip0_39_1686)">
<mask id="mask0_39_1686" style="mask-type:luminance" maskUnits="userSpaceOnUse" x="0" y="0" width="17" height="16">
<path d="M16.5 0H0.5V16H16.5V0Z" fill="white"/>
</mask>
<g mask="url(#mask0_39_1686)">
<path d="M4.44067 15C3.92609 15 3.43257 14.7956 3.06864 14.4318C2.70472 14.068 2.50018 13.5746 2.5 13.06V2.94067C2.49991 2.68579 2.55005 2.43339 2.64755 2.1979C2.74504 1.96241 2.88799 1.74844 3.06821 1.56821C3.24844 1.38799 3.46241 1.24504 3.6979 1.14755C3.93339 1.05005 4.18579 0.999913 4.44067 1H8.56C8.81482 1 9.06715 1.0502 9.30256 1.14774C9.53798 1.24527 9.75187 1.38823 9.93202 1.56845C10.1122 1.74866 10.2551 1.96261 10.3525 2.19806C10.45 2.4335 10.5001 2.68585 10.5 2.94067V3.50067C10.5 3.63328 10.4473 3.76045 10.3536 3.85422C10.2598 3.94799 10.1326 4.00067 10 4.00067C9.86739 4.00067 9.74022 3.94799 9.64645 3.85422C9.55268 3.76045 9.5 3.63328 9.5 3.50067V2.94067C9.49947 2.69146 9.40029 2.45261 9.22414 2.27633C9.04799 2.10006 8.8092 2.0007 8.56 2H4.44067C4.19135 2.00053 3.95239 2.0998 3.7761 2.2761C3.5998 2.45239 3.50053 2.69135 3.5 2.94067V13.06C3.5007 13.3092 3.60006 13.548 3.77633 13.7241C3.95261 13.9003 4.19146 13.9995 4.44067 14H8.56C8.80909 13.9993 9.04777 13.9 9.2239 13.7239C9.40003 13.5478 9.4993 13.3091 9.5 13.06V12.5C9.5 12.3674 9.55268 12.2402 9.64645 12.1464C9.74022 12.0527 9.86739 12 10 12C10.1326 12 10.2598 12.0527 10.3536 12.1464C10.4473 12.2402 10.5 12.3674 10.5 12.5V13.06C10.4998 13.5745 10.2954 14.0678 9.93159 14.4316C9.56781 14.7954 9.07447 14.9998 8.56 15H4.44067ZM11.2267 10.8533C11.1333 10.7586 11.0809 10.631 11.0809 10.498C11.0809 10.365 11.1333 10.2374 11.2267 10.1427L12.8053 8.504H6.00267C5.86935 8.504 5.7415 8.45104 5.64723 8.35677C5.55296 8.2625 5.5 8.13465 5.5 8.00133C5.5 7.86802 5.55296 7.74016 5.64723 7.64589C5.7415 7.55163 5.86935 7.49867 6.00267 7.49867H12.8027L11.2333 5.858C11.1396 5.76348 11.087 5.63577 11.087 5.50267C11.087 5.36956 11.1396 5.24185 11.2333 5.14733L11.2367 5.144C11.3301 5.05146 11.4565 4.99982 11.588 5.00045C11.7195 5.00107 11.8454 5.05391 11.938 5.14733L14.356 7.63733C14.4491 7.73524 14.5011 7.8652 14.5011 8.00033C14.5011 8.13546 14.4491 8.26543 14.356 8.36333L11.9313 10.8533L11.928 10.8567C11.8345 10.9492 11.7082 11.0008 11.5766 11.0002C11.4451 10.9996 11.3192 10.9468 11.2267 10.8533Z" fill="#226CF2"/>
</g>
</g>
<defs>
<clipPath id="clip0_39_1686">
<rect width="16" height="16" fill="white" transform="translate(0.5)"/>
</clipPath>
</defs>
</svg>
