<svg width="375" height="64" viewBox="0 0 375 64" fill="none" xmlns="http://www.w3.org/2000/svg">
<rect width="375" height="64" fill="white"/>
<g clip-path="url(#clip0_1_5736)">
<mask id="mask0_1_5736" style="mask-type:luminance" maskUnits="userSpaceOnUse" x="24" y="20" width="24" height="24">
<path d="M24 44H48V20L24 20L24 44Z" fill="white"/>
</mask>
<g mask="url(#mask0_1_5736)">
<path d="M38.181 40.9991C38.2887 40.9993 38.3953 40.9781 38.4947 40.9367C38.5941 40.8953 38.6843 40.8346 38.76 40.7581C38.914 40.6033 39.0004 40.3939 39.0004 40.1756C39.0004 39.9573 38.914 39.7479 38.76 39.5931L31.979 31.9991L38.679 24.3991C38.833 24.2443 38.9194 24.0349 38.9194 23.8166C38.9194 23.5983 38.833 23.3889 38.679 23.2341C38.6032 23.1575 38.513 23.0966 38.4135 23.0551C38.314 23.0136 38.2073 22.9922 38.0995 22.9922C37.9917 22.9922 37.885 23.0136 37.7855 23.0551C37.6861 23.0966 37.5958 23.1575 37.52 23.2341L30.241 31.4191C30.0863 31.5917 30.0008 31.8153 30.0008 32.0471C30.0008 32.2789 30.0863 32.5025 30.241 32.6751L37.601 40.7581C37.677 40.8346 37.7674 40.8952 37.8669 40.9366C37.9665 40.9779 38.0732 40.9992 38.181 40.9991Z" fill="#CECED4"/>
</g>
</g>
<g clip-path="url(#clip1_1_5736)">
<mask id="mask1_1_5736" style="mask-type:luminance" maskUnits="userSpaceOnUse" x="327" y="20" width="24" height="24">
<path d="M351 20H327V44H351V20Z" fill="white"/>
</mask>
<g mask="url(#mask1_1_5736)">
<path d="M336.821 40.999C336.713 40.9992 336.606 40.978 336.507 40.9366C336.407 40.8953 336.317 40.8346 336.241 40.7581C336.087 40.6033 336.001 40.3938 336.001 40.1755C336.001 39.9572 336.087 39.7478 336.241 39.593L343.022 32.002L336.322 24.402C336.168 24.2472 336.082 24.0378 336.082 23.8195C336.082 23.6012 336.168 23.3918 336.322 23.2371C336.398 23.1604 336.488 23.0995 336.588 23.058C336.687 23.0165 336.794 22.9951 336.902 22.9951C337.009 22.9951 337.116 23.0165 337.215 23.058C337.315 23.0995 337.405 23.1604 337.481 23.2371L344.757 31.415C344.912 31.5876 344.997 31.8112 344.997 32.043C344.997 32.2747 344.912 32.4984 344.757 32.671L337.397 40.754C337.322 40.8307 337.232 40.8918 337.133 40.9338C337.035 40.9759 336.928 40.9981 336.821 40.999Z" fill="#226CF2"/>
</g>
</g>
<path d="M69.2393 37H62.6904V36.0498L65.3633 33.3359C65.86 32.8346 66.277 32.388 66.6143 31.9961C66.9561 31.6042 67.2158 31.2191 67.3936 30.8408C67.5713 30.458 67.6602 30.0387 67.6602 29.583C67.6602 29.0179 67.4915 28.5872 67.1543 28.291C66.8216 27.9902 66.3818 27.8398 65.835 27.8398C65.3564 27.8398 64.9326 27.9219 64.5635 28.0859C64.1943 28.25 63.8161 28.4824 63.4287 28.7832L62.8203 28.0176C63.0846 27.7943 63.3717 27.596 63.6816 27.4229C63.9961 27.2497 64.3311 27.113 64.6865 27.0127C65.0465 26.9124 65.4294 26.8623 65.835 26.8623C66.4502 26.8623 66.9811 26.9694 67.4277 27.1836C67.8743 27.3978 68.2184 27.7031 68.46 28.0996C68.7061 28.4961 68.8291 28.9678 68.8291 29.5146C68.8291 30.0433 68.7243 30.5355 68.5146 30.9912C68.305 31.4424 68.0111 31.8913 67.6328 32.3379C67.2546 32.7799 66.8125 33.2493 66.3066 33.7461L64.1328 35.9131V35.9609H69.2393V37ZM77.3057 31.9893C77.3057 32.8005 77.2441 33.5251 77.1211 34.1631C76.998 34.8011 76.8044 35.3411 76.54 35.7832C76.2757 36.2253 75.9339 36.5625 75.5146 36.7949C75.0954 37.0228 74.5918 37.1367 74.0039 37.1367C73.2611 37.1367 72.6458 36.9339 72.1582 36.5283C71.6751 36.1227 71.3128 35.5371 71.0713 34.7715C70.8343 34.0013 70.7158 33.0739 70.7158 31.9893C70.7158 30.9229 70.8229 30.0068 71.0371 29.2412C71.2559 28.471 71.6068 27.8809 72.0898 27.4707C72.5729 27.056 73.2109 26.8486 74.0039 26.8486C74.7559 26.8486 75.3757 27.0537 75.8633 27.4639C76.3509 27.8695 76.7132 28.4574 76.9502 29.2275C77.1872 29.9932 77.3057 30.9137 77.3057 31.9893ZM71.8574 31.9893C71.8574 32.9189 71.9281 33.6937 72.0693 34.3135C72.2106 34.9333 72.4385 35.3981 72.7529 35.708C73.0719 36.0133 73.4889 36.166 74.0039 36.166C74.5189 36.166 74.9336 36.0133 75.248 35.708C75.5671 35.4027 75.7972 34.9401 75.9385 34.3203C76.0843 33.7005 76.1572 32.9235 76.1572 31.9893C76.1572 31.0732 76.0866 30.3076 75.9453 29.6924C75.804 29.0726 75.5762 28.6077 75.2617 28.2979C74.9473 27.9834 74.528 27.8262 74.0039 27.8262C73.4798 27.8262 73.0605 27.9834 72.7461 28.2979C72.4316 28.6077 72.2038 29.0726 72.0625 29.6924C71.9258 30.3076 71.8574 31.0732 71.8574 31.9893ZM85.2627 37H78.7139V36.0498L81.3867 33.3359C81.8835 32.8346 82.3005 32.388 82.6377 31.9961C82.9795 31.6042 83.2393 31.2191 83.417 30.8408C83.5947 30.458 83.6836 30.0387 83.6836 29.583C83.6836 29.0179 83.515 28.5872 83.1777 28.291C82.8451 27.9902 82.4053 27.8398 81.8584 27.8398C81.3799 27.8398 80.9561 27.9219 80.5869 28.0859C80.2178 28.25 79.8395 28.4824 79.4521 28.7832L78.8438 28.0176C79.1081 27.7943 79.3952 27.596 79.7051 27.4229C80.0195 27.2497 80.3545 27.113 80.71 27.0127C81.07 26.9124 81.4528 26.8623 81.8584 26.8623C82.4736 26.8623 83.0046 26.9694 83.4512 27.1836C83.8978 27.3978 84.2419 27.7031 84.4834 28.0996C84.7295 28.4961 84.8525 28.9678 84.8525 29.5146C84.8525 30.0433 84.7477 30.5355 84.5381 30.9912C84.3285 31.4424 84.0345 31.8913 83.6562 32.3379C83.278 32.7799 82.8359 33.2493 82.3301 33.7461L80.1562 35.9131V35.9609H85.2627V37ZM90.9502 37H89.8428V29.918C89.8428 29.6491 89.8428 29.4189 89.8428 29.2275C89.8473 29.0316 89.8519 28.8538 89.8564 28.6943C89.8656 28.5303 89.877 28.3639 89.8906 28.1953C89.7493 28.3411 89.6172 28.4665 89.4941 28.5713C89.3711 28.6715 89.2184 28.7969 89.0361 28.9473L87.8945 29.8633L87.2998 29.0908L90.0068 27.0059H90.9502V37Z" fill="#111111"/>
<path d="M142.239 37H135.69V36.0498L138.363 33.3359C138.86 32.8346 139.277 32.388 139.614 31.9961C139.956 31.6042 140.216 31.2191 140.394 30.8408C140.571 30.458 140.66 30.0387 140.66 29.583C140.66 29.0179 140.492 28.5872 140.154 28.291C139.822 27.9902 139.382 27.8398 138.835 27.8398C138.356 27.8398 137.933 27.9219 137.563 28.0859C137.194 28.25 136.816 28.4824 136.429 28.7832L135.82 28.0176C136.085 27.7943 136.372 27.596 136.682 27.4229C136.996 27.2497 137.331 27.113 137.687 27.0127C138.047 26.9124 138.429 26.8623 138.835 26.8623C139.45 26.8623 139.981 26.9694 140.428 27.1836C140.874 27.3978 141.218 27.7031 141.46 28.0996C141.706 28.4961 141.829 28.9678 141.829 29.5146C141.829 30.0433 141.724 30.5355 141.515 30.9912C141.305 31.4424 141.011 31.8913 140.633 32.3379C140.255 32.7799 139.812 33.2493 139.307 33.7461L137.133 35.9131V35.9609H142.239V37ZM150.306 31.9893C150.306 32.8005 150.244 33.5251 150.121 34.1631C149.998 34.8011 149.804 35.3411 149.54 35.7832C149.276 36.2253 148.934 36.5625 148.515 36.7949C148.095 37.0228 147.592 37.1367 147.004 37.1367C146.261 37.1367 145.646 36.9339 145.158 36.5283C144.675 36.1227 144.313 35.5371 144.071 34.7715C143.834 34.0013 143.716 33.0739 143.716 31.9893C143.716 30.9229 143.823 30.0068 144.037 29.2412C144.256 28.471 144.607 27.8809 145.09 27.4707C145.573 27.056 146.211 26.8486 147.004 26.8486C147.756 26.8486 148.376 27.0537 148.863 27.4639C149.351 27.8695 149.713 28.4574 149.95 29.2275C150.187 29.9932 150.306 30.9137 150.306 31.9893ZM144.857 31.9893C144.857 32.9189 144.928 33.6937 145.069 34.3135C145.211 34.9333 145.438 35.3981 145.753 35.708C146.072 36.0133 146.489 36.166 147.004 36.166C147.519 36.166 147.934 36.0133 148.248 35.708C148.567 35.4027 148.797 34.9401 148.938 34.3203C149.084 33.7005 149.157 32.9235 149.157 31.9893C149.157 31.0732 149.087 30.3076 148.945 29.6924C148.804 29.0726 148.576 28.6077 148.262 28.2979C147.947 27.9834 147.528 27.8262 147.004 27.8262C146.48 27.8262 146.061 27.9834 145.746 28.2979C145.432 28.6077 145.204 29.0726 145.062 29.6924C144.926 30.3076 144.857 31.0732 144.857 31.9893ZM158.263 37H151.714V36.0498L154.387 33.3359C154.883 32.8346 155.3 32.388 155.638 31.9961C155.979 31.6042 156.239 31.2191 156.417 30.8408C156.595 30.458 156.684 30.0387 156.684 29.583C156.684 29.0179 156.515 28.5872 156.178 28.291C155.845 27.9902 155.405 27.8398 154.858 27.8398C154.38 27.8398 153.956 27.9219 153.587 28.0859C153.218 28.25 152.84 28.4824 152.452 28.7832L151.844 28.0176C152.108 27.7943 152.395 27.596 152.705 27.4229C153.02 27.2497 153.354 27.113 153.71 27.0127C154.07 26.9124 154.453 26.8623 154.858 26.8623C155.474 26.8623 156.005 26.9694 156.451 27.1836C156.898 27.3978 157.242 27.7031 157.483 28.0996C157.729 28.4961 157.853 28.9678 157.853 29.5146C157.853 30.0433 157.748 30.5355 157.538 30.9912C157.328 31.4424 157.035 31.8913 156.656 32.3379C156.278 32.7799 155.836 33.2493 155.33 33.7461L153.156 35.9131V35.9609H158.263V37ZM166.274 37H159.726V36.0498L162.398 33.3359C162.895 32.8346 163.312 32.388 163.649 31.9961C163.991 31.6042 164.251 31.2191 164.429 30.8408C164.606 30.458 164.695 30.0387 164.695 29.583C164.695 29.0179 164.527 28.5872 164.189 28.291C163.857 27.9902 163.417 27.8398 162.87 27.8398C162.392 27.8398 161.968 27.9219 161.599 28.0859C161.229 28.25 160.851 28.4824 160.464 28.7832L159.855 28.0176C160.12 27.7943 160.407 27.596 160.717 27.4229C161.031 27.2497 161.366 27.113 161.722 27.0127C162.082 26.9124 162.465 26.8623 162.87 26.8623C163.485 26.8623 164.016 26.9694 164.463 27.1836C164.91 27.3978 165.254 27.7031 165.495 28.0996C165.741 28.4961 165.864 28.9678 165.864 29.5146C165.864 30.0433 165.759 30.5355 165.55 30.9912C165.34 31.4424 165.046 31.8913 164.668 32.3379C164.29 32.7799 163.848 33.2493 163.342 33.7461L161.168 35.9131V35.9609H166.274V37Z" fill="#111111"/>
<path d="M215.547 37H208.561V35.5303L211.069 32.9941C211.575 32.4746 211.981 32.0417 212.286 31.6953C212.596 31.3444 212.819 31.0254 212.956 30.7383C213.097 30.4512 213.168 30.1436 213.168 29.8154C213.168 29.4189 213.056 29.1227 212.833 28.9268C212.614 28.7262 212.32 28.626 211.951 28.626C211.564 28.626 211.188 28.7148 210.823 28.8926C210.459 29.0703 210.078 29.3232 209.682 29.6514L208.533 28.291C208.82 28.0449 209.123 27.8125 209.442 27.5938C209.766 27.375 210.14 27.1995 210.563 27.0674C210.992 26.9307 211.505 26.8623 212.102 26.8623C212.758 26.8623 213.321 26.9808 213.79 27.2178C214.264 27.4548 214.629 27.7783 214.884 28.1885C215.139 28.5941 215.267 29.0544 215.267 29.5693C215.267 30.1208 215.157 30.6243 214.938 31.0801C214.72 31.5358 214.401 31.987 213.981 32.4336C213.567 32.8802 213.065 33.3747 212.478 33.917L211.192 35.127V35.2227H215.547V37ZM223.504 32.0029C223.504 32.8096 223.44 33.5296 223.312 34.1631C223.189 34.7965 222.989 35.3343 222.711 35.7764C222.438 36.2184 222.077 36.5557 221.631 36.7881C221.184 37.0205 220.642 37.1367 220.004 37.1367C219.202 37.1367 218.543 36.9339 218.028 36.5283C217.513 36.1182 217.133 35.5303 216.887 34.7646C216.641 33.9945 216.518 33.0739 216.518 32.0029C216.518 30.9229 216.629 30 216.853 29.2344C217.08 28.4642 217.45 27.874 217.96 27.4639C218.47 27.0537 219.152 26.8486 220.004 26.8486C220.801 26.8486 221.458 27.0537 221.973 27.4639C222.492 27.8695 222.877 28.4574 223.128 29.2275C223.379 29.9932 223.504 30.9183 223.504 32.0029ZM218.616 32.0029C218.616 32.764 218.657 33.3997 218.739 33.9102C218.826 34.416 218.969 34.7965 219.17 35.0518C219.37 35.307 219.648 35.4346 220.004 35.4346C220.355 35.4346 220.631 35.3092 220.831 35.0586C221.036 34.8034 221.182 34.4229 221.269 33.917C221.355 33.4066 221.398 32.7686 221.398 32.0029C221.398 31.2419 221.355 30.6061 221.269 30.0957C221.182 29.5853 221.036 29.2025 220.831 28.9473C220.631 28.6875 220.355 28.5576 220.004 28.5576C219.648 28.5576 219.37 28.6875 219.17 28.9473C218.969 29.2025 218.826 29.5853 218.739 30.0957C218.657 30.6061 218.616 31.2419 218.616 32.0029ZM231.57 37H224.584V35.5303L227.093 32.9941C227.599 32.4746 228.004 32.0417 228.31 31.6953C228.619 31.3444 228.843 31.0254 228.979 30.7383C229.121 30.4512 229.191 30.1436 229.191 29.8154C229.191 29.4189 229.08 29.1227 228.856 28.9268C228.638 28.7262 228.344 28.626 227.975 28.626C227.587 28.626 227.211 28.7148 226.847 28.8926C226.482 29.0703 226.102 29.3232 225.705 29.6514L224.557 28.291C224.844 28.0449 225.147 27.8125 225.466 27.5938C225.789 27.375 226.163 27.1995 226.587 27.0674C227.015 26.9307 227.528 26.8623 228.125 26.8623C228.781 26.8623 229.344 26.9808 229.813 27.2178C230.287 27.4548 230.652 27.7783 230.907 28.1885C231.162 28.5941 231.29 29.0544 231.29 29.5693C231.29 30.1208 231.181 30.6243 230.962 31.0801C230.743 31.5358 230.424 31.987 230.005 32.4336C229.59 32.8802 229.089 33.3747 228.501 33.917L227.216 35.127V35.2227H231.57V37ZM239.192 29.2412C239.192 29.7015 239.097 30.1003 238.905 30.4375C238.714 30.7747 238.454 31.0505 238.126 31.2646C237.802 31.4788 237.438 31.6361 237.032 31.7363V31.7773C237.834 31.8776 238.443 32.1237 238.857 32.5156C239.277 32.9076 239.486 33.4316 239.486 34.0879C239.486 34.6712 239.343 35.193 239.056 35.6533C238.773 36.1136 238.336 36.4759 237.743 36.7402C237.151 37.0046 236.387 37.1367 235.453 37.1367C234.902 37.1367 234.387 37.0911 233.908 37C233.434 36.9134 232.988 36.779 232.568 36.5967V34.7988C232.997 35.0176 233.446 35.1839 233.915 35.2979C234.384 35.4072 234.822 35.4619 235.228 35.4619C235.984 35.4619 236.513 35.332 236.813 35.0723C237.119 34.8079 237.271 34.4388 237.271 33.9648C237.271 33.6868 237.201 33.4521 237.06 33.2607C236.918 33.0693 236.672 32.9235 236.321 32.8232C235.975 32.723 235.49 32.6729 234.865 32.6729H234.106V31.0527H234.879C235.494 31.0527 235.961 30.9958 236.28 30.8818C236.604 30.7633 236.823 30.6038 236.937 30.4033C237.055 30.1982 237.114 29.9658 237.114 29.7061C237.114 29.3506 237.005 29.0726 236.786 28.8721C236.567 28.6715 236.203 28.5713 235.692 28.5713C235.373 28.5713 235.082 28.6123 234.817 28.6943C234.558 28.7718 234.323 28.8675 234.113 28.9814C233.904 29.0908 233.719 29.1979 233.56 29.3027L232.582 27.8467C232.974 27.5641 233.432 27.3294 233.956 27.1426C234.485 26.9557 235.114 26.8623 235.843 26.8623C236.873 26.8623 237.688 27.0697 238.29 27.4844C238.892 27.8991 239.192 28.4847 239.192 29.2412Z" fill="#226CF2"/>
<path d="M288.239 37H281.69V36.0498L284.363 33.3359C284.86 32.8346 285.277 32.388 285.614 31.9961C285.956 31.6042 286.216 31.2191 286.394 30.8408C286.571 30.458 286.66 30.0387 286.66 29.583C286.66 29.0179 286.492 28.5872 286.154 28.291C285.822 27.9902 285.382 27.8398 284.835 27.8398C284.356 27.8398 283.933 27.9219 283.563 28.0859C283.194 28.25 282.816 28.4824 282.429 28.7832L281.82 28.0176C282.085 27.7943 282.372 27.596 282.682 27.4229C282.996 27.2497 283.331 27.113 283.687 27.0127C284.047 26.9124 284.429 26.8623 284.835 26.8623C285.45 26.8623 285.981 26.9694 286.428 27.1836C286.874 27.3978 287.218 27.7031 287.46 28.0996C287.706 28.4961 287.829 28.9678 287.829 29.5146C287.829 30.0433 287.724 30.5355 287.515 30.9912C287.305 31.4424 287.011 31.8913 286.633 32.3379C286.255 32.7799 285.812 33.2493 285.307 33.7461L283.133 35.9131V35.9609H288.239V37ZM296.306 31.9893C296.306 32.8005 296.244 33.5251 296.121 34.1631C295.998 34.8011 295.804 35.3411 295.54 35.7832C295.276 36.2253 294.934 36.5625 294.515 36.7949C294.095 37.0228 293.592 37.1367 293.004 37.1367C292.261 37.1367 291.646 36.9339 291.158 36.5283C290.675 36.1227 290.313 35.5371 290.071 34.7715C289.834 34.0013 289.716 33.0739 289.716 31.9893C289.716 30.9229 289.823 30.0068 290.037 29.2412C290.256 28.471 290.607 27.8809 291.09 27.4707C291.573 27.056 292.211 26.8486 293.004 26.8486C293.756 26.8486 294.376 27.0537 294.863 27.4639C295.351 27.8695 295.713 28.4574 295.95 29.2275C296.187 29.9932 296.306 30.9137 296.306 31.9893ZM290.857 31.9893C290.857 32.9189 290.928 33.6937 291.069 34.3135C291.211 34.9333 291.438 35.3981 291.753 35.708C292.072 36.0133 292.489 36.166 293.004 36.166C293.519 36.166 293.934 36.0133 294.248 35.708C294.567 35.4027 294.797 34.9401 294.938 34.3203C295.084 33.7005 295.157 32.9235 295.157 31.9893C295.157 31.0732 295.087 30.3076 294.945 29.6924C294.804 29.0726 294.576 28.6077 294.262 28.2979C293.947 27.9834 293.528 27.8262 293.004 27.8262C292.48 27.8262 292.061 27.9834 291.746 28.2979C291.432 28.6077 291.204 29.0726 291.062 29.6924C290.926 30.3076 290.857 31.0732 290.857 31.9893ZM304.263 37H297.714V36.0498L300.387 33.3359C300.883 32.8346 301.3 32.388 301.638 31.9961C301.979 31.6042 302.239 31.2191 302.417 30.8408C302.595 30.458 302.684 30.0387 302.684 29.583C302.684 29.0179 302.515 28.5872 302.178 28.291C301.845 27.9902 301.405 27.8398 300.858 27.8398C300.38 27.8398 299.956 27.9219 299.587 28.0859C299.218 28.25 298.84 28.4824 298.452 28.7832L297.844 28.0176C298.108 27.7943 298.395 27.596 298.705 27.4229C299.02 27.2497 299.354 27.113 299.71 27.0127C300.07 26.9124 300.453 26.8623 300.858 26.8623C301.474 26.8623 302.005 26.9694 302.451 27.1836C302.898 27.3978 303.242 27.7031 303.483 28.0996C303.729 28.4961 303.853 28.9678 303.853 29.5146C303.853 30.0433 303.748 30.5355 303.538 30.9912C303.328 31.4424 303.035 31.8913 302.656 32.3379C302.278 32.7799 301.836 33.2493 301.33 33.7461L299.156 35.9131V35.9609H304.263V37ZM312.773 34.6826H311.276V37H310.169V34.6826H305.336V33.7256L310.094 26.9512H311.276V33.6572H312.773V34.6826ZM310.169 33.6572V30.3896C310.169 30.139 310.171 29.9134 310.176 29.7129C310.18 29.5078 310.187 29.3187 310.196 29.1455C310.205 28.9678 310.212 28.7992 310.217 28.6396C310.226 28.4801 310.233 28.3229 310.237 28.168H310.183C310.096 28.3503 309.996 28.5439 309.882 28.749C309.772 28.9495 309.661 29.1296 309.547 29.2891L306.464 33.6572H310.169Z" fill="#111111"/>
<defs>
<clipPath id="clip0_1_5736">
<rect width="24" height="24" fill="white" transform="translate(24 20)"/>
</clipPath>
<clipPath id="clip1_1_5736">
<rect width="24" height="24" fill="white" transform="translate(327 20)"/>
</clipPath>
</defs>
</svg>
