<svg width="16" height="16" viewBox="0 0 16 16" fill="none" xmlns="http://www.w3.org/2000/svg">
<g clip-path="url(#clip0_2021_4647)">
<mask id="mask0_2021_4647" style="mask-type:luminance" maskUnits="userSpaceOnUse" x="0" y="0" width="16" height="16">
<path d="M16 0H0V16H16V0Z" fill="white"/>
</mask>
<g mask="url(#mask0_2021_4647)">
<path d="M14.5 4H1.5C1.36739 4 1.24021 3.94732 1.14645 3.85355C1.05268 3.75979 1 3.63261 1 3.5C1 3.36739 1.05268 3.24021 1.14645 3.14645C1.24021 3.05268 1.36739 3 1.5 3H14.5C14.6326 3 14.7598 3.05268 14.8536 3.14645C14.9473 3.24021 15 3.36739 15 3.5C15 3.63261 14.9473 3.75979 14.8536 3.85355C14.7598 3.94732 14.6326 4 14.5 4ZM10 12.5C10 12.3674 9.94732 12.2402 9.85355 12.1464C9.75979 12.0527 9.63261 12 9.5 12H6.5C6.36739 12 6.24021 12.0527 6.14645 12.1464C6.05268 12.2402 6 12.3674 6 12.5C6 12.6326 6.05268 12.7598 6.14645 12.8536C6.24021 12.9473 6.36739 13 6.5 13H9.5C9.63261 13 9.75979 12.9473 9.85355 12.8536C9.94732 12.7598 10 12.6326 10 12.5ZM13 8C13 7.86739 12.9473 7.74021 12.8536 7.64645C12.7598 7.55268 12.6326 7.5 12.5 7.5H3.5C3.36739 7.5 3.24021 7.55268 3.14645 7.64645C3.05268 7.74021 3 7.86739 3 8C3 8.13261 3.05268 8.25979 3.14645 8.35355C3.24021 8.44732 3.36739 8.5 3.5 8.5H12.5C12.6326 8.5 12.7598 8.44732 12.8536 8.35355C12.9473 8.25979 13 8.13261 13 8Z" fill="#226CF2"/>
</g>
</g>
<defs>
<clipPath id="clip0_2021_4647">
<rect width="16" height="16" fill="white"/>
</clipPath>
</defs>
</svg>
