<svg width="295" height="48" viewBox="0 0 295 48" fill="none" xmlns="http://www.w3.org/2000/svg">
<rect width="295" height="48" rx="16" fill="white"/>
<circle cx="24" cy="24" r="16" fill="#F08736"/>
<circle cx="24" cy="24" r="14" fill="white"/>
<g clip-path="url(#clip0_90_9419)">
<mask id="mask0_90_9419" style="mask-type:luminance" maskUnits="userSpaceOnUse" x="16" y="16" width="16" height="16">
<path d="M32 16H16V32H32V16Z" fill="white"/>
</mask>
<g mask="url(#mask0_90_9419)">
<path d="M24 31C22.6155 31 21.2622 30.5895 20.111 29.8203C18.9599 29.0511 18.0627 27.9579 17.5328 26.6788C17.003 25.3997 16.8644 23.9922 17.1345 22.6344C17.4046 21.2765 18.0713 20.0292 19.0503 19.0503C20.0292 18.0713 21.2765 17.4046 22.6344 17.1345C23.9922 16.8644 25.3997 17.003 26.6788 17.5328C27.9579 18.0627 29.0511 18.9599 29.8203 20.111C30.5895 21.2622 31 22.6155 31 24C30.9979 25.8559 30.2597 27.6351 28.9474 28.9474C27.6351 30.2597 25.8559 30.9979 24 31ZM21.1 23.9733C21.0012 23.9734 20.9046 24.0028 20.8224 24.0577C20.7403 24.1127 20.6763 24.1907 20.6385 24.2821C20.6007 24.3734 20.5908 24.4738 20.61 24.5708C20.6293 24.6677 20.6768 24.7567 20.7467 24.8267L22.7333 26.8167C22.7442 26.8301 22.7558 26.843 22.768 26.8553C22.8138 26.9017 22.8685 26.9383 22.9287 26.9632C22.9889 26.988 23.0535 27.0006 23.1187 27H23.1267C23.1923 27.0001 23.2574 26.9872 23.318 26.9621C23.3787 26.9369 23.4337 26.8999 23.48 26.8533C23.5022 26.831 23.5223 26.8067 23.54 26.7807L27.4553 22.844C27.5474 22.7509 27.599 22.6253 27.599 22.4943C27.599 22.3634 27.5474 22.2378 27.4553 22.1447C27.4098 22.0987 27.3556 22.0622 27.2958 22.0373C27.2361 22.0124 27.172 21.9996 27.1073 21.9996C27.0426 21.9996 26.9786 22.0124 26.9188 22.0373C26.8591 22.0622 26.8049 22.0987 26.7593 22.1447L23.1293 25.7953L21.4533 24.1193C21.407 24.0729 21.3519 24.036 21.2913 24.011C21.2306 23.9859 21.1656 23.9731 21.1 23.9733Z" fill="#F08633"/>
</g>
</g>
<circle cx="65.1667" cy="24" r="16" fill="#E0E0E6"/>
<path d="M64.6667 39C73.5033 39 80.1667 32.8366 80.1667 24C80.1667 15.1634 73.5033 9 64.6667 9" stroke="#F08633" stroke-width="2" stroke-linecap="round" stroke-linejoin="round"/>
<circle cx="65.1667" cy="24" r="14" fill="white"/>
<path d="M65.5779 29.3984H63.156V19.9922H60.0544V17.9766H68.6794V19.9922H65.5779V29.3984Z" fill="#F08736"/>
<circle cx="106.333" cy="24" r="16" fill="#E0E0E6"/>
<path d="M105.833 39C114.67 39 121.333 32.8366 121.333 24C121.333 15.1634 114.67 9 105.833 9" stroke="#F08633" stroke-width="2" stroke-linecap="round" stroke-linejoin="round"/>
<circle cx="106.333" cy="24" r="14" fill="white"/>
<path d="M111.671 23.6719C111.671 24.5208 111.57 25.2995 111.366 26.0078C111.169 26.7109 110.861 27.3203 110.445 27.8359C110.028 28.3516 109.499 28.7552 108.859 29.0469L111.609 32.1172H108.507L106.413 29.5547C106.377 29.5547 106.346 29.5547 106.32 29.5547C106.294 29.5547 106.265 29.5547 106.234 29.5547C105.301 29.5547 104.494 29.4167 103.812 29.1406C103.129 28.8594 102.564 28.4583 102.116 27.9375C101.674 27.4167 101.343 26.7943 101.124 26.0703C100.906 25.3464 100.796 24.5417 100.796 23.6562C100.796 22.474 100.989 21.4453 101.374 20.5703C101.765 19.6901 102.364 19.0078 103.171 18.5234C103.978 18.0391 105.004 17.7969 106.249 17.7969C107.489 17.7969 108.507 18.0391 109.304 18.5234C110.106 19.0078 110.7 19.6901 111.085 20.5703C111.476 21.4505 111.671 22.4844 111.671 23.6719ZM103.335 23.6719C103.335 24.4688 103.434 25.1562 103.632 25.7344C103.835 26.3073 104.15 26.75 104.577 27.0625C105.004 27.3698 105.557 27.5234 106.234 27.5234C106.921 27.5234 107.478 27.3698 107.906 27.0625C108.333 26.75 108.642 26.3073 108.835 25.7344C109.033 25.1562 109.132 24.4688 109.132 23.6719C109.132 22.474 108.908 21.5312 108.46 20.8438C108.012 20.1562 107.275 19.8125 106.249 19.8125C105.567 19.8125 105.01 19.9688 104.577 20.2812C104.15 20.5885 103.835 21.0312 103.632 21.6094C103.434 22.1823 103.335 22.8698 103.335 23.6719Z" fill="#F08736"/>
<circle cx="147.5" cy="24" r="16" fill="#E0E0E6"/>
<path d="M147 39C155.837 39 162.5 32.8366 162.5 24C162.5 15.1634 155.837 9 147 9" stroke="#F08633" stroke-width="2" stroke-linecap="round" stroke-linejoin="round"/>
<circle cx="147.5" cy="24" r="14" fill="white"/>
<path d="M152.838 23.6719C152.838 24.5208 152.736 25.2995 152.533 26.0078C152.335 26.7109 152.028 27.3203 151.611 27.8359C151.195 28.3516 150.666 28.7552 150.025 29.0469L152.775 32.1172H149.674L147.58 29.5547C147.544 29.5547 147.512 29.5547 147.486 29.5547C147.46 29.5547 147.432 29.5547 147.4 29.5547C146.468 29.5547 145.661 29.4167 144.979 29.1406C144.296 28.8594 143.731 28.4583 143.283 27.9375C142.84 27.4167 142.51 26.7943 142.291 26.0703C142.072 25.3464 141.963 24.5417 141.963 23.6562C141.963 22.474 142.156 21.4453 142.541 20.5703C142.932 19.6901 143.531 19.0078 144.338 18.5234C145.145 18.0391 146.171 17.7969 147.416 17.7969C148.656 17.7969 149.674 18.0391 150.471 18.5234C151.273 19.0078 151.867 19.6901 152.252 20.5703C152.643 21.4505 152.838 22.4844 152.838 23.6719ZM144.502 23.6719C144.502 24.4688 144.601 25.1562 144.799 25.7344C145.002 26.3073 145.317 26.75 145.744 27.0625C146.171 27.3698 146.723 27.5234 147.4 27.5234C148.088 27.5234 148.645 27.3698 149.072 27.0625C149.499 26.75 149.809 26.3073 150.002 25.7344C150.2 25.1562 150.299 24.4688 150.299 23.6719C150.299 22.474 150.075 21.5312 149.627 20.8438C149.179 20.1562 148.442 19.8125 147.416 19.8125C146.734 19.8125 146.176 19.9688 145.744 20.2812C145.317 20.5885 145.002 21.0312 144.799 21.6094C144.601 22.1823 144.502 22.8698 144.502 23.6719Z" fill="#F08736"/>
<circle cx="188.667" cy="24" r="16" fill="#E0E0E6"/>
<path d="M188.167 39C197.003 39 203.667 32.8366 203.667 24C203.667 15.1634 197.003 9 188.167 9" stroke="#F08633" stroke-width="2" stroke-linecap="round" stroke-linejoin="round"/>
<circle cx="188.667" cy="24" r="14" fill="white"/>
<path d="M193.14 26.2266C193.14 26.9036 192.976 27.4922 192.648 27.9922C192.32 28.4922 191.841 28.8776 191.211 29.1484C190.586 29.4193 189.825 29.5547 188.929 29.5547C188.534 29.5547 188.146 29.5286 187.765 29.4766C187.39 29.4245 187.028 29.349 186.679 29.25C186.336 29.1458 186.008 29.0182 185.695 28.8672V26.6172C186.237 26.8568 186.799 27.0729 187.383 27.2656C187.966 27.4583 188.544 27.5547 189.117 27.5547C189.513 27.5547 189.83 27.5026 190.07 27.3984C190.315 27.2943 190.492 27.151 190.601 26.9688C190.711 26.7865 190.765 26.5781 190.765 26.3438C190.765 26.0573 190.669 25.8125 190.476 25.6094C190.284 25.4062 190.018 25.2161 189.679 25.0391C189.346 24.862 188.969 24.6719 188.547 24.4688C188.281 24.3438 187.992 24.1927 187.679 24.0156C187.367 23.8333 187.07 23.612 186.789 23.3516C186.508 23.0911 186.276 22.776 186.094 22.4062C185.916 22.0312 185.828 21.5833 185.828 21.0625C185.828 20.3802 185.984 19.7969 186.297 19.3125C186.609 18.8281 187.054 18.4583 187.633 18.2031C188.216 17.9427 188.903 17.8125 189.695 17.8125C190.289 17.8125 190.854 17.8828 191.39 18.0234C191.932 18.1589 192.497 18.3568 193.086 18.6172L192.304 20.5C191.778 20.2865 191.307 20.1224 190.89 20.0078C190.474 19.888 190.049 19.8281 189.617 19.8281C189.315 19.8281 189.057 19.8776 188.844 19.9766C188.63 20.0703 188.469 20.2057 188.359 20.3828C188.25 20.5547 188.195 20.7552 188.195 20.9844C188.195 21.2552 188.273 21.4844 188.429 21.6719C188.591 21.8542 188.83 22.0312 189.148 22.2031C189.471 22.375 189.872 22.5755 190.351 22.8047C190.935 23.0807 191.432 23.3698 191.844 23.6719C192.26 23.9688 192.58 24.3203 192.804 24.7266C193.028 25.1276 193.14 25.6276 193.14 26.2266Z" fill="#F08736"/>
<circle cx="229.833" cy="24" r="16" fill="#E0E0E6"/>
<path d="M229.333 39C238.17 39 244.833 32.8366 244.833 24C244.833 15.1634 238.17 9 229.333 9" stroke="#F08633" stroke-width="2" stroke-linecap="round" stroke-linejoin="round"/>
<circle cx="229.833" cy="24" r="14" fill="white"/>
<path d="M234.307 26.2266C234.307 26.9036 234.143 27.4922 233.815 27.9922C233.487 28.4922 233.007 28.8776 232.377 29.1484C231.752 29.4193 230.992 29.5547 230.096 29.5547C229.7 29.5547 229.312 29.5286 228.932 29.4766C228.557 29.4245 228.195 29.349 227.846 29.25C227.502 29.1458 227.174 29.0182 226.862 28.8672V26.6172C227.403 26.8568 227.966 27.0729 228.549 27.2656C229.132 27.4583 229.711 27.5547 230.283 27.5547C230.679 27.5547 230.997 27.5026 231.237 27.3984C231.481 27.2943 231.658 27.151 231.768 26.9688C231.877 26.7865 231.932 26.5781 231.932 26.3438C231.932 26.0573 231.836 25.8125 231.643 25.6094C231.45 25.4062 231.184 25.2161 230.846 25.0391C230.513 24.862 230.135 24.6719 229.713 24.4688C229.448 24.3438 229.158 24.1927 228.846 24.0156C228.533 23.8333 228.237 23.612 227.955 23.3516C227.674 23.0911 227.442 22.776 227.26 22.4062C227.083 22.0312 226.994 21.5833 226.994 21.0625C226.994 20.3802 227.151 19.7969 227.463 19.3125C227.776 18.8281 228.221 18.4583 228.799 18.2031C229.382 17.9427 230.07 17.8125 230.862 17.8125C231.455 17.8125 232.02 17.8828 232.557 18.0234C233.099 18.1589 233.664 18.3568 234.252 18.6172L233.471 20.5C232.945 20.2865 232.474 20.1224 232.057 20.0078C231.64 19.888 231.216 19.8281 230.783 19.8281C230.481 19.8281 230.224 19.8776 230.01 19.9766C229.796 20.0703 229.635 20.2057 229.526 20.3828C229.416 20.5547 229.362 20.7552 229.362 20.9844C229.362 21.2552 229.44 21.4844 229.596 21.6719C229.757 21.8542 229.997 22.0312 230.315 22.2031C230.638 22.375 231.039 22.5755 231.518 22.8047C232.101 23.0807 232.599 23.3698 233.01 23.6719C233.427 23.9688 233.747 24.3203 233.971 24.7266C234.195 25.1276 234.307 25.6276 234.307 26.2266Z" fill="#F08736"/>
<circle cx="271" cy="24" r="16" fill="#E0E0E6"/>
<circle cx="271" cy="24" r="14" fill="white"/>
<path d="M275.393 23.5781C275.393 24.8646 275.145 25.9401 274.65 26.8047C274.161 27.6641 273.45 28.3125 272.518 28.75C271.585 29.1823 270.463 29.3984 269.15 29.3984H265.916V17.9766H269.502C270.7 17.9766 271.739 18.1901 272.619 18.6172C273.499 19.0391 274.182 19.6667 274.666 20.5C275.15 21.3281 275.393 22.3542 275.393 23.5781ZM272.877 23.6406C272.877 22.7969 272.752 22.1042 272.502 21.5625C272.257 21.0156 271.893 20.612 271.408 20.3516C270.929 20.0911 270.335 19.9609 269.627 19.9609H268.338V27.3984H269.377C270.559 27.3984 271.437 27.0833 272.01 26.4531C272.588 25.8229 272.877 24.8854 272.877 23.6406Z" fill="#F08736"/>
<defs>
<clipPath id="clip0_90_9419">
<rect width="16" height="16" fill="white" transform="translate(16 16)"/>
</clipPath>
</defs>
</svg>
