<svg width="25" height="25" viewBox="0 0 25 25" fill="none" xmlns="http://www.w3.org/2000/svg">
<mask id="mask0_39_485" style="mask-type:luminance" maskUnits="userSpaceOnUse" x="0" y="0" width="25" height="25">
<path d="M24.75 0.708313H0.75V24.7083H24.75V0.708313Z" fill="white"/>
</mask>
<g mask="url(#mask0_39_485)">
<path d="M6.75 23.2083C5.95435 23.2083 5.19129 22.8922 4.62868 22.3296C4.06607 21.767 3.75 21.004 3.75 20.2083V7.45831C3.75 7.2594 3.82902 7.06863 3.96967 6.92798C4.11032 6.78733 4.30109 6.70831 4.5 6.70831C4.69891 6.70831 4.88968 6.78733 5.03033 6.92798C5.17098 7.06863 5.25 7.2594 5.25 7.45831V20.2083C5.25 20.6061 5.40804 20.9877 5.68934 21.269C5.97064 21.5503 6.35218 21.7083 6.75 21.7083H15C15.1989 21.7083 15.3897 21.7873 15.5303 21.928C15.671 22.0686 15.75 22.2594 15.75 22.4583C15.75 22.6572 15.671 22.848 15.5303 22.9886C15.3897 23.1293 15.1989 23.2083 15 23.2083H6.75ZM9.75 20.2083C8.95435 20.2083 8.19129 19.8922 7.62868 19.3296C7.06607 18.767 6.75 18.004 6.75 17.2083V6.70831C6.75 5.91266 7.06607 5.1496 7.62868 4.58699C8.19129 4.02438 8.95435 3.70831 9.75 3.70831H12C12.1989 3.70831 12.3897 3.78733 12.5303 3.92798C12.671 4.06863 12.75 4.2594 12.75 4.45831C12.75 4.65722 12.671 4.84799 12.5303 4.98864C12.3897 5.12929 12.1989 5.20831 12 5.20831H9.75C9.35218 5.20831 8.97064 5.36634 8.68934 5.64765C8.40804 5.92895 8.25 6.31048 8.25 6.70831V17.2083C8.25 17.6061 8.40804 17.9877 8.68934 18.269C8.97064 18.5503 9.35218 18.7083 9.75 18.7083H15.75C16.1478 18.7083 16.5294 18.5503 16.8107 18.269C17.092 17.9877 17.25 17.6061 17.25 17.2083V13.4583C17.25 13.2594 17.329 13.0686 17.4697 12.928C17.6103 12.7873 17.8011 12.7083 18 12.7083C18.1989 12.7083 18.3897 12.7873 18.5303 12.928C18.671 13.0686 18.75 13.2594 18.75 13.4583V17.2083C18.75 18.004 18.4339 18.767 17.8713 19.3296C17.3087 19.8922 16.5456 20.2083 15.75 20.2083H9.75ZM10.5 15.7083C10.3011 15.7083 10.1103 15.6293 9.96967 15.4886C9.82902 15.348 9.75 15.1572 9.75 14.9583C9.75 14.7594 9.82902 14.5686 9.96967 14.428C10.1103 14.2873 10.3011 14.2083 10.5 14.2083H15C15.1989 14.2083 15.3897 14.2873 15.5303 14.428C15.671 14.5686 15.75 14.7594 15.75 14.9583C15.75 15.1572 15.671 15.348 15.5303 15.4886C15.3897 15.6293 15.1989 15.7083 15 15.7083H10.5ZM10.5 12.7083C10.3011 12.7083 10.1103 12.6293 9.96967 12.4886C9.82902 12.348 9.75 12.1572 9.75 11.9583C9.75 11.7594 9.82902 11.5686 9.96967 11.428C10.1103 11.2873 10.3011 11.2083 10.5 11.2083H15C15.1989 11.2083 15.3897 11.2873 15.5303 11.428C15.671 11.5686 15.75 11.7594 15.75 11.9583C15.75 12.1572 15.671 12.348 15.5303 12.4886C15.3897 12.6293 15.1989 12.7083 15 12.7083H10.5ZM17.844 11.1693L16.629 10.5153C15.9053 10.1234 15.3016 9.54213 14.8826 8.83372C14.4636 8.12531 14.2449 7.31635 14.25 6.49331V4.04031C14.2498 3.97444 14.2685 3.9099 14.304 3.85439C14.3394 3.79889 14.3901 3.75477 14.45 3.72731L17.869 2.23431C17.9106 2.21679 17.9553 2.20776 18.0005 2.20776C18.0457 2.20776 18.0904 2.21679 18.132 2.23431L21.55 3.72631C21.6099 3.75367 21.6607 3.79776 21.6962 3.85329C21.7317 3.90882 21.7504 3.97341 21.75 4.03931V5.37831L21.727 6.94031V6.97231C21.6541 7.71031 21.4016 8.41922 20.9914 9.03703C20.5812 9.65484 20.0259 10.1627 19.374 10.5163L18.157 11.1683C18.1086 11.1939 18.0548 11.2076 18 11.2083C17.9457 11.2074 17.8923 11.1941 17.844 11.1693ZM16.012 6.52931C15.949 6.59392 15.9138 6.68058 15.9138 6.77081C15.9138 6.86104 15.949 6.94769 16.012 7.01231L17.288 8.31231C17.3187 8.34413 17.3555 8.3694 17.3963 8.38659C17.437 8.40378 17.4808 8.41253 17.525 8.41231C17.6138 8.41136 17.6986 8.37542 17.761 8.31231L19.986 6.03331C20.0496 5.96924 20.0853 5.88261 20.0853 5.79231C20.0853 5.70201 20.0496 5.61538 19.986 5.55131C19.9252 5.48875 19.8421 5.45288 19.7549 5.45157C19.6678 5.45026 19.5836 5.48361 19.521 5.54431L19.514 5.55131L19.102 5.97231L17.526 7.59331L16.485 6.52931C16.4543 6.49753 16.4174 6.47229 16.3767 6.45511C16.336 6.43792 16.2922 6.42915 16.248 6.42931C16.2039 6.42905 16.1603 6.43778 16.1197 6.45498C16.0791 6.47217 16.0425 6.49747 16.012 6.52931ZM10.5 9.70831C10.395 9.70882 10.291 9.68726 10.1948 9.64503C10.0986 9.6028 10.0124 9.54084 9.94169 9.46316C9.87098 9.38547 9.81738 9.29381 9.78436 9.19409C9.75134 9.09438 9.73963 8.98884 9.75 8.88431C9.7737 8.69488 9.86674 8.52096 10.0112 8.39611C10.1556 8.27127 10.3411 8.20436 10.532 8.20831H11.961C12.1539 8.20369 12.3416 8.2711 12.4875 8.39738C12.6333 8.52366 12.7269 8.69975 12.75 8.89131C12.7593 8.99528 12.7468 9.10006 12.7134 9.19893C12.6799 9.29781 12.6261 9.3886 12.5555 9.46551C12.4849 9.54241 12.399 9.60373 12.3034 9.64554C12.2077 9.68735 12.1044 9.70873 12 9.70831H10.5Z" fill="#8D8D97"/>
</g>
</svg>
