<svg width="25" height="25" viewBox="0 0 25 25" fill="none" xmlns="http://www.w3.org/2000/svg">
<g clip-path="url(#clip0_1_5486)">
<path d="M17.2261 23.2091C16.3732 23.0174 15.5736 22.6386 14.8851 22.1001C13.8066 21.3813 12.8965 20.4377 12.2171 19.3341C11.9387 18.8065 11.7338 18.2432 11.6081 17.6601C11.474 17.0708 11.3805 16.4731 11.3281 15.8711C11.2625 15.1701 11.2391 14.4659 11.2581 13.7621C11.2672 13.5763 11.3259 13.3964 11.4281 13.2411C11.5242 13.0855 11.6696 12.9665 11.8411 12.9031L16.9531 11.2291C17.0416 11.2119 17.1319 11.2052 17.2221 11.2091C17.3126 11.2058 17.4032 11.2131 17.4921 11.2311L22.6051 12.9031C22.7735 12.9692 22.9145 13.0905 23.0051 13.2471C23.1036 13.403 23.1661 13.579 23.1881 13.7621V13.7771C23.2491 14.3631 23.4951 17.3831 22.3731 19.3341C22.0439 19.8842 21.6401 20.386 21.1731 20.8251C20.6991 21.2781 20.188 21.6906 19.6451 22.0581C18.9326 22.6141 18.1069 23.007 17.2261 23.2091ZM13.9201 16.1171C13.8238 16.1178 13.7288 16.1381 13.6406 16.1766C13.5524 16.2151 13.473 16.271 13.4071 16.3411C13.2736 16.499 13.2006 16.6993 13.2011 16.9061C13.2007 17.0994 13.2744 17.2855 13.4071 17.4261L15.8391 19.9861C15.9045 20.0555 15.9835 20.1109 16.0711 20.1487C16.1587 20.1866 16.2531 20.2061 16.3486 20.2061C16.444 20.2061 16.5384 20.1866 16.626 20.1487C16.7137 20.1109 16.7926 20.0555 16.8581 19.9861L21.1231 15.4791C21.2445 15.3296 21.3079 15.1413 21.3017 14.9487C21.2954 14.7562 21.2199 14.5724 21.0891 14.4311C21.0236 14.3608 20.9443 14.3048 20.8562 14.2665C20.7681 14.2282 20.6731 14.2084 20.5771 14.2084C20.481 14.2084 20.386 14.2282 20.2979 14.2665C20.2098 14.3048 20.1306 14.3608 20.0651 14.4311L16.3451 18.3661L14.4301 16.3411C14.3646 16.2712 14.2856 16.2154 14.198 16.1769C14.1103 16.1384 14.0158 16.1181 13.9201 16.1171Z" fill="#8D8D97"/>
<path d="M10.785 20.2061C9.81296 19.4771 8.89496 18.7281 8.05596 17.9801C7.06899 17.1102 6.14189 16.1748 5.28096 15.1801C3.27696 12.8351 2.25796 10.6641 2.24896 8.72905C2.19517 7.05896 2.79091 5.43305 3.91096 4.19305C4.45904 3.59035 5.12262 3.1039 5.86231 2.76257C6.602 2.42124 7.40272 2.23199 8.21696 2.20605L8.25696 2.20605C9.11181 2.23187 9.9518 2.43625 10.723 2.80605C11.4949 3.1727 12.1843 3.69258 12.749 4.33405C13.3142 3.69236 14.0043 3.17247 14.777 2.80605C15.5478 2.43635 16.3874 2.23198 17.242 2.20605L17.263 2.97305L17.282 2.20605C18.096 2.23174 18.8967 2.42068 19.6364 2.76166C20.376 3.10264 21.0397 3.58872 21.588 4.19105C22.7081 5.43171 23.3035 7.05842 23.249 8.72905C23.2262 9.71829 22.9988 10.6921 22.581 11.5891L21.161 11.1061C21.5318 10.3619 21.7365 9.54611 21.761 8.71505V8.68605C21.8055 7.41946 21.3558 6.18517 20.507 5.24405C20.0942 4.79083 19.5951 4.42467 19.0389 4.16708C18.4827 3.90948 17.8806 3.76566 17.268 3.74405C16.4834 3.77387 15.7181 3.99569 15.0392 4.39005C14.3603 4.78442 13.7885 5.3393 13.374 6.00605L12.749 6.99705L12.125 6.00605C11.7108 5.33985 11.1396 4.78531 10.4614 4.39097C9.7833 3.99663 9.01883 3.77452 8.23496 3.74405C7.62236 3.76566 7.02026 3.90948 6.46403 4.16708C5.9078 4.42467 5.40867 4.79083 4.99596 5.24405C4.14747 6.18533 3.69816 7.4196 3.74296 8.68605V8.71405C3.74296 10.3991 4.78196 12.3971 6.82996 14.6531C7.83089 15.7398 8.90651 16.7552 10.049 17.6921C10.1873 18.5578 10.434 19.4026 10.785 20.2061Z" fill="#8D8D97"/>
</g>
<defs>
<clipPath id="clip0_1_5486">
<rect width="24" height="24" fill="white" transform="translate(0.75 0.708008)"/>
</clipPath>
</defs>
</svg>
