<svg width="25" height="25" viewBox="0 0 25 25" fill="none" xmlns="http://www.w3.org/2000/svg">
<g clip-path="url(#clip0_1_2399)">
<mask id="mask0_1_2399" style="mask-type:luminance" maskUnits="userSpaceOnUse" x="0" y="0" width="25" height="25">
<path d="M24.25 0.708313H0.25V24.7083H24.25V0.708313Z" fill="white"/>
</mask>
<g mask="url(#mask0_1_2399)">
<path d="M13.88 21.3793C13.7945 21.2541 13.7491 21.1059 13.75 20.9543V14.2743H10.75V20.9583C10.7498 21.0569 10.7303 21.1545 10.6924 21.2456C10.6546 21.3367 10.5991 21.4194 10.5293 21.489C10.4595 21.5587 10.3766 21.6139 10.2854 21.6515C10.1943 21.6891 10.0966 21.7084 9.99798 21.7083H7.27398C6.9371 21.7139 6.60263 21.6506 6.29112 21.5222C5.97961 21.3938 5.69765 21.2031 5.46257 20.9617C5.22748 20.7204 5.04424 20.4335 4.92411 20.1187C4.80397 19.8039 4.74948 19.4679 4.76398 19.1313L4.74998 9.96128L2.92198 11.0793C2.75711 11.1883 2.5559 11.2279 2.36199 11.1896C2.16809 11.1512 1.99712 11.038 1.88617 10.8744C1.77523 10.7108 1.73325 10.5101 1.76934 10.3157C1.80544 10.1214 1.91669 9.94912 2.07898 9.83628L11.85 3.83828C11.9763 3.75221 12.1259 3.70685 12.2787 3.70828C12.4316 3.70971 12.5803 3.75787 12.705 3.84628L16.75 6.34028V4.45728C16.75 4.25836 16.829 4.0676 16.9696 3.92695C17.1103 3.78629 17.3011 3.70728 17.5 3.70728C17.6989 3.70728 17.8897 3.78629 18.0303 3.92695C18.171 4.0676 18.25 4.25836 18.25 4.45728V7.26428L22.434 9.84428C22.5162 9.90046 22.5864 9.97243 22.6406 10.056C22.6947 10.1396 22.7317 10.2331 22.7494 10.3311C22.767 10.4291 22.765 10.5296 22.7435 10.6268C22.7219 10.7241 22.6813 10.816 22.6239 10.8974C22.5664 10.9788 22.4934 11.0479 22.409 11.1007C22.3246 11.1536 22.2306 11.1892 22.1323 11.2054C22.0341 11.2215 21.9336 11.218 21.8367 11.195C21.7398 11.172 21.6485 11.1299 21.568 11.0713L19.75 9.95728L19.727 19.1183C19.7431 19.4539 19.6904 19.7893 19.5722 20.1039C19.454 20.4185 19.2727 20.7056 19.0395 20.9475C18.8064 21.1895 18.5262 21.3813 18.2162 21.5111C17.9062 21.6409 17.573 21.7059 17.237 21.7023L14.497 21.7083C14.3751 21.7081 14.2551 21.678 14.1475 21.6207C14.0399 21.5633 13.9481 21.4804 13.88 21.3793Z" fill="#005DD1"/>
</g>
</g>
<defs>
<clipPath id="clip0_1_2399">
<rect width="24" height="24" fill="white" transform="translate(0.25 0.708313)"/>
</clipPath>
</defs>
</svg>
