<svg width="25" height="25" viewBox="0 0 25 25" fill="none" xmlns="http://www.w3.org/2000/svg">
<mask id="mask0_39_2336" style="mask-type:luminance" maskUnits="userSpaceOnUse" x="0" y="0" width="25" height="25">
<path d="M24.75 0.708008H0.75V24.708H24.75V0.708008Z" fill="white"/>
</mask>
<g mask="url(#mask0_39_2336)">
<path d="M22.497 6.71094H3.00281C2.8039 6.71094 2.61319 6.63186 2.47253 6.49121C2.33188 6.35056 2.25281 6.15985 2.25281 5.96094C2.25281 5.76203 2.33188 5.57119 2.47253 5.43054C2.61319 5.28989 2.8039 5.21094 3.00281 5.21094H22.497C22.6959 5.21094 22.8866 5.28989 23.0272 5.43054C23.1679 5.57119 23.247 5.76203 23.247 5.96094C23.247 6.15985 23.1679 6.35056 23.0272 6.49121C22.8866 6.63186 22.6959 6.71094 22.497 6.71094Z" fill="#8D8D97"/>
<path d="M22.4971 13.4565H3.00293C2.80402 13.4565 2.61331 13.3775 2.47266 13.2368C2.332 13.0962 2.25293 12.9055 2.25293 12.7065C2.25293 12.5076 2.332 12.3167 2.47266 12.176C2.61331 12.0354 2.80402 11.9565 3.00293 11.9565H22.4971C22.5956 11.9564 22.6931 11.9755 22.7842 12.0132C22.8752 12.0508 22.9579 12.1061 23.0276 12.1758C23.0973 12.2455 23.1525 12.3281 23.1902 12.4192C23.2278 12.5102 23.2472 12.608 23.2471 12.7065C23.2471 12.9055 23.168 13.0962 23.0273 13.2368C22.8867 13.3775 22.696 13.4565 22.4971 13.4565Z" fill="#8D8D97"/>
<path d="M22.497 20.2065H3.00281C2.8039 20.2065 2.61319 20.1275 2.47253 19.9868C2.33188 19.8462 2.25281 19.6555 2.25281 19.4565C2.25281 19.2576 2.33188 19.0667 2.47253 18.926C2.61319 18.7854 2.8039 18.7065 3.00281 18.7065H22.497C22.6959 18.7065 22.8866 18.7854 23.0272 18.926C23.1679 19.0667 23.247 19.2576 23.247 19.4565C23.247 19.6555 23.1679 19.8462 23.0272 19.9868C22.8866 20.1275 22.6959 20.2065 22.497 20.2065Z" fill="#8D8D97"/>
</g>
</svg>
