<svg width="25" height="25" viewBox="0 0 25 25" fill="none" xmlns="http://www.w3.org/2000/svg">
<g clip-path="url(#clip0_1_6634)">
<path d="M12.25 5.20801C13.7334 5.20801 15.1834 5.64788 16.4168 6.47199C17.6501 7.2961 18.6114 8.46744 19.1791 9.83788C19.7468 11.2083 19.8953 12.7163 19.6059 14.1712C19.3165 15.626 18.6022 16.9624 17.5533 18.0113C16.5044 19.0602 15.168 19.7745 13.7132 20.0639C12.2583 20.3533 10.7503 20.2048 9.37987 19.6371C8.00943 19.0694 6.83809 18.1082 6.01398 16.8748C5.18987 15.6414 4.75 14.1914 4.75 12.708C4.75212 10.7195 5.54297 8.81311 6.94904 7.40705C8.3551 6.00098 10.2615 5.21013 12.25 5.20801ZM12.25 18.757C13.4464 18.757 14.6159 18.4022 15.6106 17.7376C16.6054 17.0729 17.3807 16.1282 17.8385 15.0229C18.2964 13.9175 18.4162 12.7013 18.1828 11.5279C17.9494 10.3545 17.3733 9.27669 16.5273 8.43072C15.6813 7.58475 14.6035 7.00864 13.4301 6.77524C12.2567 6.54184 11.0405 6.66163 9.93515 7.11946C8.82984 7.57729 7.88511 8.35261 7.22044 9.34736C6.55577 10.3421 6.201 11.5116 6.201 12.708C6.20285 14.3117 6.84075 15.8492 7.97476 16.9833C9.10876 18.1173 10.6463 18.7552 12.25 18.757Z" fill="#8D8D97"/>
<path d="M9.25 15.2091L10.25 14.3621C10.4293 14.6464 10.6652 14.8908 10.943 15.0801C11.2136 15.247 11.5115 15.3648 11.823 15.4281V12.9381C11.4996 12.8705 11.1839 12.77 10.881 12.6381C10.592 12.5164 10.3225 12.353 10.081 12.1531C9.85765 11.9675 9.67167 11.7412 9.533 11.4861C9.39516 11.2204 9.32639 10.9243 9.333 10.6251C9.32455 10.2778 9.39284 9.93293 9.533 9.61508C9.66051 9.33513 9.84752 9.08636 10.081 8.88608C10.3166 8.68813 10.5882 8.53769 10.881 8.44308C11.185 8.34178 11.5026 8.28683 11.823 8.28008V7.45508H12.68V8.28008C13.1101 8.29002 13.533 8.39233 13.92 8.58008C14.3426 8.79863 14.7286 9.08169 15.064 9.41908L14.156 10.3051C13.9435 10.0999 13.717 9.90973 13.478 9.73608C13.2402 9.57055 12.9656 9.46552 12.678 9.43008V11.7301C13.0547 11.8391 13.4224 11.9768 13.778 12.1421C14.0732 12.2781 14.3451 12.4597 14.584 12.6801C14.7994 12.8815 14.9698 13.1262 15.084 13.3981C15.2033 13.7006 15.2611 14.0239 15.254 14.3491C15.2648 14.6866 15.1963 15.0219 15.054 15.3281C14.923 15.5931 14.734 15.8251 14.501 16.0071C14.2562 16.1943 13.9779 16.3332 13.681 16.4161C13.3577 16.5092 13.0242 16.563 12.688 16.5761V17.9561H11.821V16.5761C11.326 16.5286 10.8434 16.3931 10.396 16.1761C9.94281 15.9491 9.55002 15.6176 9.25 15.2091ZM10.635 10.5261C10.6276 10.6413 10.6491 10.7566 10.6977 10.8614C10.7463 10.9662 10.8203 11.0572 10.913 11.1261C11.1932 11.2993 11.5 11.4253 11.821 11.4991V9.42908C11.513 9.43538 11.2137 9.53282 10.961 9.70908C10.8452 9.80916 10.7551 9.93562 10.6983 10.0778C10.6416 10.22 10.6199 10.3737 10.635 10.5261ZM12.679 15.4261C12.8294 15.4257 12.9795 15.4106 13.127 15.3811C13.2737 15.3533 13.4136 15.2972 13.539 15.2161C13.6646 15.1353 13.7677 15.0242 13.839 14.8931C13.9182 14.7351 13.9564 14.5597 13.95 14.3831C13.9583 14.2354 13.9312 14.0878 13.871 13.9527C13.8109 13.8176 13.7193 13.6987 13.604 13.6061C13.3296 13.4045 13.0163 13.2621 12.684 13.1881L12.679 15.4261Z" fill="#8D8D97"/>
<path d="M12.257 2.20803C13.7094 2.12251 15.1614 2.3842 16.4926 2.97146C17.8238 3.55872 18.9959 4.45464 19.912 5.58503C20.0327 5.73885 20.0884 5.93383 20.0671 6.12821C20.0458 6.32259 19.9493 6.5009 19.7982 6.62498C19.647 6.74905 19.4533 6.809 19.2585 6.792C19.0637 6.77501 18.8833 6.6824 18.756 6.53403C15.971 3.14103 11.633 2.71603 7.81398 4.88003C6.43646 5.6606 5.28924 6.79075 4.48811 8.15641C3.68698 9.52207 3.2603 11.0749 3.25113 12.6582C3.24196 14.2415 3.65063 15.7991 4.43589 17.174C5.22115 18.5488 6.35521 19.6922 7.72359 20.4886C9.09198 21.2851 10.6463 21.7065 12.2296 21.7103C13.8128 21.714 15.3691 21.3001 16.7413 20.5101C18.1134 19.7202 19.2529 18.5822 20.0447 17.2111C20.8365 15.84 21.2526 14.2843 21.251 12.701C21.2398 11.5821 21.0152 10.4756 20.589 9.44103C20.5216 9.25924 20.5274 9.05838 20.6053 8.88081C20.6831 8.70323 20.8268 8.56282 21.0062 8.48916C21.1855 8.4155 21.3865 8.41436 21.5666 8.48597C21.7468 8.55758 21.8921 8.69635 21.972 8.87303C22.4728 10.0851 22.7372 11.3817 22.751 12.693C22.7518 14.7675 22.1374 16.7957 20.9856 18.521C19.8337 20.2463 18.1961 21.5913 16.2799 22.386C14.3636 23.1806 12.2548 23.3892 10.22 22.9853C8.18517 22.5815 6.31583 21.5833 4.84832 20.1171C3.3808 18.6508 2.38103 16.7823 1.97542 14.7479C1.56981 12.7134 1.77658 10.6044 2.56959 8.68745C3.36259 6.77052 4.70621 5.13178 6.43055 3.97845C8.15488 2.82513 10.1825 2.20902 12.257 2.20803Z" fill="#8D8D97"/>
<path d="M12.256 2.20803C13.7082 2.12175 15.1601 2.3826 16.4914 2.96898C17.8228 3.55536 18.9953 4.45041 19.912 5.58003C20.0327 5.73385 20.0884 5.92883 20.0671 6.12321C20.0459 6.31759 19.9493 6.4959 19.7982 6.61998C19.6471 6.74405 19.4533 6.804 19.2586 6.787C19.0638 6.77001 18.8834 6.6774 18.756 6.52903C15.97 3.14003 11.633 2.71503 7.813 4.88003C6.4363 5.6613 5.29 6.79185 4.48977 8.15761C3.68953 9.52337 3.26366 11.076 3.25513 12.6589C3.2466 14.2419 3.6557 15.799 4.44117 17.1733C5.22663 18.5476 6.36067 19.6905 7.72887 20.4865C9.09707 21.2826 10.651 21.7037 12.234 21.7074C13.8169 21.7111 15.3728 21.2973 16.7447 20.5076C18.1166 19.718 19.256 18.5804 20.0479 17.2098C20.8397 15.8392 21.2561 14.284 21.255 12.701C21.2439 11.5821 21.0192 10.4756 20.593 9.44103C20.5256 9.25924 20.5315 9.05838 20.6093 8.88081C20.6871 8.70323 20.8309 8.56282 21.0102 8.48916C21.1895 8.4155 21.3905 8.41436 21.5707 8.48597C21.7508 8.55758 21.8962 8.69635 21.976 8.87303C22.4751 10.0854 22.7378 11.382 22.75 12.693C22.7508 14.7675 22.1364 16.7957 20.9846 18.521C19.8327 20.2463 18.1951 21.5913 16.2789 22.386C14.3626 23.1806 12.2538 23.3892 10.219 22.9853C8.18419 22.5815 6.31485 21.5833 4.84734 20.1171C3.37983 18.6508 2.38005 16.7823 1.97445 14.7479C1.56884 12.7134 1.77561 10.6044 2.56861 8.68745C3.36161 6.77052 4.70523 5.13178 6.42957 3.97845C8.1539 2.82513 10.1815 2.20902 12.256 2.20803Z" fill="#8D8D97"/>
</g>
<defs>
<clipPath id="clip0_1_6634">
<rect width="24" height="24" fill="white" transform="translate(0.25 0.708008)"/>
</clipPath>
</defs>
</svg>
