<svg width="24" height="28" viewBox="0 0 24 28" fill="none" xmlns="http://www.w3.org/2000/svg">
<path d="M4 27.992C2.93913 27.992 1.92172 27.5706 1.17157 26.8204C0.421427 26.0703 0 25.0529 0 23.992L0 6.99333C0 6.72812 0.105357 6.47376 0.292893 6.28623C0.48043 6.09869 0.734784 5.99333 1 5.99333C1.26522 5.99333 1.51957 6.09869 1.70711 6.28623C1.89464 6.47376 2 6.72812 2 6.99333V23.9933C2 24.5238 2.21071 25.0325 2.58579 25.4075C2.96086 25.7826 3.46957 25.9933 4 25.9933H15C15.2652 25.9933 15.5196 26.0987 15.7071 26.2862C15.8946 26.4738 16 26.7281 16 26.9933C16 27.2585 15.8946 27.5129 15.7071 27.7004C15.5196 27.888 15.2652 27.9933 15 27.9933L4 27.992ZM8 23.992C6.93913 23.992 5.92172 23.5706 5.17157 22.8204C4.42143 22.0703 4 21.0529 4 19.992V6C4 4.93913 4.42143 3.92172 5.17157 3.17157C5.92172 2.42143 6.93913 2 8 2H14.324L18.8 0.0373333C18.8639 0.0131476 18.9317 0.000506903 19 0C19.0656 0.00181038 19.1305 0.0144239 19.192 0.0373333L23.7 2C23.788 2.04593 23.8622 2.11449 23.915 2.19862C23.9677 2.28275 23.997 2.37942 24 2.47867L23.98 6.36C23.8814 7.34338 23.5435 8.28767 22.996 9.11042C22.4484 9.93318 21.7077 10.6094 20.8387 11.08L20 11.5507V20C20 21.0609 19.5786 22.0783 18.8284 22.8284C18.0783 23.5786 17.0609 24 16 24L8 23.992ZM8 16.992C8.00018 17.1233 8.02621 17.2533 8.07663 17.3746C8.12705 17.4958 8.20085 17.606 8.29384 17.6987C8.38682 17.7915 8.49716 17.865 8.61855 17.9151C8.73994 17.9651 8.87001 17.9908 9.00133 17.9907H15.0013C15.2666 17.9907 15.5209 17.8853 15.7084 17.6978C15.896 17.5102 16.0013 17.2559 16.0013 16.9907C16.0013 16.7254 15.896 16.4711 15.7084 16.2836C15.5209 16.096 15.2666 15.9907 15.0013 15.9907H9C8.86817 15.9908 8.73766 16.017 8.61598 16.0678C8.4943 16.1185 8.38383 16.1928 8.29092 16.2863C8.19801 16.3798 8.12448 16.4908 8.07456 16.6128C8.02464 16.7348 7.9993 16.8655 8 16.9973V16.992ZM8 12.992C8.00018 13.1233 8.02621 13.2533 8.07663 13.3746C8.12705 13.4958 8.20085 13.606 8.29384 13.6987C8.38682 13.7915 8.49716 13.865 8.61855 13.9151C8.73994 13.9651 8.87001 13.9908 9.00133 13.9907H15.0013C15.2666 13.9907 15.5209 13.8853 15.7084 13.6978C15.896 13.5102 16.0013 13.2559 16.0013 12.9907C16.0013 12.7254 15.896 12.4711 15.7084 12.2836C15.5209 12.096 15.2666 11.9907 15.0013 11.9907H9C8.86805 11.9908 8.73744 12.0171 8.61567 12.0679C8.4939 12.1187 8.38338 12.1931 8.29045 12.2868C8.19752 12.3804 8.12402 12.4916 8.07417 12.6137C8.02433 12.7359 7.99912 12.8667 8 12.9987V12.992ZM15 2.832V5.712C14.9999 6.62362 15.2448 7.51851 15.709 8.3031C16.1732 9.08769 16.8396 9.73315 17.6387 10.172L19 10.912L20.38 10.172C21.0923 9.77752 21.6999 9.21845 22.1522 8.54142C22.6044 7.86439 22.8883 7.08902 22.98 6.28L23 2.83867L19 1.08L15 2.832ZM8 8.996C7.99965 9.12761 8.02525 9.258 8.07533 9.3797C8.12541 9.50141 8.19899 9.61205 8.29187 9.7053C8.38474 9.79855 8.49509 9.87257 8.6166 9.92314C8.73811 9.97371 8.86839 9.99982 9 10H11C11.2652 10 11.5196 9.89464 11.7071 9.70711C11.8946 9.51957 12 9.26522 12 9C12 8.73478 11.8946 8.48043 11.7071 8.29289C11.5196 8.10536 11.2652 8 11 8H9C8.73548 8 8.48173 8.1048 8.2943 8.29148C8.10688 8.47815 8.00106 8.73148 8 8.996ZM17.956 7.85067L16.156 6.144C16.1077 6.09692 16.0692 6.04063 16.043 5.97845C16.0168 5.91628 16.0033 5.84948 16.0033 5.782C16.0033 5.71452 16.0168 5.64772 16.043 5.58555C16.0692 5.52337 16.1077 5.46708 16.156 5.42C16.2587 5.32402 16.3941 5.27063 16.5347 5.27063C16.6753 5.27063 16.8106 5.32402 16.9133 5.42L18.332 6.77067L21.084 4.148C21.1867 4.05202 21.3221 3.99863 21.4627 3.99863C21.6033 3.99863 21.7386 4.05202 21.8413 4.148C21.937 4.23752 21.9933 4.36122 21.998 4.49211C22.0028 4.623 21.9555 4.75046 21.8667 4.84667L18.7093 7.852C18.6066 7.94692 18.4719 7.99964 18.332 7.99964C18.1921 7.99964 18.0574 7.94692 17.9547 7.852L17.956 7.85067Z" fill="#226CF2"/>
</svg>
