<svg width="32" height="32" viewBox="0 0 32 32" fill="none" xmlns="http://www.w3.org/2000/svg">
<rect width="32" height="32" rx="8" fill="#CCE1FD"/>
<g clip-path="url(#clip0_1_6335)">
<mask id="mask0_1_6335" style="mask-type:luminance" maskUnits="userSpaceOnUse" x="4" y="4" width="24" height="24">
<path d="M28 4H4V28H28V4Z" fill="white"/>
</mask>
<g mask="url(#mask0_1_6335)">
<mask id="mask1_1_6335" style="mask-type:luminance" maskUnits="userSpaceOnUse" x="4" y="4" width="24" height="24">
<path d="M28 4H4V28H28V4Z" fill="white"/>
</mask>
<g mask="url(#mask1_1_6335)">
<path d="M10 26.494C9.20435 26.494 8.44129 26.1779 7.87868 25.6153C7.31607 25.0527 7 24.2896 7 23.494V10.745C7 10.5461 7.07902 10.3553 7.21967 10.2147C7.36032 10.074 7.55109 9.995 7.75 9.995C7.94891 9.995 8.13968 10.074 8.28033 10.2147C8.42098 10.3553 8.5 10.5461 8.5 10.745V23.495C8.5 23.8928 8.65804 24.2744 8.93934 24.5557C9.22064 24.837 9.60218 24.995 10 24.995H18.25C18.4489 24.995 18.6397 25.074 18.7803 25.2147C18.921 25.3553 19 25.5461 19 25.745C19 25.9439 18.921 26.1347 18.7803 26.2753C18.6397 26.416 18.4489 26.495 18.25 26.495L10 26.494ZM13 23.494C12.2044 23.494 11.4413 23.1779 10.8787 22.6153C10.3161 22.0527 10 21.2896 10 20.494V10C10 9.20435 10.3161 8.44129 10.8787 7.87868C11.4413 7.31607 12.2044 7 13 7H17.743L21.1 5.528C21.1479 5.50986 21.1987 5.50038 21.25 5.5C21.2992 5.50136 21.3479 5.51082 21.394 5.528L24.775 7C24.841 7.03445 24.8967 7.08587 24.9362 7.14897C24.9758 7.21207 24.9978 7.28456 25 7.359L24.985 10.27C24.911 11.0075 24.6577 11.7158 24.247 12.3328C23.8363 12.9499 23.2808 13.457 22.629 13.81L22 14.163V20.5C22 21.2956 21.6839 22.0587 21.1213 22.6213C20.5587 23.1839 19.7956 23.5 19 23.5L13 23.494ZM13 18.244C13.0001 18.3425 13.0197 18.44 13.0575 18.5309C13.0953 18.6219 13.1506 18.7045 13.2204 18.774C13.2901 18.8436 13.3729 18.8987 13.4639 18.9363C13.555 18.9739 13.6525 18.9931 13.751 18.993H18.251C18.4499 18.993 18.6407 18.914 18.7813 18.7733C18.922 18.6327 19.001 18.4419 19.001 18.243C19.001 18.0441 18.922 17.8533 18.7813 17.7127C18.6407 17.572 18.4499 17.493 18.251 17.493H13.75C13.6511 17.4931 13.5532 17.5128 13.462 17.5508C13.3707 17.5889 13.2879 17.6446 13.2182 17.7147C13.1485 17.7849 13.0934 17.8681 13.0559 17.9596C13.0185 18.0511 12.9995 18.1491 13 18.248V18.244ZM13 15.244C13.0001 15.3425 13.0197 15.44 13.0575 15.5309C13.0953 15.6219 13.1506 15.7045 13.2204 15.774C13.2901 15.8436 13.3729 15.8987 13.4639 15.9363C13.555 15.9739 13.6525 15.9931 13.751 15.993H18.251C18.4499 15.993 18.6407 15.914 18.7813 15.7733C18.922 15.6327 19.001 15.4419 19.001 15.243C19.001 15.0441 18.922 14.8533 18.7813 14.7127C18.6407 14.572 18.4499 14.493 18.251 14.493H13.75C13.651 14.4931 13.5531 14.5128 13.4618 14.5509C13.3704 14.589 13.2875 14.6448 13.2178 14.7151C13.1481 14.7853 13.093 14.8687 13.0556 14.9603C13.0182 15.0519 12.9993 15.15 13 15.249V15.244ZM18.25 7.624V9.784C18.25 10.4677 18.4336 11.1389 18.7817 11.7273C19.1299 12.3158 19.6297 12.7999 20.229 13.129L21.25 13.684L22.285 13.129C22.8192 12.8331 23.2749 12.4138 23.6141 11.9061C23.9533 11.3983 24.1662 10.8168 24.235 10.21L24.25 7.629L21.25 6.31L18.25 7.624ZM13 12.247C12.9997 12.3457 13.0189 12.4435 13.0565 12.5348C13.0941 12.6261 13.1492 12.709 13.2189 12.779C13.2886 12.8489 13.3713 12.9044 13.4624 12.9424C13.5536 12.9803 13.6513 12.9999 13.75 13H15.25C15.4489 13 15.6397 12.921 15.7803 12.7803C15.921 12.6397 16 12.4489 16 12.25C16 12.0511 15.921 11.8603 15.7803 11.7197C15.6397 11.579 15.4489 11.5 15.25 11.5H13.75C13.5516 11.5 13.3613 11.5786 13.2207 11.7186C13.0802 11.8586 13.0008 12.0486 13 12.247ZM20.467 11.388L19.117 10.108C19.0807 10.0727 19.0519 10.0305 19.0323 9.98384C19.0126 9.93721 19.0024 9.88711 19.0024 9.8365C19.0024 9.78589 19.0126 9.73579 19.0323 9.68916C19.0519 9.64253 19.0807 9.60031 19.117 9.565C19.194 9.49301 19.2956 9.45297 19.401 9.45297C19.5064 9.45297 19.608 9.49301 19.685 9.565L20.749 10.578L22.813 8.611C22.89 8.53901 22.9916 8.49897 23.097 8.49897C23.2024 8.49897 23.304 8.53901 23.381 8.611C23.4527 8.67814 23.495 8.77091 23.4985 8.86908C23.5021 8.96725 23.4667 9.06285 23.4 9.135L21.032 11.389C20.955 11.4602 20.8539 11.4997 20.749 11.4997C20.6441 11.4997 20.543 11.4602 20.466 11.389L20.467 11.388Z" fill="#226CF2"/>
</g>
</g>
</g>
<defs>
<clipPath id="clip0_1_6335">
<rect width="24" height="24" fill="white" transform="translate(4 4)"/>
</clipPath>
</defs>
</svg>
