<svg width="16" height="16" viewBox="0 0 16 16" fill="none" xmlns="http://www.w3.org/2000/svg">
<g clip-path="url(#clip0_2014_3205)">
<mask id="mask0_2014_3205" style="mask-type:luminance" maskUnits="userSpaceOnUse" x="0" y="0" width="16" height="16">
<path d="M16 0H0V16H16V0Z" fill="white"/>
</mask>
<g mask="url(#mask0_2014_3205)">
<path d="M6.54736 13.9997C6.47549 13.9998 6.40434 13.9857 6.33797 13.9581C6.2716 13.9305 6.21135 13.8901 6.16073 13.839C6.05809 13.7358 6.00049 13.5962 6.00049 13.4507C6.00049 13.3052 6.05809 13.1655 6.16073 13.0623L10.6814 8.00163L6.21476 2.93498C6.11213 2.83179 6.05452 2.69216 6.05452 2.54663C6.05452 2.4011 6.11213 2.26155 6.21476 2.15837C6.26529 2.10727 6.32545 2.06667 6.39176 2.03898C6.45808 2.0113 6.52921 1.99707 6.60107 1.99707C6.67294 1.99707 6.74407 2.0113 6.81038 2.03898C6.8767 2.06667 6.93686 2.10727 6.98739 2.15837L11.8381 7.61035C11.9412 7.72542 11.9982 7.87446 11.9982 8.02897C11.9982 8.18349 11.9412 8.3326 11.8381 8.44767L6.9314 13.8363C6.88127 13.8875 6.82159 13.9282 6.7557 13.9562C6.68981 13.9842 6.61896 13.999 6.54736 13.9997Z" fill="#226CF2"/>
</g>
</g>
<defs>
<clipPath id="clip0_2014_3205">
<rect width="16" height="16" fill="white"/>
</clipPath>
</defs>
</svg>
