<svg width="48" height="48" viewBox="0 0 48 48" fill="none" xmlns="http://www.w3.org/2000/svg">
<g clip-path="url(#clip0_1_6548)">
<mask id="mask0_1_6548" style="mask-type:luminance" maskUnits="userSpaceOnUse" x="12" y="12" width="24" height="24">
<path d="M36 12H12V36H36V12Z" fill="white"/>
</mask>
<g mask="url(#mask0_1_6548)">
<path d="M15.191 23.4726L19.736 18.2406C19.7991 18.1689 19.8761 18.1107 19.9624 18.0696C20.0486 18.0285 20.1423 18.0054 20.2377 18.0015C20.3332 17.9977 20.4284 18.0133 20.5177 18.0473C20.607 18.0814 20.6884 18.1332 20.757 18.1996C20.8975 18.3361 20.9803 18.5213 20.9883 18.7171C20.9963 18.9128 20.9289 19.1041 20.8 19.2516L17.33 23.2516H32.25C32.3484 23.2516 32.4458 23.271 32.5367 23.3086C32.6275 23.3463 32.7101 23.4015 32.7796 23.471C32.8492 23.5406 32.9044 23.6231 32.942 23.714C32.9796 23.8049 32.999 23.9023 32.999 24.0006C32.999 24.099 32.9796 24.1964 32.942 24.2873C32.9044 24.3781 32.8492 24.4607 32.7796 24.5302C32.7101 24.5998 32.6275 24.655 32.5367 24.6926C32.4458 24.7303 32.3484 24.7496 32.25 24.7496H17.35L20.815 28.7616C20.9415 28.9124 21.0049 29.1061 20.992 29.3025C20.9792 29.4988 20.891 29.6826 20.746 29.8156C20.6755 29.88 20.5926 29.9293 20.5024 29.9607C20.4122 29.9921 20.3166 30.0048 20.2213 29.9982C20.1261 29.9915 20.0332 29.9656 19.9482 29.9221C19.8632 29.8785 19.788 29.8181 19.727 29.7446L15.178 24.4696C15.0599 24.3292 14.9961 24.1509 14.9983 23.9674C15.0005 23.7839 15.0685 23.6072 15.19 23.4696L15.191 23.4726Z" fill="#EEF5FF"/>
</g>
</g>
<defs>
<clipPath id="clip0_1_6548">
<rect width="24" height="24" fill="white" transform="translate(12 12)"/>
</clipPath>
</defs>
</svg>
