<svg width="49" height="48" viewBox="0 0 49 48" fill="none" xmlns="http://www.w3.org/2000/svg">
<mask id="mask0_187_1173" style="mask-type:luminance" maskUnits="userSpaceOnUse" x="0" y="0" width="49" height="48">
<path d="M48.5 0H0.5V48H48.5V0Z" fill="white"/>
</mask>
<g mask="url(#mask0_187_1173)">
<path d="M46.0211 41.4L26.7871 3.756C26.6093 3.27806 26.3004 2.85987 25.896 2.54931C25.4915 2.23875 25.0077 2.04838 24.5001 2C23.9925 2.04838 23.5087 2.23875 23.1042 2.54931C22.6998 2.85987 22.3909 3.27806 22.2131 3.756L2.9791 41.4C2.68397 41.8783 2.52 42.4258 2.50367 42.9875C2.48734 43.5493 2.61924 44.1054 2.8861 44.6C3.21731 45.0738 3.66698 45.4524 4.19024 45.698C4.71349 45.9437 5.29203 46.0478 5.8681 46H43.1321C43.7082 46.0478 44.2867 45.9437 44.81 45.698C45.3332 45.4524 45.7829 45.0738 46.1141 44.6C46.381 44.1054 46.5129 43.5493 46.4965 42.9875C46.4802 42.4258 46.3162 41.8783 46.0211 41.4Z" fill="#92C2FF"/>
<path d="M21 16.263V15.5H28V16.263L26.97 32.5H21.99L21 16.263Z" fill="white"/>
<path d="M28 34.5H21V41.5H28V34.5Z" fill="white"/>
<path d="M5.86605 46H43.134C43.7101 46.0477 44.2886 45.9435 44.8118 45.6979C45.3351 45.4522 45.7848 45.0737 46.116 44.6C46.3829 44.1054 46.5148 43.5493 46.4985 42.9875C46.4821 42.4258 46.3182 41.8783 46.023 41.4L29.485 9.035C29.4544 8.97259 29.4116 8.91691 29.3593 8.87119C29.3069 8.82548 29.2459 8.79064 29.18 8.76871C29.114 8.74679 29.0443 8.73821 28.975 8.74348C28.9057 8.74875 28.8381 8.76776 28.7762 8.79941C28.7143 8.83106 28.6593 8.87471 28.6144 8.92782C28.5695 8.98093 28.5357 9.04244 28.5148 9.10876C28.494 9.17508 28.4865 9.24489 28.4929 9.31412C28.4993 9.38335 28.5194 9.45062 28.552 9.512L45.091 41.878C45.2985 42.1983 45.4197 42.5667 45.4429 42.9476C45.466 43.3286 45.3903 43.709 45.223 44.052C44.9815 44.3688 44.6624 44.6181 44.2965 44.7757C43.9306 44.9334 43.5302 44.9941 43.134 44.952H5.86605C5.46986 44.9941 5.06952 44.9334 4.70362 44.7757C4.33772 44.6181 4.01861 44.3688 3.77705 44.052C3.60982 43.709 3.5341 43.3286 3.55723 42.9476C3.58036 42.5667 3.70155 42.1983 3.90905 41.878L23.146 4.232C23.531 3.479 24.024 3.047 24.5 3.047C24.976 3.047 25.47 3.479 25.854 4.232L27.12 6.709C27.1507 6.77141 27.1934 6.82709 27.2458 6.87281C27.2982 6.91852 27.3592 6.95336 27.4251 6.97529C27.4911 6.99721 27.5608 7.00579 27.6301 7.00052C27.6994 6.99525 27.767 6.97624 27.8289 6.94459C27.8908 6.91294 27.9458 6.86929 27.9907 6.81618C28.0355 6.76307 28.0694 6.70156 28.0903 6.63524C28.1111 6.56892 28.1186 6.49911 28.1122 6.42988C28.1058 6.36065 28.0857 6.29338 28.053 6.232L26.787 3.756C26.6092 3.27806 26.3004 2.85987 25.8959 2.54931C25.4914 2.23875 25.0077 2.04838 24.5 2C23.9924 2.04838 23.5086 2.23875 23.1042 2.54931C22.6997 2.85987 22.3909 3.27806 22.213 3.756L2.97605 41.4C2.68092 41.8783 2.51694 42.4258 2.50062 42.9875C2.48429 43.5493 2.61619 44.1054 2.88305 44.6C3.21441 45.0738 3.66426 45.4525 4.18769 45.6981C4.71112 45.9438 5.28982 46.0479 5.86605 46Z" fill="#004294"/>
<path d="M26.97 33H21.99C21.8624 33.0002 21.7396 32.9517 21.6466 32.8643C21.5537 32.7769 21.4977 32.6573 21.49 32.53L20.5 16.293C20.5 16.283 20.5 16.273 20.5 16.263V15.5C20.5 15.3674 20.5527 15.2402 20.6464 15.1464C20.7402 15.0527 20.8674 15 21 15H28C28.1326 15 28.2598 15.0527 28.3536 15.1464C28.4473 15.2402 28.5 15.3674 28.5 15.5V16.263L27.469 32.532C27.4609 32.6588 27.4048 32.7778 27.3121 32.8647C27.2194 32.9516 27.0971 33 26.97 33ZM22.46 32H26.5L27.5 16.231V16H21.5V16.248L22.46 32Z" fill="#004294"/>
<path d="M28 42H21C20.8674 42 20.7402 41.9473 20.6464 41.8536C20.5527 41.7598 20.5 41.6326 20.5 41.5V34.5C20.5 34.3674 20.5527 34.2402 20.6464 34.1464C20.7402 34.0527 20.8674 34 21 34H28C28.1326 34 28.2598 34.0527 28.3536 34.1464C28.4473 34.2402 28.5 34.3674 28.5 34.5V41.5C28.5 41.6326 28.4473 41.7598 28.3536 41.8536C28.2598 41.9473 28.1326 42 28 42ZM21.5 41H27.5V35H21.5V41Z" fill="#004294"/>
</g>
</svg>
