<svg width="32" height="32" viewBox="0 0 32 32" fill="none" xmlns="http://www.w3.org/2000/svg">
<path d="M16.0001 26C14.0223 26 12.0889 25.4135 10.4444 24.3147C8.79995 23.2159 7.51805 21.6541 6.76117 19.8268C6.0043 17.9996 5.80631 15.9889 6.19216 14.0491C6.57802 12.1093 7.53062 10.3275 8.92914 8.92894C10.3277 7.53041 12.1095 6.578 14.0493 6.19215C15.9891 5.8063 17.9997 6.00433 19.8269 6.76121C21.6542 7.51809 23.2161 8.79981 24.3149 10.4443C25.4137 12.0888 26.0001 14.0222 26.0001 16C25.9973 18.6513 24.9429 21.1932 23.0681 23.068C21.1934 24.9427 18.6514 25.9972 16.0001 26ZM13.3334 18.208L12.0001 19.336C12.4019 19.8799 12.9257 20.322 13.5294 20.6267C14.1259 20.915 14.7688 21.0956 15.4282 21.16V23H16.5707V21.16C17.0191 21.142 17.4636 21.07 17.8946 20.9453C18.2905 20.8339 18.662 20.6489 18.9894 20.4C19.2998 20.1575 19.5514 19.8481 19.7254 19.4947C19.9175 19.0869 20.0116 18.6399 20.0001 18.1893C20.0092 17.7563 19.9323 17.3257 19.7735 16.9227C19.6205 16.5605 19.3935 16.2344 19.1069 15.9653C18.7883 15.6713 18.4255 15.4288 18.032 15.2467C17.5579 15.0264 17.0677 14.8427 16.5655 14.6973V11.6307C16.9487 11.6789 17.3147 11.8188 17.6323 12.0387C17.9504 12.2708 18.2517 12.5247 18.5346 12.7987L19.7469 11.616C19.2992 11.167 18.7846 10.79 18.2215 10.4987C17.7051 10.249 17.1415 10.1127 16.5681 10.0987V9H15.4256V10.1C14.9984 10.1081 14.5747 10.181 14.1694 10.316C13.7794 10.4431 13.4173 10.6436 13.1026 10.9067C12.7929 11.1754 12.5444 11.5072 12.3735 11.88C12.1848 12.3025 12.0914 12.7614 12.1 13.224C12.0936 13.6235 12.1877 14.0183 12.3735 14.372C12.5586 14.712 12.8058 15.0142 13.1026 15.2627C13.4254 15.5282 13.7847 15.746 14.1694 15.9093C14.5734 16.085 14.9944 16.2191 15.4256 16.3093V19.6307C15.0101 19.5467 14.6126 19.3896 14.2521 19.1667C13.8821 18.9144 13.5678 18.589 13.3282 18.2107L13.3334 18.208ZM16.5747 19.628V16.6427C17.0172 16.7418 17.4347 16.9315 17.8002 17.2C17.9539 17.3234 18.0759 17.4816 18.1564 17.6615C18.2368 17.8414 18.2733 18.0379 18.2628 18.2347C18.2706 18.4701 18.2197 18.7038 18.1147 18.9147C18.0199 19.0897 17.8822 19.2379 17.7146 19.3453C17.5482 19.4542 17.3621 19.5294 17.1668 19.5667C16.9714 19.606 16.7739 19.6265 16.5747 19.628ZM15.4308 14.3933C15.0033 14.2946 14.5948 14.1266 14.2215 13.896C14.098 13.804 13.9994 13.6827 13.9347 13.543C13.87 13.4033 13.841 13.2497 13.8507 13.096C13.8319 12.8935 13.8618 12.6894 13.9376 12.5006C14.0134 12.3119 14.1332 12.1439 14.2869 12.0107C14.624 11.7758 15.0226 11.6454 15.4334 11.636V14.3933H15.4308Z" fill="#226CF2"/>
<path d="M16.0093 2.00003C17.946 1.886 19.8819 2.23493 21.6568 3.01794C23.4317 3.80095 24.9946 4.9955 26.216 6.5027C26.377 6.70779 26.4512 6.96776 26.4229 7.22693C26.3945 7.4861 26.2658 7.72386 26.0643 7.88929C25.8628 8.05472 25.6045 8.13466 25.3447 8.11199C25.085 8.08933 24.8445 7.96586 24.6747 7.76803C20.9613 3.24403 15.1773 2.67736 10.0853 5.5627C8.24865 6.60345 6.71903 8.11032 5.65086 9.9312C4.58268 11.7521 4.01377 13.8225 4.00155 15.9336C3.98933 18.0446 4.53422 20.1215 5.58123 21.9546C6.62824 23.7877 8.14032 25.3122 9.96483 26.3742C11.7893 27.4361 13.8617 27.998 15.9728 28.003C18.0838 28.008 20.1589 27.4561 21.9884 26.4028C23.818 25.3496 25.3373 23.8323 26.393 22.0042C27.4487 20.176 28.0035 18.1018 28.0013 15.9907C27.9865 14.4988 27.6869 13.0235 27.1187 11.644C27.0288 11.4016 27.0366 11.1338 27.1404 10.8971C27.2442 10.6603 27.4358 10.4731 27.6749 10.3749C27.9141 10.2767 28.182 10.2751 28.4222 10.3706C28.6624 10.4661 28.8562 10.6511 28.9627 10.8867C29.6305 12.5027 29.983 14.2316 30.0013 15.98C30.0024 18.746 29.1832 21.4502 27.6474 23.7506C26.1117 26.0511 23.9282 27.8444 21.3732 28.904C18.8182 29.9635 16.0064 30.2416 13.2933 29.7031C10.5803 29.1646 8.08781 27.8337 6.13113 25.8787C4.17445 23.9237 2.84142 21.4324 2.30061 18.7198C1.75979 16.0072 2.03549 13.1952 3.09282 10.6393C4.15016 8.08335 5.94166 5.89836 8.24077 4.3606C10.5399 2.82283 13.2434 2.00135 16.0093 2.00003Z" fill="#226CF2"/>
<path d="M16.008 2.00003C17.9443 1.88499 19.8801 2.23278 21.6552 3.01463C23.4304 3.79646 24.9938 4.98986 26.216 6.49603C26.377 6.70112 26.4512 6.9611 26.4229 7.22027C26.3945 7.47944 26.2658 7.7172 26.0643 7.88262C25.8627 8.04805 25.6045 8.12799 25.3447 8.10533C25.085 8.08266 24.8445 7.9592 24.6747 7.76136C20.96 3.2427 15.1773 2.67603 10.084 5.5627C8.2484 6.60439 6.72 8.11178 5.65302 9.9328C4.58604 11.7538 4.01822 13.824 4.00684 15.9346C3.99546 18.0451 4.54094 20.1214 5.58822 21.9538C6.63551 23.7862 8.14757 25.31 9.97183 26.3714C11.7961 27.4328 13.868 27.9943 15.9786 27.9992C18.0892 28.0042 20.1637 27.4524 21.9929 26.3995C23.8221 25.3466 25.3413 23.8299 26.3972 22.0024C27.453 20.1749 28.0082 18.1013 28.0067 15.9907C27.9918 14.4988 27.6922 13.0235 27.124 11.644C27.0342 11.4016 27.0419 11.1338 27.1457 10.8971C27.2495 10.6603 27.4411 10.4731 27.6803 10.3749C27.9194 10.2767 28.1873 10.2751 28.4275 10.3706C28.6678 10.4661 28.8615 10.6511 28.968 10.8867C29.6335 12.5032 29.9838 14.232 30 15.98C30.0011 18.746 29.1819 21.4502 27.6461 23.7506C26.1103 26.0511 23.9269 27.8444 21.3719 28.904C18.8169 29.9635 16.005 30.2416 13.292 29.7031C10.5789 29.1646 8.08647 27.8337 6.12979 25.8787C4.1731 23.9237 2.84007 21.4324 2.29926 18.7198C1.75845 16.0072 2.03414 13.1952 3.09148 10.6393C4.14882 8.08335 5.94031 5.89836 8.23943 4.3606C10.5385 2.82283 13.242 2.00135 16.008 2.00003Z" fill="#226CF2"/>
</svg>
