<svg width="17" height="16" viewBox="0 0 17 16" fill="none" xmlns="http://www.w3.org/2000/svg">
<g clip-path="url(#clip0_187_1236)">
<mask id="mask0_187_1236" style="mask-type:luminance" maskUnits="userSpaceOnUse" x="0" y="0" width="17" height="16">
<path d="M16.5 16V0L0.5 0L0.5 16H16.5Z" fill="white"/>
</mask>
<g mask="url(#mask0_187_1236)">
<path d="M1.5 7.93993C1.50035 7.42552 1.70486 6.93228 2.0686 6.56854C2.43235 6.20479 2.92559 6.00029 3.44 5.99993H4C4.06783 5.99643 4.13567 6.00677 4.19938 6.03031C4.26309 6.05386 4.32135 6.09012 4.3706 6.13689C4.41985 6.18367 4.45907 6.23997 4.48587 6.30239C4.51267 6.3648 4.52649 6.43201 4.52649 6.49993C4.52649 6.56786 4.51267 6.63507 4.48587 6.69748C4.45907 6.7599 4.41985 6.8162 4.3706 6.86298C4.32135 6.90975 4.26309 6.94601 4.19938 6.96956C4.13567 6.9931 4.06783 7.00344 4 6.99993H3.44C3.19091 7.00064 2.95223 7.0999 2.7761 7.27603C2.59996 7.45216 2.5007 7.69085 2.5 7.93993V12.0599C2.5007 12.309 2.59996 12.5477 2.7761 12.7238C2.95223 12.9 3.19091 12.9992 3.44 12.9999H13.5593C13.8085 12.9994 14.0474 12.9002 14.2237 12.7241C14.3999 12.5479 14.4993 12.3091 14.5 12.0599V7.93993C14.4993 7.69073 14.3999 7.45195 14.2237 7.2758C14.0474 7.09965 13.8085 7.00046 13.5593 6.99993H12.9993C12.8712 6.99331 12.7505 6.93775 12.6621 6.84471C12.5738 6.75166 12.5245 6.62825 12.5245 6.49993C12.5245 6.37162 12.5738 6.2482 12.6621 6.15516C12.7505 6.06212 12.8712 6.00655 12.9993 5.99993H13.5593C14.0739 5.99993 14.5674 6.20431 14.9314 6.56811C15.2953 6.93191 15.4998 7.42535 15.5 7.93993V12.0599C15.5 12.3148 15.4498 12.5671 15.3523 12.8025C15.2547 13.0379 15.1118 13.2518 14.9316 13.432C14.7513 13.6121 14.5374 13.755 14.3019 13.8525C14.0665 13.9499 13.8142 14 13.5593 13.9999H3.44C2.92553 13.9998 2.43219 13.7953 2.06841 13.4315C1.70463 13.0677 1.50018 12.5744 1.5 12.0599V7.93993ZM5.64667 7.7266C5.74118 7.63288 5.8689 7.5803 6.002 7.5803C6.1351 7.5803 6.26282 7.63288 6.35733 7.7266L7.996 9.30527L7.996 2.50193C7.996 2.36862 8.04896 2.24076 8.14323 2.1465C8.2375 2.05223 8.36535 1.99927 8.49867 1.99927C8.63198 1.99927 8.75984 2.05223 8.85411 2.1465C8.94837 2.24076 9.00133 2.36862 9.00133 2.50193V9.30193L10.642 7.73327C10.7367 7.63987 10.8643 7.58751 10.9973 7.58751C11.1303 7.58751 11.258 7.63987 11.3527 7.73327H11.3567C11.4492 7.82672 11.5008 7.95311 11.5002 8.08462C11.4996 8.21614 11.4468 8.34203 11.3533 8.4346L8.86333 10.8519C8.76558 10.9454 8.63556 10.9975 8.50033 10.9975C8.3651 10.9975 8.23509 10.9454 8.13733 10.8519L5.64667 8.43127L5.64333 8.42793C5.55079 8.33448 5.49916 8.2081 5.49978 8.07658C5.50041 7.94506 5.55324 7.81917 5.64667 7.7266Z" fill="#226CF2"/>
</g>
</g>
<defs>
<clipPath id="clip0_187_1236">
<rect width="16" height="16" fill="white" transform="translate(0.5)"/>
</clipPath>
</defs>
</svg>
