<svg width="17" height="16" viewBox="0 0 17 16" fill="none" xmlns="http://www.w3.org/2000/svg">
<g clip-path="url(#clip0_2014_3197)">
<mask id="mask0_2014_3197" style="mask-type:luminance" maskUnits="userSpaceOnUse" x="0" y="0" width="17" height="16">
<path d="M16.5 0H0.5V16H16.5V0Z" fill="white"/>
</mask>
<g mask="url(#mask0_2014_3197)">
<path d="M14.11 2.98007L13.52 2.39007C13.3962 2.2661 13.2491 2.16776 13.0873 2.10066C12.9254 2.03356 12.7519 1.99902 12.5767 1.99902C12.4014 1.99902 12.2279 2.03356 12.0661 2.10066C11.9042 2.16776 11.7572 2.2661 11.6333 2.39007L5.98 8.04674C5.91673 8.10764 5.87171 8.18498 5.85 8.27007L5.14333 10.8634C5.12013 10.948 5.11963 11.0372 5.14186 11.1221C5.1641 11.2069 5.2083 11.2844 5.27 11.3467L5.28 11.3567C5.34597 11.4191 5.4277 11.4623 5.51638 11.4817C5.60507 11.5011 5.69736 11.4959 5.78333 11.4667L8.25667 10.6434C8.33168 10.6193 8.40012 10.5783 8.45667 10.5234L14.11 4.86674C14.234 4.74291 14.3323 4.59586 14.3994 4.43399C14.4665 4.27213 14.501 4.09863 14.501 3.92341C14.501 3.74819 14.4665 3.57468 14.3994 3.41282C14.3323 3.25095 14.234 3.1039 14.11 2.98007ZM13.4033 4.15674L7.83 9.73341L6.35333 10.2267L6.78 8.66007L12.3433 3.09674C12.4058 3.03466 12.4903 2.99981 12.5783 2.99981C12.6664 2.99981 12.7509 3.03466 12.8133 3.09674L13.4033 3.68674C13.4654 3.74919 13.5003 3.83368 13.5003 3.92174C13.5003 4.0098 13.4654 4.09428 13.4033 4.15674ZM12.5 12.0001C12.5 12.2653 12.3946 12.5196 12.2071 12.7072C12.0196 12.8947 11.7652 13.0001 11.5 13.0001H4.5C4.23478 13.0001 3.98043 12.8947 3.79289 12.7072C3.60536 12.5196 3.5 12.2653 3.5 12.0001V5.00007C3.5 4.73486 3.60536 4.4805 3.79289 4.29297C3.98043 4.10543 4.23478 4.00007 4.5 4.00007H8C8.13261 4.00007 8.25979 3.94739 8.35355 3.85363C8.44732 3.75986 8.5 3.63268 8.5 3.50007C8.5 3.36746 8.44732 3.24029 8.35355 3.14652C8.25979 3.05275 8.13261 3.00007 8 3.00007H4.5C3.96957 3.00007 3.46086 3.21079 3.08579 3.58586C2.71071 3.96093 2.5 4.46964 2.5 5.00007L2.5 12.0001C2.5 12.5305 2.71071 13.0392 3.08579 13.4143C3.46086 13.7894 3.96957 14.0001 4.5 14.0001H11.5C12.0304 14.0001 12.5391 13.7894 12.9142 13.4143C13.2893 13.0392 13.5 12.5305 13.5 12.0001V8.52674C13.5 8.39413 13.4473 8.26695 13.3536 8.17319C13.2598 8.07942 13.1326 8.02674 13 8.02674C12.8674 8.02674 12.7402 8.07942 12.6464 8.17319C12.5527 8.26695 12.5 8.39413 12.5 8.52674V12.0001Z" fill="#226CF2"/>
</g>
</g>
<defs>
<clipPath id="clip0_2014_3197">
<rect width="16" height="16" fill="white" transform="translate(0.5)"/>
</clipPath>
</defs>
</svg>
