<svg width="32" height="32" viewBox="0 0 32 32" fill="none" xmlns="http://www.w3.org/2000/svg">
<g clip-path="url(#clip0_1_6479)">
<mask id="mask0_1_6479" style="mask-type:luminance" maskUnits="userSpaceOnUse" x="0" y="0" width="32" height="32">
<path d="M32 0H0V32H32V0Z" fill="white"/>
</mask>
<g mask="url(#mask0_1_6479)">
<path d="M22 4H10C8.93913 4 7.92172 4.42143 7.17157 5.17157C6.42143 5.92172 6 6.93913 6 8L6 26C6 27.0609 6.42143 28.0783 7.17157 28.8284C7.92172 29.5786 8.93913 30 10 30H22C23.0609 30 24.0783 29.5786 24.8284 28.8284C25.5786 28.0783 26 27.0609 26 26V8C26 6.93913 25.5786 5.92172 24.8284 5.17157C24.0783 4.42143 23.0609 4 22 4ZM21.708 23.708C21.5199 23.8951 21.2653 24 21 24H11C10.7348 24 10.4804 23.8946 10.2929 23.7071C10.1054 23.5196 10 23.2652 10 23C10 22.7348 10.1054 22.4804 10.2929 22.2929C10.4804 22.1054 10.7348 22 11 22H21C21.1978 22.0003 21.391 22.0591 21.5554 22.1691C21.7197 22.279 21.8479 22.4352 21.9236 22.6179C21.9993 22.8006 22.0192 23.0016 21.9809 23.1956C21.9425 23.3896 21.8476 23.5679 21.708 23.708ZM21.708 19.708C21.5199 19.8951 21.2653 20 21 20H11C10.7348 20 10.4804 19.8946 10.2929 19.7071C10.1054 19.5196 10 19.2652 10 19C10 18.7348 10.1054 18.4804 10.2929 18.2929C10.4804 18.1054 10.7348 18 11 18H21C21.1978 18.0003 21.391 18.0591 21.5554 18.1691C21.7197 18.279 21.8479 18.4352 21.9236 18.6179C21.9993 18.8006 22.0192 19.0016 21.9809 19.1956C21.9425 19.3896 21.8476 19.5679 21.708 19.708ZM21.708 15.708C21.5199 15.8951 21.2653 16 21 16H11C10.7348 16 10.4804 15.8946 10.2929 15.7071C10.1054 15.5196 10 15.2652 10 15C10 14.7348 10.1054 14.4804 10.2929 14.2929C10.4804 14.1054 10.7348 14 11 14H21C21.1978 14.0003 21.391 14.0591 21.5554 14.1691C21.7197 14.279 21.8479 14.4352 21.9236 14.6179C21.9993 14.8006 22.0192 15.0016 21.9809 15.1956C21.9425 15.3896 21.8476 15.5679 21.708 15.708ZM21.708 11.708C21.5199 11.8951 21.2653 12 21 12H11C10.7348 12 10.4804 11.8946 10.2929 11.7071C10.1054 11.5196 10 11.2652 10 11C10 10.7348 10.1054 10.4804 10.2929 10.2929C10.4804 10.1054 10.7348 10 11 10H21C21.1978 10.0003 21.391 10.0591 21.5554 10.1691C21.7197 10.279 21.8479 10.4352 21.9236 10.6179C21.9993 10.8006 22.0192 11.0016 21.9809 11.1956C21.9425 11.3896 21.8476 11.5679 21.708 11.708Z" fill="#226CF2"/>
</g>
</g>
<defs>
<clipPath id="clip0_1_6479">
<rect width="32" height="32" fill="white"/>
</clipPath>
</defs>
</svg>
