<svg width="16" height="16" viewBox="0 0 16 16" fill="none" xmlns="http://www.w3.org/2000/svg">
<mask id="mask0_2014_3175" style="mask-type:luminance" maskUnits="userSpaceOnUse" x="0" y="0" width="16" height="16">
<path d="M16 0H0V16H16V0Z" fill="white"/>
</mask>
<g mask="url(#mask0_2014_3175)">
<path d="M7.99996 15C6.38388 15.0011 4.81719 14.443 3.56579 13.4204C2.31438 12.3978 1.45535 10.9737 1.13448 9.38976C0.81362 7.80585 1.05069 6.15971 1.80546 4.73071C2.56022 3.3017 3.78619 2.17788 5.2753 1.54995C6.98585 0.827326 8.91341 0.813813 10.6339 1.51239C12.3545 2.21096 13.727 3.56439 14.4496 5.27495C15.1723 6.98551 15.1858 8.91307 14.4872 10.6336C13.7886 12.3541 12.4352 13.7267 10.7246 14.4493C9.8627 14.8143 8.93598 15.0016 7.99996 15ZM4.49996 7.49995C4.36736 7.49995 4.24018 7.55263 4.14641 7.6464C4.05264 7.74017 3.99996 7.86734 3.99996 7.99995C3.99996 8.13256 4.05264 8.25974 4.14641 8.35351C4.24018 8.44727 4.36736 8.49995 4.49996 8.49995H7.49996V11.5C7.49996 11.6326 7.55264 11.7597 7.64641 11.8535C7.74018 11.9473 7.86735 12 7.99996 12C8.13257 12 8.25975 11.9473 8.35352 11.8535C8.44728 11.7597 8.49996 11.6326 8.49996 11.5V8.49995H11.5C11.6326 8.49995 11.7597 8.44727 11.8535 8.35351C11.9473 8.25974 12 8.13256 12 7.99995C12 7.86734 11.9473 7.74017 11.8535 7.6464C11.7597 7.55263 11.6326 7.49995 11.5 7.49995H8.49996V4.49995C8.49996 4.36734 8.44728 4.24017 8.35352 4.1464C8.25975 4.05263 8.13257 3.99995 7.99996 3.99995C7.86735 3.99995 7.74018 4.05263 7.64641 4.1464C7.55264 4.24017 7.49996 4.36734 7.49996 4.49995V7.49995H4.49996Z" fill="white"/>
</g>
</svg>
