<svg width="32" height="32" viewBox="0 0 32 32" fill="none" xmlns="http://www.w3.org/2000/svg">
<g clip-path="url(#clip0_1_9080)">
<mask id="mask0_1_9080" style="mask-type:luminance" maskUnits="userSpaceOnUse" x="0" y="0" width="32" height="32">
<path d="M32 0H0V32H32V0Z" fill="white"/>
</mask>
<g mask="url(#mask0_1_9080)">
<mask id="mask1_1_9080" style="mask-type:luminance" maskUnits="userSpaceOnUse" x="0" y="0" width="32" height="32">
<path d="M32 0H0V32H32V0Z" fill="white"/>
</mask>
<g mask="url(#mask1_1_9080)">
<path d="M8 29.992C6.93913 29.992 5.92172 29.5706 5.17157 28.8204C4.42143 28.0703 4 27.0529 4 25.992V8.99333C4 8.72812 4.10536 8.47376 4.29289 8.28623C4.48043 8.09869 4.73478 7.99333 5 7.99333C5.26522 7.99333 5.51957 8.09869 5.70711 8.28623C5.89464 8.47376 6 8.72812 6 8.99333V25.9933C6 26.5238 6.21071 27.0325 6.58579 27.4075C6.96086 27.7826 7.46957 27.9933 8 27.9933H19C19.2652 27.9933 19.5196 28.0987 19.7071 28.2862C19.8946 28.4738 20 28.7281 20 28.9933C20 29.2585 19.8946 29.5129 19.7071 29.7004C19.5196 29.888 19.2652 29.9933 19 29.9933L8 29.992ZM12 25.992C10.9391 25.992 9.92172 25.5706 9.17157 24.8204C8.42143 24.0703 8 23.0529 8 21.992V8C8 6.93913 8.42143 5.92172 9.17157 5.17157C9.92172 4.42143 10.9391 4 12 4H18.324L22.8 2.03733C22.8639 2.01315 22.9317 2.00051 23 2C23.0656 2.00181 23.1305 2.01442 23.192 2.03733L27.7 4C27.788 4.04593 27.8622 4.11449 27.915 4.19862C27.9677 4.28275 27.997 4.37942 28 4.47867L27.98 8.36C27.8814 9.34338 27.5435 10.2877 26.996 11.1104C26.4484 11.9332 25.7077 12.6094 24.8387 13.08L24 13.5507V22C24 23.0609 23.5786 24.0783 22.8284 24.8284C22.0783 25.5786 21.0609 26 20 26L12 25.992ZM12 18.992C12.0002 19.1233 12.0262 19.2533 12.0766 19.3746C12.127 19.4958 12.2009 19.606 12.2938 19.6987C12.3868 19.7915 12.4972 19.865 12.6185 19.9151C12.7399 19.9651 12.87 19.9908 13.0013 19.9907H19.0013C19.2666 19.9907 19.5209 19.8853 19.7084 19.6978C19.896 19.5102 20.0013 19.2559 20.0013 18.9907C20.0013 18.7254 19.896 18.4711 19.7084 18.2836C19.5209 18.096 19.2666 17.9907 19.0013 17.9907H13C12.8682 17.9908 12.7377 18.017 12.616 18.0678C12.4943 18.1185 12.3838 18.1928 12.2909 18.2863C12.198 18.3798 12.1245 18.4908 12.0746 18.6128C12.0246 18.7348 11.9993 18.8655 12 18.9973V18.992ZM12 14.992C12.0002 15.1233 12.0262 15.2533 12.0766 15.3746C12.127 15.4958 12.2009 15.606 12.2938 15.6987C12.3868 15.7915 12.4972 15.865 12.6185 15.9151C12.7399 15.9651 12.87 15.9908 13.0013 15.9907H19.0013C19.2666 15.9907 19.5209 15.8853 19.7084 15.6978C19.896 15.5102 20.0013 15.2559 20.0013 14.9907C20.0013 14.7254 19.896 14.4711 19.7084 14.2836C19.5209 14.096 19.2666 13.9907 19.0013 13.9907H13C12.8681 13.9908 12.7374 14.0171 12.6157 14.0679C12.4939 14.1187 12.3834 14.1931 12.2904 14.2868C12.1975 14.3804 12.124 14.4916 12.0742 14.6137C12.0243 14.7359 11.9991 14.8667 12 14.9987V14.992ZM19 4.832V7.712C18.9999 8.62362 19.2448 9.51851 19.709 10.3031C20.1732 11.0877 20.8396 11.7332 21.6387 12.172L23 12.912L24.38 12.172C25.0923 11.7775 25.6999 11.2184 26.1522 10.5414C26.6044 9.86439 26.8883 9.08902 26.98 8.28L27 4.83867L23 3.08L19 4.832ZM12 10.996C11.9996 11.1276 12.0252 11.258 12.0753 11.3797C12.1254 11.5014 12.199 11.6121 12.2919 11.7053C12.3847 11.7985 12.4951 11.8726 12.6166 11.9231C12.7381 11.9737 12.8684 11.9998 13 12H15C15.2652 12 15.5196 11.8946 15.7071 11.7071C15.8946 11.5196 16 11.2652 16 11C16 10.7348 15.8946 10.4804 15.7071 10.2929C15.5196 10.1054 15.2652 10 15 10H13C12.7355 10 12.4817 10.1048 12.2943 10.2915C12.1069 10.4781 12.0011 10.7315 12 10.996ZM21.956 9.85067L20.156 8.144C20.1077 8.09692 20.0692 8.04063 20.043 7.97845C20.0168 7.91628 20.0033 7.84948 20.0033 7.782C20.0033 7.71452 20.0168 7.64772 20.043 7.58555C20.0692 7.52337 20.1077 7.46708 20.156 7.42C20.2587 7.32402 20.3941 7.27063 20.5347 7.27063C20.6753 7.27063 20.8106 7.32402 20.9133 7.42L22.332 8.77067L25.084 6.148C25.1867 6.05202 25.3221 5.99863 25.4627 5.99863C25.6033 5.99863 25.7386 6.05202 25.8413 6.148C25.937 6.23752 25.9933 6.36122 25.998 6.49211C26.0028 6.623 25.9555 6.75046 25.8667 6.84667L22.7093 9.852C22.6066 9.94692 22.4719 9.99964 22.332 9.99964C22.1921 9.99964 22.0574 9.94692 21.9547 9.852L21.956 9.85067Z" fill="#226CF2"/>
</g>
</g>
</g>
<defs>
<clipPath id="clip0_1_9080">
<rect width="32" height="32" fill="white"/>
</clipPath>
</defs>
</svg>
