<svg width="24" height="24" viewBox="0 0 24 24" fill="none" xmlns="http://www.w3.org/2000/svg">
<g clip-path="url(#clip0_1_4965)">
<mask id="mask0_1_4965" style="mask-type:luminance" maskUnits="userSpaceOnUse" x="0" y="0" width="24" height="24">
<path d="M24 0H0V24H24V0Z" fill="white"/>
</mask>
<g mask="url(#mask0_1_4965)">
<path d="M21.748 21.0001H2.25302C2.12115 21.0001 1.99157 20.9656 1.87717 20.9C1.76278 20.8343 1.66757 20.7399 1.60102 20.6261C1.53509 20.5123 1.50037 20.3831 1.50037 20.2516C1.50037 20.12 1.53509 19.9909 1.60102 19.8771L11.348 3.37506C11.4148 3.26208 11.5098 3.16844 11.6238 3.1034C11.7378 3.03836 11.8668 3.00415 11.998 3.00415C12.1293 3.00415 12.2582 3.03836 12.3722 3.1034C12.4862 3.16844 12.5813 3.26208 12.648 3.37506L22.396 19.8751C22.4621 19.9888 22.4968 20.118 22.4968 20.2496C22.4968 20.3811 22.4621 20.5103 22.396 20.6241C22.33 20.7376 22.2355 20.832 22.1219 20.898C22.0082 20.9639 21.8794 20.9991 21.748 21.0001ZM12.001 14.9931C11.8992 14.9963 11.7991 15.0196 11.7063 15.0615C11.6135 15.1035 11.5299 15.1633 11.4602 15.2376C11.3906 15.3119 11.3362 15.3992 11.3003 15.4945C11.2644 15.5898 11.2477 15.6913 11.251 15.7931V17.2001C11.2458 17.3018 11.2613 17.4036 11.2966 17.4991C11.3319 17.5947 11.3863 17.6821 11.4565 17.756C11.5266 17.8298 11.6111 17.8887 11.7047 17.9289C11.7983 17.9691 11.8991 17.9898 12.001 17.9898C12.1029 17.9898 12.2037 17.9691 12.2973 17.9289C12.391 17.8887 12.4754 17.8298 12.5456 17.756C12.6157 17.6821 12.6701 17.5947 12.7055 17.4991C12.7408 17.4036 12.7563 17.3018 12.751 17.2001V15.7901C12.7567 15.5851 12.681 15.3862 12.5404 15.2368C12.3999 15.0875 12.206 14.9999 12.001 14.9931ZM12.001 8.99306C11.7984 8.99726 11.6057 9.08161 11.4651 9.22762C11.3245 9.37363 11.2475 9.56941 11.251 9.77206V12.7171C11.2458 12.8188 11.2613 12.9206 11.2966 13.0161C11.3319 13.1117 11.3863 13.1991 11.4565 13.273C11.5266 13.3468 11.6111 13.4057 11.7047 13.4459C11.7983 13.4861 11.8991 13.5068 12.001 13.5068C12.1029 13.5068 12.2037 13.4861 12.2973 13.4459C12.391 13.4057 12.4754 13.3468 12.5456 13.273C12.6157 13.1991 12.6701 13.1117 12.7055 13.0161C12.7408 12.9206 12.7563 12.8188 12.751 12.7171V9.77306C12.7548 9.57023 12.6779 9.3742 12.5373 9.22797C12.3967 9.08175 12.2038 8.99726 12.001 8.99306Z" fill="#926920"/>
</g>
</g>
<defs>
<clipPath id="clip0_1_4965">
<rect width="24" height="24" fill="white"/>
</clipPath>
</defs>
</svg>
