<svg width="12" height="12" viewBox="0 0 12 12" fill="none" xmlns="http://www.w3.org/2000/svg">
<path d="M2 12C1.46957 12 0.960859 11.7893 0.585786 11.4142C0.210714 11.0391 0 10.5304 0 10L0 6C0 5.46957 0.210714 4.96086 0.585786 4.58579C0.960859 4.21071 1.46957 4 2 4H2.75C2.8163 4 2.87989 4.02634 2.92678 4.07322C2.97366 4.12011 3 4.1837 3 4.25V6C3 6.79565 3.31607 7.55871 3.87868 8.12132C4.44129 8.68393 5.20435 9 6 9H7.75C7.8163 9 7.87989 9.02634 7.92678 9.07322C7.97366 9.12011 8 9.1837 8 9.25V10C8 10.5304 7.78929 11.0391 7.41421 11.4142C7.03914 11.7893 6.53043 12 6 12H2ZM6 8C5.46957 8 4.96086 7.78929 4.58579 7.41421C4.21071 7.03914 4 6.53043 4 6V2C4 1.46957 4.21071 0.960859 4.58579 0.585786C4.96086 0.210714 5.46957 0 6 0L10 0C10.5304 0 11.0391 0.210714 11.4142 0.585786C11.7893 0.960859 12 1.46957 12 2V6C12 6.53043 11.7893 7.03914 11.4142 7.41421C11.0391 7.78929 10.5304 8 10 8H6Z" fill="white"/>
</svg>
