<svg width="44" height="41" viewBox="0 0 44 41" fill="none" xmlns="http://www.w3.org/2000/svg">
<path d="M42.0499 2.976C41.2492 2.15926 40.2752 1.53284 39.2 1.143C38.2004 0.730357 37.1313 0.512125 36.0499 0.5H7.73795C5.67429 0.516385 3.70124 1.34993 2.2509 2.81807C0.800559 4.28622 -0.00884729 6.2693 -5.11196e-05 8.333V23.781C0.0257956 25.8523 0.871921 27.8289 2.35282 29.2774C3.83372 30.7259 5.82854 31.528 7.89995 31.508H9.99995V39.954C10.0001 40.0556 10.0312 40.1548 10.0891 40.2384C10.147 40.3219 10.229 40.3858 10.3242 40.4215C10.4193 40.4572 10.5231 40.4631 10.6217 40.4384C10.7203 40.4136 10.809 40.3594 10.8759 40.283L18.5559 31.508H36.226C38.2808 31.5117 40.2531 30.7003 41.7105 29.2518C43.1679 27.8032 43.9912 25.8358 44 23.781V8.211C43.9989 6.2886 43.3068 4.43063 42.0499 2.976Z" fill="#92C2FF"/>
<path d="M19.5 5H25.5V9H19.5V5ZM19.5 11H25.5V27H19.5V11Z" fill="white"/>
<path d="M25.5 27.5H19.5C19.3674 27.5 19.2402 27.4473 19.1464 27.3536C19.0527 27.2598 19 27.1326 19 27V11C19 10.8674 19.0527 10.7402 19.1464 10.6464C19.2402 10.5527 19.3674 10.5 19.5 10.5H25.5C25.6326 10.5 25.7598 10.5527 25.8536 10.6464C25.9473 10.7402 26 10.8674 26 11V27C26 27.1326 25.9473 27.2598 25.8536 27.3536C25.7598 27.4473 25.6326 27.5 25.5 27.5ZM20 26.5H25V11.5H20V26.5ZM25.5 9.5H19.5C19.3674 9.5 19.2402 9.44732 19.1464 9.35355C19.0527 9.25979 19 9.13261 19 9V5C19 4.86739 19.0527 4.74021 19.1464 4.64645C19.2402 4.55268 19.3674 4.5 19.5 4.5H25.5C25.6326 4.5 25.7598 4.55268 25.8536 4.64645C25.9473 4.74021 26 4.86739 26 5V9C26 9.13261 25.9473 9.25979 25.8536 9.35355C25.7598 9.44732 25.6326 9.5 25.5 9.5ZM20 8.5H25V5.5H20V8.5Z" fill="#004294"/>
<path d="M10.4999 40.454C10.3673 40.454 10.2402 40.4013 10.1464 40.3076C10.0526 40.2138 9.99995 40.0866 9.99995 39.954V31.508H7.89995C5.82854 31.528 3.83372 30.7259 2.35282 29.2774C0.871921 27.8289 0.0257956 25.8523 -5.11196e-05 23.781V8.333C-0.00884729 6.2693 0.800559 4.28622 2.2509 2.81807C3.70124 1.34993 5.67429 0.516385 7.73795 0.5H30.4999C30.6326 0.5 30.7597 0.552679 30.8535 0.646447C30.9473 0.740215 30.9999 0.867392 30.9999 1C30.9999 1.13261 30.9473 1.25979 30.8535 1.35355C30.7597 1.44732 30.6326 1.5 30.4999 1.5H7.73795C5.93901 1.5148 4.21939 2.24248 2.95624 3.52343C1.6931 4.80439 0.989561 6.53404 0.999949 8.333V23.781C1.02551 25.5872 1.76619 27.3096 3.05961 28.5706C4.35304 29.8316 6.09367 30.5283 7.89995 30.508H10.4999C10.6326 30.508 10.7597 30.5607 10.8535 30.6544C10.9473 30.7482 10.9999 30.8754 10.9999 31.008V38.623L17.9529 30.679C17.9998 30.6254 18.0576 30.5823 18.1225 30.5529C18.1873 30.5234 18.2577 30.5081 18.3289 30.508H36.229C38.0182 30.5115 39.7358 29.8052 41.005 28.5442C42.2743 27.2831 42.9917 25.5702 43 23.781V8.211C43.0004 6.53684 42.4008 4.91797 41.31 3.648C40.6147 2.94738 39.7719 2.41068 38.8429 2.077C37.9572 1.70848 37.0092 1.51264 36.0499 1.5H35.49C35.3573 1.5 35.2302 1.44732 35.1364 1.35355C35.0426 1.25979 34.99 1.13261 34.99 1C34.99 0.867392 35.0426 0.740215 35.1364 0.646447C35.2302 0.552679 35.3573 0.5 35.49 0.5H36.0499C37.1331 0.512002 38.204 0.73093 39.205 1.145C40.2785 1.5344 41.2508 2.16016 42.0499 2.976C43.3068 4.43063 43.9989 6.2886 44 8.211V23.781C43.9915 25.8358 43.1684 27.8033 41.7112 29.2521C40.254 30.7008 38.2817 31.5125 36.227 31.509H18.5569L10.8769 40.284C10.8299 40.3376 10.7719 40.3805 10.7068 40.4098C10.6418 40.4391 10.5713 40.4542 10.4999 40.454Z" fill="#004294"/>
</svg>
