<svg width="45" height="42" viewBox="0 0 45 42" fill="none" xmlns="http://www.w3.org/2000/svg">
<path d="M42.482 25.971L38.6 11.589C38.4497 11.0386 38.0876 10.5702 37.5929 10.2861C37.0982 10.002 36.5111 9.92539 35.96 10.073L5.13201 18.268C4.85797 18.3394 4.60087 18.4646 4.37563 18.6363C4.1504 18.8079 3.96153 19.0227 3.82001 19.268C3.54921 19.736 3.46831 20.2901 3.59401 20.816C3.04723 20.9652 2.58169 21.3247 2.29901 21.816C2.02044 22.2979 1.9425 22.8701 2.08201 23.409C1.81026 23.4821 1.55557 23.608 1.33251 23.7796C1.10945 23.9512 0.92239 24.1651 0.782015 24.409C0.640535 24.6516 0.54883 24.92 0.512258 25.1985C0.475686 25.477 0.494981 25.76 0.569015 26.031L4.45501 40.411C4.60555 40.9612 4.96769 41.4294 5.46234 41.7135C5.95699 41.9975 6.54395 42.0743 7.09502 41.927L37.925 33.733C38.1992 33.6617 38.4565 33.5365 38.6819 33.3648C38.9074 33.1932 39.0964 32.9784 39.238 32.733C39.5179 32.2511 39.5963 31.6783 39.456 31.139C40.0048 30.9911 40.4723 30.6314 40.756 30.139C41.0252 29.6707 41.1053 29.1173 40.98 28.592C41.5266 28.4429 41.9919 28.0833 42.274 27.592C42.4145 27.3491 42.5053 27.0807 42.541 26.8024C42.5767 26.5241 42.5567 26.2414 42.482 25.971Z" fill="white"/>
<path d="M35.45 17.95C40.3929 17.95 44.4 13.943 44.4 9.00005C44.4 4.0571 40.3929 0.0500488 35.45 0.0500488C30.5071 0.0500488 26.5 4.0571 26.5 9.00005C26.5 13.943 30.5071 17.95 35.45 17.95Z" fill="#92C2FF"/>
<path d="M4.45683 40.4109L0.575968 26.0291C0.541739 25.9011 0.559589 25.7646 0.625772 25.6499C0.691955 25.5352 0.80109 25.4514 0.928995 25.417C1.05682 25.3827 1.19294 25.4006 1.30766 25.4666C1.42237 25.5325 1.50615 25.6413 1.54081 25.769L5.42289 40.1509C5.50382 40.4457 5.69824 40.6965 5.96366 40.8481C6.22908 40.9998 6.54387 41.0399 6.83891 40.96L37.67 32.7649C37.7335 32.7478 37.7998 32.7436 37.865 32.7522C37.9303 32.7608 37.9931 32.7822 38.0501 32.8152C38.107 32.8482 38.1569 32.892 38.1968 32.9443C38.2368 32.9966 38.2662 33.0565 38.283 33.1201C38.3172 33.2482 38.2991 33.3845 38.2327 33.4993C38.1663 33.614 38.0571 33.6977 37.929 33.7319L7.09794 41.926C6.91624 41.9745 6.72886 41.999 6.54081 41.999C6.06739 41.9994 5.60707 41.8443 5.23051 41.5574C4.85395 41.2704 4.58204 40.8675 4.45683 40.4109ZM5.97099 37.8201L2.08891 23.437C2.05468 23.309 2.07253 23.1726 2.13871 23.0579C2.2049 22.9431 2.31403 22.8594 2.44193 22.825C2.5699 22.7907 2.7061 22.8088 2.82084 22.875C2.93558 22.9412 3.01955 23.0501 3.05399 23.178L6.93485 37.561C7.01577 37.856 7.21046 38.1069 7.47611 38.2585C7.74177 38.4102 8.05667 38.4504 8.35185 38.3701L39.1829 30.176C39.311 30.1418 39.4475 30.1599 39.5623 30.2263C39.6771 30.2927 39.7607 30.4019 39.795 30.53C39.8292 30.6581 39.8111 30.7944 39.7447 30.9092C39.6783 31.0239 39.569 31.1079 39.441 31.1421L8.60893 39.342C8.42777 39.3897 8.24131 39.4139 8.054 39.4141C7.57949 39.4148 7.11797 39.2589 6.74101 38.9707C6.36404 38.6825 6.09272 38.2782 5.96903 37.8201H5.97099ZM7.49003 35.2749L3.60893 20.8931C3.53472 20.622 3.51515 20.3387 3.55155 20.0601C3.58795 19.7814 3.6795 19.5129 3.82084 19.27C3.96269 19.0248 4.15186 18.8101 4.37724 18.6384C4.60262 18.4668 4.85972 18.3416 5.13383 18.27L23.8719 13.291C24 13.2572 24.1362 13.2755 24.2508 13.342C24.3653 13.4086 24.4489 13.5179 24.483 13.646C24.5168 13.7741 24.4985 13.9103 24.4319 14.0249C24.3654 14.1395 24.256 14.2231 24.128 14.2571L5.38993 19.2361C5.24353 19.2745 5.1063 19.3416 4.98612 19.4336C4.86595 19.5256 4.76528 19.6407 4.68998 19.772C4.61461 19.901 4.56576 20.044 4.54618 20.1921C4.52661 20.3403 4.53669 20.4908 4.57597 20.635L8.45683 35.0171C8.49643 35.1633 8.5646 35.3003 8.65727 35.4202C8.74993 35.54 8.86531 35.6404 8.99687 35.7156C9.12842 35.7907 9.27354 35.8392 9.42387 35.8582C9.57419 35.8771 9.72674 35.8661 9.87284 35.8259L40.7039 27.6331C40.8512 27.5944 40.9894 27.5269 41.1104 27.4343C41.2314 27.3418 41.333 27.2261 41.409 27.094C41.4836 26.9648 41.5319 26.8222 41.5513 26.6743C41.5707 26.5264 41.5608 26.376 41.522 26.2319L39.7478 19.6431C39.7136 19.5151 39.7317 19.3787 39.7979 19.2639C39.8641 19.1492 39.973 19.0655 40.1009 19.031C40.2288 18.9968 40.3653 19.0146 40.48 19.0808C40.5948 19.147 40.6785 19.2561 40.7129 19.384L42.4869 25.9729C42.5609 26.2439 42.5803 26.5269 42.5437 26.8054C42.5072 27.0839 42.4154 27.3523 42.274 27.595C42.1321 27.8402 41.9429 28.0549 41.7176 28.2266C41.4922 28.3982 41.2351 28.5234 40.961 28.595L10.1299 36.7881C9.94837 36.8374 9.76117 36.8623 9.57304 36.8621C9.09945 36.8633 8.63861 36.7085 8.26176 36.4216C7.88491 36.1348 7.61282 35.7317 7.48783 35.2749H7.49003ZM34.9849 17.9851C34.8528 17.9776 34.729 17.9179 34.6407 17.8193C34.5524 17.7207 34.5069 17.5911 34.514 17.459C34.5145 17.3925 34.5289 17.3268 34.5562 17.2661C34.5835 17.2055 34.6231 17.1514 34.6726 17.1069C34.7222 17.0625 34.7803 17.0287 34.8435 17.0081C34.9068 16.9874 34.9737 16.9804 35.0398 16.9871C35.1928 16.9961 35.347 17 35.503 17C37.624 16.9976 39.6575 16.1541 41.1573 14.6543C42.657 13.1545 43.5006 11.121 43.503 9C43.5006 6.879 42.657 4.84548 41.1573 3.3457C39.6575 1.84593 37.624 1.00238 35.503 1C33.7276 1.00345 32.0037 1.59664 30.6023 2.68652C29.2009 3.77641 28.2015 5.30119 27.761 7.021H29.3289C29.3588 7.02118 29.3884 7.02896 29.4146 7.04346C29.4408 7.05796 29.463 7.07872 29.479 7.104C29.4943 7.1295 29.5027 7.15829 29.5039 7.18799C29.5052 7.21768 29.499 7.24726 29.4859 7.27393L27.1609 11.9231C27.1469 11.9529 27.1248 11.9781 27.097 11.9958C27.0692 12.0136 27.0369 12.0229 27.0039 12.0229C26.9712 12.0227 26.939 12.0133 26.9114 11.9956C26.8838 11.9779 26.8619 11.9528 26.8479 11.9231L24.523 7.27393C24.5097 7.24734 24.5031 7.21793 24.5042 7.18823C24.5052 7.15854 24.5137 7.12959 24.5288 7.104C24.5448 7.07866 24.5671 7.05772 24.5933 7.04321C24.6195 7.0287 24.649 7.02109 24.679 7.021H26.73C27.1812 5.02986 28.295 3.25085 29.8892 1.97534C31.4834 0.699838 33.4633 0.00342429 35.5049 0C37.8911 0.00264685 40.1787 0.951662 41.866 2.63892C43.5533 4.32617 44.5023 6.61386 44.5049 9C44.5023 11.3861 43.5533 13.6738 41.866 15.3611C40.1787 17.0483 37.8911 17.9974 35.5049 18C35.3269 18 35.1569 17.9951 34.9829 17.9851H34.9849ZM35.011 9.98999C34.8784 9.98999 34.751 9.93727 34.6573 9.84351C34.5635 9.74974 34.511 9.6226 34.511 9.48999V3.51807C34.511 3.38546 34.5635 3.25832 34.6573 3.16455C34.751 3.07078 34.8784 3.01807 35.011 3.01807C35.1436 3.01807 35.2708 3.07078 35.3645 3.16455C35.4583 3.25832 35.511 3.38546 35.511 3.51807V8.98999H38.9949C39.1275 8.98999 39.2547 9.04271 39.3484 9.13647C39.4422 9.23024 39.4949 9.35738 39.4949 9.48999C39.4949 9.6226 39.4422 9.74974 39.3484 9.84351C39.2547 9.93727 39.1275 9.98999 38.9949 9.98999H35.011Z" fill="#004294"/>
<path d="M23.987 28.0819C22.7455 28.2704 21.4765 28.1389 20.3 27.6999L20.938 25.8049C21.7587 26.1641 22.6512 26.3287 23.546 26.2859L22.911 24.0739C20.737 24.1019 19.526 23.6319 19.052 21.9739L19.044 21.9459C18.605 20.4149 19.491 19.0679 21.205 18.3869L20.974 17.5809L22.432 17.1689L22.676 18.0179C23.6509 17.8723 24.6466 17.9677 25.576 18.2959L25.1 20.1869C24.4643 19.9719 23.7981 19.8609 23.127 19.8579L23.734 21.9719C26.028 21.9399 27.183 22.5319 27.634 24.0889L27.642 24.1169C28.089 25.6749 27.171 27.0169 25.457 27.6969L25.857 29.0739L24.399 29.4859L23.987 28.0819ZM22.317 21.9999L21.774 20.1079C21.111 20.3859 20.927 20.7989 21.054 21.2439L21.062 21.2719C21.191 21.7139 21.467 21.9369 22.317 21.9999ZM24.325 24.0339L24.884 25.9809C25.515 25.6979 25.768 25.3109 25.624 24.8099L25.616 24.7819C25.484 24.3199 25.162 24.0999 24.325 24.0309V24.0339Z" fill="#074294"/>
</svg>
