<svg width="16" height="16" viewBox="0 0 16 16" fill="none" xmlns="http://www.w3.org/2000/svg">
<g clip-path="url(#clip0_108_278)">
<mask id="mask0_108_278" style="mask-type:luminance" maskUnits="userSpaceOnUse" x="0" y="0" width="16" height="16">
<path d="M16 0H0V16H16V0Z" fill="white"/>
</mask>
<g mask="url(#mask0_108_278)">
<path d="M0.995974 8C0.994481 6.28217 1.6247 4.62377 2.76667 3.34048C3.90865 2.05719 5.48263 1.23862 7.18901 1.04058C8.89538 0.84255 10.615 1.27888 12.0205 2.26653C13.426 3.25417 14.4193 4.72416 14.8113 6.39667C14.8361 6.52392 14.8105 6.65583 14.74 6.76462C14.6695 6.87342 14.5595 6.95062 14.4333 6.97999C14.307 7.00936 14.1743 6.9886 14.063 6.92207C13.9517 6.85555 13.8706 6.74846 13.8366 6.62333C13.5779 5.52585 13.0152 4.52347 12.2129 3.73112C11.4107 2.93877 10.4014 2.38852 9.30081 2.14344C8.2002 1.89836 7.0528 1.96838 5.99016 2.34547C4.92751 2.72255 3.99263 3.39145 3.29269 4.27547C2.59274 5.15949 2.15606 6.22285 2.03272 7.34365C1.90937 8.46445 2.10435 9.59733 2.59529 10.6124C3.08624 11.6275 3.85328 12.4837 4.80849 13.0828C5.76369 13.682 6.8684 13.9999 7.99597 14C9.34591 13.9923 10.6544 13.5328 11.7128 12.6949C12.7712 11.857 13.5187 10.6888 13.836 9.37667C13.8699 9.25154 13.951 9.14445 14.0623 9.07793C14.1736 9.01141 14.3063 8.99064 14.4326 9.02001C14.5589 9.04938 14.6688 9.12658 14.7393 9.23538C14.8099 9.34417 14.8354 9.47608 14.8106 9.60333C14.4181 11.2752 13.4246 12.7444 12.0193 13.7315C10.614 14.7185 8.89485 15.1545 7.18897 14.9566C5.48309 14.7586 3.90951 13.9404 2.76761 12.6577C1.62571 11.375 0.99518 9.71733 0.995974 8ZM7.49997 11.5007V8.50067H4.49997C4.36737 8.50067 4.24019 8.44799 4.14642 8.35422C4.05265 8.26045 3.99997 8.13328 3.99997 8.00067C3.99997 7.86806 4.05265 7.74088 4.14642 7.64711C4.24019 7.55335 4.36737 7.50067 4.49997 7.50067H7.49997V4.50067C7.49997 4.36806 7.55265 4.24088 7.64642 4.14711C7.74019 4.05335 7.86737 4.00067 7.99997 4.00067C8.13258 4.00067 8.25976 4.05335 8.35353 4.14711C8.4473 4.24088 8.49997 4.36806 8.49997 4.50067V7.50067H11.5C11.6326 7.50067 11.7598 7.55335 11.8535 7.64711C11.9473 7.74088 12 7.86806 12 8.00067C12 8.13328 11.9473 8.26045 11.8535 8.35422C11.7598 8.44799 11.6326 8.50067 11.5 8.50067H8.49997V11.5007C8.49997 11.6333 8.4473 11.7605 8.35353 11.8542C8.25976 11.948 8.13258 12.0007 7.99997 12.0007C7.86737 12.0007 7.74019 11.948 7.64642 11.8542C7.55265 11.7605 7.49997 11.6333 7.49997 11.5007Z" fill="#226CF2"/>
</g>
</g>
<defs>
<clipPath id="clip0_108_278">
<rect width="16" height="16" fill="white"/>
</clipPath>
</defs>
</svg>
