<svg width="22" height="18" viewBox="0 0 22 18" fill="none" xmlns="http://www.w3.org/2000/svg">
<path d="M18.375 17.4419H3.6C3.2268 17.4774 2.85027 17.4387 2.49209 17.328C2.13392 17.2173 1.80118 17.0369 1.51303 16.7971C1.22489 16.5573 0.987035 16.2628 0.813173 15.9307C0.639312 15.5986 0.532877 15.2353 0.5 14.8619L0.5 3.5209C0.533001 3.14755 0.639527 2.78442 0.813442 2.4524C0.987358 2.12039 1.22523 1.82606 1.51336 1.58635C1.80149 1.34665 2.13419 1.1663 2.49231 1.0557C2.85042 0.945094 3.22688 0.90642 3.6 0.941901H18.38C18.8874 0.924912 19.3917 1.02758 19.852 1.24161C20.3124 1.45564 20.7159 1.77501 21.03 2.1739C21.0349 2.18029 21.0402 2.18631 21.046 2.1919C21.0528 2.19881 21.0592 2.20616 21.065 2.2139C21.0707 2.22217 21.0757 2.23086 21.08 2.2399L21.09 2.2579C21.34 2.63181 21.4743 3.07111 21.476 3.5209V6.1629C21.476 6.3899 21.484 7.5019 21.49 8.4829C21.496 9.4639 21.5 10.5739 21.5 10.8019L21.471 14.8619C21.4381 15.235 21.3318 15.5979 21.1582 15.9297C20.9846 16.2615 20.7471 16.5558 20.4594 16.7956C20.1717 17.0353 19.8394 17.2159 19.4817 17.3268C19.124 17.4377 18.7479 17.4768 18.375 17.4419ZM2.711 2.7419C2.59956 2.74202 2.4897 2.76821 2.3902 2.8184C2.2907 2.86858 2.20433 2.94136 2.138 3.0309C2.08274 3.10585 2.0428 3.19096 2.02048 3.28136C1.99816 3.37176 1.99389 3.46567 2.00792 3.55773C2.02194 3.64978 2.05399 3.73816 2.10222 3.81781C2.15045 3.89746 2.21393 3.96682 2.289 4.0219L10.578 10.1049C10.7003 10.1945 10.8479 10.2428 10.9995 10.2428C11.1511 10.2428 11.2987 10.1945 11.421 10.1049L19.71 4.0209C19.7853 3.96598 19.8489 3.89672 19.8973 3.8171C19.9457 3.73749 19.9779 3.6491 19.992 3.557C20.0062 3.46491 20.0019 3.37093 19.9796 3.28047C19.9573 3.19001 19.9173 3.10486 19.862 3.0299C19.75 2.8783 19.5825 2.77728 19.3962 2.74898C19.2099 2.72067 19.0199 2.76739 18.868 2.8789L11 8.6539L3.132 2.8799C3.01025 2.79038 2.86212 2.74203 2.711 2.7419Z" fill="#226CF2"/>
</svg>
