<svg width="24" height="25" viewBox="0 0 24 25" fill="none" xmlns="http://www.w3.org/2000/svg">
<mask id="mask0_108_3936" style="mask-type:luminance" maskUnits="userSpaceOnUse" x="0" y="0" width="24" height="25">
<path d="M24 0.441895H0V24.4419H24V0.441895Z" fill="white"/>
</mask>
<g mask="url(#mask0_108_3936)">
<path d="M3 19.1919C3 18.8952 3.08797 18.6052 3.2528 18.3585C3.41762 18.1119 3.65189 17.9196 3.92597 17.8061C4.20006 17.6925 4.50166 17.6628 4.79264 17.7207C5.08361 17.7786 5.35088 17.9215 5.56066 18.1312C5.77044 18.341 5.9133 18.6083 5.97118 18.8993C6.02906 19.1902 5.99935 19.4918 5.88582 19.7659C5.77229 20.04 5.58003 20.2743 5.33336 20.4391C5.08668 20.6039 4.79667 20.6919 4.5 20.6919C4.10218 20.6919 3.72064 20.5339 3.43934 20.2526C3.15804 19.9713 3 19.5897 3 19.1919ZM8.25 19.9429C8.14825 19.9482 8.0465 19.9326 7.95093 19.8973C7.85536 19.862 7.76798 19.8076 7.6941 19.7375C7.62022 19.6673 7.56139 19.5828 7.52119 19.4892C7.48099 19.3956 7.46026 19.2948 7.46026 19.1929C7.46026 19.091 7.48099 18.9902 7.52119 18.8966C7.56139 18.803 7.62022 18.7185 7.6941 18.6483C7.76798 18.5782 7.85536 18.5238 7.95093 18.4885C8.0465 18.4531 8.14825 18.4376 8.25 18.4429H20.25C20.4422 18.4528 20.6233 18.5362 20.7558 18.6757C20.8884 18.8153 20.9623 19.0004 20.9623 19.1929C20.9623 19.3854 20.8884 19.5705 20.7558 19.7101C20.6233 19.8496 20.4422 19.933 20.25 19.9429H8.25ZM3 13.1919C3 12.8952 3.08797 12.6052 3.2528 12.3585C3.41762 12.1119 3.65189 11.9196 3.92597 11.8061C4.20006 11.6925 4.50166 11.6628 4.79264 11.7207C5.08361 11.7786 5.35088 11.9215 5.56066 12.1312C5.77044 12.341 5.9133 12.6083 5.97118 12.8993C6.02906 13.1902 5.99935 13.4918 5.88582 13.7659C5.77229 14.04 5.58003 14.2743 5.33336 14.4391C5.08668 14.6039 4.79667 14.6919 4.5 14.6919C4.10218 14.6919 3.72064 14.5339 3.43934 14.2526C3.15804 13.9713 3 13.5897 3 13.1919ZM8.25 13.9409C8.05109 13.9409 7.86032 13.8619 7.71967 13.7212C7.57902 13.5806 7.5 13.3898 7.5 13.1909C7.5 12.992 7.57902 12.8012 7.71967 12.6606C7.86032 12.5199 8.05109 12.4409 8.25 12.4409H20.25C20.4489 12.4409 20.6397 12.5199 20.7803 12.6606C20.921 12.8012 21 12.992 21 13.1909C21 13.3898 20.921 13.5806 20.7803 13.7212C20.6397 13.8619 20.4489 13.9409 20.25 13.9409H8.25ZM3 7.1919C3 6.89522 3.08797 6.60521 3.2528 6.35854C3.41762 6.11187 3.65189 5.91961 3.92597 5.80608C4.20006 5.69254 4.50166 5.66284 4.79264 5.72072C5.08361 5.7786 5.35088 5.92146 5.56066 6.13124C5.77044 6.34101 5.9133 6.60829 5.97118 6.89926C6.02906 7.19023 5.99935 7.49183 5.88582 7.76592C5.77229 8.04001 5.58003 8.27428 5.33336 8.4391C5.08668 8.60392 4.79667 8.6919 4.5 8.6919C4.10218 8.6919 3.72064 8.53386 3.43934 8.25256C3.15804 7.97125 3 7.58972 3 7.1919ZM8.25 7.9429C8.05109 7.9429 7.86032 7.86388 7.71967 7.72323C7.57902 7.58257 7.5 7.39181 7.5 7.1929C7.5 6.99398 7.57902 6.80322 7.71967 6.66257C7.86032 6.52191 8.05109 6.4429 8.25 6.4429H20.25C20.4489 6.4429 20.6397 6.52191 20.7803 6.66257C20.921 6.80322 21 6.99398 21 7.1929C21 7.39181 20.921 7.58257 20.7803 7.72323C20.6397 7.86388 20.4489 7.9429 20.25 7.9429H8.25Z" fill="#226CF2"/>
</g>
</svg>
