<svg width="32" height="32" viewBox="0 0 32 32" fill="none" xmlns="http://www.w3.org/2000/svg">
<g clip-path="url(#clip0_1_1798)">
<mask id="mask0_1_1798" style="mask-type:luminance" maskUnits="userSpaceOnUse" x="0" y="0" width="32" height="32">
<path d="M32 0H0V32H32V0Z" fill="white"/>
</mask>
<g mask="url(#mask0_1_1798)">
<path d="M16 24.0001C18.398 24.021 20.725 23.1871 22.5639 21.6478C24.4028 20.1086 25.6334 17.9647 26.0349 15.6005C26.4364 13.2363 25.9827 10.8063 24.7551 8.74627C23.5275 6.68623 21.6063 5.1308 19.3359 4.35883C17.0654 3.58687 14.5943 3.64884 12.3654 4.53365C10.1365 5.41845 8.29567 7.06823 7.17288 9.18722C6.05008 11.3062 5.71876 13.7558 6.2383 16.097C6.75785 18.4381 8.09428 20.5176 10.008 21.9627C10.008 21.9747 10 21.9867 10 22.0001V29.0001C9.99919 29.164 10.0387 29.3256 10.115 29.4706C10.1912 29.6157 10.302 29.7398 10.4376 29.832C10.5731 29.9242 10.7292 29.9816 10.8921 29.9993C11.0551 30.017 11.2199 29.9944 11.372 29.9334L16 28.0761L20.628 29.9281C20.7464 29.9754 20.8726 29.9998 21 30.0001C21.2651 29.9997 21.5193 29.8942 21.7067 29.7068C21.8942 29.5193 21.9997 29.2652 22 29.0001V25.0001C22 24.7348 21.8947 24.4805 21.7071 24.293C21.5196 24.1054 21.2652 24.0001 21 24.0001C20.7348 24.0001 20.4805 24.1054 20.2929 24.293C20.1054 24.4805 20 24.7348 20 25.0001V27.5241L16.372 26.0721C16.3114 26.0552 16.2494 26.044 16.1867 26.0387C16.1259 26.0197 16.0634 26.0067 16 26.0001C15.9166 26.0044 15.8341 26.0196 15.7547 26.0454C15.7098 26.0498 15.6652 26.0574 15.6214 26.0681L12 27.5241V23.1561C13.2606 23.711 14.6227 23.9984 16 24.0001ZM8.00003 14.0001C8.00003 12.4178 8.46922 10.8711 9.34827 9.5555C10.2273 8.23991 11.4768 7.21453 12.9386 6.60902C14.4004 6.00352 16.0089 5.8451 17.5608 6.15378C19.1126 6.46246 20.5381 7.22439 21.6569 8.34321C22.7757 9.46203 23.5376 10.8875 23.8463 12.4393C24.155 13.9912 23.9966 15.5997 23.3911 17.0615C22.7856 18.5233 21.7602 19.7728 20.4446 20.6518C19.129 21.5309 17.5823 22.0001 16 22.0001C13.8783 22.0001 11.8435 21.1572 10.3432 19.6569C8.84288 18.1566 8.00003 16.1218 8.00003 14.0001ZM22 14.0001C22 12.8134 21.6481 11.6533 20.9888 10.6666C20.3296 9.67994 19.3925 8.91091 18.2961 8.45678C17.1998 8.00266 15.9934 7.88384 14.8295 8.11535C13.6656 8.34686 12.5965 8.9183 11.7574 9.75742C10.9183 10.5965 10.3468 11.6656 10.1153 12.8295C9.88381 13.9934 10.0026 15.1998 10.4568 16.2962C10.9109 17.3925 11.6799 18.3296 12.6666 18.9889C13.6533 19.6482 14.8133 20.0001 16 20.0001C17.5913 20.0001 19.1175 19.3679 20.2427 18.2427C21.3679 17.1175 22 15.5914 22 14.0001Z" fill="#226CF2"/>
</g>
</g>
<defs>
<clipPath id="clip0_1_1798">
<rect width="32" height="32" fill="white"/>
</clipPath>
</defs>
</svg>
