<svg width="32" height="32" viewBox="0 0 32 32" fill="none" xmlns="http://www.w3.org/2000/svg">
<path d="M20.7411 11.4912L16.0137 8.75022L14.2921 8.43929V9.69292L15.6243 10.9246L13.7866 10.7553C13.8003 10.7978 14.3263 11.3708 15.3783 12.4764L22.3396 13.6379L23.5693 14.439L20.379 14.6012L19.0742 19.4032L14.7635 22.2858H11.9489L12.8917 20.4089L12.7414 20.3445L10.2137 22.2858H9.60573L12.1949 18.6305C12.2222 18.3826 12.2905 17.5681 12.3998 16.1948L12.0104 15.6423L10.972 19.6709L8.80644 22.2858H8.25309L9.53741 20.4656L11.3341 14.927L10.9105 15.16L10.0976 17.3414L9.55107 17.6474L7.5836 22.3071C6.18998 20.3169 5.5 18.1142 5.5 15.7054C5.5 13.0706 6.47007 10.7553 8.41705 8.72897C10.5007 6.58293 13.0693 5.5 16.1298 5.5C18.8761 5.5 21.2398 6.42782 23.2141 8.2686C24.7785 9.72762 25.7485 11.2865 26.1106 12.9516L20.7411 11.4912ZM25.0107 11.9664C24.3686 10.3304 23.2619 8.97049 21.6838 7.89393C20.0101 6.74583 18.1588 6.17922 16.1298 6.17922C13.2811 6.17922 10.8764 7.18567 8.92941 9.20422C7.13273 11.1024 6.2378 13.2619 6.2378 15.7061C6.2378 17.5688 6.68185 19.304 7.57677 20.8976L10.2342 13.7654C10.7944 13.4743 11.0677 13.3539 11.0677 13.3971L12.2563 10.3728L13.0146 9.96206L13.971 7.95696L16.0547 8.28347L20.256 10.6349L25.0107 11.9664ZM24.1158 22.7816C23.2004 23.9495 21.998 24.8703 20.502 25.5361C19.081 26.1813 17.6122 26.5 16.0751 26.5C12.7209 26.5 10.0361 25.2605 8.00716 22.7816H24.1158ZM20.7889 19.4032L19.2518 22.2858H17.7899L20.502 18.872L20.7889 19.4032ZM24.7101 16.3364L23.7264 18.6305L22.8315 19.4032L21.0553 22.2858H19.8871L21.0553 20.2241L21.9707 19.4662L23.296 15.7627L24.7101 16.3364ZM22.9476 15.6423L21.6633 18.0568L20.9733 18.1779L21.1509 16.7678L20.9733 16.4781L21.1509 14.905L22.9476 15.6423ZM26.5 16.9526C26.3702 18.872 25.7144 20.649 24.5394 22.2858H22.1962L24.4164 18.7509L25.0995 16.4639L26.5 16.9526Z" fill="#226CF2"/>
</svg>
