<svg width="17" height="16" viewBox="0 0 17 16" fill="none" xmlns="http://www.w3.org/2000/svg">
<g clip-path="url(#clip0_108_441)">
<path d="M8.49939 14C7.3127 14 6.15267 13.6481 5.16597 12.9888C4.17928 12.3295 3.41024 11.3925 2.95612 10.2961C2.50199 9.19975 2.38317 7.99335 2.61468 6.82946C2.84619 5.66557 3.41764 4.59648 4.25675 3.75736C5.09587 2.91825 6.16496 2.3468 7.32885 2.11529C8.49274 1.88378 9.69914 2.0026 10.7955 2.45673C11.8918 2.91085 12.8289 3.67989 13.4882 4.66658C14.1475 5.65328 14.4994 6.81331 14.4994 8C14.4975 9.59071 13.8647 11.1157 12.7399 12.2405C11.6151 13.3653 10.0901 13.9981 8.49939 14ZM8.31939 11.0393C8.39893 11.0515 8.47986 11.0515 8.55939 11.0393C8.62776 11.0051 8.69121 10.9618 8.74806 10.9107C8.80664 10.8546 8.85216 10.7863 8.88139 10.7107C8.89689 10.6314 8.89689 10.5499 8.88139 10.4707C8.89468 10.3912 8.89468 10.3101 8.88139 10.2307C8.85484 10.1565 8.80878 10.0909 8.74806 10.0407C8.70088 9.98386 8.64179 9.93811 8.57497 9.90666C8.50815 9.87521 8.43524 9.85883 8.36139 9.85867C8.34739 9.85867 8.33339 9.85867 8.31939 9.85867C8.27763 9.85078 8.23523 9.84676 8.19273 9.84667C8.15088 9.84672 8.10914 9.85074 8.06806 9.85867C7.99392 9.89334 7.92627 9.94047 7.86806 9.998C7.8011 10.0358 7.74275 10.0871 7.69673 10.1487C7.68346 10.2281 7.68346 10.3092 7.69673 10.3887C7.68484 10.498 7.70257 10.6085 7.74806 10.7087C7.77673 10.7815 7.81728 10.8491 7.86806 10.9087C7.92905 10.9598 7.99625 11.003 8.06806 11.0373C8.10934 11.0434 8.151 11.0465 8.19273 11.0467C8.23489 11.0465 8.27699 11.0434 8.31873 11.0373L8.31939 11.0393ZM8.54873 5.85934C8.59918 5.85941 8.64956 5.86343 8.69939 5.87134C8.7815 5.90368 8.85886 5.94696 8.92939 6C8.99245 6.05513 9.04363 6.12251 9.07985 6.19803C9.11606 6.27356 9.13655 6.35565 9.14006 6.43934C9.14649 6.57662 9.11166 6.71269 9.04006 6.83C8.98248 6.94604 8.90063 7.04835 8.80006 7.13C8.7087 7.22051 8.6079 7.30097 8.49939 7.37L8.14873 7.57C8.07038 7.64976 7.99984 7.73682 7.93806 7.83C7.90233 7.94052 7.90233 8.05948 7.93806 8.17L8.00939 8.82934H8.68939L8.78939 8.24067C8.79902 8.14859 8.84164 8.0631 8.90939 8C9.00084 7.93413 9.09814 7.87678 9.20006 7.82867L9.49939 7.6C9.5991 7.52071 9.68669 7.42728 9.75939 7.32267C9.85296 7.20003 9.92986 7.06553 9.98806 6.92267C10.0528 6.75411 10.0838 6.5745 10.0794 6.394C10.0803 6.19463 10.0425 5.99697 9.96806 5.812C9.8906 5.64714 9.7785 5.50093 9.63939 5.38334C9.49719 5.25181 9.32584 5.15586 9.13939 5.10334C8.94459 5.03652 8.74 5.00272 8.53406 5.00334H8.49939C8.33459 5.00246 8.17015 5.01877 8.00873 5.052C7.86568 5.08075 7.72522 5.12111 7.58873 5.17267C7.46511 5.22677 7.34756 5.29382 7.23806 5.37267C7.12723 5.43755 7.02374 5.51422 6.92939 5.60134L7.19606 6.00134C7.21295 6.03713 7.23964 6.0674 7.27303 6.08864C7.30642 6.10988 7.34515 6.12121 7.38473 6.12134H7.40739C7.45337 6.13264 7.50141 6.13264 7.54739 6.12134L7.73873 6C7.82528 5.96222 7.9162 5.93535 8.00939 5.92C8.12801 5.88875 8.25006 5.8724 8.37273 5.87134H8.40006C8.44966 5.86333 8.49982 5.85932 8.55006 5.85934H8.54873Z" fill="#226CF2"/>
</g>
<defs>
<clipPath id="clip0_108_441">
<rect width="16" height="16" fill="white" transform="translate(0.5)"/>
</clipPath>
</defs>
</svg>
