<svg width="24" height="24" viewBox="0 0 24 24" fill="none" xmlns="http://www.w3.org/2000/svg">
<g clip-path="url(#clip0_66_2281)">
<mask id="mask0_66_2281" style="mask-type:luminance" maskUnits="userSpaceOnUse" x="0" y="0" width="24" height="24">
<path d="M24 0H0V24H24V0Z" fill="white"/>
</mask>
<g mask="url(#mask0_66_2281)">
<path d="M8.99997 21H15C14.6912 21.5065 14.246 21.9158 13.7155 22.1811C13.1849 22.4464 12.5904 22.5569 12 22.5C11.4095 22.5567 10.8151 22.446 10.2846 22.1808C9.7541 21.9155 9.30893 21.5063 8.99997 21ZM3.75497 19.5C3.63196 19.5007 3.51064 19.4714 3.40142 19.4148C3.29221 19.3582 3.19837 19.2759 3.12797 19.175C3.059 19.0755 3.01624 18.9602 3.00366 18.8398C2.99107 18.7193 3.00906 18.5977 3.05597 18.486L4.48397 14.853V6.92504C4.48397 6.91504 4.48397 6.90504 4.48397 6.89504C4.51792 6.45881 4.66359 6.03866 4.90697 5.67504C5.19042 5.27586 5.57383 4.9582 6.01875 4.75391C6.46367 4.54961 6.95447 4.46586 7.44197 4.51104C8.19397 4.51904 9.66797 4.52004 11.25 4.51804V2.26404C11.25 2.06513 11.329 1.87436 11.4696 1.73371C11.6103 1.59306 11.8011 1.51404 12 1.51404C12.1989 1.51404 12.3896 1.59306 12.5303 1.73371C12.6709 1.87436 12.75 2.06513 12.75 2.26404V4.51504C15.09 4.50904 17.252 4.50004 17.291 4.50004C17.33 4.50004 17.341 4.50004 17.365 4.50004C17.9289 4.52266 18.4635 4.75764 18.8615 5.15786C19.2595 5.55808 19.4915 6.09395 19.511 6.65804V11.283C19.511 11.4833 19.4314 11.6753 19.2898 11.8169C19.1482 11.9585 18.9562 12.038 18.756 12.038C18.5557 12.038 18.3637 11.9585 18.2221 11.8169C18.0805 11.6753 18.001 11.4833 18.001 11.283V6.66204C18.001 6.13104 17.462 6.00204 17.247 5.97204C16.599 5.97204 9.43897 6.00504 7.42397 5.98304H7.39197C6.11297 5.98304 6.00397 6.80304 5.99197 6.94504V15C5.99197 15.0955 5.97293 15.19 5.93597 15.278L4.87897 18.028H19.042L18.088 16.068C18.0451 15.9806 18.0202 15.8855 18.0148 15.7883C18.0093 15.6911 18.0234 15.5938 18.0563 15.5022C18.0891 15.4105 18.1399 15.3264 18.2059 15.2547C18.2718 15.1831 18.3514 15.1254 18.44 15.085C18.6196 14.9998 18.8253 14.988 19.0136 15.052C19.2018 15.1161 19.3576 15.251 19.448 15.428L20.925 18.443C20.9805 18.5548 21.006 18.6792 20.999 18.8038C20.992 18.9285 20.9527 19.0492 20.885 19.154C20.8157 19.2603 20.7209 19.3475 20.6093 19.4078C20.4977 19.4681 20.3728 19.4994 20.246 19.499L3.75497 19.5Z" fill="white"/>
</g>
</g>
<defs>
<clipPath id="clip0_66_2281">
<rect width="24" height="24" fill="white"/>
</clipPath>
</defs>
</svg>
