<svg width="14" height="12" viewBox="0 0 14 12" fill="none" xmlns="http://www.w3.org/2000/svg">
<path d="M13.4987 12H0.502016C0.414099 12 0.32771 11.977 0.251449 11.9332C0.175188 11.8895 0.111715 11.8265 0.0673491 11.7506C0.0233925 11.6748 0.000244141 11.5886 0.000244141 11.501C0.000244141 11.4133 0.0233925 11.3272 0.0673491 11.2513L6.56535 0.249959C6.60986 0.174636 6.67323 0.112215 6.74922 0.0688531C6.82521 0.0254911 6.91119 0.00268555 6.99868 0.00268555C7.08617 0.00268555 7.17215 0.0254911 7.24814 0.0688531C7.32413 0.112215 7.38751 0.174636 7.43202 0.249959L13.9307 11.25C13.9747 11.3258 13.9979 11.4119 13.9979 11.4996C13.9979 11.5873 13.9747 11.6735 13.9307 11.7493C13.8867 11.825 13.8237 11.8879 13.7479 11.9319C13.6722 11.9759 13.5863 11.9993 13.4987 12ZM7.00068 7.99529C6.93282 7.99745 6.86605 8.01295 6.80419 8.04093C6.74232 8.0689 6.68658 8.1088 6.64014 8.15833C6.59371 8.20786 6.55749 8.26606 6.53356 8.3296C6.50963 8.39314 6.49846 8.46077 6.50068 8.52862V9.46662C6.49718 9.53446 6.50751 9.60229 6.53106 9.66601C6.5546 9.72972 6.59087 9.78797 6.63764 9.83723C6.68441 9.88648 6.74072 9.9257 6.80313 9.9525C6.86555 9.9793 6.93276 9.99312 7.00068 9.99312C7.06861 9.99312 7.13582 9.9793 7.19823 9.9525C7.26064 9.9257 7.31695 9.88648 7.36372 9.83723C7.4105 9.78797 7.44676 9.72972 7.47031 9.66601C7.49385 9.60229 7.50419 9.53446 7.50068 9.46662V8.52662C7.50446 8.38997 7.45399 8.25737 7.3603 8.15781C7.26661 8.05825 7.13732 7.99982 7.00068 7.99529ZM7.00068 3.99529C6.86559 3.99809 6.73711 4.05432 6.6434 4.15167C6.54968 4.24901 6.49836 4.37952 6.50068 4.51463V6.47796C6.49718 6.54579 6.50751 6.61363 6.53106 6.67734C6.5546 6.74105 6.59087 6.79931 6.63764 6.84856C6.68441 6.89781 6.74072 6.93703 6.80313 6.96383C6.86555 6.99063 6.93276 7.00445 7.00068 7.00445C7.06861 7.00445 7.13582 6.99063 7.19823 6.96383C7.26064 6.93703 7.31695 6.89781 7.36372 6.84856C7.4105 6.79931 7.44676 6.74105 7.47031 6.67734C7.49385 6.61363 7.50419 6.54579 7.50068 6.47796V4.51529C7.50318 4.38007 7.45194 4.24939 7.35821 4.1519C7.26447 4.05442 7.13589 3.99809 7.00068 3.99529Z" fill="#111111"/>
</svg>
