<svg width="24" height="24" viewBox="0 0 24 24" fill="none" xmlns="http://www.w3.org/2000/svg">
<path d="M12.0001 19.5C10.5167 19.5 9.0667 19.0601 7.83333 18.236C6.59996 17.4119 5.63854 16.2406 5.07088 14.8701C4.50322 13.4997 4.35473 11.9917 4.64412 10.5368C4.93351 9.08197 5.64796 7.7456 6.69686 6.6967C7.74575 5.64781 9.08209 4.9335 10.5369 4.64411C11.9918 4.35472 13.4998 4.50325 14.8702 5.07091C16.2406 5.63856 17.4121 6.59986 18.2362 7.83323C19.0603 9.0666 19.5001 10.5166 19.5001 12C19.498 13.9885 18.7072 15.8949 17.3011 17.301C15.895 18.707 13.9886 19.4979 12.0001 19.5ZM10.0001 13.656L9.00008 14.502C9.30146 14.9099 9.69429 15.2415 10.1471 15.47C10.5944 15.6862 11.0766 15.8217 11.5711 15.87V17.25H12.4281V15.87C12.7643 15.8565 13.0977 15.8025 13.421 15.709C13.7179 15.6255 13.9965 15.4867 14.242 15.3C14.4748 15.1182 14.6635 14.886 14.794 14.621C14.9381 14.3152 15.0087 13.9799 15.0001 13.642C15.0069 13.3172 14.9492 12.9943 14.8302 12.692C14.7154 12.4204 14.5451 12.1758 14.3302 11.974C14.0912 11.7535 13.8191 11.5716 13.524 11.435C13.1684 11.2698 12.8008 11.1321 12.4242 11.023V8.723C12.7116 8.75915 12.986 8.86412 13.2242 9.029C13.4628 9.20308 13.6888 9.39354 13.901 9.599L14.8101 8.712C14.4744 8.37522 14.0885 8.09253 13.6661 7.874C13.2789 7.68679 12.8561 7.5845 12.4261 7.574V6.75H11.5692V7.575C11.2488 7.5811 10.931 7.63572 10.627 7.737C10.3346 7.83231 10.063 7.98267 9.82698 8.18C9.59465 8.38152 9.40826 8.63042 9.28011 8.91C9.13862 9.22688 9.06855 9.57103 9.07503 9.918C9.07017 10.2176 9.14074 10.5137 9.28011 10.779C9.41892 11.034 9.60436 11.2606 9.82698 11.447C10.069 11.6462 10.3385 11.8095 10.627 11.932C10.93 12.0638 11.2458 12.1643 11.5692 12.232V14.723C11.2575 14.66 10.9595 14.5422 10.689 14.375C10.4116 14.1858 10.1758 13.9418 9.99617 13.658L10.0001 13.656ZM12.431 14.721V12.482C12.7629 12.5563 13.076 12.6987 13.3502 12.9C13.4654 12.9926 13.5569 13.1112 13.6173 13.2461C13.6776 13.3811 13.7049 13.5284 13.6971 13.676C13.703 13.8526 13.6647 14.0278 13.586 14.186C13.5149 14.3173 13.4116 14.4284 13.286 14.509C13.1611 14.5906 13.0216 14.647 12.8751 14.675C12.7286 14.7045 12.5805 14.7199 12.431 14.721ZM11.5731 10.795C11.2524 10.7209 10.9461 10.5949 10.6661 10.422C10.5735 10.353 10.4996 10.262 10.451 10.1572C10.4025 10.0525 10.3808 9.93725 10.388 9.822C10.3739 9.6701 10.3963 9.51703 10.4532 9.37547C10.5101 9.23391 10.5999 9.10794 10.7152 9.008C10.968 8.83182 11.267 8.73408 11.575 8.727V10.795H11.5731Z" fill="#226CF2"/>
<path d="M12.007 1.50002C13.4594 1.4145 14.9114 1.6762 16.2426 2.26345C17.5738 2.85071 18.7459 3.74663 19.662 4.87702C19.7827 5.03085 19.8384 5.22582 19.8171 5.4202C19.7958 5.61458 19.6993 5.7929 19.5482 5.91697C19.397 6.04104 19.2033 6.10099 19.0085 6.084C18.8137 6.067 18.6333 5.9744 18.506 5.82602C15.721 2.43302 11.383 2.00802 7.56398 4.17202C6.18646 4.95259 5.03924 6.08274 4.23811 7.4484C3.43698 8.81406 3.0103 10.3669 3.00113 11.9502C2.99196 13.5334 3.40063 15.0911 4.18589 16.466C4.97115 17.8408 6.10521 18.9842 7.47359 19.7806C8.84198 20.5771 10.3963 20.9985 11.9796 21.0023C13.5628 21.006 15.1191 20.592 16.4913 19.8021C17.8634 19.0122 19.0029 17.8742 19.7947 16.5031C20.5865 15.132 21.0026 13.5763 21.001 11.993C20.9898 10.8741 20.7652 9.76764 20.339 8.73302C20.2716 8.55123 20.2774 8.35037 20.3553 8.1728C20.4331 7.99522 20.5768 7.85481 20.7562 7.78115C20.9355 7.70749 21.1365 7.70635 21.3166 7.77796C21.4968 7.84958 21.6421 7.98835 21.722 8.16502C22.2228 9.37705 22.4872 10.6737 22.501 11.985C22.5018 14.0595 21.8874 16.0876 20.7356 17.813C19.5837 19.5383 17.9461 20.8833 16.0299 21.678C14.1136 22.4726 12.0048 22.6812 9.96996 22.2773C7.93517 21.8735 6.06583 20.8753 4.59832 19.409C3.1308 17.9428 2.13103 16.0743 1.72542 14.0399C1.31981 12.0054 1.52658 9.89638 2.31959 7.97945C3.11259 6.06251 4.45621 4.42377 6.18055 3.27045C7.90488 2.11712 9.93249 1.50101 12.007 1.50002Z" fill="#226CF2"/>
<path d="M12.006 1.50002C13.4582 1.41374 14.9101 1.67459 16.2414 2.26097C17.5728 2.84735 18.7453 3.7424 19.662 4.87202C19.7827 5.02584 19.8384 5.22082 19.8171 5.4152C19.7959 5.60958 19.6993 5.7879 19.5482 5.91197C19.3971 6.03604 19.2033 6.09599 19.0086 6.079C18.8138 6.062 18.6334 5.9694 18.506 5.82102C15.72 2.43202 11.383 2.00702 7.563 4.17202C6.1863 4.95329 5.04 6.08384 4.23977 7.4496C3.43953 8.81536 3.01366 10.368 3.00513 11.9509C2.9966 13.5338 3.4057 15.091 4.19117 16.4653C4.97663 17.8396 6.11067 18.9825 7.47887 19.7785C8.84707 20.5746 10.401 20.9957 11.984 20.9994C13.5669 21.0031 15.1228 20.5893 16.4947 19.7996C17.8666 19.01 19.006 17.8724 19.7979 16.5018C20.5897 15.1312 21.0061 13.576 21.005 11.993C20.9939 10.8741 20.7692 9.76764 20.343 8.73302C20.2756 8.55123 20.2815 8.35037 20.3593 8.1728C20.4371 7.99522 20.5809 7.85481 20.7602 7.78115C20.9395 7.70749 21.1405 7.70635 21.3207 7.77796C21.5008 7.84958 21.6462 7.98835 21.726 8.16502C22.2251 9.37739 22.4878 10.674 22.5 11.985C22.5008 14.0595 21.8864 16.0876 20.7346 17.813C19.5827 19.5383 17.9451 20.8833 16.0289 21.678C14.1126 22.4726 12.0038 22.6812 9.96899 22.2773C7.93419 21.8735 6.06485 20.8753 4.59734 19.409C3.12983 17.9428 2.13005 16.0743 1.72445 14.0399C1.31884 12.0054 1.52561 9.89638 2.31861 7.97945C3.11161 6.06251 4.45523 4.42377 6.17957 3.27045C7.9039 2.11712 9.93151 1.50101 12.006 1.50002Z" fill="#226CF2"/>
</svg>
