<svg width="16" height="20" viewBox="0 0 16 20" fill="none" xmlns="http://www.w3.org/2000/svg">
<path d="M12.5 19.5H3.5C2.70435 19.5 1.94152 19.1837 1.37891 18.6211C0.816297 18.0585 0.5 17.2956 0.5 16.5V3C0.501322 2.20476 0.81756 1.44269 1.37988 0.880371C1.94221 0.318048 2.70476 0.0013221 3.5 0H12.5C13.2952 0.0013221 14.0578 0.318048 14.6201 0.880371C15.1824 1.44269 15.4987 2.20476 15.5 3V16.5C15.5 17.2956 15.1837 18.0585 14.6211 18.6211C14.0585 19.1837 13.2956 19.5 12.5 19.5ZM4.24512 13.5C4.0469 13.5 3.85636 13.5785 3.71582 13.7183C3.57528 13.8581 3.49617 14.0479 3.49512 14.2461C3.49511 14.4455 3.57433 14.6369 3.71484 14.7783C3.85535 14.9198 4.04575 14.9997 4.24512 15.001C4.34417 15.001 4.44171 14.9813 4.5332 14.9434C4.62469 14.9054 4.70837 14.8499 4.77832 14.7798C4.84827 14.7097 4.90368 14.6263 4.94141 14.5347C4.97913 14.4431 4.99831 14.3451 4.99805 14.2461C4.99725 14.0476 4.91816 13.8576 4.77734 13.7178C4.63653 13.5779 4.44554 13.4995 4.24707 13.5H4.24512ZM7.24512 13.5C7.14672 13.4988 7.04917 13.5172 6.95801 13.5542C6.86684 13.5912 6.78354 13.6463 6.71387 13.7158C6.64419 13.7853 6.58904 13.8679 6.55176 13.959C6.51447 14.05 6.49613 14.1477 6.49707 14.2461C6.496 14.3446 6.51453 14.442 6.55176 14.5332C6.58898 14.6244 6.64418 14.7073 6.71387 14.7769C6.78355 14.8464 6.86678 14.9014 6.95801 14.9385C7.04924 14.9756 7.14664 14.9944 7.24512 14.9932H11.7393C11.8377 14.9936 11.9352 14.9743 12.0264 14.937C12.1175 14.8997 12.2006 14.8448 12.2705 14.7754C12.3404 14.706 12.3955 14.6236 12.4336 14.5327C12.4716 14.4419 12.4918 14.3446 12.4922 14.2461C12.4918 14.1476 12.4717 14.0503 12.4336 13.9595C12.3955 13.8687 12.3404 13.7861 12.2705 13.7168C12.2006 13.6475 12.1175 13.5929 12.0264 13.5557C11.9352 13.5184 11.8377 13.4995 11.7393 13.5H7.24512ZM7.24512 10.5C7.14624 10.4992 7.04848 10.518 6.95703 10.5557C6.86559 10.5933 6.78258 10.6491 6.71289 10.7192C6.6432 10.7894 6.58779 10.8727 6.55078 10.9644C6.51377 11.056 6.4956 11.1541 6.49707 11.2529C6.4976 11.451 6.57658 11.6409 6.7168 11.7808C6.85702 11.9206 7.04708 11.999 7.24512 11.999H11.7451C11.9437 11.9996 12.1344 11.9211 12.2754 11.7812C12.4164 11.6414 12.496 11.4515 12.4971 11.2529C12.4971 11.0534 12.4174 10.8619 12.2764 10.7207C12.1354 10.5795 11.9447 10.5003 11.7451 10.5H7.24512ZM4.24512 10.5C4.04601 10.5011 3.85535 10.5806 3.71484 10.7217C3.57433 10.8628 3.49538 11.0538 3.49512 11.2529C3.49644 11.4511 3.57632 11.6405 3.7168 11.7803C3.85728 11.92 4.04698 11.9988 4.24512 11.999C4.34356 11.9995 4.44109 11.9806 4.53223 11.9434C4.62337 11.9061 4.70643 11.8515 4.77637 11.7822C4.8463 11.7129 4.90139 11.6303 4.93945 11.5396C4.97752 11.4488 4.99765 11.3514 4.99805 11.2529C4.99818 11.1542 4.97908 11.0566 4.94141 10.9653C4.90374 10.874 4.84806 10.7911 4.77832 10.7212C4.70858 10.6513 4.62634 10.5955 4.53516 10.5576C4.44397 10.5197 4.34582 10.5001 4.24707 10.5H4.24512ZM4.24512 6.74805C4.04566 6.74963 3.85435 6.83007 3.71387 6.97168C3.57338 7.11329 3.49511 7.30444 3.49512 7.50391V9.00391H6.49512V7.50391C6.49565 7.30428 6.41696 7.11291 6.27637 6.97119C6.13577 6.82947 5.94474 6.7491 5.74512 6.74805H4.24512ZM8.74512 7.50391C8.54744 7.50417 8.35746 7.58278 8.21777 7.72266C8.07809 7.86253 8 8.05232 8 8.25C7.99947 8.34836 8.01851 8.44603 8.05566 8.53711C8.09282 8.62818 8.14762 8.71084 8.2168 8.78076C8.28598 8.85068 8.36831 8.90621 8.45898 8.94434C8.54966 8.98246 8.64676 9.00241 8.74512 9.00293H11.7451C11.9447 9.00266 12.1354 8.92341 12.2764 8.78223C12.4174 8.64104 12.4971 8.44953 12.4971 8.25C12.496 8.05143 12.4164 7.86153 12.2754 7.72168C12.1344 7.58183 11.9437 7.50337 11.7451 7.50391H8.74512ZM4.99805 4.49805C4.74953 4.49884 4.51139 4.59792 4.33594 4.77393C4.16049 4.94994 4.06152 5.18849 4.06152 5.43701C4.06179 5.68536 4.16052 5.92333 4.33594 6.09912C4.51136 6.27492 4.7497 6.37421 4.99805 6.375C5.24674 6.37474 5.48528 6.27595 5.66113 6.1001C5.83698 5.92425 5.93528 5.6857 5.93555 5.43701C5.93502 5.18884 5.83652 4.95097 5.66113 4.77539C5.48574 4.59981 5.24817 4.50079 5 4.5L4.99805 4.49805ZM8.74512 4.49805C8.5462 4.4999 8.35643 4.58048 8.2168 4.72217C8.07717 4.86386 7.99893 5.05498 8 5.25391C7.99973 5.45185 8.07809 5.64198 8.21777 5.78223C8.35746 5.92247 8.54717 6.00142 8.74512 6.00195H11.7451C11.9439 6.00222 12.1344 5.92391 12.2754 5.78369C12.4164 5.64347 12.4963 5.45274 12.4971 5.25391C12.4971 5.05409 12.4183 4.86237 12.2773 4.7207C12.1364 4.57904 11.9449 4.4991 11.7451 4.49805H8.74512Z" fill="#226CF2"/>
</svg>
