<svg width="25" height="24" viewBox="0 0 25 24" fill="none" xmlns="http://www.w3.org/2000/svg">
<g clip-path="url(#clip0_1_1273)">
<path d="M12.6018 22.5C12.4808 22.5 12.3527 22.5 12.2207 22.493C11.1156 20.968 10.2609 19.2764 9.68872 17.4821C11.6177 17.1725 13.5837 17.1725 15.5127 17.4821C14.9396 19.2758 14.0853 20.9672 12.9817 22.493C12.8447 22.5 12.7208 22.5 12.6018 22.5ZM14.9568 22.236C15.8186 20.8442 16.501 19.349 16.9878 17.786C18.173 18.0804 19.325 18.4953 20.4258 19.024C18.9795 20.6347 17.0695 21.7576 14.9587 22.238L14.9568 22.236ZM10.2437 22.236C8.1331 21.7556 6.22342 20.6331 4.77686 19.0229C5.87753 18.4936 7.02953 18.0786 8.21484 17.7841C8.70123 19.347 9.38334 20.8422 10.2449 22.234L10.2437 22.236ZM21.3657 17.817C20.095 17.1804 18.7585 16.6848 17.3799 16.339C17.6481 15.1606 17.8057 13.9597 17.8508 12.752H23.1018C22.9727 14.5618 22.375 16.307 21.3677 17.816L21.3657 17.817ZM3.83472 17.817C2.82781 16.3078 2.2307 14.5627 2.10181 12.7531H7.35181C7.39772 13.9607 7.55534 15.1614 7.82275 16.34C6.44415 16.6858 5.10745 17.1814 3.83667 17.818L3.83472 17.817ZM15.9087 16.031C13.7194 15.659 11.483 15.659 9.2937 16.031C9.04775 14.9537 8.90145 13.856 8.85669 12.752H16.3467C16.3022 13.8557 16.1562 14.953 15.9106 16.03L15.9087 16.031ZM23.1008 11.252H17.8499C17.8044 10.0443 17.6466 8.84351 17.3787 7.66504C18.7577 7.31907 20.0947 6.82311 21.3657 6.18604C22.3735 7.69495 22.9716 9.44008 23.1008 11.25V11.252ZM16.3447 11.252H8.85474C8.9001 10.1479 9.04639 9.05041 9.29175 7.97302C11.4822 8.34377 13.7192 8.34377 15.9097 7.97302C16.155 9.05004 16.301 10.1473 16.3457 11.251L16.3447 11.252ZM7.35083 11.252H2.10083C2.22927 9.4414 2.82676 7.69555 3.83472 6.18604C5.10568 6.82325 6.44272 7.31922 7.82178 7.66504C7.55448 8.84294 7.39686 10.043 7.35083 11.25V11.252ZM12.6008 6.75195C11.6253 6.75188 10.6511 6.67468 9.68774 6.521C10.2606 4.72711 11.1149 3.03568 12.2188 1.51001C12.3577 1.51001 12.4868 1.50305 12.6008 1.50305C12.7148 1.50305 12.8487 1.50301 12.9807 1.51001C14.0836 3.03609 14.9376 4.72742 15.5107 6.521C14.5486 6.67385 13.576 6.75043 12.6018 6.75L12.6008 6.75195ZM16.9897 6.21899C16.5023 4.65608 15.8196 3.16099 14.9578 1.76904C17.0692 2.24925 18.9798 3.37209 20.4268 4.98303C19.3267 5.51159 18.1753 5.92602 16.9907 6.21997L16.9897 6.21899ZM8.21167 6.21899C7.02676 5.92514 5.87507 5.5107 4.77466 4.98206C6.22175 3.37083 8.13304 2.24783 10.2449 1.76794C9.38248 3.1591 8.70003 4.65413 8.21387 6.21704L8.21167 6.21899Z" fill="white"/>
</g>
<defs>
<clipPath id="clip0_1_1273">
<rect width="24" height="24" fill="white" transform="translate(0.600586)"/>
</clipPath>
</defs>
</svg>
