<svg width="17" height="16" viewBox="0 0 17 16" fill="none" xmlns="http://www.w3.org/2000/svg">
<g clip-path="url(#clip0_1_1368)">
<path d="M9.12343 1.04065C11.0934 1.05439 12.9773 1.85008 14.3606 3.2527C15.744 4.65532 16.5136 6.54999 16.5001 8.51998C16.5138 10.4901 15.7443 12.3849 14.3609 13.7877C12.9775 15.1905 11.0935 15.9862 9.12343 16C7.15332 15.9862 5.26937 15.1905 3.88598 13.7877C2.5026 12.3849 1.7331 10.4901 1.74676 8.51998C1.73328 6.54999 2.50285 4.65532 3.88622 3.2527C5.26958 1.85008 7.15344 1.05439 9.12343 1.04065Z" fill="#CC5E04"/>
<path d="M8.49989 0.417297C10.4699 0.431041 12.3537 1.22673 13.7371 2.62935C15.1205 4.03197 15.89 5.92664 15.8766 7.89663C15.8902 9.86673 15.1207 11.7616 13.7373 13.1643C12.354 14.5671 10.47 15.3629 8.49989 15.3766C6.52979 15.3629 4.64583 14.5671 3.26245 13.1643C1.87906 11.7616 1.10956 9.86673 1.12323 7.89663C1.10974 5.92664 1.87932 4.03197 3.26268 2.62935C4.64605 1.22673 6.5299 0.431041 8.49989 0.417297Z" fill="#FFAD3E"/>
<path d="M8.15383 14.42C4.41543 14.42 1.37402 11.3325 1.37402 7.53734C1.37402 3.74222 4.41543 0.654663 8.15383 0.654663C11.8922 0.654663 14.9336 3.74222 14.9336 7.53734C14.9336 11.3325 11.8922 14.42 8.15383 14.42Z" fill="#CC5E04"/>
<path d="M8.15391 0.988017C4.59931 0.988017 1.70744 3.92604 1.70744 7.53736C1.70744 11.1487 4.59931 14.0867 8.15391 14.0867C11.7085 14.0867 14.6004 11.1487 14.6004 7.53736C14.6004 3.92604 11.7085 0.988017 8.15391 0.988017ZM8.15391 0.32135C12.0824 0.32135 15.2671 3.55206 15.2671 7.53736C15.2671 11.5226 12.0824 14.7534 8.15391 14.7534C4.22543 14.7534 1.04077 11.5226 1.04077 7.53736C1.04077 3.55206 4.22543 0.32135 8.15391 0.32135Z" fill="white"/>
<path d="M7.73067 14.6667C11.7241 14.6667 14.9613 11.3834 14.9613 7.33333C14.9613 3.28325 11.7241 0 7.73067 0C3.73728 0 0.5 3.28325 0.5 7.33333C0.5 11.3834 3.73728 14.6667 7.73067 14.6667Z" fill="#FF7303"/>
<path d="M7.73075 14C11.3559 14 14.2947 11.0153 14.2947 7.33335C14.2947 3.65146 11.3559 0.666687 7.73075 0.666687C4.10555 0.666687 1.16675 3.65146 1.16675 7.33335C1.16675 11.0153 4.10555 14 7.73075 14Z" stroke="#FFDF58" stroke-width="2"/>
<path d="M7.84104 1.22466C4.54532 1.22466 1.86406 3.95207 1.86406 7.3045C1.86406 10.6569 4.54532 13.3843 7.84104 13.3843C11.1368 13.3843 13.818 10.6569 13.818 7.3045C13.818 3.95207 11.1368 1.22466 7.84104 1.22466ZM7.84104 1.02466C11.2525 1.02466 14.018 3.83624 14.018 7.3045C14.018 10.7728 11.2525 13.5843 7.84104 13.5843C4.42959 13.5843 1.66406 10.7728 1.66406 7.3045C1.66406 3.83624 4.42959 1.02466 7.84104 1.02466Z" fill="white"/>
<path d="M8.21477 1.77197C9.76691 1.78658 11.2497 2.41689 12.3373 3.52436C13.4249 4.63183 14.0283 6.12583 14.0148 7.67797C14.0283 9.23012 13.4249 10.7241 12.3373 11.8316C11.2497 12.9391 9.76691 13.5694 8.21477 13.584C6.66264 13.5694 5.17981 12.9391 4.09222 11.8316C3.00463 10.7241 2.40127 9.23012 2.41477 7.67797C2.40127 6.12583 3.00463 4.63183 4.09222 3.52436C5.17981 2.41689 6.66264 1.78658 8.21477 1.77197Z" fill="#FFAD3E"/>
<path d="M6.32804 8.2947L5.02671 7.54803C4.70085 7.35732 4.46369 7.04544 4.367 6.68047C4.27032 6.31551 4.32196 5.92711 4.51065 5.60009C4.69934 5.27307 5.00976 5.03399 5.37412 4.93505C5.73849 4.83611 6.12719 4.88536 6.45537 5.07203L9.41404 6.78336L8.21204 7.4667L5.85471 6.11003C5.82907 6.09489 5.80067 6.08499 5.77118 6.08092C5.74168 6.07685 5.71167 6.07868 5.68288 6.08631C5.6541 6.09394 5.62712 6.10721 5.60351 6.12536C5.57991 6.14351 5.56014 6.16618 5.54537 6.19203C5.51469 6.24533 5.5061 6.30852 5.52142 6.36808C5.53675 6.42763 5.57478 6.47883 5.62737 6.5107L6.32804 6.9107V8.2947ZM9.64137 9.0947V10.6C9.64548 10.7903 9.61156 10.9794 9.54159 11.1564C9.47162 11.3334 9.36702 11.4946 9.23392 11.6306C9.10082 11.7666 8.9419 11.8747 8.76648 11.9485C8.59106 12.0222 8.40267 12.0602 8.21237 12.0602C8.02207 12.0602 7.83369 12.0222 7.65827 11.9485C7.48285 11.8747 7.32393 11.7666 7.19083 11.6306C7.05773 11.4946 6.95312 11.3334 6.88315 11.1564C6.81319 10.9794 6.77926 10.7903 6.78337 10.6V7.18403L7.98337 7.87603V10.6C7.98311 10.63 7.9888 10.6596 8.00013 10.6873C8.01146 10.715 8.0282 10.7402 8.04936 10.7614C8.07053 10.7825 8.09569 10.7993 8.12339 10.8106C8.1511 10.8219 8.18078 10.8276 8.21071 10.8274C8.24135 10.8282 8.27185 10.8229 8.30047 10.8119C8.32908 10.8009 8.35525 10.7844 8.37748 10.7633C8.3997 10.7422 8.41755 10.7169 8.43 10.6889C8.44245 10.6609 8.44926 10.6307 8.45004 10.6V9.78736L9.64137 9.0947ZM8.67671 5.8187L9.96937 5.07203C10.2977 4.88249 10.6879 4.83114 11.0541 4.92929C11.4203 5.02743 11.7325 5.26703 11.922 5.59536C12.1116 5.9237 12.1629 6.31389 12.0648 6.68008C11.9666 7.04628 11.727 7.35849 11.3987 7.54803L8.44004 9.25003V7.87603L10.7974 6.5107C10.826 6.49709 10.8516 6.47772 10.8724 6.4538C10.8932 6.42988 10.9089 6.40192 10.9184 6.37167C10.928 6.34142 10.9312 6.30952 10.9278 6.27798C10.9245 6.24644 10.9146 6.21593 10.899 6.18835C10.8833 6.16078 10.8621 6.13673 10.8367 6.11771C10.8113 6.09869 10.7823 6.08512 10.7514 6.07783C10.7206 6.07054 10.6885 6.0697 10.6573 6.07536C10.6261 6.08101 10.5964 6.09304 10.57 6.1107L9.86937 6.5107L8.67671 5.8187ZM6.32804 8.2947L5.02671 7.54803C4.70085 7.35732 4.46369 7.04544 4.367 6.68047C4.27032 6.31551 4.32196 5.92711 4.51065 5.60009C4.69934 5.27307 5.00976 5.03399 5.37412 4.93505C5.73849 4.83611 6.12719 4.88536 6.45537 5.07203L9.41404 6.78336L8.21204 7.4667L5.85471 6.11003C5.82907 6.09489 5.80067 6.08499 5.77118 6.08092C5.74168 6.07685 5.71167 6.07868 5.68288 6.08631C5.6541 6.09394 5.62712 6.10721 5.60351 6.12536C5.57991 6.14351 5.56014 6.16618 5.54537 6.19203C5.51469 6.24533 5.5061 6.30852 5.52142 6.36808C5.53675 6.42763 5.57478 6.47883 5.62737 6.5107L6.32804 6.9107V8.2947Z" fill="#FF7303"/>
<path d="M6.01603 7.67202L4.71469 6.92535C4.38884 6.73464 4.15168 6.42276 4.05499 6.05779C3.9583 5.69283 4.00994 5.30443 4.19864 4.97741C4.38733 4.65039 4.69775 4.4113 5.06211 4.31237C5.42647 4.21343 5.81518 4.26268 6.14336 4.44935L9.10203 6.16068L7.90003 6.84402L5.54269 5.48735C5.51706 5.47221 5.48866 5.46231 5.45916 5.45824C5.42967 5.45417 5.39965 5.456 5.37087 5.46363C5.34209 5.47126 5.31511 5.48453 5.2915 5.50268C5.2679 5.52083 5.24813 5.54349 5.23336 5.56935C5.20268 5.62265 5.19408 5.68584 5.20941 5.7454C5.22474 5.80495 5.26277 5.85615 5.31536 5.88802L6.01603 6.28802V7.67202ZM9.32936 8.47202V9.97735C9.33347 10.1676 9.29955 10.3568 9.22958 10.5337C9.15961 10.7107 9.05501 10.8719 8.92191 11.0079C8.78881 11.1439 8.62988 11.252 8.45447 11.3258C8.27905 11.3995 8.09066 11.4375 7.90036 11.4375C7.71006 11.4375 7.52168 11.3995 7.34626 11.3258C7.17084 11.252 7.01192 11.1439 6.87882 11.0079C6.74571 10.8719 6.64111 10.7107 6.57114 10.5337C6.50118 10.3568 6.46725 10.1676 6.47136 9.97735V6.56135L7.67136 7.25335V9.97735C7.67109 10.0073 7.67679 10.037 7.68812 10.0647C7.69945 10.0924 7.71619 10.1175 7.73735 10.1387C7.75851 10.1599 7.78368 10.1766 7.81138 10.1879C7.83909 10.1993 7.86877 10.2049 7.89869 10.2047C7.92934 10.2055 7.95984 10.2002 7.98846 10.1892C8.01707 10.1782 8.04324 10.1617 8.06547 10.1406C8.08769 10.1195 8.10554 10.0942 8.11799 10.0662C8.13044 10.0382 8.13725 10.008 8.13803 9.97735V9.16468L9.32936 8.47202ZM8.36469 5.19602L9.65736 4.44935C9.9857 4.25981 10.3759 4.20846 10.7421 4.30661C11.1083 4.40475 11.4205 4.64435 11.61 4.97268C11.7996 5.30102 11.8509 5.69121 11.7528 6.0574C11.6546 6.4236 11.415 6.73581 11.0867 6.92535L8.12803 8.62735V7.25335L10.4854 5.88802C10.514 5.87441 10.5396 5.85504 10.5604 5.83112C10.5812 5.8072 10.5969 5.77924 10.6064 5.74899C10.616 5.71874 10.6191 5.68684 10.6158 5.6553C10.6125 5.62376 10.6026 5.59325 10.587 5.56567C10.5713 5.53809 10.5501 5.51405 10.5247 5.49503C10.4993 5.47601 10.4703 5.46244 10.4394 5.45515C10.4086 5.44786 10.3765 5.44702 10.3453 5.45267C10.3141 5.45833 10.2844 5.47036 10.258 5.48802L9.55736 5.88802L8.36469 5.19602ZM6.01603 7.67202L4.71469 6.92535C4.38884 6.73464 4.15168 6.42276 4.05499 6.05779C3.9583 5.69283 4.00994 5.30443 4.19864 4.97741C4.38733 4.65039 4.69775 4.4113 5.06211 4.31237C5.42647 4.21343 5.81518 4.26268 6.14336 4.44935L9.10203 6.16068L7.90003 6.84402L5.54269 5.48735C5.51706 5.47221 5.48866 5.46231 5.45916 5.45824C5.42967 5.45417 5.39965 5.456 5.37087 5.46363C5.34209 5.47126 5.31511 5.48453 5.2915 5.50268C5.2679 5.52083 5.24813 5.54349 5.23336 5.56935C5.20268 5.62265 5.19408 5.68584 5.20941 5.7454C5.22474 5.80495 5.26277 5.85615 5.31536 5.88802L6.01603 6.28802V7.67202Z" fill="#FFDF58"/>
<path d="M13.3833 0.417297L14.0499 2.52263L16.1833 3.22196L14.0499 3.84663L13.3833 6.02663L12.8573 3.84663L10.5786 3.22196L12.8573 2.52263L13.3833 0.417297Z" fill="white"/>
<path d="M4.27135 10.9053L4.62535 12.0193L5.75869 12.3893L4.62535 12.7227L4.27135 13.876L3.99335 12.7227L2.78735 12.3893L3.99335 12.0193L4.27135 10.9053Z" fill="white"/>
</g>
<defs>
<clipPath id="clip0_1_1368">
<rect width="16" height="16" fill="white" transform="translate(0.5)"/>
</clipPath>
</defs>
</svg>
