<svg width="41" height="40" viewBox="0 0 41 40" fill="none" xmlns="http://www.w3.org/2000/svg">
<circle cx="20.5" cy="20" r="20" fill="#E0E0E6"/>
<path d="M19.8752 38.75C30.9209 38.75 39.2502 31.0457 39.2502 20C39.2502 8.9543 30.9209 1.25 19.8752 1.25" stroke="#449383" stroke-width="2" stroke-linecap="round" stroke-linejoin="round"/>
<circle cx="20.5002" cy="20" r="17.5" fill="white"/>
<path d="M20.9168 10C18.9389 10 17.0055 10.5865 15.361 11.6853C13.7166 12.7841 12.4348 14.3459 11.678 16.1732C10.9211 18.0004 10.723 20.0111 11.1089 21.9509C11.4948 23.8907 12.4472 25.6725 13.8457 27.0711C15.2442 28.4696 17.026 29.422 18.9658 29.8078C20.9057 30.1937 22.9163 29.9957 24.7436 29.2388C26.5708 28.4819 28.1326 27.2002 29.2314 25.5557C30.3303 23.9112 30.9167 21.9778 30.9167 20C30.9088 17.3503 29.8527 14.8113 27.9791 12.9377C26.1054 11.064 23.5665 10.0079 20.9168 10ZM20.9168 28.8243C19.1719 28.824 17.4663 28.3063 16.0156 27.3368C14.5649 26.3672 13.4343 24.9892 12.7667 23.3771C12.099 21.765 11.9244 19.9912 12.2649 18.2798C12.6054 16.5685 13.4457 14.9965 14.6795 13.7627C15.9133 12.5289 17.4852 11.6886 19.1966 11.3482C20.9079 11.0077 22.6818 11.1823 24.2939 11.8499C25.906 12.5175 27.2839 13.6481 28.2535 15.0988C29.2231 16.5495 29.7408 18.2551 29.741 20C29.7342 22.3383 28.8024 24.5788 27.149 26.2322C25.4956 27.8856 23.255 28.8175 20.9168 28.8243Z" fill="#449383" stroke="#449383" stroke-width="0.833333"/>
<path d="M24.0346 23.1172C23.204 23.937 22.0838 24.3966 20.9168 24.3966C19.7497 24.3966 18.6296 23.937 17.7989 23.1172C17.6878 23.0184 17.5431 22.9658 17.3946 22.9702C17.246 22.9746 17.1047 23.0356 16.9996 23.1407C16.8945 23.2458 16.8335 23.3871 16.8291 23.5357C16.8247 23.6843 16.8773 23.8289 16.976 23.94C17.4912 24.4619 18.1049 24.8762 18.7815 25.159C19.4581 25.4418 20.1841 25.5875 20.9175 25.5875C21.6508 25.5875 22.3768 25.4418 23.0534 25.159C23.73 24.8762 24.3437 24.4619 24.8589 23.94C24.9576 23.8289 25.0102 23.6843 25.0058 23.5357C25.0015 23.3871 24.9405 23.2458 24.8354 23.1407C24.7303 23.0356 24.589 22.9746 24.4404 22.9702C24.2918 22.9658 24.1472 23.0184 24.036 23.1172H24.0346Z" fill="#449383" stroke="#449383" stroke-width="0.833333"/>
<path d="M19.4466 17.6453C19.4463 17.9359 19.3599 18.22 19.1982 18.4616C19.0365 18.7031 18.8068 18.8913 18.5381 19.0023C18.2695 19.1134 17.974 19.1423 17.6889 19.0854C17.4039 19.0285 17.1421 18.8884 16.9366 18.6828C16.7312 18.4771 16.5913 18.2152 16.5347 17.9301C16.4781 17.645 16.5073 17.3495 16.6186 17.081C16.7299 16.8124 16.9183 16.5829 17.1601 16.4215C17.4018 16.26 17.6859 16.1738 17.9766 16.1738C18.1698 16.1738 18.361 16.2119 18.5395 16.2859C18.7179 16.3598 18.88 16.4682 19.0165 16.6049C19.1531 16.7415 19.2613 16.9038 19.3351 17.0823C19.4089 17.2608 19.4468 17.4521 19.4466 17.6453Z" fill="#449383" stroke="#449383" stroke-width="0.833333"/>
<path d="M25.3284 17.6458C25.3284 17.9365 25.2422 18.2207 25.0807 18.4625C24.9192 18.7042 24.6896 18.8926 24.421 19.0039C24.1524 19.1151 23.8568 19.1443 23.5716 19.0875C23.2865 19.0308 23.0246 18.8908 22.819 18.6852C22.6134 18.4796 22.4734 18.2177 22.4167 17.9326C22.36 17.6474 22.3891 17.3518 22.5003 17.0832C22.6116 16.8146 22.8 16.585 23.0417 16.4235C23.2835 16.262 23.5677 16.1758 23.8584 16.1758C24.2483 16.1758 24.6222 16.3307 24.8979 16.6063C25.1736 16.882 25.3284 17.2559 25.3284 17.6458Z" fill="#449383" stroke="#449383" stroke-width="0.833333"/>
</svg>
