<svg width="41" height="40" viewBox="0 0 41 40" fill="none" xmlns="http://www.w3.org/2000/svg">
<circle cx="20.5" cy="20" r="20" fill="#E0E0E6"/>
<path d="M19.8748 38.75C30.9205 38.75 39.2498 31.0457 39.2498 20C39.2498 8.9543 30.9205 1.25 19.8748 1.25" stroke="#F08B35" stroke-width="2" stroke-linecap="round" stroke-linejoin="round"/>
<circle cx="20.4998" cy="20" r="17.5" fill="white"/>
<path d="M20.916 10C18.9382 10 17.0048 10.5865 15.3603 11.6853C13.7158 12.7841 12.4341 14.3459 11.6772 16.1732C10.9203 18.0004 10.7223 20.0111 11.1082 21.9509C11.494 23.8907 12.4464 25.6725 13.845 27.0711C15.2435 28.4696 17.0253 29.422 18.9651 29.8078C20.9049 30.1937 22.9156 29.9957 24.7429 29.2388C26.5701 28.4819 28.1319 27.2002 29.2307 25.5557C30.3295 23.9112 30.916 21.9778 30.916 20C30.9081 17.3503 29.852 14.8113 27.9783 12.9377C26.1047 11.064 23.5657 10.0079 20.916 10ZM20.916 28.8243C19.1711 28.824 17.4655 28.3063 16.0148 27.3368C14.5641 26.3672 13.4335 24.9892 12.7659 23.3771C12.0983 21.765 11.9237 19.9912 12.2642 18.2798C12.6047 16.5685 13.4449 14.9965 14.6787 13.7627C15.9126 12.5289 17.4845 11.6886 19.1958 11.3482C20.9072 11.0077 22.681 11.1823 24.2931 11.8499C25.9053 12.5175 27.2832 13.6481 28.2528 15.0988C29.2224 16.5495 29.74 18.2551 29.7403 20C29.7335 22.3383 28.8016 24.5788 27.1482 26.2322C25.4948 27.8856 23.2543 28.8175 20.916 28.8243Z" fill="#F08B35" stroke="#F08B35" stroke-width="0.833333"/>
<path d="M24.0341 23.1172C23.2035 23.937 22.0833 24.3966 20.9163 24.3966C19.7492 24.3966 18.6291 23.937 17.7984 23.1172C17.6873 23.0184 17.5427 22.9658 17.3941 22.9702C17.2455 22.9746 17.1042 23.0356 16.9991 23.1407C16.894 23.2458 16.833 23.3871 16.8286 23.5357C16.8242 23.6843 16.8768 23.8289 16.9756 23.94C17.4908 24.4619 18.1044 24.8762 18.781 25.159C19.4576 25.4418 20.1837 25.5875 20.917 25.5875C21.6503 25.5875 22.3763 25.4418 23.0529 25.159C23.7295 24.8762 24.3432 24.4619 24.8584 23.94C24.9572 23.8289 25.0097 23.6843 25.0053 23.5357C25.001 23.3871 24.94 23.2458 24.8349 23.1407C24.7298 23.0356 24.5885 22.9746 24.4399 22.9702C24.2913 22.9658 24.1467 23.0184 24.0356 23.1172H24.0341Z" fill="#F08B35" stroke="#F08B35" stroke-width="0.833333"/>
<path d="M19.4459 17.6453C19.4456 17.9359 19.3591 18.22 19.1974 18.4616C19.0357 18.7031 18.806 18.8913 18.5374 19.0023C18.2688 19.1134 17.9733 19.1423 17.6882 19.0854C17.4031 19.0285 17.1413 18.8884 16.9359 18.6828C16.7305 18.4771 16.5906 18.2152 16.534 17.9301C16.4774 17.645 16.5066 17.3495 16.6179 17.081C16.7292 16.8124 16.9176 16.5829 17.1593 16.4215C17.401 16.26 17.6852 16.1738 17.9759 16.1738C18.169 16.1738 18.3603 16.2119 18.5387 16.2859C18.7172 16.3598 18.8793 16.4682 19.0158 16.6049C19.1523 16.7415 19.2606 16.9038 19.3344 17.0823C19.4082 17.2608 19.446 17.4521 19.4459 17.6453Z" fill="#F08B35" stroke="#F08B35" stroke-width="0.833333"/>
<path d="M25.3277 17.6458C25.3277 17.9365 25.2415 18.2207 25.08 18.4625C24.9184 18.7042 24.6888 18.8926 24.4202 19.0039C24.1516 19.1151 23.8561 19.1443 23.5709 19.0875C23.2858 19.0308 23.0238 18.8908 22.8182 18.6852C22.6127 18.4796 22.4727 18.2177 22.4159 17.9326C22.3592 17.6474 22.3883 17.3518 22.4996 17.0832C22.6109 16.8146 22.7993 16.585 23.041 16.4235C23.2827 16.262 23.567 16.1758 23.8577 16.1758C24.2476 16.1758 24.6215 16.3307 24.8971 16.6063C25.1728 16.882 25.3277 17.2559 25.3277 17.6458Z" fill="#F08B35" stroke="#F08B35" stroke-width="0.833333"/>
</svg>
