<svg width="24" height="24" viewBox="0 0 24 24" fill="none" xmlns="http://www.w3.org/2000/svg">
<g clip-path="url(#clip0_66_224)">
<path d="M10.5 22.4978V19.7858V19.5608L7.87498 19.5376C7.67607 19.5376 7.48532 19.4585 7.34467 19.3179C7.20401 19.1772 7.12498 18.9865 7.12498 18.7876C7.12555 18.6904 7.14552 18.5943 7.18372 18.5049C7.22192 18.4156 7.27757 18.3347 7.34744 18.2672C7.4173 18.1996 7.49996 18.1467 7.59055 18.1115C7.68114 18.0763 7.77784 18.0596 7.87498 18.0623H11.25L11.196 2.52681V2.2478C11.196 1.83305 11.946 1.4978 11.946 1.4978C11.946 1.4978 12.696 1.83305 12.696 2.2478L12.75 18.0668H16.1482C16.2427 18.059 16.3378 18.0707 16.4276 18.1011C16.5174 18.1315 16.6 18.18 16.6703 18.2436C16.7406 18.3072 16.7972 18.3846 16.8363 18.4709C16.8755 18.5573 16.8966 18.6508 16.8982 18.7456C16.8982 18.9445 16.8192 19.1352 16.6786 19.2759C16.5379 19.4165 16.3472 19.4956 16.1482 19.4956H14.2185H13.5V22.4956C13.5 22.9103 12.33 23.3138 11.9167 23.3138C11.5035 23.3138 10.5 22.9148 10.5 22.4978ZM16.9905 16.4978L14.196 16.4678V3.23103L18.987 5.0603C19.1364 5.11006 19.2663 5.20561 19.3584 5.33336C19.4505 5.46111 19.5 5.61456 19.5 5.77203V13.0576C19.4993 13.2562 19.4207 13.4466 19.281 13.5878L16.9912 16.4978H16.9905ZM7.41299 16.4978L4.74075 13.5871C4.6005 13.4462 4.52153 13.2556 4.521 13.0568V5.77281C4.52091 5.61543 4.57031 5.46201 4.66224 5.33427C4.75417 5.20654 4.88397 5.11092 5.03323 5.06104L9.71698 3.37505L9.74023 16.5H7.41523L7.41299 16.4978Z" fill="#226CF2"/>
</g>
<defs>
<clipPath id="clip0_66_224">
<rect width="24" height="24" fill="white"/>
</clipPath>
</defs>
</svg>
