<svg width="25" height="25" viewBox="0 0 25 25" fill="none" xmlns="http://www.w3.org/2000/svg">
<g clip-path="url(#clip0_1_1277)">
<mask id="mask0_1_1277" style="mask-type:luminance" maskUnits="userSpaceOnUse" x="0" y="0" width="25" height="25">
<path d="M24.6602 0.5H0.660156V24.5H24.6602V0.5Z" fill="white"/>
</mask>
<g mask="url(#mask0_1_1277)">
<path d="M3.66016 15.5H7.57416L8.86016 14.374C9.14658 14.1329 9.50879 14.0005 9.88316 14L14.9662 14.011C15.1582 14.0224 15.3381 14.1087 15.4672 14.2514C15.5962 14.3941 15.6641 14.5818 15.6562 14.774C15.6525 14.9617 15.5786 15.1411 15.449 15.2769C15.3193 15.4126 15.1435 15.4948 14.9562 15.507L13.4072 15.5C13.2082 15.5 13.0175 15.579 12.8768 15.7197C12.7362 15.8603 12.6572 16.0511 12.6572 16.25C12.6572 16.4489 12.7362 16.6397 12.8768 16.7803C13.0175 16.921 13.2082 17 13.4072 17H15.8962C16.1995 16.9985 16.4962 16.9104 16.7512 16.746L20.4702 14.246C20.8452 14.007 21.1702 13.946 21.4452 14.246C21.5833 14.3882 21.6606 14.5787 21.6606 14.777C21.6606 14.9753 21.5833 15.1658 21.4452 15.308C21.4452 15.308 18.6262 18.301 17.5012 19.542C17.3617 19.6881 17.1941 19.8045 17.0085 19.8842C16.8229 19.9639 16.6231 20.0054 16.4212 20.006H3.66016V15.5Z" fill="#226CF2"/>
<path d="M14.3392 3.5C13.8542 3.51398 13.3798 3.6454 12.9567 3.88296C12.5337 4.12053 12.1745 4.45717 11.9102 4.864C11.6458 4.45717 11.2866 4.12053 10.8636 3.88296C10.4405 3.6454 9.96615 3.51398 9.48115 3.5C9.09829 3.50953 8.72113 3.59496 8.37153 3.75134C8.02193 3.90771 7.70684 4.13192 7.44453 4.41097C7.18222 4.69002 6.97791 5.01836 6.84344 5.37696C6.70897 5.73556 6.64701 6.11728 6.66115 6.5C6.66115 8.779 9.85515 11.3 11.2342 12.287C11.4315 12.4262 11.6671 12.501 11.9087 12.501C12.1502 12.501 12.3858 12.4262 12.5832 12.287C13.9612 11.3 17.1612 8.777 17.1612 6.5C17.1753 6.11981 17.1144 5.74056 16.9819 5.38394C16.8493 5.02732 16.6478 4.70034 16.3887 4.4217C16.1297 4.14305 15.8182 3.91822 15.4722 3.76007C15.1262 3.60191 14.7524 3.51354 14.3722 3.5" fill="#226CF2"/>
</g>
</g>
<defs>
<clipPath id="clip0_1_1277">
<rect width="24" height="24" fill="white" transform="translate(0.660156 0.5)"/>
</clipPath>
</defs>
</svg>
