<svg width="24" height="24" viewBox="0 0 24 24" fill="none" xmlns="http://www.w3.org/2000/svg">
<path d="M12.8271 19.1879C12.2049 17.7236 11.9242 16.1368 12.0068 14.5479C12.0131 14.286 12.0976 14.032 12.249 13.8182C12.4004 13.6045 12.6119 13.4407 12.8569 13.3479L16.8369 12.0479C16.964 12.0104 17.0966 11.9948 17.229 12.0019C17.3641 11.9941 17.4994 12.0104 17.6289 12.0499L21.601 13.3499C21.8357 13.447 22.0388 13.6069 22.1884 13.8121C22.338 14.0173 22.4285 14.2598 22.4492 14.5129V14.5199C22.6449 16.1143 22.4 17.7319 21.7412 19.1969C21.1452 20.1199 20.3612 20.9069 19.4409 21.5069C18.7939 22.0082 18.0382 22.3507 17.2348 22.5069C16.3758 22.5009 13.8711 21.0689 12.8271 19.1879ZM17.1591 13.1699L13.2358 14.4539C13.199 14.4913 13.1766 14.5406 13.1728 14.5929C13.1104 15.9681 13.3404 17.3409 13.8471 18.6209C14.6441 19.8742 15.8335 20.8282 17.2299 21.3339C18.6483 20.8083 19.8704 19.8585 20.7299 18.6139C21.2607 17.3613 21.4539 15.9914 21.29 14.6409V14.6299C21.2806 14.5633 21.2532 14.5004 21.2109 14.4479L17.3042 13.1699H17.2348H17.1591ZM16.2031 19.3359L14.4028 17.4159C14.3042 17.3032 14.25 17.1586 14.25 17.0089C14.25 16.8592 14.3042 16.7146 14.4028 16.6019C14.4508 16.5489 14.5093 16.5066 14.5747 16.4776C14.64 16.4486 14.7112 16.4336 14.7827 16.4336C14.8542 16.4336 14.9248 16.4486 14.9902 16.4776C15.0555 16.5066 15.1141 16.5489 15.1621 16.6019L16.58 18.1209L19.3339 15.1699C19.3821 15.117 19.4409 15.0748 19.5063 15.0459C19.5717 15.017 19.6423 15.002 19.7138 15.002C19.7854 15.002 19.8564 15.017 19.9218 15.0459C19.9873 15.0748 20.046 15.117 20.0942 15.1699C20.1904 15.277 20.2456 15.4146 20.25 15.5585C20.2543 15.7024 20.2077 15.8432 20.1181 15.9559L16.9589 19.3359C16.911 19.3883 16.8525 19.4301 16.7876 19.4587C16.7226 19.4873 16.6525 19.502 16.5815 19.502C16.5105 19.502 16.4404 19.4873 16.3754 19.4587C16.3105 19.4301 16.251 19.3883 16.2031 19.3359Z" fill="#226CF2"/>
<path d="M11.4331 19.498C11.1523 19.4278 10.8871 19.3057 10.6511 19.138C8.63336 17.7051 6.75567 16.0846 5.04312 14.298C4.08171 13.2961 3.24252 12.1837 2.54312 10.984C2.23102 10.4345 1.97666 9.85403 1.78412 9.25205C1.60341 8.69219 1.50801 8.10831 1.50112 7.52005C1.45796 6.36449 1.76066 5.22235 2.37047 4.23985C2.98028 3.25735 3.86944 2.47921 4.92412 2.00505C5.62222 1.68974 6.37636 1.51736 7.14212 1.49805C8.11359 1.52669 9.06351 1.79117 9.91001 2.26868C10.7565 2.7462 11.4742 3.42242 12.0011 4.23905C12.528 3.42275 13.2453 2.74674 14.0914 2.26925C14.9375 1.79176 15.887 1.52709 16.8581 1.49805C18.0126 1.52909 19.1315 1.9045 20.0711 2.57608C21.0106 3.24767 21.728 4.18476 22.1311 5.26705C22.4025 5.98611 22.5283 6.75195 22.5011 7.52005C22.4911 8.23475 22.3557 8.94215 22.1011 9.61005C21.824 10.3417 21.4665 11.0403 21.0351 11.693L17.6471 10.582C17.3675 10.5205 17.0778 10.5205 16.7981 10.582L11.4261 12.345C11.1616 12.4511 10.9338 12.6321 10.7709 12.866C10.6079 13.0998 10.517 13.3762 10.5091 13.661C10.4865 14.4148 10.5099 15.1692 10.5791 15.92C10.6322 16.5305 10.7233 17.137 10.8521 17.736C10.9782 18.3436 11.1731 18.9347 11.4331 19.498Z" fill="#226CF2"/>
</svg>
