<svg width="40" height="40" viewBox="0 0 40 40" fill="none" xmlns="http://www.w3.org/2000/svg">
<circle cx="20" cy="20" r="20" fill="#E0E0E6"/>
<path d="M19.375 38.75C30.4207 38.75 38.75 31.0457 38.75 20C38.75 8.9543 30.4207 1.25 19.375 1.25" stroke="#F08633" stroke-width="2" stroke-linecap="round" stroke-linejoin="round"/>
<circle cx="20" cy="20" r="17.5" fill="white"/>
<path d="M20.0001 33.2988C19.2575 33.3003 18.5357 33.0537 17.9493 32.598C14.7633 30.168 7.40015 23.868 7.40015 17.9988C7.40015 14.634 9.63215 9.8988 14.6001 9.8988C15.6427 9.9179 16.668 10.1684 17.6019 10.6323C18.5358 11.0961 19.3549 11.7616 20.0001 12.5808C20.6395 11.7649 21.4519 11.1011 22.3789 10.6373C23.3059 10.1735 24.3243 9.9213 25.3605 9.8988H25.4001C30.3333 9.8988 32.6001 14.634 32.6001 17.9988C32.5982 18.6742 32.5091 19.3466 32.3349 19.9992C32.3296 20.0397 32.3216 20.0798 32.3109 20.1192C32.2789 20.2649 32.2388 20.4087 32.1909 20.55C32.1317 20.7256 32.0187 20.878 31.8679 20.9857C31.7171 21.0934 31.5362 21.1509 31.3509 21.15H31.0797C30.8526 21.0756 30.6635 20.9154 30.5528 20.7035C30.4421 20.4917 30.4184 20.245 30.4869 20.016L30.5601 19.7388C30.5648 19.691 30.5732 19.6437 30.5853 19.5972C30.7218 19.0751 30.794 18.5384 30.8001 17.9988C30.8001 15.2988 29.1201 11.6988 25.4001 11.6988C24.4387 11.7377 23.5033 12.023 22.6838 12.5273C21.8643 13.0316 21.1881 13.738 20.7201 14.5788C20.6431 14.7054 20.5347 14.8101 20.4054 14.8827C20.2762 14.9554 20.1304 14.9935 19.9821 14.9935C19.8339 14.9935 19.6881 14.9554 19.5589 14.8827C19.4296 14.8101 19.3212 14.7054 19.2441 14.5788C18.7798 13.7426 18.1094 13.0391 17.2966 12.535C16.4838 12.0309 15.5556 11.7431 14.6001 11.6988C10.8801 11.6988 9.20015 15.2988 9.20015 17.9988C9.21923 18.9215 9.41517 19.832 9.77735 20.6808H13.9113L16.3449 16.6524C16.43 16.4733 16.5721 16.3275 16.7489 16.2378C16.9257 16.148 17.1273 16.1194 17.322 16.1565C17.5168 16.1935 17.6938 16.2941 17.8254 16.4424C17.9569 16.5908 18.0355 16.7786 18.0489 16.9764L19.2333 23.9364L21.8925 14.6964C21.9466 14.5098 22.0598 14.3459 22.2151 14.2292C22.3703 14.1125 22.5593 14.0494 22.7535 14.0494C22.9478 14.0494 23.1368 14.1125 23.292 14.2292C23.4473 14.3459 23.5605 14.5098 23.6145 14.6964L25.4145 20.6964H27.2145C27.4452 20.7083 27.6625 20.8083 27.8215 20.9758C27.9806 21.1433 28.0693 21.3654 28.0693 21.5964C28.0693 21.8274 27.9806 22.0495 27.8215 22.217C27.6625 22.3845 27.4452 22.4845 27.2145 22.4964H24.6921C24.4961 22.5026 24.3038 22.4417 24.1469 22.3239C23.9901 22.2061 23.8781 22.0384 23.8293 21.8484L22.7493 18.1884L19.8417 28.1544C19.7842 28.3426 19.6676 28.5073 19.5092 28.624C19.3508 28.7407 19.1589 28.8033 18.9621 28.8024C18.7452 28.814 18.5316 28.7449 18.3625 28.6085C18.1935 28.472 18.0809 28.2777 18.0465 28.0632L16.6305 19.6248L15.1665 22.1052C15.087 22.2179 14.9825 22.3107 14.8611 22.3763C14.7397 22.4418 14.6048 22.4784 14.4669 22.4832H10.6893C12.9723 25.8194 15.7897 28.7564 19.0281 31.176C19.3087 31.3859 19.6497 31.4994 20.0001 31.4994C20.3506 31.4994 20.6916 31.3859 20.9721 31.176C23.3627 29.3493 25.558 27.2803 27.5229 25.002C27.5962 24.9093 27.6874 24.8323 27.791 24.7756C27.8947 24.7189 28.0087 24.6836 28.1262 24.6719C28.2438 24.6601 28.3625 24.6721 28.4753 24.7072C28.5882 24.7423 28.6928 24.7997 28.7829 24.876C28.9693 25.0129 29.0958 25.2163 29.1363 25.4439C29.1767 25.6716 29.128 25.9061 29.0001 26.0988C26.9532 28.4869 24.6606 30.6528 22.1601 32.5608C21.5608 33.0395 20.8164 33.3001 20.0493 33.3L20.0001 33.2988Z" fill="#F08633"/>
</svg>
