<svg width="24" height="24" viewBox="0 0 24 24" fill="none" xmlns="http://www.w3.org/2000/svg">
<g clip-path="url(#clip0_1_1107)">
<mask id="mask0_1_1107" style="mask-type:luminance" maskUnits="userSpaceOnUse" x="0" y="0" width="24" height="24">
<path d="M24 0H0V24H24V0Z" fill="white"/>
</mask>
<g mask="url(#mask0_1_1107)">
<path d="M12 22.499C9.9233 22.499 7.89323 21.8832 6.16652 20.7295C4.4398 19.5757 3.09399 17.9358 2.29927 16.0172C1.50455 14.0986 1.29661 11.9874 1.70176 9.95058C2.1069 7.91378 3.10693 6.04286 4.57538 4.57441C6.04384 3.10596 7.91476 2.10593 9.95156 1.70078C11.9884 1.29564 14.0996 1.50357 16.0182 2.29829C17.9368 3.09301 19.5767 4.43882 20.7304 6.16554C21.8842 7.89226 22.5 9.92232 22.5 11.999C22.4968 14.7828 21.3896 17.4517 19.4211 19.4201C17.4527 21.3886 14.7838 22.4959 12 22.499ZM11.993 10.499C11.7864 10.5074 11.5916 10.5971 11.451 10.7487C11.3105 10.9003 11.2357 11.1014 11.243 11.308V17.191C11.2355 17.2941 11.2493 17.3977 11.2836 17.4952C11.3178 17.5927 11.3718 17.6821 11.4422 17.7578C11.5126 17.8335 11.5978 17.8939 11.6926 17.9352C11.7874 17.9765 11.8896 17.9978 11.993 17.9978C12.0964 17.9978 12.1986 17.9765 12.2934 17.9352C12.3882 17.8939 12.4734 17.8335 12.5438 17.7578C12.6142 17.6821 12.6682 17.5927 12.7025 17.4952C12.7367 17.3977 12.7505 17.2941 12.743 17.191V11.305C12.7495 11.0989 12.6743 10.8986 12.5339 10.7477C12.3934 10.5967 12.199 10.5074 11.993 10.499ZM12 5.99903C11.7958 6.00479 11.6021 6.09128 11.4616 6.23955C11.321 6.38782 11.2449 6.58577 11.25 6.79003V8.20803C11.2447 8.30978 11.2603 8.41153 11.2956 8.5071C11.3309 8.60267 11.3853 8.69005 11.4554 8.76393C11.5256 8.83781 11.6101 8.89664 11.7037 8.93684C11.7973 8.97704 11.8981 8.99777 12 8.99777C12.1019 8.99777 12.2027 8.97704 12.2963 8.93684C12.3899 8.89664 12.4744 8.83781 12.5446 8.76393C12.6147 8.69005 12.6691 8.60267 12.7044 8.5071C12.7398 8.41153 12.7553 8.30978 12.75 8.20803V6.79003C12.7551 6.58577 12.679 6.38782 12.5385 6.23955C12.3979 6.09128 12.2042 6.00479 12 5.99903Z" fill="#F08736"/>
</g>
</g>
<defs>
<clipPath id="clip0_1_1107">
<rect width="24" height="24" fill="white"/>
</clipPath>
</defs>
</svg>
