<svg width="17" height="16" viewBox="0 0 17 16" fill="none" xmlns="http://www.w3.org/2000/svg">
<mask id="mask0_100_707" style="mask-type:luminance" maskUnits="userSpaceOnUse" x="0" y="0" width="17" height="16">
<path d="M16.5 0H0.5V16H16.5V0Z" fill="white"/>
</mask>
<g mask="url(#mask0_100_707)">
<path d="M8.49995 12C9.69895 12.0105 10.8625 11.5935 11.7819 10.8239C12.7014 10.0543 13.3166 8.98235 13.5174 7.80024C13.7182 6.61813 13.4913 5.40315 12.8775 4.37313C12.2637 3.34311 11.3031 2.5654 10.1679 2.17942C9.03266 1.79343 7.79708 1.82442 6.68264 2.26682C5.5682 2.70923 4.64778 3.53412 4.08638 4.59361C3.52498 5.6531 3.35932 6.87792 3.61909 8.04848C3.87886 9.21904 4.54708 10.2588 5.50395 10.9814C5.50395 10.9874 5.49995 10.9934 5.49995 11V14.5C5.49954 14.582 5.51927 14.6628 5.55742 14.7353C5.59556 14.8079 5.65095 14.8699 5.71872 14.916C5.78648 14.9621 5.86453 14.9908 5.94601 14.9997C6.02748 15.0085 6.10988 14.9972 6.18595 14.9667L8.49995 14.038L10.814 14.964C10.8898 14.9944 10.972 15.0058 11.0532 14.9971C11.1345 14.9884 11.2124 14.9599 11.2801 14.9141C11.3478 14.8683 11.4032 14.8066 11.4416 14.7344C11.4799 14.6622 11.4999 14.5818 11.5 14.5V12.5C11.5 12.3674 11.4473 12.2402 11.3535 12.1465C11.2597 12.0527 11.1326 12 11 12C10.8673 12 10.7402 12.0527 10.6464 12.1465C10.5526 12.2402 10.5 12.3674 10.5 12.5V13.762L8.68595 13.036C8.65565 13.0276 8.62463 13.022 8.59329 13.0194C8.56289 13.0098 8.53163 13.0034 8.49995 13C8.45825 13.0022 8.41701 13.0098 8.37729 13.0227C8.35482 13.0249 8.33255 13.0287 8.31062 13.034L6.49995 13.762V11.578C7.13026 11.8555 7.81128 11.9992 8.49995 12ZM4.49995 7.00003C4.49995 6.2089 4.73455 5.43555 5.17408 4.77775C5.6136 4.11995 6.23832 3.60726 6.96922 3.30451C7.70012 3.00176 8.50439 2.92255 9.28031 3.07689C10.0562 3.23123 10.769 3.61219 11.3284 4.1716C11.8878 4.73101 12.2688 5.44375 12.4231 6.21967C12.5774 6.99559 12.4982 7.79986 12.1955 8.53076C11.8927 9.26167 11.38 9.88638 10.7222 10.3259C10.0644 10.7654 9.29108 11 8.49995 11C7.43909 11 6.42167 10.5786 5.67153 9.82846C4.92138 9.07831 4.49995 8.0609 4.49995 7.00003ZM11.5 7.00003C11.5 6.40669 11.324 5.82667 10.9944 5.33332C10.6647 4.83997 10.1962 4.45545 9.648 4.22839C9.09983 4.00133 8.49663 3.94192 7.91468 4.05767C7.33274 4.17343 6.79819 4.45915 6.37863 4.87871C5.95908 5.29827 5.67335 5.83282 5.5576 6.41476C5.44184 6.9967 5.50125 7.5999 5.72832 8.14808C5.95538 8.69626 6.3399 9.16479 6.83324 9.49444C7.32659 9.82408 7.90661 10 8.49995 10C9.2956 10 10.0587 9.68396 10.6213 9.12135C11.1839 8.55874 11.5 7.79568 11.5 7.00003ZM6.49995 7.00003C6.49995 6.60447 6.61725 6.21779 6.83701 5.88889C7.05678 5.55999 7.36913 5.30365 7.73459 5.15227C8.10004 5.0009 8.50217 4.96129 8.89013 5.03846C9.2781 5.11563 9.63446 5.30611 9.91417 5.58582C10.1939 5.86552 10.3844 6.22189 10.4615 6.60985C10.5387 6.99781 10.4991 7.39994 10.3477 7.7654C10.1963 8.13085 9.93999 8.44321 9.61109 8.66297C9.2822 8.88273 8.89552 9.00003 8.49995 9.00003C7.96952 9.00003 7.46081 8.78932 7.08574 8.41424C6.71067 8.03917 6.49995 7.53046 6.49995 7.00003Z" fill="#226CF2"/>
</g>
</svg>
