<svg width="24" height="24" viewBox="0 0 24 24" fill="none" xmlns="http://www.w3.org/2000/svg">
<g clip-path="url(#clip0_5_16703)">
<mask id="mask0_5_16703" style="mask-type:luminance" maskUnits="userSpaceOnUse" x="0" y="0" width="24" height="24">
<path d="M24 0H0V24H24V0Z" fill="white"/>
</mask>
<g mask="url(#mask0_5_16703)">
<path d="M15.0159 10.5H8.98391C8.78798 10.501 8.59421 10.5407 8.4136 10.6167C8.23298 10.6926 8.06922 10.8033 7.93142 10.9426C7.79362 11.0819 7.68438 11.247 7.61037 11.4285C7.53636 11.6099 7.49897 11.8041 7.50002 12V18.75C7.49949 18.848 7.51819 18.9451 7.5552 19.0358C7.5922 19.1265 7.6467 19.209 7.7156 19.2787C7.7845 19.3483 7.8665 19.4038 7.95681 19.4418C8.04712 19.4797 8.144 19.4995 8.24196 19.5H15.7569C15.8549 19.4996 15.9521 19.4799 16.0425 19.442C16.1329 19.4041 16.215 19.3487 16.284 19.2791C16.353 19.2094 16.4075 19.1268 16.4446 19.036C16.4817 18.9452 16.5005 18.8481 16.5 18.75V12C16.5011 11.8041 16.4634 11.6099 16.3894 11.4285C16.3154 11.247 16.2064 11.0819 16.0686 10.9426C15.9308 10.8033 15.7671 10.6926 15.5864 10.6167C15.4058 10.5407 15.2118 10.501 15.0159 10.5Z" fill="#226CF2"/>
<path d="M6.02417 12.0098H3.11816C3.01368 12.0099 2.90954 12.0227 2.80811 12.0477C2.45169 12.0996 2.12589 12.278 1.89014 12.5503C1.65439 12.8226 1.5245 13.1706 1.52417 13.5308V18.7808C1.52417 18.9797 1.603 19.1704 1.74365 19.311C1.8843 19.4517 2.07526 19.5308 2.27417 19.5308C2.29517 19.5308 2.31496 19.5308 2.33496 19.5248H6.02417V12.0098Z" fill="#226CF2"/>
<path d="M18.0239 12.0098H20.9299C21.0341 12.0099 21.1379 12.0226 21.239 12.0477C21.5956 12.0994 21.9218 12.2776 22.1577 12.5499C22.3937 12.8222 22.5236 13.1704 22.5239 13.5308V18.7808C22.5239 18.9797 22.4451 19.1704 22.3044 19.311C22.1638 19.4517 21.9728 19.5308 21.7739 19.5308C21.7529 19.5308 21.7332 19.5308 21.7122 19.5248H18.0239V12.0098Z" fill="#226CF2"/>
<path d="M12 9C13.2426 9 14.25 7.99264 14.25 6.75C14.25 5.50736 13.2426 4.5 12 4.5C10.7574 4.5 9.75 5.50736 9.75 6.75C9.75 7.99264 10.7574 9 12 9Z" fill="#226CF2"/>
<path d="M6 10.498C7.24264 10.498 8.25 9.49069 8.25 8.24805C8.25 7.00541 7.24264 5.99805 6 5.99805C4.75736 5.99805 3.75 7.00541 3.75 8.24805C3.75 9.49069 4.75736 10.498 6 10.498Z" fill="#226CF2"/>
<path d="M18 10.5C19.2426 10.5 20.25 9.49264 20.25 8.25C20.25 7.00736 19.2426 6 18 6C16.7574 6 15.75 7.00736 15.75 8.25C15.75 9.49264 16.7574 10.5 18 10.5Z" fill="#226CF2"/>
</g>
</g>
<defs>
<clipPath id="clip0_5_16703">
<rect width="24" height="24" fill="white"/>
</clipPath>
</defs>
</svg>
