<svg width="24" height="24" viewBox="0 0 24 24" fill="none" xmlns="http://www.w3.org/2000/svg">
<g clip-path="url(#clip0_90_9920)">
<mask id="mask0_90_9920" style="mask-type:luminance" maskUnits="userSpaceOnUse" x="0" y="0" width="24" height="24">
<path d="M24 0H0V24H24V0Z" fill="white"/>
</mask>
<g mask="url(#mask0_90_9920)">
<path d="M14.0021 20.185L12.2021 18.385L9.27711 15.461L3.82111 10.001C3.29778 9.47611 3.00391 8.76516 3.00391 8.02398C3.00391 7.28279 3.29778 6.57184 3.82111 6.04698L6.30211 3.57098C6.6677 3.20611 7.16311 3.00119 7.67961 3.00119C8.19612 3.00119 8.69153 3.20611 9.05711 3.57098L12.0311 6.54498C12.0974 6.6112 12.15 6.68984 12.1859 6.77641C12.2218 6.86297 12.2403 6.95576 12.2403 7.04948C12.2403 7.14319 12.2218 7.23598 12.1859 7.32255C12.15 7.40911 12.0974 7.48776 12.0311 7.55398L10.6781 8.90698L15.0961 13.325L16.4491 11.971C16.5153 11.9047 16.594 11.8521 16.6805 11.8162C16.7671 11.7803 16.8599 11.7618 16.9536 11.7618C17.0473 11.7618 17.1401 11.7803 17.2267 11.8162C17.3133 11.8521 17.3919 11.9047 17.4581 11.971L20.4331 14.945C20.7975 15.3108 21.0021 15.8061 21.0021 16.3225C21.0021 16.8388 20.7975 17.3341 20.4331 17.7L17.9551 20.181C17.4303 20.704 16.7196 20.9977 15.9786 20.9977C15.2377 20.9977 14.5269 20.704 14.0021 20.181V20.185ZM19.4021 9.71398C19.4032 8.3539 18.8647 7.04893 17.9049 6.08534C16.945 5.12174 15.6422 4.57821 14.2821 4.57398C14.0784 4.56671 13.8854 4.48067 13.7438 4.33396C13.6023 4.18726 13.5232 3.99135 13.5232 3.78748C13.5232 3.58361 13.6023 3.38769 13.7438 3.24099C13.8854 3.09429 14.0784 3.00824 14.2821 3.00098C16.0584 3.00654 17.76 3.71641 19.0136 4.97488C20.2672 6.23336 20.9704 7.93767 20.9691 9.71398C20.9729 9.81922 20.9554 9.92415 20.9177 10.0225C20.88 10.1208 20.8229 10.2106 20.7498 10.2864C20.6767 10.3621 20.589 10.4224 20.4921 10.4636C20.3952 10.5048 20.2909 10.526 20.1856 10.526C20.0803 10.526 19.9761 10.5048 19.8791 10.4636C19.7822 10.4224 19.6946 10.3621 19.6214 10.2864C19.5483 10.2106 19.4912 10.1208 19.4535 10.0225C19.4158 9.92415 19.3984 9.81922 19.4021 9.71398ZM16.4691 9.75098C16.4511 9.15996 16.2082 8.5981 15.7901 8.17999C15.372 7.76189 14.8101 7.51904 14.2191 7.50098C14.0217 7.49616 13.8337 7.41559 13.6941 7.27597C13.5545 7.13635 13.4739 6.94837 13.4691 6.75098C13.4691 6.55206 13.5481 6.3613 13.6888 6.22065C13.8294 6.07999 14.0202 6.00098 14.2191 6.00098C14.7125 5.99752 15.2017 6.09216 15.6583 6.27939C16.1148 6.46662 16.5296 6.74271 16.8785 7.09162C17.2274 7.44053 17.5035 7.8553 17.6907 8.31183C17.8779 8.76837 17.9726 9.25756 17.9691 9.75098C17.9691 9.94989 17.8901 10.1407 17.7494 10.2813C17.6088 10.422 17.418 10.501 17.2191 10.501C17.0202 10.501 16.8294 10.422 16.6888 10.2813C16.5481 10.1407 16.4691 9.94989 16.4691 9.75098Z" fill="#226CF2"/>
</g>
</g>
<defs>
<clipPath id="clip0_90_9920">
<rect width="24" height="24" fill="white"/>
</clipPath>
</defs>
</svg>
