<svg width="24" height="24" viewBox="0 0 24 24" fill="none" xmlns="http://www.w3.org/2000/svg">
<mask id="mask0_66_1367" style="mask-type:luminance" maskUnits="userSpaceOnUse" x="0" y="0" width="24" height="24">
<path d="M24 0H0V24H24V0Z" fill="white"/>
</mask>
<g mask="url(#mask0_66_1367)">
<path d="M12.501 21.685L10.7009 19.885L7.77809 16.961L2.32008 11.501C2.05976 11.2421 1.85323 10.9341 1.71266 10.595C1.57208 10.2558 1.50015 9.89212 1.50099 9.52498C1.49994 9.1575 1.57183 8.79347 1.71241 8.45395C1.85299 8.11442 2.05957 7.80615 2.32008 7.54698L4.79811 5.07098C5.16352 4.70617 5.65872 4.50128 6.17506 4.50128C6.6914 4.50128 7.1866 4.70617 7.55201 5.07098L10.531 8.04598C10.6639 8.17858 10.739 8.35828 10.74 8.54598C10.7391 8.7337 10.664 8.91344 10.531 9.04598L9.17799 10.4L13.595 14.817L14.948 13.464C15.0822 13.3305 15.2636 13.2553 15.4529 13.255C15.6406 13.256 15.8203 13.3311 15.9529 13.464L18.928 16.438C19.2926 16.8037 19.4973 17.299 19.4973 17.8155C19.4973 18.3319 19.2926 18.8273 18.928 19.193L16.4509 21.674C16.1913 21.9338 15.8829 22.1398 15.5435 22.2802C15.204 22.4206 14.8402 22.4925 14.4729 22.492C13.7347 22.4944 13.0257 22.2042 12.501 21.685ZM12.001 6.74998C12.001 5.3582 12.5537 4.0234 13.5376 3.03908C14.5216 2.05476 15.8563 1.50151 17.2481 1.50098C18.6403 1.50098 19.9754 2.05396 20.96 3.03831C21.9445 4.02266 22.4978 5.35776 22.4981 6.74998C22.4981 8.14236 21.9448 9.47772 20.9602 10.4623C19.9757 11.4469 18.6404 12 17.2481 12C15.8562 11.9992 14.5215 11.4457 13.5376 10.4612C12.5537 9.47675 12.001 8.14184 12.001 6.74998ZM13.501 6.74998C13.5023 7.74413 13.8979 8.69719 14.6008 9.40017C15.3038 10.1031 16.2568 10.4987 17.251 10.5C18.2453 10.4992 19.1988 10.1038 19.9019 9.40075C20.605 8.69766 21.0002 7.7443 21.001 6.74998C20.9999 5.75583 20.6044 4.80272 19.9014 4.09985C19.1983 3.39698 18.2451 3.00177 17.251 3.00098C16.257 3.0023 15.304 3.39767 14.6011 4.10043C13.8981 4.80319 13.5026 5.75599 13.501 6.74998ZM16.501 8.62498V7.12498C16.5009 7.02649 16.5201 6.92893 16.5576 6.83789C16.5952 6.74684 16.6504 6.66409 16.72 6.59435C16.7895 6.52462 16.8722 6.46926 16.9631 6.43145C17.0541 6.39364 17.1515 6.37411 17.25 6.37398C17.4493 6.37398 17.6403 6.45307 17.7813 6.59388C17.9223 6.73469 18.0017 6.92571 18.002 7.12498V8.62498C18.0014 8.82398 17.922 9.01464 17.781 9.15508C17.64 9.29551 17.449 9.37424 17.25 9.37398C17.0514 9.37398 16.8609 9.29506 16.7205 9.1546C16.58 9.01414 16.501 8.82362 16.501 8.62498ZM16.501 4.87498C16.501 4.67633 16.58 4.48582 16.7205 4.34535C16.8609 4.20489 17.0514 4.12598 17.25 4.12598C17.449 4.12571 17.64 4.20444 17.781 4.34488C17.922 4.48532 18.0014 4.67597 18.002 4.87498C18.0017 5.07425 17.9223 5.26526 17.7813 5.40607C17.6403 5.54689 17.4493 5.62598 17.25 5.62598C17.1515 5.62585 17.0541 5.60632 16.9631 5.5685C16.8722 5.53069 16.7895 5.47534 16.72 5.4056C16.6504 5.33586 16.5952 5.25311 16.5576 5.16207C16.5201 5.07102 16.5009 4.97347 16.501 4.87498Z" fill="#226CF2"/>
</g>
</svg>
