<svg width="41" height="40" viewBox="0 0 41 40" fill="none" xmlns="http://www.w3.org/2000/svg">
<circle cx="20.5" cy="20" r="20" fill="#E0E0E6"/>
<path d="M19.875 38.75C30.9207 38.75 39.25 31.0457 39.25 20C39.25 8.9543 30.9207 1.25 19.875 1.25" stroke="#6FC0F7" stroke-width="2" stroke-linecap="round" stroke-linejoin="round"/>
<circle cx="20.5" cy="20" r="17.5" fill="white"/>
<g clip-path="url(#clip0_1_1506)">
<path fill-rule="evenodd" clip-rule="evenodd" d="M20.4999 10.3448C18.5903 10.3448 16.7236 10.9111 15.1358 11.972C13.548 13.033 12.3105 14.5409 11.5797 16.3051C10.8489 18.0694 10.6577 20.0107 11.0303 21.8837C11.4028 23.7566 12.3224 25.477 13.6727 26.8273C15.023 28.1776 16.7434 29.0971 18.6163 29.4697C20.4892 29.8422 22.4305 29.651 24.1948 28.9202C25.959 28.1895 27.467 26.9519 28.5279 25.3641C29.5888 23.7764 30.1551 21.9096 30.1551 20C30.1551 17.4393 29.1378 14.9835 27.3271 13.1728C25.5164 11.3621 23.0606 10.3448 20.4999 10.3448ZM20.4999 11.3269C22.2153 11.3269 23.8921 11.8356 25.3184 12.7886C26.7447 13.7416 27.8564 15.0962 28.5128 16.681C29.1693 18.2658 29.341 20.0096 29.0064 21.6921C28.6717 23.3745 27.8457 24.9199 26.6327 26.1328C25.4198 27.3458 23.8744 28.1718 22.1919 28.5065C20.5095 28.8411 18.7657 28.6694 17.1809 28.0129C15.596 27.3565 14.2415 26.2448 13.2885 24.8185C12.3355 23.3923 11.8268 21.7154 11.8268 20C11.8279 17.7001 12.742 15.4947 14.3683 13.8684C15.9946 12.2421 18.2 11.328 20.4999 11.3269Z" fill="#6FC0F7" stroke="#6FC0F7" stroke-width="0.416667"/>
<path fill-rule="evenodd" clip-rule="evenodd" d="M24.439 23.0924H16.577C16.4467 23.0924 16.3218 23.1441 16.2298 23.2362C16.1377 23.3283 16.0859 23.4532 16.0859 23.5834C16.0859 23.7137 16.1377 23.8386 16.2298 23.9307C16.3218 24.0227 16.4467 24.0745 16.577 24.0745H24.439C24.5693 24.0745 24.6942 24.0227 24.7863 23.9307C24.8783 23.8386 24.9301 23.7137 24.9301 23.5834C24.9301 23.4532 24.8783 23.3283 24.7863 23.2362C24.6942 23.1441 24.5693 23.0924 24.439 23.0924Z" fill="#6FC0F7" stroke="#6FC0F7" stroke-width="0.416667"/>
<path d="M19.0913 17.727C19.091 18.0076 19.0076 18.2819 18.8514 18.5151C18.6953 18.7483 18.4736 18.93 18.2142 19.0373C17.9548 19.1445 17.6695 19.1724 17.3943 19.1175C17.119 19.0625 16.8663 18.9273 16.6679 18.7287C16.4695 18.5302 16.3345 18.2773 16.2799 18.002C16.2252 17.7267 16.2534 17.4414 16.3609 17.1821C16.4683 16.9229 16.6502 16.7013 16.8836 16.5454C17.117 16.3895 17.3913 16.3063 17.672 16.3063C17.8585 16.3063 18.0432 16.343 18.2155 16.4144C18.3877 16.4859 18.5443 16.5905 18.6761 16.7225C18.8079 16.8544 18.9124 17.011 18.9837 17.1834C19.0549 17.3558 19.0915 17.5405 19.0913 17.727Z" fill="#6FC0F7" stroke="#6FC0F7" stroke-width="0.416667"/>
<path d="M24.77 17.7269C24.77 18.0076 24.6868 18.282 24.5308 18.5155C24.3749 18.7489 24.1532 18.9308 23.8939 19.0382C23.6345 19.1456 23.3491 19.1737 23.0738 19.119C22.7985 19.0642 22.5456 18.929 22.3471 18.7305C22.1486 18.532 22.0134 18.2791 21.9587 18.0038C21.9039 17.7285 21.932 17.4431 22.0394 17.1838C22.1469 16.9244 22.3288 16.7028 22.5622 16.5468C22.7956 16.3909 23.07 16.3076 23.3507 16.3076C23.7271 16.3076 24.0881 16.4572 24.3543 16.7233C24.6205 16.9895 24.77 17.3505 24.77 17.7269Z" fill="#6FC0F7" stroke="#6FC0F7" stroke-width="0.416667"/>
</g>
<defs>
<clipPath id="clip0_1_1506">
<rect width="20" height="20" fill="white" transform="translate(10.5 10)"/>
</clipPath>
</defs>
</svg>
