<svg width="18" height="18" viewBox="0 0 18 18" fill="none" xmlns="http://www.w3.org/2000/svg">
<path d="M8.96253 18.0015C8.31903 18.0015 6.84303 17.3025 5.45178 16.3388C3.83418 15.2605 2.46896 13.8452 1.44978 12.1898C1.03177 11.3976 0.724168 10.552 0.535529 9.6765C0.334363 8.79364 0.193786 7.89805 0.114779 6.996C0.0164403 5.94431 -0.0186228 4.88765 0.00977911 3.83175C0.0232284 3.55322 0.111019 3.28338 0.264029 3.05025C0.408175 2.81687 0.626244 2.6384 0.883529 2.54325L8.55303 0.0330044C8.68607 0.0066488 8.82176 -0.00392422 8.95728 0.00150441C9.09286 -0.00343069 9.22855 0.00764585 9.36153 0.0345044L17.0325 2.54325C17.2828 2.6431 17.4919 2.8247 17.6258 3.0585C17.7737 3.29263 17.8674 3.5568 17.9003 3.83175V3.8535C17.991 4.73175 18.36 9.26325 16.677 12.1898C16.1834 13.0151 15.5776 13.7681 14.877 14.427C14.1666 15.1065 13.4004 15.7252 12.5865 16.2765C10.9253 17.409 9.50628 18.0015 8.96253 18.0015ZM4.00353 7.36425C3.85922 7.36537 3.71663 7.39571 3.58437 7.45346C3.45212 7.51121 3.33294 7.59516 3.23403 7.70025C3.03373 7.93714 2.92421 8.23754 2.92503 8.54775C2.92426 8.83797 3.03486 9.11742 3.23403 9.3285L6.88203 13.1685C6.97985 13.2733 7.09817 13.3568 7.22964 13.414C7.36112 13.4711 7.50293 13.5006 7.64628 13.5006C7.78963 13.5006 7.93144 13.4711 8.06292 13.414C8.19439 13.3568 8.31271 13.2733 8.41053 13.1685L14.808 6.40875C14.9898 6.18375 15.0847 5.90089 15.0753 5.61177C15.066 5.32265 14.953 5.04652 14.757 4.83375C14.6592 4.72767 14.5404 4.64301 14.4083 4.5851C14.2761 4.52719 14.1333 4.4973 13.989 4.4973C13.8447 4.4973 13.702 4.52719 13.5698 4.5851C13.4376 4.64301 13.3189 4.72767 13.221 4.83375L7.64553 10.7385L4.76928 7.70025C4.67097 7.59541 4.55243 7.51158 4.42081 7.45383C4.2892 7.39608 4.14725 7.36561 4.00353 7.36425Z" fill="#226CF2"/>
</svg>
