<svg width="20" height="20" viewBox="0 0 20 20" fill="none" xmlns="http://www.w3.org/2000/svg">
<g clip-path="url(#clip0_1_1110)">
<path d="M4.29688 7.09558H16.347L10.339 16.8316L4.29688 7.09558Z" fill="#DBDBDB"/>
<path d="M20 10C20 4.47715 15.5228 0 10 0C4.47715 0 0 4.47715 0 10C0 15.5228 4.47715 20 10 20C15.5228 20 20 15.5228 20 10Z" fill="#E0E0E6"/>
<mask id="mask0_1_1110" style="mask-type:luminance" maskUnits="userSpaceOnUse" x="3" y="6" width="14" height="11">
<path d="M3.97192 6.42676L9.99386 16.1122L16.0168 6.42676H3.97192Z" fill="white"/>
</mask>
<g mask="url(#mask0_1_1110)">
<path d="M3.97192 6.42676L9.99386 16.1122L16.0168 6.42676H3.97192Z" fill="url(#paint0_linear_1_1110)"/>
<path d="M9.99415 2.2467L7.75415 3.6538L11.9393 15.5783L16.9538 14.918C16.9538 14.918 17.798 8.27574 16.5777 6.05316C15.3574 3.83058 9.99415 2.2467 9.99415 2.2467Z" fill="url(#paint1_linear_1_1110)"/>
<path d="M9.43384 9.81084L3.43384 5.88342L3.809 13.4273C3.809 13.4273 7.18319 16.4015 8.7919 16.9112C10.4006 17.4208 13.2064 16.395 13.2064 16.395L9.43384 9.81084Z" fill="url(#paint2_linear_1_1110)"/>
</g>
<path d="M5.26807 7.151L9.99387 14.8229L14.7197 7.151H5.26807Z" fill="url(#paint3_linear_1_1110)"/>
<g filter="url(#filter0_d_1_1110)">
<path d="M5.2688 7.15173L9.99461 14.8237L14.7204 7.15173H5.2688Z" fill="white"/>
</g>
<path d="M13.6814 8.86252L12.9395 8.22026H7.01817L10.8288 13.4932L13.6814 8.86252Z" fill="#4D3743"/>
<g filter="url(#filter1_d_1_1110)">
<path d="M10.0119 14.8509L5.26733 7.14966L10.0119 7.16288" fill="white"/>
<path d="M10.0119 14.8509L5.26733 7.14966L10.0119 7.16288" fill="url(#paint4_linear_1_1110)"/>
</g>
<path d="M10.0131 14.8522L5.26855 7.15088L10.0131 7.1641" stroke="#4D3743" stroke-width="0.7" stroke-miterlimit="10"/>
<g filter="url(#filter2_d_1_1110)">
<path d="M9.97803 14.8509L14.7225 7.14966L9.97803 7.16256" fill="white"/>
<path d="M9.97803 14.8509L14.7225 7.14966L9.97803 7.16256" fill="url(#paint5_linear_1_1110)"/>
</g>
<path d="M9.97876 14.8522L14.7233 7.15088L9.97876 7.16378" fill="white"/>
<path d="M9.97876 14.8522L14.7233 7.15088L9.97876 7.16378" fill="url(#paint6_linear_1_1110)"/>
<path d="M9.97876 14.8522L14.7233 7.15088L9.97876 7.16378" stroke="white" stroke-width="0.1" stroke-miterlimit="10"/>
<path d="M9.97876 14.8522L14.7233 7.15088L9.97876 7.16378" fill="white"/>
<path d="M9.97876 14.8522L14.7233 7.15088L9.97876 7.16378" fill="url(#paint7_linear_1_1110)"/>
<path d="M9.97876 14.8522L14.7233 7.15088L9.97876 7.16378" stroke="white" stroke-width="0.1" stroke-miterlimit="10"/>
<path d="M9.99341 9.72256V12.3316L10.8063 13.3871L13.7095 8.70965L12.9518 8.22546L9.99341 9.72256Z" fill="#37202C"/>
<path d="M9.97876 14.8522L14.7233 7.15088L9.97876 7.16378" stroke="white" stroke-width="0.1" stroke-miterlimit="10"/>
<path d="M7.03613 8.22546L9.99355 9.87579L12.9519 8.22546H7.03613Z" fill="url(#paint8_linear_1_1110)"/>
<path d="M7.03613 8.2262L7.22807 8.38749H12.7513L12.9519 8.2262H7.03613Z" fill="#D09DC5"/>
<path d="M9.99365 9.72256V12.3316L12.952 8.22546L9.99365 9.72256Z" fill="url(#paint9_linear_1_1110)"/>
<path d="M7.03613 8.22546L9.99355 12.3316V9.71192L7.03613 8.22546Z" fill="url(#paint10_linear_1_1110)"/>
<path d="M13.3842 5.18774L13.731 6.28452L14.8439 6.64742L13.731 6.97258L13.3842 8.1071L13.1107 6.97258L11.9246 6.64742L13.1107 6.28452L13.3842 5.18774Z" fill="white"/>
<path d="M8.70509 11.9961L8.96025 12.7996L9.77573 13.0664L8.96025 13.3048L8.70509 14.1371L8.50573 13.3051L7.63477 13.0664L8.50573 12.7996L8.70509 11.9961Z" fill="white"/>
</g>
<defs>
<filter id="filter0_d_1_1110" x="5.2688" y="7.15173" width="9.45166" height="8.67188" filterUnits="userSpaceOnUse" color-interpolation-filters="sRGB">
<feFlood flood-opacity="0" result="BackgroundImageFix"/>
<feColorMatrix in="SourceAlpha" type="matrix" values="0 0 0 0 0 0 0 0 0 0 0 0 0 0 0 0 0 0 127 0" result="hardAlpha"/>
<feOffset dy="1"/>
<feColorMatrix type="matrix" values="0 0 0 0 0 0 0 0 0 0 0 0 0 0 0 0 0 0 0.078 0"/>
<feBlend mode="normal" in2="BackgroundImageFix" result="effect1_dropShadow_1_1110"/>
<feBlend mode="normal" in="SourceGraphic" in2="effect1_dropShadow_1_1110" result="shape"/>
</filter>
<filter id="filter1_d_1_1110" x="5.26733" y="7.14966" width="4.74463" height="8.70129" filterUnits="userSpaceOnUse" color-interpolation-filters="sRGB">
<feFlood flood-opacity="0" result="BackgroundImageFix"/>
<feColorMatrix in="SourceAlpha" type="matrix" values="0 0 0 0 0 0 0 0 0 0 0 0 0 0 0 0 0 0 127 0" result="hardAlpha"/>
<feOffset dy="1"/>
<feColorMatrix type="matrix" values="0 0 0 0 0 0 0 0 0 0 0 0 0 0 0 0 0 0 0.078 0"/>
<feBlend mode="normal" in2="BackgroundImageFix" result="effect1_dropShadow_1_1110"/>
<feBlend mode="normal" in="SourceGraphic" in2="effect1_dropShadow_1_1110" result="shape"/>
</filter>
<filter id="filter2_d_1_1110" x="9.97803" y="7.14966" width="4.74463" height="8.70129" filterUnits="userSpaceOnUse" color-interpolation-filters="sRGB">
<feFlood flood-opacity="0" result="BackgroundImageFix"/>
<feColorMatrix in="SourceAlpha" type="matrix" values="0 0 0 0 0 0 0 0 0 0 0 0 0 0 0 0 0 0 127 0" result="hardAlpha"/>
<feOffset dy="1"/>
<feColorMatrix type="matrix" values="0 0 0 0 0 0 0 0 0 0 0 0 0 0 0 0 0 0 0.078 0"/>
<feBlend mode="normal" in2="BackgroundImageFix" result="effect1_dropShadow_1_1110"/>
<feBlend mode="normal" in="SourceGraphic" in2="effect1_dropShadow_1_1110" result="shape"/>
</filter>
<linearGradient id="paint0_linear_1_1110" x1="8.09126" y1="7.44373" x2="7.10996" y2="15.5077" gradientUnits="userSpaceOnUse">
<stop stop-color="white"/>
<stop offset="0.72" stop-color="#D87FB0"/>
<stop offset="1" stop-color="#B5839F"/>
</linearGradient>
<linearGradient id="paint1_linear_1_1110" x1="12.4962" y1="2.2467" x2="12.4962" y2="15.5783" gradientUnits="userSpaceOnUse">
<stop stop-color="#FFEDF7"/>
<stop offset="1" stop-color="#B17294"/>
</linearGradient>
<linearGradient id="paint2_linear_1_1110" x1="8.32013" y1="5.88342" x2="8.32013" y2="17.0532" gradientUnits="userSpaceOnUse">
<stop stop-color="#E2B5CD"/>
<stop offset="1" stop-color="#723657"/>
</linearGradient>
<linearGradient id="paint3_linear_1_1110" x1="9.99387" y1="7.19703" x2="9.87554" y2="15.2995" gradientUnits="userSpaceOnUse">
<stop stop-color="#6C4058"/>
<stop offset="1" stop-color="#D58EB4"/>
</linearGradient>
<linearGradient id="paint4_linear_1_1110" x1="9.19347" y1="16.129" x2="9.19347" y2="4.6774" gradientUnits="userSpaceOnUse">
<stop offset="0.580148" stop-color="#7D4865"/>
<stop offset="1"/>
</linearGradient>
<linearGradient id="paint5_linear_1_1110" x1="12.3503" y1="7.14966" x2="12.3503" y2="14.8509" gradientUnits="userSpaceOnUse">
<stop stop-color="#884F6E"/>
<stop offset="1"/>
</linearGradient>
<linearGradient id="paint6_linear_1_1110" x1="10.8065" y1="15.3228" x2="11.2904" y2="6.12926" gradientUnits="userSpaceOnUse">
<stop stop-color="#884F6E"/>
<stop offset="0.75925" stop-color="#693D55"/>
<stop offset="1"/>
</linearGradient>
<linearGradient id="paint7_linear_1_1110" x1="10.8065" y1="15.3228" x2="11.2904" y2="6.12926" gradientUnits="userSpaceOnUse">
<stop stop-color="#884F6E"/>
<stop offset="0.75925" stop-color="#693D55"/>
<stop offset="1"/>
</linearGradient>
<linearGradient id="paint8_linear_1_1110" x1="9.66867" y1="9.59523" x2="9.7542" y2="7.55675" gradientUnits="userSpaceOnUse">
<stop stop-color="#F5E4ED"/>
<stop offset="1" stop-color="#E3C0D3"/>
</linearGradient>
<linearGradient id="paint9_linear_1_1110" x1="11.819" y1="11.0258" x2="10.5236" y2="9.45049" gradientUnits="userSpaceOnUse">
<stop stop-color="#723356"/>
<stop offset="1" stop-color="#D3A1BC"/>
</linearGradient>
<linearGradient id="paint10_linear_1_1110" x1="7.03613" y1="12.3316" x2="10.4448" y2="10.8193" gradientUnits="userSpaceOnUse">
<stop stop-color="#7C4061"/>
<stop offset="1" stop-color="#F5C8E0"/>
</linearGradient>
<clipPath id="clip0_1_1110">
<rect width="20" height="20" fill="white"/>
</clipPath>
</defs>
</svg>
