<svg width="41" height="40" viewBox="0 0 41 40" fill="none" xmlns="http://www.w3.org/2000/svg">
<circle cx="20.5" cy="20" r="20" fill="#E0E0E6"/>
<path d="M19.875 38.75C30.9207 38.75 39.25 31.0457 39.25 20C39.25 8.9543 30.9207 1.25 19.875 1.25" stroke="#F08633" stroke-width="2" stroke-linecap="round" stroke-linejoin="round"/>
<circle cx="20.5" cy="20" r="17.5" fill="white"/>
<g clip-path="url(#clip0_1_1461)">
<path d="M8.14989 24.4287C7.44231 22.4473 7.22104 20.325 7.5047 18.2403C7.78836 16.1556 8.56864 14.1695 9.77989 12.4492C10.9911 10.729 12.5979 9.32481 14.465 8.35497C16.332 7.38513 18.4047 6.87798 20.5086 6.8762C22.3245 6.76973 24.1397 7.09744 25.8037 7.83217C27.4677 8.56691 28.9327 9.68752 30.0774 11.1012C30.2283 11.2935 30.2979 11.5372 30.2713 11.7802C30.2447 12.0231 30.124 12.246 29.9351 12.4011C29.7462 12.5562 29.5041 12.6312 29.2606 12.6099C29.0171 12.5887 28.7916 12.4729 28.6324 12.2874C25.1511 8.0412 19.7286 7.5087 14.9536 10.2149C13.2318 11.1906 11.7978 12.6033 10.7964 14.3103C9.79498 16.0173 9.2616 17.9583 9.25009 19.9373C9.23857 21.9164 9.74933 23.8634 10.7308 25.582C11.7123 27.3005 13.1297 28.7297 14.8401 29.7254C16.5505 30.7211 18.4933 31.2479 20.4723 31.2527C22.4514 31.2576 24.3967 30.7403 26.112 29.753C27.8272 28.7658 29.2516 27.3435 30.2415 25.6298C31.2314 23.916 31.7517 21.9715 31.7499 19.9924C31.7362 18.5938 31.4553 17.2107 30.9224 15.9174C30.8382 15.6902 30.8455 15.4391 30.9428 15.2172C31.04 14.9952 31.2197 14.8197 31.4439 14.7276C31.6681 14.6355 31.9192 14.6341 32.1445 14.7236C32.3697 14.8131 32.5513 14.9866 32.6511 15.2074C33.2765 16.7205 33.607 18.3391 33.6249 19.9762C33.6338 23.0711 32.5465 26.0691 30.5559 28.4389C28.5653 30.8087 25.7999 32.397 22.7499 32.9224C21.9987 33.0536 21.2375 33.1197 20.4749 33.1199C17.7751 33.1186 15.1418 32.2828 12.9355 30.7269C10.7291 29.1711 9.05762 26.9713 8.14989 24.4287ZM23.7086 26.0712C23.6554 25.4842 23.4693 24.917 23.1644 24.4126C22.8594 23.9082 22.4437 23.4798 21.9486 23.1599C21.4246 22.8336 20.8456 22.6053 20.2399 22.4862C19.6666 23.4841 18.8502 24.3208 17.8668 24.9185C16.8833 25.5162 15.7647 25.8556 14.6149 25.9049C14.6149 25.9049 13.8036 25.7062 13.7536 25.1824C13.7403 25.0684 13.7511 24.9529 13.7853 24.8433C13.8195 24.7337 13.8763 24.6325 13.952 24.5462C14.0278 24.46 14.1208 24.3906 14.2251 24.3426C14.3294 24.2945 14.4426 24.2689 14.5574 24.2674C15.4473 24.2253 16.311 23.9524 17.0636 23.4755C17.8162 22.9986 18.4318 22.3342 18.8499 21.5474C19.4155 20.5851 19.8129 19.5334 20.0249 18.4374C19.4047 18.1441 18.7296 17.9848 18.0436 17.9699C17.5902 18.0033 17.1496 18.1361 16.7532 18.3588C16.3568 18.5815 16.0143 18.8888 15.7499 19.2587C15.6011 19.4198 15.3954 19.5167 15.1765 19.5289C14.9575 19.5412 14.7423 19.4678 14.5765 19.3243C14.4106 19.1809 14.307 18.9785 14.2876 18.7601C14.2682 18.5416 14.3344 18.3242 14.4724 18.1537C14.8897 17.6048 15.421 17.153 16.0298 16.8293C16.6385 16.5056 17.3103 16.3177 17.9986 16.2787C19.1325 16.3079 20.2445 16.5974 21.2486 17.1249C21.5049 17.2424 21.7486 17.3587 21.9861 17.4712C22.6161 17.7965 23.2726 18.0675 23.9486 18.2812C24.2935 18.4051 24.6613 18.4521 25.0262 18.4188C25.3911 18.3856 25.7444 18.2729 26.0611 18.0887C26.1561 18.0273 26.2624 17.9856 26.3737 17.9661C26.4851 17.9466 26.5992 17.9496 26.7094 17.9749C26.8195 18.0003 26.9235 18.0475 27.0151 18.1138C27.1067 18.18 27.1841 18.264 27.2426 18.3607C27.3012 18.4574 27.3397 18.5649 27.356 18.6767C27.3723 18.7886 27.3659 18.9026 27.3374 19.012C27.3088 19.1214 27.2586 19.2239 27.1896 19.3135C27.1207 19.4031 27.0345 19.478 26.9361 19.5337C26.4227 19.838 25.8501 20.0288 25.2567 20.0935C24.6634 20.1582 24.0631 20.0952 23.4961 19.9087C22.8482 19.7111 22.2177 19.4602 21.6111 19.1587C21.4665 19.767 21.2743 20.363 21.0361 20.9412C21.6143 21.1071 22.1658 21.3551 22.6736 21.6774C23.3824 22.14 23.9786 22.7554 24.4183 23.4785C24.8581 24.2016 25.1303 25.0141 25.2149 25.8562C25.2571 26.0654 25.2152 26.2829 25.0982 26.4614C24.9812 26.6399 24.7986 26.7652 24.5899 26.8099C24.5591 26.8116 24.5282 26.8116 24.4974 26.8099C24.2993 26.8015 24.1108 26.7224 23.966 26.5868C23.8213 26.4513 23.73 26.2683 23.7086 26.0712ZM20.0711 14.0537C20.0711 13.5931 20.2077 13.1429 20.4636 12.7599C20.7195 12.377 21.0832 12.0785 21.5087 11.9022C21.9342 11.726 22.4025 11.6798 22.8542 11.7697C23.3059 11.8595 23.7209 12.0813 24.0466 12.407C24.3722 12.7327 24.594 13.1476 24.6839 13.5994C24.7738 14.0511 24.7276 14.5193 24.5514 14.9449C24.3751 15.3704 24.0766 15.7341 23.6937 15.99C23.3107 16.2459 22.8605 16.3824 22.3999 16.3824C21.7827 16.3818 21.1909 16.1364 20.7544 15.7001C20.3178 15.2638 20.0721 14.6709 20.0711 14.0537ZM21.6236 14.0537C21.6236 14.2072 21.6692 14.3573 21.7545 14.485C21.8398 14.6126 21.961 14.7121 22.1028 14.7709C22.2447 14.8296 22.4008 14.845 22.5513 14.815C22.7019 14.7851 22.8402 14.7111 22.9488 14.6026C23.0573 14.494 23.1313 14.3557 23.1612 14.2051C23.1912 14.0546 23.1758 13.8985 23.1171 13.7566C23.0583 13.6148 22.9588 13.4936 22.8312 13.4083C22.7035 13.323 22.5534 13.2774 22.3999 13.2774C22.298 13.2776 22.197 13.2979 22.1029 13.337C22.0088 13.3762 21.9233 13.4335 21.8514 13.5057C21.7794 13.5779 21.7224 13.6636 21.6835 13.7578C21.6446 13.852 21.6247 13.953 21.6249 14.0549L21.6236 14.0537Z" fill="#F08633"/>
</g>
<defs>
<clipPath id="clip0_1_1461">
<rect width="30" height="30" fill="white" transform="translate(5.5 5)"/>
</clipPath>
</defs>
</svg>
