<svg width="40" height="40" viewBox="0 0 40 40" fill="none" xmlns="http://www.w3.org/2000/svg">
<circle cx="20" cy="20" r="20" fill="#E0E0E6"/>
<path d="M19.375 38.75C30.4207 38.75 38.75 31.0457 38.75 20C38.75 8.9543 30.4207 1.25 19.375 1.25" stroke="#F08633" stroke-width="2" stroke-linecap="round" stroke-linejoin="round"/>
<circle cx="20" cy="20" r="17.5" fill="white"/>
<g clip-path="url(#clip0_1_1471)">
<mask id="mask0_1_1471" style="mask-type:luminance" maskUnits="userSpaceOnUse" x="5" y="5" width="30" height="30">
<path d="M35 5H5V35H35V5Z" fill="white"/>
</mask>
<g mask="url(#mask0_1_1471)">
<path d="M22.4976 10.95C21.1139 10.5764 19.663 10.525 18.2563 10.7997C16.8496 11.0745 15.5247 11.6681 14.3833 12.535C13.2419 13.4019 12.3145 14.5189 11.6723 15.8002C11.0301 17.0816 10.6903 18.4931 10.6789 19.9263L8.67885 17.9513C8.47922 17.7537 8.20971 17.6429 7.92885 17.6429C7.648 17.6429 7.37848 17.7537 7.17885 17.9513C6.98276 18.1467 6.87203 18.4119 6.87086 18.6887C6.86969 18.9656 6.97817 19.2317 7.1726 19.4288L7.18385 19.4375L11.0589 23.2788C11.2583 23.4766 11.5279 23.5877 11.8089 23.5877C12.0898 23.5877 12.3594 23.4766 12.5589 23.2788L16.4226 19.4475C16.6198 19.2523 16.7315 18.9868 16.7331 18.7093C16.7347 18.4319 16.6262 18.1651 16.4314 17.9675L16.4226 17.9588C16.2228 17.7615 15.9534 17.6509 15.6726 17.6509C15.3918 17.6509 15.1224 17.7615 14.9226 17.9588L12.5226 20.3463C12.4478 18.7538 12.8784 17.1784 13.7531 15.8454C14.6277 14.5125 15.9014 13.4903 17.3921 12.925C18.8828 12.3597 20.5141 12.2803 22.0526 12.6982C23.5912 13.1161 24.9582 14.0098 25.9581 15.2515C26.958 16.4932 27.5396 18.0194 27.6197 19.6116C27.6998 21.2039 27.2744 22.7807 26.4042 24.1165C25.534 25.4524 24.2636 26.4788 22.7748 27.049C21.286 27.6193 19.655 27.7041 18.1151 27.2913C17.9973 27.2556 17.8735 27.244 17.7511 27.2571C17.6287 27.2702 17.5101 27.3077 17.4025 27.3675C17.2949 27.4273 17.2004 27.5081 17.1247 27.6052C17.0489 27.7022 16.9934 27.8135 16.9615 27.9324C16.9296 28.0513 16.9219 28.1754 16.9388 28.2973C16.9558 28.4192 16.9971 28.5365 17.0603 28.6421C17.1235 28.7478 17.2073 28.8397 17.3066 28.9123C17.406 28.985 17.519 29.0369 17.6389 29.065C20.0407 29.709 22.6 29.3725 24.7538 28.1295C26.9075 26.8865 28.4792 24.8388 29.1232 22.4369C29.7672 20.035 29.4307 17.4757 28.1877 15.322C26.9446 13.1683 24.897 11.5965 22.4951 10.9525L22.4976 10.95ZM22.8839 23.7488C22.6351 23.7488 22.3965 23.6504 22.2201 23.475L19.4076 20.6625C19.2325 20.486 19.1341 20.2475 19.1339 19.9988V14.3738C19.1339 14.1251 19.2326 13.8867 19.4084 13.7109C19.5843 13.5351 19.8227 13.4363 20.0714 13.4363C20.32 13.4363 20.5585 13.5351 20.7343 13.7109C20.9101 13.8867 21.0089 14.1251 21.0089 14.3738V19.6113L23.5476 22.1475C23.6791 22.2787 23.7686 22.4459 23.8049 22.6279C23.8412 22.81 23.8227 22.9988 23.7516 23.1703C23.6805 23.3418 23.5601 23.4883 23.4056 23.5913C23.2511 23.6943 23.0695 23.7491 22.8839 23.7488Z" fill="#F08633"/>
</g>
</g>
<defs>
<clipPath id="clip0_1_1471">
<rect width="30" height="30" fill="white" transform="translate(5 5)"/>
</clipPath>
</defs>
</svg>
