<svg width="279" height="32" viewBox="0 0 279 32" fill="none" xmlns="http://www.w3.org/2000/svg">
<circle cx="16" cy="16" r="16" fill="#F08736"/>
<circle cx="16" cy="16" r="14" fill="white"/>
<g clip-path="url(#clip0_1_1394)">
<mask id="mask0_1_1394" style="mask-type:luminance" maskUnits="userSpaceOnUse" x="8" y="8" width="16" height="16">
<path d="M24 8H8V24H24V8Z" fill="white"/>
</mask>
<g mask="url(#mask0_1_1394)">
<path d="M16 23C14.6155 23 13.2622 22.5895 12.111 21.8203C10.9599 21.0511 10.0627 19.9579 9.53285 18.6788C9.00303 17.3997 8.86441 15.9922 9.13451 14.6344C9.4046 13.2765 10.0713 12.0292 11.0503 11.0503C12.0292 10.0713 13.2765 9.4046 14.6344 9.13451C15.9922 8.86441 17.3997 9.00303 18.6788 9.53285C19.9579 10.0627 21.0511 10.9599 21.8203 12.111C22.5895 13.2622 23 14.6155 23 16C22.9979 17.8559 22.2597 19.6351 20.9474 20.9474C19.6351 22.2597 17.8559 22.9979 16 23ZM13.1 15.9733C13.0012 15.9734 12.9046 16.0028 12.8224 16.0577C12.7403 16.1127 12.6763 16.1907 12.6385 16.2821C12.6007 16.3734 12.5908 16.4738 12.61 16.5708C12.6293 16.6677 12.6768 16.7567 12.7467 16.8267L14.7333 18.8167C14.7442 18.8301 14.7558 18.843 14.768 18.8553C14.8138 18.9017 14.8685 18.9383 14.9287 18.9632C14.9889 18.988 15.0535 19.0006 15.1187 19H15.1267C15.1923 19.0001 15.2574 18.9872 15.318 18.9621C15.3787 18.9369 15.4337 18.8999 15.48 18.8533C15.5022 18.831 15.5223 18.8067 15.54 18.7807L19.4553 14.844C19.5474 14.7509 19.599 14.6253 19.599 14.4943C19.599 14.3634 19.5474 14.2378 19.4553 14.1447C19.4098 14.0987 19.3556 14.0622 19.2958 14.0373C19.2361 14.0124 19.172 13.9996 19.1073 13.9996C19.0426 13.9996 18.9786 14.0124 18.9188 14.0373C18.8591 14.0622 18.8049 14.0987 18.7593 14.1447L15.1293 17.7953L13.4533 16.1193C13.407 16.0729 13.3519 16.036 13.2913 16.011C13.2306 15.9859 13.1656 15.9731 13.1 15.9733Z" fill="#F08633"/>
</g>
</g>
<circle cx="57.1667" cy="16" r="16" fill="#E0E0E6"/>
<path d="M56.6667 31C65.5033 31 72.1667 24.8366 72.1667 16C72.1667 7.16344 65.5033 1 56.6667 1" stroke="#F08633" stroke-width="2" stroke-linecap="round" stroke-linejoin="round"/>
<circle cx="57.1667" cy="16" r="14" fill="white"/>
<path d="M57.5779 21.4004H55.156V11.9941H52.0544V9.97852H60.6794V11.9941H57.5779V21.4004Z" fill="#F08736"/>
<circle cx="98.3333" cy="16" r="16" fill="#E0E0E6"/>
<path d="M97.8333 31C106.67 31 113.333 24.8366 113.333 16C113.333 7.16344 106.67 1 97.8333 1" stroke="#F08633" stroke-width="2" stroke-linecap="round" stroke-linejoin="round"/>
<circle cx="98.3333" cy="16" r="14" fill="white"/>
<path d="M103.671 15.6738C103.671 16.5228 103.57 17.3014 103.366 18.0098C103.169 18.7129 102.861 19.3223 102.445 19.8379C102.028 20.3535 101.499 20.7572 100.859 21.0488L103.609 24.1191H100.507L98.4133 21.5566C98.3769 21.5566 98.3456 21.5566 98.3196 21.5566C98.2935 21.5566 98.2649 21.5566 98.2336 21.5566C97.3014 21.5566 96.4941 21.4186 95.8118 21.1426C95.1295 20.8613 94.5644 20.4603 94.1165 19.9395C93.6737 19.4186 93.343 18.7962 93.1243 18.0723C92.9055 17.3483 92.7961 16.5436 92.7961 15.6582C92.7961 14.4759 92.9889 13.4473 93.3743 12.5723C93.7649 11.6921 94.3639 11.0098 95.1711 10.5254C95.9784 10.041 97.0045 9.79883 98.2493 9.79883C99.4889 9.79883 100.507 10.041 101.304 10.5254C102.106 11.0098 102.7 11.6921 103.085 12.5723C103.476 13.4525 103.671 14.4863 103.671 15.6738ZM95.3352 15.6738C95.3352 16.4707 95.4342 17.1582 95.6321 17.7363C95.8352 18.3092 96.1503 18.752 96.5774 19.0645C97.0045 19.3717 97.5566 19.5254 98.2336 19.5254C98.9211 19.5254 99.4784 19.3717 99.9055 19.0645C100.333 18.752 100.642 18.3092 100.835 17.7363C101.033 17.1582 101.132 16.4707 101.132 15.6738C101.132 14.4759 100.908 13.5332 100.46 12.8457C100.012 12.1582 99.2753 11.8145 98.2493 11.8145C97.567 11.8145 97.0097 11.9707 96.5774 12.2832C96.1503 12.5905 95.8352 13.0332 95.6321 13.6113C95.4342 14.1842 95.3352 14.8717 95.3352 15.6738Z" fill="#F08736"/>
<circle cx="139.5" cy="16" r="16" fill="#E0E0E6"/>
<path d="M139 31C147.837 31 154.5 24.8366 154.5 16C154.5 7.16344 147.837 1 139 1" stroke="#F08633" stroke-width="2" stroke-linecap="round" stroke-linejoin="round"/>
<circle cx="139.5" cy="16" r="14" fill="white"/>
<path d="M144.838 15.6738C144.838 16.5228 144.736 17.3014 144.533 18.0098C144.335 18.7129 144.028 19.3223 143.611 19.8379C143.195 20.3535 142.666 20.7572 142.025 21.0488L144.775 24.1191H141.674L139.58 21.5566C139.544 21.5566 139.512 21.5566 139.486 21.5566C139.46 21.5566 139.432 21.5566 139.4 21.5566C138.468 21.5566 137.661 21.4186 136.979 21.1426C136.296 20.8613 135.731 20.4603 135.283 19.9395C134.84 19.4186 134.51 18.7962 134.291 18.0723C134.072 17.3483 133.963 16.5436 133.963 15.6582C133.963 14.4759 134.156 13.4473 134.541 12.5723C134.932 11.6921 135.531 11.0098 136.338 10.5254C137.145 10.041 138.171 9.79883 139.416 9.79883C140.656 9.79883 141.674 10.041 142.471 10.5254C143.273 11.0098 143.867 11.6921 144.252 12.5723C144.643 13.4525 144.838 14.4863 144.838 15.6738ZM136.502 15.6738C136.502 16.4707 136.601 17.1582 136.799 17.7363C137.002 18.3092 137.317 18.752 137.744 19.0645C138.171 19.3717 138.723 19.5254 139.4 19.5254C140.088 19.5254 140.645 19.3717 141.072 19.0645C141.499 18.752 141.809 18.3092 142.002 17.7363C142.2 17.1582 142.299 16.4707 142.299 15.6738C142.299 14.4759 142.075 13.5332 141.627 12.8457C141.179 12.1582 140.442 11.8145 139.416 11.8145C138.734 11.8145 138.176 11.9707 137.744 12.2832C137.317 12.5905 137.002 13.0332 136.799 13.6113C136.601 14.1842 136.502 14.8717 136.502 15.6738Z" fill="#F08736"/>
<circle cx="180.667" cy="16" r="16" fill="#E0E0E6"/>
<path d="M180.167 31C189.003 31 195.667 24.8366 195.667 16C195.667 7.16344 189.003 1 180.167 1" stroke="#F08633" stroke-width="2" stroke-linecap="round" stroke-linejoin="round"/>
<circle cx="180.667" cy="16" r="14" fill="white"/>
<path d="M185.14 18.2285C185.14 18.9056 184.976 19.4941 184.648 19.9941C184.32 20.4941 183.841 20.8796 183.211 21.1504C182.586 21.4212 181.825 21.5566 180.929 21.5566C180.534 21.5566 180.146 21.5306 179.765 21.4785C179.39 21.4264 179.028 21.3509 178.679 21.252C178.336 21.1478 178.008 21.0202 177.695 20.8691V18.6191C178.237 18.8587 178.799 19.0749 179.383 19.2676C179.966 19.4603 180.544 19.5566 181.117 19.5566C181.513 19.5566 181.83 19.5046 182.07 19.4004C182.315 19.2962 182.492 19.153 182.601 18.9707C182.711 18.7884 182.765 18.5801 182.765 18.3457C182.765 18.0592 182.669 17.8145 182.476 17.6113C182.284 17.4082 182.018 17.2181 181.679 17.041C181.346 16.8639 180.969 16.6738 180.547 16.4707C180.281 16.3457 179.992 16.1947 179.679 16.0176C179.367 15.8353 179.07 15.6139 178.789 15.3535C178.508 15.0931 178.276 14.778 178.094 14.4082C177.916 14.0332 177.828 13.5853 177.828 13.0645C177.828 12.3822 177.984 11.7988 178.297 11.3145C178.609 10.8301 179.054 10.4603 179.633 10.2051C180.216 9.94466 180.903 9.81445 181.695 9.81445C182.289 9.81445 182.854 9.88477 183.39 10.0254C183.932 10.1608 184.497 10.3587 185.086 10.6191L184.304 12.502C183.778 12.2884 183.307 12.1243 182.89 12.0098C182.474 11.89 182.049 11.8301 181.617 11.8301C181.315 11.8301 181.057 11.8796 180.844 11.9785C180.63 12.0723 180.469 12.2077 180.359 12.3848C180.25 12.5566 180.195 12.7572 180.195 12.9863C180.195 13.2572 180.273 13.4863 180.429 13.6738C180.591 13.8561 180.83 14.0332 181.148 14.2051C181.471 14.377 181.872 14.5775 182.351 14.8066C182.935 15.0827 183.432 15.3717 183.844 15.6738C184.26 15.9707 184.58 16.3223 184.804 16.7285C185.028 17.1296 185.14 17.6296 185.14 18.2285Z" fill="#F08736"/>
<circle cx="221.833" cy="16" r="16" fill="#E0E0E6"/>
<path d="M221.333 31C230.17 31 236.833 24.8366 236.833 16C236.833 7.16344 230.17 1 221.333 1" stroke="#F08633" stroke-width="2" stroke-linecap="round" stroke-linejoin="round"/>
<circle cx="221.833" cy="16" r="14" fill="white"/>
<path d="M226.307 18.2285C226.307 18.9056 226.143 19.4941 225.815 19.9941C225.487 20.4941 225.007 20.8796 224.377 21.1504C223.752 21.4212 222.992 21.5566 222.096 21.5566C221.7 21.5566 221.312 21.5306 220.932 21.4785C220.557 21.4264 220.195 21.3509 219.846 21.252C219.502 21.1478 219.174 21.0202 218.862 20.8691V18.6191C219.403 18.8587 219.966 19.0749 220.549 19.2676C221.132 19.4603 221.711 19.5566 222.283 19.5566C222.679 19.5566 222.997 19.5046 223.237 19.4004C223.481 19.2962 223.658 19.153 223.768 18.9707C223.877 18.7884 223.932 18.5801 223.932 18.3457C223.932 18.0592 223.836 17.8145 223.643 17.6113C223.45 17.4082 223.184 17.2181 222.846 17.041C222.513 16.8639 222.135 16.6738 221.713 16.4707C221.448 16.3457 221.158 16.1947 220.846 16.0176C220.533 15.8353 220.237 15.6139 219.955 15.3535C219.674 15.0931 219.442 14.778 219.26 14.4082C219.083 14.0332 218.994 13.5853 218.994 13.0645C218.994 12.3822 219.151 11.7988 219.463 11.3145C219.776 10.8301 220.221 10.4603 220.799 10.2051C221.382 9.94466 222.07 9.81445 222.862 9.81445C223.455 9.81445 224.02 9.88477 224.557 10.0254C225.099 10.1608 225.664 10.3587 226.252 10.6191L225.471 12.502C224.945 12.2884 224.474 12.1243 224.057 12.0098C223.64 11.89 223.216 11.8301 222.783 11.8301C222.481 11.8301 222.224 11.8796 222.01 11.9785C221.796 12.0723 221.635 12.2077 221.526 12.3848C221.416 12.5566 221.362 12.7572 221.362 12.9863C221.362 13.2572 221.44 13.4863 221.596 13.6738C221.757 13.8561 221.997 14.0332 222.315 14.2051C222.638 14.377 223.039 14.5775 223.518 14.8066C224.101 15.0827 224.599 15.3717 225.01 15.6738C225.427 15.9707 225.747 16.3223 225.971 16.7285C226.195 17.1296 226.307 17.6296 226.307 18.2285Z" fill="#F08736"/>
<circle cx="263" cy="16" r="16" fill="#E0E0E6"/>
<circle cx="263" cy="16" r="14" fill="white"/>
<path d="M267.393 15.5801C267.393 16.8665 267.145 17.9421 266.65 18.8066C266.161 19.666 265.45 20.3145 264.518 20.752C263.585 21.1842 262.463 21.4004 261.15 21.4004H257.916V9.97852H261.502C262.7 9.97852 263.739 10.1921 264.619 10.6191C265.499 11.041 266.182 11.6686 266.666 12.502C267.15 13.3301 267.393 14.3561 267.393 15.5801ZM264.877 15.6426C264.877 14.7988 264.752 14.1061 264.502 13.5645C264.257 13.0176 263.893 12.6139 263.408 12.3535C262.929 12.0931 262.335 11.9629 261.627 11.9629H260.338V19.4004H261.377C262.559 19.4004 263.437 19.0853 264.01 18.4551C264.588 17.8249 264.877 16.8874 264.877 15.6426Z" fill="#F08736"/>
<defs>
<clipPath id="clip0_1_1394">
<rect width="16" height="16" fill="white" transform="translate(8 8)"/>
</clipPath>
</defs>
</svg>
