<svg width="22" height="18" viewBox="0 0 22 18" fill="none" xmlns="http://www.w3.org/2000/svg">
<path d="M20.7481 17.9998H1.25315C1.12127 17.9998 0.991687 17.9653 0.877296 17.8997C0.762904 17.8341 0.667695 17.7397 0.601146 17.6258C0.535211 17.512 0.500488 17.3828 0.500488 17.2513C0.500488 17.1198 0.535211 16.9906 0.601146 16.8768L10.3481 0.374816C10.4149 0.261831 10.51 0.1682 10.624 0.103158C10.7379 0.0381146 10.8669 0.00390625 10.9981 0.00390625C11.1294 0.00390625 11.2584 0.0381146 11.3723 0.103158C11.4863 0.1682 11.5814 0.261831 11.6481 0.374816L21.3961 16.8748C21.4622 16.9886 21.497 17.1178 21.497 17.2493C21.497 17.3809 21.4622 17.5101 21.3961 17.6238C21.3301 17.7374 21.2356 17.8318 21.122 17.8977C21.0084 17.9637 20.8795 17.9988 20.7481 17.9998ZM11.0011 11.9928C10.8994 11.996 10.7992 12.0193 10.7064 12.0613C10.6136 12.1032 10.53 12.1631 10.4603 12.2374C10.3907 12.3117 10.3364 12.399 10.3005 12.4943C10.2646 12.5896 10.2478 12.691 10.2511 12.7928V14.1998C10.2459 14.3016 10.2614 14.4033 10.2967 14.4989C10.332 14.5945 10.3864 14.6818 10.4566 14.7557C10.5267 14.8296 10.6112 14.8884 10.7048 14.9286C10.7984 14.9688 10.8993 14.9896 11.0011 14.9896C11.103 14.9896 11.2039 14.9688 11.2975 14.9286C11.3911 14.8884 11.4755 14.8296 11.5457 14.7557C11.6159 14.6818 11.6703 14.5945 11.7056 14.4989C11.7409 14.4033 11.7564 14.3016 11.7511 14.1998V12.7898C11.7568 12.5848 11.6811 12.3859 11.5406 12.2366C11.4 12.0873 11.2061 11.9996 11.0011 11.9928ZM11.0011 5.99282C10.7985 5.99702 10.6058 6.08137 10.4652 6.22738C10.3246 6.37339 10.2477 6.56916 10.2511 6.77182V9.71682C10.2459 9.81857 10.2614 9.92032 10.2967 10.0159C10.332 10.1115 10.3864 10.1988 10.4566 10.2727C10.5267 10.3466 10.6112 10.4054 10.7048 10.4456C10.7984 10.4858 10.8993 10.5066 11.0011 10.5066C11.103 10.5066 11.2039 10.4858 11.2975 10.4456C11.3911 10.4054 11.4755 10.3466 11.5457 10.2727C11.6159 10.1988 11.6703 10.1115 11.7056 10.0159C11.7409 9.92032 11.7564 9.81857 11.7511 9.71682V6.77282C11.7549 6.56999 11.678 6.37396 11.5374 6.22773C11.3968 6.0815 11.204 5.99702 11.0011 5.99282Z" fill="#926920"/>
</svg>
