<svg width="25" height="25" viewBox="0 0 25 25" fill="none" xmlns="http://www.w3.org/2000/svg">
<mask id="mask0_206_3178" style="mask-type:luminance" maskUnits="userSpaceOnUse" x="0" y="0" width="25" height="25">
<path d="M24.0781 0.253906H0.078125V24.2539H24.0781V0.253906Z" fill="white"/>
</mask>
<g mask="url(#mask0_206_3178)">
<path d="M6.07812 21.2539C5.28248 21.2539 4.51941 20.9378 3.9568 20.3752C3.3942 19.8126 3.07813 19.0496 3.07812 18.2539V12.2539C3.07813 11.4583 3.3942 10.6952 3.9568 10.1326C4.51941 9.56998 5.28248 9.25391 6.07812 9.25391H6.82812C7.02704 9.25391 7.2178 9.33292 7.35846 9.47358C7.49911 9.61423 7.57812 9.80499 7.57812 10.0039C7.57812 10.2028 7.49911 10.3936 7.35846 10.5342C7.2178 10.6749 7.02704 10.7539 6.82812 10.7539H6.07812C5.6803 10.7539 5.29877 10.9119 5.01746 11.1932C4.73616 11.4746 4.57812 11.8561 4.57812 12.2539V18.2539C4.57812 18.6517 4.73616 19.0333 5.01746 19.3146C5.29877 19.5959 5.6803 19.7539 6.07812 19.7539H12.0781C12.4759 19.7539 12.8575 19.5959 13.1388 19.3146C13.4201 19.0333 13.5781 18.6517 13.5781 18.2539V17.5029C13.5781 17.304 13.6571 17.1132 13.7978 16.9726C13.9384 16.8319 14.1292 16.7529 14.3281 16.7529C14.527 16.7529 14.7178 16.8319 14.8585 16.9726C14.9991 17.1132 15.0781 17.304 15.0781 17.5029V18.2539C15.0781 19.0496 14.7621 19.8126 14.1994 20.3752C13.6368 20.9378 12.8738 21.2539 12.0781 21.2539H6.07812ZM12.0781 15.2539C11.2825 15.2539 10.5194 14.9378 9.9568 14.3752C9.3942 13.8126 9.07812 13.0496 9.07812 12.2539V6.25391C9.07812 5.45826 9.3942 4.69519 9.9568 4.13259C10.5194 3.56998 11.2825 3.25391 12.0781 3.25391H18.0781C18.8738 3.25391 19.6368 3.56998 20.1994 4.13259C20.7621 4.69519 21.0781 5.45826 21.0781 6.25391V7.00391C21.0781 7.20282 20.9991 7.39358 20.8585 7.53424C20.7178 7.67489 20.527 7.75391 20.3281 7.75391C20.1292 7.75391 19.9384 7.67489 19.7978 7.53424C19.6571 7.39358 19.5781 7.20282 19.5781 7.00391V6.25391C19.5781 5.85608 19.4201 5.47455 19.1388 5.19325C18.8575 4.91194 18.4759 4.75391 18.0781 4.75391H12.0781C11.6803 4.75391 11.2988 4.91194 11.0175 5.19325C10.7362 5.47455 10.5781 5.85608 10.5781 6.25391V12.2539C10.5781 12.6517 10.7362 13.0333 11.0175 13.3146C11.2988 13.5959 11.6803 13.7539 12.0781 13.7539H18.0781C18.4759 13.7539 18.8575 13.5959 19.1388 13.3146C19.4201 13.0333 19.5781 12.6517 19.5781 12.2539V11.5039C19.5781 11.305 19.6571 11.1142 19.7978 10.9736C19.9384 10.8329 20.1292 10.7539 20.3281 10.7539C20.527 10.7539 20.7178 10.8329 20.8585 10.9736C20.9991 11.1142 21.0781 11.305 21.0781 11.5039V12.2539C21.0781 13.0496 20.7621 13.8126 20.1994 14.3752C19.6368 14.9378 18.8738 15.2539 18.0781 15.2539H12.0781Z" fill="#226CF2"/>
</g>
</svg>
