<svg width="15" height="14" viewBox="0 0 15 14" fill="none" xmlns="http://www.w3.org/2000/svg">
<path d="M0.496005 7.00025C0.494511 5.28242 1.12473 3.62401 2.26671 2.34072C3.40868 1.05743 4.98266 0.23886 6.68904 0.0408269C8.39541 -0.157206 10.115 0.279128 11.5206 1.26677C12.9261 2.25441 13.9194 3.7244 14.3113 5.39691C14.3361 5.52417 14.3106 5.65607 14.24 5.76487C14.1695 5.87366 14.0596 5.95087 13.9333 5.98023C13.807 6.0096 13.6743 5.98884 13.563 5.92232C13.4517 5.8558 13.3706 5.74871 13.3367 5.62358C13.078 4.52609 12.5152 3.52372 11.713 2.73137C10.9107 1.93902 9.90146 1.38876 8.80085 1.14368C7.70023 0.898605 6.55283 0.968624 5.49019 1.34571C4.42754 1.7228 3.49266 2.39169 2.79272 3.27571C2.09277 4.15973 1.6561 5.22309 1.53275 6.34389C1.4094 7.4647 1.60438 8.59757 2.09532 9.61265C2.58627 10.6277 3.35331 11.4839 4.30852 12.0831C5.26373 12.6822 6.36844 13.0001 7.496 13.0002C8.84594 12.9925 10.1544 12.533 11.2128 11.6951C12.2713 10.8572 13.0187 9.68905 13.336 8.37691C13.3699 8.25178 13.4511 8.14469 13.5623 8.07817C13.6736 8.01165 13.8064 7.99089 13.9326 8.02026C14.0589 8.04962 14.1689 8.12683 14.2394 8.23562C14.3099 8.34442 14.3354 8.47632 14.3107 8.60358C13.9181 10.2754 12.9247 11.7447 11.5193 12.7317C10.114 13.7188 8.39488 14.1548 6.689 13.9568C4.98312 13.7588 3.40954 12.9407 2.26764 11.658C1.12574 10.3753 0.495211 8.71758 0.496005 7.00025ZM7 10.5009V7.50091H4C3.8674 7.50091 3.74022 7.44823 3.64645 7.35447C3.55268 7.2607 3.5 7.13352 3.5 7.00091C3.5 6.8683 3.55268 6.74113 3.64645 6.64736C3.74022 6.55359 3.8674 6.50091 4 6.50091H7V3.50091C7 3.3683 7.05268 3.24113 7.14645 3.14736C7.24022 3.05359 7.3674 3.00091 7.5 3.00091C7.63261 3.00091 7.75979 3.05359 7.85356 3.14736C7.94733 3.24113 8 3.3683 8 3.50091V6.50091H11C11.1326 6.50091 11.2598 6.55359 11.3536 6.64736C11.4473 6.74113 11.5 6.8683 11.5 7.00091C11.5 7.13352 11.4473 7.2607 11.3536 7.35447C11.2598 7.44823 11.1326 7.50091 11 7.50091H8V10.5009C8 10.6335 7.94733 10.7607 7.85356 10.8545C7.75979 10.9482 7.63261 11.0009 7.5 11.0009C7.3674 11.0009 7.24022 10.9482 7.14645 10.8545C7.05268 10.7607 7 10.6335 7 10.5009Z" fill="#226CF2"/>
</svg>
