<svg width="28" height="24" viewBox="0 0 28 24" fill="none" xmlns="http://www.w3.org/2000/svg">
<path d="M26.9973 24.0004H1.00397C0.828137 24.0004 0.655359 23.9544 0.502837 23.8669C0.350315 23.7795 0.223369 23.6535 0.134637 23.5017C0.0467239 23.35 0.000427246 23.1778 0.000427246 23.0024C0.000427246 22.827 0.0467239 22.6548 0.134637 22.5031L13.1306 0.500406C13.2197 0.34976 13.3464 0.224918 13.4984 0.138194C13.6504 0.0514705 13.8223 0.00585937 13.9973 0.00585938C14.1723 0.00585938 14.3442 0.0514705 14.4962 0.138194C14.6482 0.224918 14.775 0.34976 14.864 0.500406L27.8613 22.5004C27.9494 22.6521 27.9957 22.8244 27.9957 22.9997C27.9957 23.1751 27.9494 23.3474 27.8613 23.4991C27.7733 23.6505 27.6473 23.7764 27.4958 23.8643C27.3443 23.9522 27.1725 23.9991 26.9973 24.0004ZM14.0013 15.9911C13.8656 15.9954 13.732 16.0264 13.6083 16.0823C13.4846 16.1383 13.3731 16.2181 13.2802 16.3171C13.1874 16.4162 13.1149 16.5326 13.0671 16.6597C13.0192 16.7868 12.9969 16.922 13.0013 17.0577V18.9337C12.9943 19.0694 13.015 19.2051 13.0621 19.3325C13.1091 19.4599 13.1817 19.5764 13.2752 19.6749C13.3688 19.7734 13.4814 19.8519 13.6062 19.9055C13.731 19.9591 13.8655 19.9867 14.0013 19.9867C14.1372 19.9867 14.2716 19.9591 14.3964 19.9055C14.5212 19.8519 14.6338 19.7734 14.7274 19.6749C14.8209 19.5764 14.8935 19.4599 14.9406 19.3325C14.9876 19.2051 15.0083 19.0694 15.0013 18.9337V17.0537C15.0089 16.7804 14.9079 16.5152 14.7205 16.3161C14.5332 16.117 14.2746 16.0001 14.0013 15.9911ZM14.0013 7.99107C13.7311 7.99668 13.4742 8.10914 13.2867 8.30382C13.0993 8.4985 12.9967 8.75953 13.0013 9.02974V12.9564C12.9943 13.0921 13.015 13.2277 13.0621 13.3552C13.1091 13.4826 13.1817 13.5991 13.2752 13.6976C13.3688 13.7961 13.4814 13.8746 13.6062 13.9282C13.731 13.9818 13.8655 14.0094 14.0013 14.0094C14.1372 14.0094 14.2716 13.9818 14.3964 13.9282C14.5212 13.8746 14.6338 13.7961 14.7274 13.6976C14.8209 13.5991 14.8935 13.4826 14.9406 13.3552C14.9876 13.2277 15.0083 13.0921 15.0013 12.9564V9.03107C15.0063 8.76064 14.9038 8.49926 14.7164 8.30429C14.5289 8.10932 14.2717 7.99668 14.0013 7.99107Z" fill="#226CF2"/>
</svg>
