<svg width="24" height="24" viewBox="0 0 24 24" fill="none" xmlns="http://www.w3.org/2000/svg">
<mask id="mask0_168_3531" style="mask-type:luminance" maskUnits="userSpaceOnUse" x="0" y="0" width="24" height="24">
<path d="M24 0H0V24H24V0Z" fill="white"/>
</mask>
<g mask="url(#mask0_168_3531)">
<path d="M18.75 19.4986C18.551 19.4986 18.3601 19.4199 18.219 19.2796L4.71899 5.77962C4.58091 5.63823 4.50412 5.4481 4.50529 5.25046C4.50646 5.05283 4.58549 4.86362 4.72524 4.72387C4.86499 4.58412 5.0542 4.50509 5.25184 4.50392C5.44947 4.50275 5.6396 4.57953 5.78099 4.71762L19.281 18.2176C19.3862 18.3225 19.4578 18.4563 19.4869 18.6019C19.5159 18.7476 19.501 18.8986 19.4442 19.0358C19.3873 19.173 19.291 19.2903 19.1674 19.3727C19.0438 19.455 18.8985 19.4989 18.75 19.4986Z" fill="#111111"/>
<path d="M5.25 19.4995C5.10147 19.4997 4.9562 19.4559 4.83262 19.3735C4.70904 19.2911 4.6127 19.1739 4.55582 19.0367C4.49895 18.8995 4.48409 18.7484 4.51314 18.6028C4.54219 18.4571 4.61384 18.3234 4.719 18.2185L18.219 4.71847C18.2884 4.64738 18.3713 4.59077 18.4627 4.55193C18.5542 4.51309 18.6525 4.49279 18.7518 4.4922C18.8512 4.49161 18.9497 4.51075 19.0416 4.54851C19.1335 4.58626 19.2171 4.64188 19.2873 4.71215C19.3576 4.78242 19.4132 4.86593 19.451 4.95785C19.4887 5.04977 19.5079 5.14826 19.5073 5.24763C19.5067 5.347 19.4864 5.44526 19.4475 5.53673C19.4087 5.6282 19.3521 5.71104 19.281 5.78047L5.781 19.2805C5.63989 19.4208 5.44898 19.4995 5.25 19.4995Z" fill="#111111"/>
</g>
</svg>
