<svg width="32" height="32" viewBox="0 0 32 32" fill="none" xmlns="http://www.w3.org/2000/svg">
<g clip-path="url(#clip0_88_7097)">
<mask id="mask0_88_7097" style="mask-type:luminance" maskUnits="userSpaceOnUse" x="0" y="0" width="32" height="32">
<path d="M32 0H0V32H32V0Z" fill="white"/>
</mask>
<g mask="url(#mask0_88_7097)">
<path d="M26 26H6C4.93913 26 3.92202 25.5786 3.17188 24.8284C2.42173 24.0783 2 23.0609 2 22V10C2.00246 8.93989 2.42487 7.92391 3.17448 7.1743C3.92409 6.42468 4.93989 6.00246 6 6H26C27.0609 6 28.078 6.42142 28.8281 7.17157C29.5783 7.92172 30 8.93913 30 10V22C30 23.0609 29.5783 24.0783 28.8281 24.8284C28.078 25.5786 27.0609 26 26 26ZM16.9948 20C16.7309 20.0004 16.4782 20.1054 16.2917 20.2922C16.1052 20.4789 16 20.7321 16 20.996C15.9995 21.1271 16.0245 21.2571 16.0742 21.3785C16.1239 21.4998 16.1967 21.6102 16.2891 21.7033C16.3814 21.7964 16.4923 21.8705 16.6133 21.9211C16.7342 21.9718 16.8636 21.9981 16.9948 21.9987H24.9948C25.2606 21.9983 25.5152 21.8926 25.7031 21.7046C25.8911 21.5166 25.997 21.2618 25.9974 20.996C25.996 20.7311 25.8897 20.4776 25.7018 20.2909C25.5139 20.1043 25.2597 19.9996 24.9948 20H16.9948ZM7.9974 16C7.46696 16 6.95841 16.2107 6.58333 16.5858C6.20826 16.9609 5.9974 17.4696 5.9974 18V21.0013C5.99687 21.1325 6.02191 21.2624 6.07161 21.3838C6.12132 21.5052 6.1941 21.6156 6.28646 21.7087C6.37882 21.8018 6.48971 21.8758 6.61068 21.9265C6.73164 21.9771 6.86104 22.0035 6.99219 22.004H12.9922C13.1235 22.0036 13.2538 21.9774 13.375 21.9269C13.4962 21.8763 13.6053 21.8023 13.6979 21.7092C13.7905 21.6161 13.8641 21.5057 13.9141 21.3842C13.964 21.2628 13.9899 21.1327 13.9896 21.0013V18C13.9896 17.4696 13.7787 16.9609 13.4036 16.5858C13.0286 16.2107 12.52 16 11.9896 16H7.9974ZM16.9948 16C16.8636 16.0005 16.7342 16.0269 16.6133 16.0775C16.4923 16.1282 16.3814 16.2022 16.2891 16.2953C16.1967 16.3884 16.1239 16.4988 16.0742 16.6202C16.0245 16.7416 15.9995 16.8715 16 17.0027C16 17.2666 16.1052 17.5197 16.2917 17.7065C16.4782 17.8932 16.7309 17.9983 16.9948 17.9987H24.9948C25.2597 17.999 25.5139 17.8944 25.7018 17.7077C25.8897 17.5211 25.996 17.2675 25.9974 17.0027C25.997 16.7368 25.8911 16.482 25.7031 16.2941C25.5152 16.1061 25.2606 16.0004 24.9948 16H16.9948ZM10 10C9.36348 10 8.75347 10.2529 8.30339 10.7029C7.8533 11.153 7.60026 11.7635 7.60026 12.4C7.60026 13.0365 7.8533 13.647 8.30339 14.0971C8.75347 14.5471 9.36348 14.8 10 14.8C10.6365 14.8 11.2465 14.5471 11.6966 14.0971C12.1467 13.647 12.3997 13.0365 12.3997 12.4C12.3997 11.7635 12.1467 11.153 11.6966 10.7029C11.2465 10.2529 10.6365 10 10 10ZM17.0026 12C16.7387 12.0004 16.486 12.1054 16.2995 12.2922C16.113 12.4789 16.0078 12.7321 16.0078 12.996C16.0073 13.1271 16.0323 13.2571 16.082 13.3785C16.1317 13.4998 16.2058 13.6102 16.2982 13.7033C16.3905 13.7964 16.5001 13.8705 16.6211 13.9211C16.7421 13.9718 16.8715 13.9981 17.0026 13.9987H25.0026C25.2684 13.9983 25.523 13.8926 25.7109 13.7046C25.8989 13.5166 26.0049 13.2618 26.0052 12.996C26.0038 12.7311 25.8976 12.4776 25.7096 12.2909C25.5217 12.1043 25.2675 11.9996 25.0026 12H17.0026Z" fill="#226CF2"/>
</g>
</g>
<defs>
<clipPath id="clip0_88_7097">
<rect width="32" height="32" fill="white"/>
</clipPath>
</defs>
</svg>
