<svg width="14" height="14" viewBox="0 0 14 14" fill="none" xmlns="http://www.w3.org/2000/svg">
<path d="M7 13.998C5.61553 13.998 4.26216 13.5875 3.11101 12.8183C1.95987 12.0492 1.06266 10.9559 0.532846 9.67683C0.00303304 8.39775 -0.13559 6.99028 0.134506 5.63242C0.404603 4.27455 1.07129 3.02727 2.05026 2.0483C3.02922 1.06933 4.2765 0.40265 5.63437 0.132553C6.99224 -0.137543 8.3997 0.00107992 9.67879 0.530893C10.9579 1.06071 12.0511 1.95791 12.8203 3.10906C13.5895 4.2602 14 5.61358 14 6.99805C13.9979 8.85392 13.2597 10.6332 11.9474 11.9455C10.6351 13.2578 8.85587 13.9959 7 13.998ZM7 5.99805C6.86233 6.00352 6.73242 6.0633 6.63872 6.16432C6.54501 6.26533 6.49513 6.39935 6.5 6.53705V10.4591C6.5 10.5917 6.55268 10.7188 6.64645 10.8126C6.74022 10.9064 6.86739 10.9591 7 10.9591C7.13261 10.9591 7.25979 10.9064 7.35356 10.8126C7.44732 10.7188 7.5 10.5917 7.5 10.4591V6.53505C7.50433 6.39769 7.45422 6.26418 7.36057 6.16361C7.26692 6.06303 7.13732 6.00352 7 5.99805ZM7 2.99805C6.86393 3.00198 6.73495 3.05962 6.64125 3.15837C6.54756 3.25713 6.49677 3.38896 6.5 3.52505V4.47005C6.5 4.60266 6.55268 4.72984 6.64645 4.8236C6.74022 4.91737 6.86739 4.97005 7 4.97005C7.13261 4.97005 7.25979 4.91737 7.35356 4.8236C7.44732 4.72984 7.5 4.60266 7.5 4.47005V3.52505C7.50323 3.38896 7.45245 3.25713 7.35875 3.15837C7.26506 3.05962 7.13608 3.00198 7 2.99805Z" fill="#006CF2"/>
</svg>
