<svg width="32" height="32" viewBox="0 0 32 32" fill="none" xmlns="http://www.w3.org/2000/svg">
<mask id="mask0_186_7299" style="mask-type:luminance" maskUnits="userSpaceOnUse" x="0" y="0" width="32" height="32">
<path d="M32 0H0V32H32V0Z" fill="white"/>
</mask>
<g mask="url(#mask0_186_7299)">
<path d="M15.9999 2.00042C14.4311 1.95773 12.8698 2.23158 11.4091 2.80559C9.94848 3.3796 8.61848 4.24198 7.49848 5.34132C6.37848 6.44066 5.4915 7.75441 4.8904 9.20411C4.28931 10.6538 3.98647 12.2097 3.99994 13.7791C3.99994 18.2235 7.47724 23.4373 14.4319 29.4204C14.8687 29.7945 15.4249 30 15.9999 30C16.575 30 17.1312 29.7945 17.568 29.4204C24.5306 23.448 28.0079 18.2342 27.9999 13.7791C28.0134 12.2097 27.7106 10.6538 27.1095 9.20411C26.5084 7.75441 25.6214 6.44066 24.5014 5.34132C23.3814 4.24198 22.0514 3.3796 20.5908 2.80559C19.1301 2.23158 17.5687 1.95773 15.9999 2.00042ZM15.9999 18.0204C15.2088 18.0204 14.4354 17.7858 13.7776 17.3463C13.1198 16.9068 12.6072 16.282 12.3045 15.5511C12.0017 14.8202 11.9224 14.016 12.0768 13.2401C12.2311 12.4642 12.6121 11.7514 13.1715 11.192C13.7309 10.6326 14.4436 10.2516 15.2195 10.0973C15.9954 9.94292 16.7998 10.0221 17.5307 10.3249C18.2616 10.6276 18.8863 11.1403 19.3258 11.7981C19.7653 12.4559 19.9999 13.2293 19.9999 14.0204C19.9999 15.0813 19.5785 16.0987 18.8284 16.8488C18.0782 17.599 17.0608 18.0204 15.9999 18.0204Z" fill="#226CF2"/>
</g>
</svg>
