<svg width="16" height="17" viewBox="0 0 16 17" fill="none" xmlns="http://www.w3.org/2000/svg">
<g clip-path="url(#clip0_217_6113)">
<mask id="mask0_217_6113" style="mask-type:luminance" maskUnits="userSpaceOnUse" x="0" y="0" width="16" height="17">
<path d="M16 0.5H0V16.5H16V0.5Z" fill="white"/>
</mask>
<g mask="url(#mask0_217_6113)">
<path d="M4.5 3.5C4.20333 3.5 3.91332 3.58797 3.66664 3.7528C3.41997 3.91762 3.22771 4.15189 3.11418 4.42597C3.00065 4.70006 2.97094 5.00166 3.02882 5.29264C3.0867 5.58361 3.22956 5.85088 3.43934 6.06066C3.64912 6.27044 3.91639 6.4133 4.20736 6.47118C4.49834 6.52906 4.79994 6.49935 5.07403 6.38582C5.34811 6.27229 5.58238 6.08003 5.7472 5.83336C5.91203 5.58668 6 5.29667 6 5C5.99947 4.60234 5.84127 4.22111 5.56008 3.93992C5.27889 3.65873 4.89766 3.50053 4.5 3.5ZM4.5 2.5C4.99445 2.5 5.4778 2.64662 5.88893 2.92133C6.30005 3.19603 6.62048 3.58648 6.8097 4.04329C6.99892 4.50011 7.04843 5.00277 6.95196 5.48773C6.8555 5.97268 6.6174 6.41814 6.26777 6.76777C5.91814 7.1174 5.47268 7.3555 4.98773 7.45196C4.50277 7.54843 4.00011 7.49892 3.54329 7.3097C3.08648 7.12048 2.69603 6.80005 2.42133 6.38893C2.14662 5.9778 2 5.49445 2 5C2 4.33696 2.26339 3.70107 2.73223 3.23223C3.20107 2.76339 3.83696 2.5 4.5 2.5Z" fill="#226CF2"/>
<path d="M11.5 10.5C11.2033 10.5 10.9133 10.588 10.6666 10.7528C10.42 10.9176 10.2277 11.1519 10.1142 11.426C10.0006 11.7001 9.97094 12.0017 10.0288 12.2926C10.0867 12.5836 10.2296 12.8509 10.4393 13.0607C10.6491 13.2704 10.9164 13.4133 11.2074 13.4712C11.4983 13.5291 11.7999 13.4994 12.074 13.3858C12.3481 13.2723 12.5824 13.08 12.7472 12.8334C12.912 12.5867 13 12.2967 13 12C12.9995 11.6023 12.8413 11.2211 12.5601 10.9399C12.2789 10.6587 11.8977 10.5005 11.5 10.5ZM11.5 9.5C11.9945 9.5 12.4778 9.64662 12.8889 9.92133C13.3 10.196 13.6205 10.5865 13.8097 11.0433C13.9989 11.5001 14.0484 12.0028 13.952 12.4877C13.8555 12.9727 13.6174 13.4181 13.2678 13.7678C12.9181 14.1174 12.4727 14.3555 11.9877 14.452C11.5028 14.5484 11.0001 14.4989 10.5433 14.3097C10.0865 14.1205 9.69603 13.8 9.42133 13.3889C9.14662 12.9778 9 12.4945 9 12C9 11.337 9.26339 10.7011 9.73223 10.2322C10.2011 9.76339 10.837 9.5 11.5 9.5Z" fill="#226CF2"/>
<path d="M4.49932 14.501C4.41024 14.5005 4.3229 14.4763 4.24632 14.4308C4.16975 14.3853 4.10672 14.3201 4.06376 14.2421C4.0208 14.1641 3.99947 14.076 4.00197 13.9869C4.00447 13.8979 4.03071 13.8111 4.07798 13.7356L11.078 2.73562C11.1123 2.67825 11.1577 2.62835 11.2116 2.58885C11.2656 2.54935 11.3268 2.52106 11.3919 2.50565C11.4569 2.49025 11.5244 2.48803 11.5903 2.49915C11.6562 2.51026 11.7192 2.53448 11.7756 2.57036C11.832 2.60624 11.8806 2.65306 11.9186 2.70806C11.9565 2.76305 11.9831 2.8251 11.9967 2.89054C12.0103 2.95598 12.0106 3.02348 11.9977 3.08905C11.9847 3.15461 11.9588 3.21692 11.9213 3.27228L4.92198 14.269C4.87685 14.3402 4.81441 14.3988 4.74051 14.4393C4.6666 14.4799 4.58363 14.5011 4.49932 14.501Z" fill="#226CF2"/>
</g>
</g>
<defs>
<clipPath id="clip0_217_6113">
<rect width="16" height="16" fill="white" transform="translate(0 0.5)"/>
</clipPath>
</defs>
</svg>
