<svg width="32" height="32" viewBox="0 0 32 32" fill="none" xmlns="http://www.w3.org/2000/svg">
<g clip-path="url(#clip0_5_18555)">
<mask id="mask0_5_18555" style="mask-type:luminance" maskUnits="userSpaceOnUse" x="0" y="0" width="32" height="32">
<path d="M32 0H0V32H32V0Z" fill="white"/>
</mask>
<g mask="url(#mask0_5_18555)">
<path d="M10 30.0009C8.93913 30.0009 7.92172 29.5795 7.17157 28.8294C6.42143 28.0792 6 27.0618 6 26.0009V8.00094C6 6.94008 6.42143 5.92266 7.17157 5.17252C7.92172 4.42237 8.93913 4.00094 10 4.00094H17C17.2652 4.00094 17.5196 4.1063 17.7071 4.29384C17.8946 4.48137 18 4.73573 18 5.00094C18 5.26616 17.8946 5.52051 17.7071 5.70805C17.5196 5.89559 17.2652 6.00094 17 6.00094H10C9.46957 6.00094 8.96086 6.21166 8.58579 6.58673C8.21071 6.9618 8 7.47051 8 8.00094V26.0009C8 26.5314 8.21071 27.0401 8.58579 27.4152C8.96086 27.7902 9.46957 28.0009 10 28.0009H22C22.5304 28.0009 23.0391 27.7902 23.4142 27.4152C23.7893 27.0401 24 26.5314 24 26.0009V17.0009C24 16.7357 24.1054 16.4814 24.2929 16.2938C24.4804 16.1063 24.7348 16.0009 25 16.0009C25.2652 16.0009 25.5196 16.1063 25.7071 16.2938C25.8946 16.4814 26 16.7357 26 17.0009V26.0009C26 27.0618 25.5786 28.0792 24.8284 28.8294C24.0783 29.5795 23.0609 30.0009 22 30.0009H10ZM10.9973 24.0009C10.7447 23.9825 10.5085 23.8691 10.336 23.6836C10.1636 23.4981 10.0677 23.2542 10.0677 23.0009C10.0677 22.7477 10.1636 22.5038 10.336 22.3183C10.5085 22.1328 10.7447 22.0194 10.9973 22.0009H20.9973C21.2499 22.0194 21.4862 22.1328 21.6586 22.3183C21.8311 22.5038 21.9269 22.7477 21.9269 23.0009C21.9269 23.2542 21.8311 23.4981 21.6586 23.6836C21.4862 23.8691 21.2499 23.9825 20.9973 24.0009H10.9973ZM10.9973 20.0009C10.7447 19.9825 10.5085 19.8691 10.336 19.6836C10.1636 19.4981 10.0677 19.2542 10.0677 19.0009C10.0677 18.7477 10.1636 18.5038 10.336 18.3183C10.5085 18.1328 10.7447 18.0194 10.9973 18.0009H20.9973C21.2499 18.0194 21.4862 18.1328 21.6586 18.3183C21.8311 18.5038 21.9269 18.7477 21.9269 19.0009C21.9269 19.2542 21.8311 19.4981 21.6586 19.6836C21.4862 19.8691 21.2499 19.9825 20.9973 20.0009H10.9973ZM10.9973 16.0009C10.7447 15.9825 10.5085 15.8691 10.336 15.6836C10.1636 15.4981 10.0677 15.2542 10.0677 15.0009C10.0677 14.7477 10.1636 14.5038 10.336 14.3183C10.5085 14.1328 10.7447 14.0194 10.9973 14.0009H18.9973C19.2499 14.0194 19.4862 14.1328 19.6586 14.3183C19.8311 14.5038 19.9269 14.7477 19.9269 15.0009C19.9269 15.2542 19.8311 15.4981 19.6586 15.6836C19.4862 15.8691 19.2499 15.9825 18.9973 16.0009H10.9973ZM24.792 13.9489L23.1707 13.0756C22.2063 12.5531 21.402 11.7784 20.8436 10.8344C20.2851 9.89037 19.9936 8.81241 20 7.71561V4.44494C19.9995 4.35674 20.0244 4.27025 20.0717 4.19578C20.1189 4.12132 20.1866 4.06201 20.2667 4.02494L24.824 2.03828C24.8793 2.01432 24.939 2.00195 24.9993 2.00195C25.0596 2.00195 25.1193 2.01432 25.1747 2.03828L29.7333 4.02494C29.8132 4.06228 29.8807 4.12164 29.9279 4.19605C29.9752 4.27046 30.0002 4.35681 30 4.44494V6.22894L29.9693 8.31161C29.9693 8.32628 29.9693 8.33828 29.9693 8.35428C29.8722 9.33827 29.5354 10.2835 28.9885 11.1072C28.4416 11.931 27.7012 12.6082 26.832 13.0796L25.2107 13.9489C25.1453 13.9832 25.0725 14.0011 24.9987 14.0009C24.9266 14.0005 24.8557 13.9827 24.792 13.9489ZM22.3493 7.76094C22.2654 7.84709 22.2184 7.96264 22.2184 8.08294C22.2184 8.20325 22.2654 8.31879 22.3493 8.40494L24.052 10.1476C24.0928 10.1899 24.1417 10.2235 24.1957 10.2464C24.2498 10.2693 24.3079 10.2811 24.3667 10.2809C24.485 10.2795 24.598 10.2316 24.6813 10.1476L27.648 7.10761C27.7326 7.02179 27.78 6.90612 27.78 6.78561C27.78 6.6651 27.7326 6.54943 27.648 6.46361C27.6069 6.42184 27.558 6.38867 27.5039 6.36603C27.4499 6.34339 27.3919 6.33173 27.3333 6.33173C27.2748 6.33173 27.2168 6.34339 27.1627 6.36603C27.1087 6.38867 27.0597 6.42184 27.0187 6.46361L26.4693 7.02761L24.3667 9.18094L22.98 7.76094C22.9389 7.71875 22.8898 7.68522 22.8355 7.66232C22.7812 7.63942 22.7229 7.62762 22.664 7.62761C22.6053 7.6275 22.5471 7.63925 22.4931 7.66216C22.439 7.68507 22.3901 7.71867 22.3493 7.76094ZM10.9947 12.0009C10.7421 11.9825 10.5058 11.8691 10.3334 11.6836C10.1609 11.4981 10.0651 11.2542 10.0651 11.0009C10.0651 10.7477 10.1609 10.5038 10.3334 10.3183C10.5058 10.1328 10.7421 10.0194 10.9947 10.0009H17.0053C17.2579 10.0194 17.4942 10.1328 17.6666 10.3183C17.8391 10.5038 17.9349 10.7477 17.9349 11.0009C17.9349 11.2542 17.8391 11.4981 17.6666 11.6836C17.4942 11.8691 17.2579 11.9825 17.0053 12.0009H10.9947Z" fill="#66A6F6"/>
</g>
</g>
<defs>
<clipPath id="clip0_5_18555">
<rect width="32" height="32" fill="white"/>
</clipPath>
</defs>
</svg>
