<svg width="24" height="28" viewBox="0 0 24 28" fill="none" xmlns="http://www.w3.org/2000/svg">
<path d="M4 28.0004C2.93913 28.0004 1.92172 27.579 1.17157 26.8288C0.421427 26.0787 0 25.0612 0 24.0004L0 6.00038C0 4.93951 0.421427 3.9221 1.17157 3.17195C1.92172 2.42181 2.93913 2.00038 4 2.00038H14.328L18.8 0.0417133C18.8617 0.0142124 18.9285 0 18.996 0C19.0635 0 19.1303 0.0142124 19.192 0.0417133L23.6907 2.00971C23.7834 2.05044 23.8622 2.11752 23.9172 2.20261C23.9722 2.2877 24.001 2.38707 24 2.48838L23.9693 6.30571C23.9693 6.32171 23.9693 6.33771 23.9693 6.35638C23.8732 7.34 23.5374 8.28506 22.9914 9.10884C22.4454 9.93262 21.7058 10.61 20.8373 11.0817L20 11.5297V24.0004C20 25.0612 19.5786 26.0787 18.8284 26.8288C18.0783 27.579 17.0609 28.0004 16 28.0004H4ZM4 21.0044C3.99964 21.2695 4.10444 21.5239 4.2914 21.7119C4.47836 21.8998 4.73223 22.006 4.99733 22.007H14.9973C15.2499 21.9886 15.4862 21.8752 15.6586 21.6897C15.8311 21.5042 15.9269 21.2603 15.9269 21.007C15.9269 20.7538 15.8311 20.5099 15.6586 20.3244C15.4862 20.1389 15.2499 20.0255 14.9973 20.007H4.99733C4.73315 20.0081 4.48008 20.1135 4.29328 20.3003C4.10647 20.4871 4.00105 20.7402 4 21.0044ZM4 17.0044C3.99964 17.2695 4.10444 17.5239 4.2914 17.7119C4.47836 17.8998 4.73223 18.006 4.99733 18.007H14.9973C15.2499 17.9886 15.4862 17.8752 15.6586 17.6897C15.8311 17.5042 15.9269 17.2603 15.9269 17.007C15.9269 16.7538 15.8311 16.5099 15.6586 16.3244C15.4862 16.1389 15.2499 16.0255 14.9973 16.007H4.99733C4.73292 16.0081 4.47965 16.1137 4.29281 16.3008C4.10596 16.4879 4.0007 16.74 4 17.0044ZM4 13.0044C3.99964 13.2695 4.10444 13.5239 4.2914 13.7119C4.47836 13.8998 4.73223 14.006 4.99733 14.007H12.9973C13.2499 13.9886 13.4862 13.8752 13.6586 13.6897C13.8311 13.5042 13.9269 13.2603 13.9269 13.007C13.9269 12.7538 13.8311 12.5099 13.6586 12.3244C13.4862 12.1389 13.2499 12.0255 12.9973 12.007H4.99733C4.73292 12.0081 4.47965 12.1137 4.29281 12.3008C4.10596 12.4879 4.0007 12.74 4 13.0044ZM15.004 2.82305V5.71771C14.9982 6.62778 15.2396 7.52233 15.7025 8.30593C16.1653 9.08954 16.8322 9.73278 17.632 10.167L19.0013 10.903L20.3707 10.167C21.0883 9.77741 21.6999 9.21852 22.1526 8.53888C22.6052 7.85924 22.8851 7.0794 22.968 6.26705L22.9947 2.81771L18.9947 1.07105L15.004 2.82305ZM4 9.00571C3.99929 9.2707 4.10379 9.52513 4.29053 9.71313C4.47728 9.90113 4.73101 10.0073 4.996 10.0084H11.0053C11.2579 9.98992 11.4942 9.87655 11.6666 9.69105C11.8391 9.50554 11.9349 9.26165 11.9349 9.00838C11.9349 8.75511 11.8391 8.51122 11.6666 8.32571C11.4942 8.14021 11.2579 8.02684 11.0053 8.00838H4.99467C4.73084 8.00979 4.47825 8.1154 4.29194 8.30221C4.10564 8.48901 4.0007 8.74188 4 9.00571ZM17.9533 7.85238L16.1587 6.14438C16.1092 6.09822 16.0698 6.04238 16.0428 5.98034C16.0158 5.91829 16.0019 5.85136 16.0019 5.78371C16.0019 5.71606 16.0158 5.64913 16.0428 5.58709C16.0698 5.52504 16.1092 5.4692 16.1587 5.42305C16.261 5.32686 16.3962 5.27331 16.5367 5.27331C16.6771 5.27331 16.8123 5.32686 16.9147 5.42305L18.3333 6.77105L21.0893 4.15238C21.1918 4.05581 21.3272 4.00202 21.468 4.00202C21.6088 4.00202 21.7442 4.05581 21.8467 4.15238C21.896 4.19864 21.9352 4.25451 21.9621 4.31654C21.9889 4.37858 22.0028 4.44545 22.0028 4.51305C22.0028 4.58064 21.9889 4.64752 21.9621 4.70955C21.9352 4.77158 21.896 4.82745 21.8467 4.87371L18.7133 7.85238C18.6104 7.9474 18.4754 8.00016 18.3353 8.00016C18.1952 8.00016 18.0603 7.9474 17.9573 7.85238H17.9533Z" fill="#226CF2"/>
</svg>
