<svg width="13" height="12" viewBox="0 0 13 12" fill="none" xmlns="http://www.w3.org/2000/svg">
<mask id="mask0_217_5395" style="mask-type:luminance" maskUnits="userSpaceOnUse" x="0" y="0" width="13" height="12">
<path d="M12.5 0H0.5V12H12.5V0Z" fill="white"/>
</mask>
<g mask="url(#mask0_217_5395)">
<path d="M10.0033 7H9.99667C9.34666 6.99888 8.72191 7.25165 8.25554 7.70444C7.78918 8.15723 7.51807 8.77424 7.5 9.424C7.5 9.448 7.5 9.47201 7.5 9.49734V9.504C7.5 10.166 7.76297 10.8008 8.23106 11.2689C8.69915 11.737 9.33402 12 9.996 12H10.0033C10.3311 12.0001 10.6557 11.9356 10.9586 11.8103C11.2614 11.6849 11.5366 11.5011 11.7685 11.2694C12.0003 11.0377 12.1842 10.7626 12.3097 10.4598C12.4353 10.157 12.4999 9.83245 12.5 9.50467V9.498C12.5002 9.17003 12.4357 8.84523 12.3103 8.54216C12.1849 8.2391 12.0011 7.96371 11.7692 7.73173C11.5374 7.49976 11.2621 7.31573 10.9591 7.19018C10.6561 7.06463 10.3313 7 10.0033 7Z" fill="#226CF2"/>
<path d="M10.0053 0H9.99867C9.67092 8.75161e-05 9.3464 0.06474 9.04364 0.190265C8.74088 0.31579 8.46582 0.499728 8.23416 0.731573C8.0025 0.963419 7.81878 1.23863 7.6935 1.54149C7.56822 1.84435 7.50383 2.16892 7.504 2.49667V2.50333C7.50337 2.84041 7.57142 3.17409 7.704 3.484L4.95533 4.94333C4.72199 4.64877 4.42497 4.41088 4.08655 4.2475C3.74814 4.08413 3.37712 3.99951 3.00133 4H2.99467C2.33298 4.00018 1.69845 4.26316 1.23063 4.7311C0.76281 5.19905 0.500001 5.83365 0.500001 6.49533V6.502C0.499651 6.8298 0.563892 7.15447 0.689054 7.45743C0.814216 7.7604 0.997846 8.03574 1.22945 8.26772C1.46106 8.4997 1.7361 8.68377 2.03887 8.80942C2.34164 8.93506 2.6662 8.99983 2.994 9H3.00133C3.39425 9.00018 3.78164 8.90744 4.13189 8.72937C4.48214 8.55129 4.78531 8.29292 5.01667 7.97533L5.02533 7.98133L5.04133 7.98933L5.084 8.01267L5.76267 8.37267C5.86695 8.43275 5.98959 8.45265 6.10752 8.4286C6.22544 8.40456 6.33051 8.33824 6.40295 8.24213C6.47538 8.14601 6.51018 8.02674 6.5008 7.90675C6.49141 7.78677 6.4385 7.67435 6.352 7.59067C6.32575 7.56492 6.29642 7.54253 6.26467 7.524L5.60133 7.15733L5.432 7.064C5.432 7.064 5.432 7.064 5.432 7.06C5.47359 6.87805 5.49439 6.69197 5.494 6.50533V6.49867C5.49402 6.27596 5.46442 6.05424 5.406 5.83933L8.28 4.31333C8.74282 4.75542 9.35864 5.00146 9.99867 5H10.0053C10.667 4.99947 11.3015 4.73629 11.7692 4.26827C12.237 3.80026 12.4998 3.1657 12.5 2.504V2.49733C12.5003 2.16959 12.436 1.845 12.3108 1.5421C12.1856 1.23921 12.0019 0.963952 11.7703 0.732045C11.5387 0.500137 11.2637 0.316126 10.961 0.19052C10.6583 0.0649142 10.3331 0.000175021 10.0053 0Z" fill="#226CF2"/>
</g>
<mask id="mask1_217_5395" style="mask-type:luminance" maskUnits="userSpaceOnUse" x="0" y="0" width="13" height="12">
<path d="M12.5 0H0.5V12H12.5V0Z" fill="white"/>
</mask>
<g mask="url(#mask1_217_5395)">
<path d="M6.29936 8.60079C6.21671 8.60079 6.13536 8.58017 6.0627 8.54078L4.7627 7.84079C4.70487 7.80966 4.65374 7.76745 4.61223 7.71657C4.57072 7.66569 4.53963 7.60712 4.52075 7.54423C4.50187 7.48133 4.49556 7.41533 4.50219 7.35C4.50881 7.28466 4.52824 7.22128 4.55936 7.16345C4.59049 7.10562 4.63269 7.0545 4.68358 7.01298C4.73446 6.97147 4.79302 6.94039 4.85592 6.92151C4.91881 6.90263 4.98481 6.89632 5.05015 6.90294C5.11548 6.90957 5.17887 6.92899 5.2367 6.96012L6.5367 7.66012C6.63462 7.71297 6.71212 7.79699 6.75691 7.89886C6.80171 8.00073 6.81124 8.11462 6.78399 8.22252C6.75675 8.33041 6.6943 8.42614 6.60651 8.49454C6.51873 8.56293 6.41064 8.60075 6.29936 8.60079Z" fill="#226CF2"/>
</g>
</svg>
